<svg width="135" height="40" viewBox="0 0 135 40" fill="none" xmlns="http://www.w3.org/2000/svg">
<path d="M130.197 40H4.729C2.122 40 0 37.872 0 35.267V4.726C0 2.12 2.122 0 4.729 0H130.197C132.803 0 135 2.12 135 4.726V35.267C135 37.872 132.803 40 130.197 40Z" fill="#111111"/>
<path d="M30.128 19.784C30.099 16.561 32.767 14.993 32.889 14.92C31.378 12.717 29.036 12.416 28.213 12.392C26.246 12.185 24.338 13.569 23.336 13.569C22.314 13.569 20.771 12.412 19.108 12.446C16.968 12.479 14.966 13.718 13.868 15.642C11.602 19.565 13.292 25.33 15.463 28.501C16.549 30.054 17.818 31.788 19.479 31.727C21.104 31.66 21.711 30.691 23.672 30.691C25.615 30.691 26.185 31.727 27.879 31.688C29.623 31.66 30.721 30.128 31.769 28.561C33.024 26.781 33.528 25.028 33.548 24.938C33.507 24.924 30.161 23.647 30.128 19.784Z" fill="white"/>
<path d="M26.928 10.306C27.802 9.21304 28.4 7.72604 28.234 6.21704C26.969 6.27304 25.387 7.09204 24.476 8.16104C23.67 9.10304 22.95 10.647 23.136 12.099C24.557 12.205 26.016 11.382 26.928 10.306Z" fill="white"/>
<path fill-rule="evenodd" clip-rule="evenodd" d="M51.374 31.504H53.645L49.34 18.196H46.694L42.41 31.504H44.621L45.806 27.595H50.13L51.374 31.504ZM48.63 22.48L49.755 25.955H46.182L47.287 22.48C47.577 21.375 47.788 20.539 47.919 19.973H47.959C48.288 21.289 48.511 22.125 48.63 22.48Z" fill="white"/>
<path fill-rule="evenodd" clip-rule="evenodd" d="M63.339 30.4569C64.221 29.5099 64.662 28.2199 64.662 26.5879C64.662 25.1269 64.284 23.9489 63.526 23.0529C62.77 22.1579 61.825 21.7109 60.693 21.7109C59.245 21.7109 58.166 22.2829 57.455 23.4289H57.415L57.296 21.9079H55.421C55.473 22.9879 55.5 24.0409 55.5 25.0669V35.4139H57.632V30.3589H57.672C58.225 31.2669 59.133 31.7209 60.397 31.7209C61.568 31.7209 62.549 31.2999 63.339 30.4569ZM61.858 24.3559C62.28 24.9619 62.49 25.7319 62.49 26.6659C62.49 27.6799 62.266 28.4959 61.818 29.1149C61.371 29.7329 60.746 30.0429 59.943 30.0429C59.259 30.0429 58.703 29.8029 58.275 29.3219C57.847 28.8409 57.633 28.2519 57.633 27.5539V25.9539C57.633 25.7839 57.666 25.5679 57.732 25.3039C57.863 24.7379 58.143 24.2809 58.571 23.9309C58.998 23.5839 59.476 23.4079 60.002 23.4079C60.778 23.4079 61.397 23.7239 61.858 24.3559Z" fill="white"/>
<path fill-rule="evenodd" clip-rule="evenodd" d="M74.375 30.4569C75.258 29.5099 75.699 28.2199 75.699 26.5879C75.699 25.1269 75.32 23.9489 74.565 23.0529C73.807 22.1579 72.862 21.7109 71.731 21.7109C70.282 21.7109 69.203 22.2829 68.493 23.4289H68.453L68.334 21.9079H66.459C66.511 22.9879 66.538 24.0409 66.538 25.0669V35.4139H68.67V30.3589H68.71C69.262 31.2669 70.17 31.7209 71.434 31.7209C72.605 31.7209 73.586 31.2999 74.375 30.4569ZM72.894 24.3559C73.316 24.9619 73.527 25.7319 73.527 26.6659C73.527 27.6799 73.303 28.4959 72.855 29.1149C72.408 29.7329 71.783 30.0429 70.98 30.0429C70.294 30.0429 69.738 29.8019 69.31 29.3219C68.884 28.8409 68.67 28.2519 68.67 27.5539V25.9539C68.67 25.7839 68.704 25.5679 68.769 25.3039C68.9 24.7379 69.179 24.2809 69.607 23.9309C70.035 23.5839 70.512 23.4079 71.039 23.4079C71.816 23.4079 72.433 23.7239 72.894 24.3559Z" fill="white"/>
<path d="M88.039 27.772C88.039 28.904 87.646 29.825 86.857 30.536C85.99 31.313 84.783 31.701 83.232 31.701C81.8 31.701 80.652 31.425 79.783 30.872L80.277 29.095C81.213 29.661 82.24 29.945 83.359 29.945C84.162 29.945 84.787 29.763 85.236 29.401C85.683 29.039 85.906 28.553 85.906 27.947C85.906 27.407 85.722 26.952 85.353 26.583C84.986 26.214 84.373 25.871 83.517 25.554C81.187 24.685 80.023 23.412 80.023 21.738C80.023 20.644 80.431 19.747 81.248 19.049C82.062 18.35 83.148 18.001 84.506 18.001C85.717 18.001 86.723 18.212 87.526 18.633L86.993 20.371C86.243 19.963 85.395 19.759 84.446 19.759C83.696 19.759 83.11 19.944 82.69 20.312C82.335 20.641 82.157 21.042 82.157 21.517C82.157 22.043 82.36 22.478 82.768 22.82C83.123 23.136 83.768 23.478 84.704 23.847C85.849 24.308 86.69 24.847 87.231 25.465C87.77 26.081 88.039 26.852 88.039 27.772Z" fill="white"/>
<path d="M95.088 23.5081H92.738V28.1671C92.738 29.3521 93.152 29.9441 93.982 29.9441C94.363 29.9441 94.679 29.9111 94.929 29.8451L94.988 31.4641C94.568 31.6211 94.015 31.7001 93.33 31.7001C92.488 31.7001 91.83 31.4431 91.355 30.9301C90.882 30.4161 90.644 29.5541 90.644 28.3431V23.5061H89.244V21.9061H90.644V20.1491L92.738 19.5171V21.9061H95.088V23.5081Z" fill="white"/>
<path fill-rule="evenodd" clip-rule="evenodd" d="M104.427 30.2599C105.269 29.3129 105.691 28.1019 105.691 26.6269C105.691 25.1919 105.283 24.0209 104.465 23.1139C103.61 22.1789 102.477 21.7119 101.069 21.7119C99.608 21.7119 98.446 22.1859 97.585 23.1339C96.722 24.0809 96.292 25.2989 96.292 26.7859C96.292 28.2069 96.71 29.3859 97.546 30.3199C98.382 31.2539 99.503 31.7209 100.911 31.7209C102.372 31.7209 103.544 31.2349 104.427 30.2599ZM102.907 24.4189C103.29 25.0519 103.479 25.8109 103.479 26.6959C103.479 27.5799 103.281 28.3469 102.888 28.9919C102.427 29.7699 101.788 30.1599 100.974 30.1599C100.143 30.1599 99.499 29.7779 99.038 29.0119C98.655 28.3799 98.466 27.6209 98.466 26.7359C98.466 25.8239 98.655 25.0529 99.038 24.4189C99.485 23.6539 100.136 23.2709 100.993 23.2709C101.821 23.2709 102.46 23.6529 102.907 24.4189Z" fill="white"/>
<path d="M112.621 23.7829C112.41 23.7439 112.185 23.7239 111.949 23.7239C111.199 23.7239 110.619 24.0069 110.211 24.5739C109.856 25.0739 109.678 25.7059 109.678 26.4689V31.5039H107.547L107.567 24.9299C107.567 23.8239 107.54 22.8169 107.487 21.9089H109.344L109.422 23.7449H109.481C109.706 23.1139 110.061 22.6059 110.547 22.2249C111.022 21.8819 111.535 21.7109 112.088 21.7109C112.285 21.7109 112.463 21.7249 112.621 21.7499V23.7829Z" fill="white"/>
<path fill-rule="evenodd" clip-rule="evenodd" d="M122.078 27.2189C122.131 26.9559 122.156 26.6339 122.156 26.2519C122.156 25.0549 121.873 24.0469 121.31 23.2319C120.599 22.2059 119.552 21.6929 118.169 21.6929C116.761 21.6929 115.642 22.2059 114.814 23.2319C114.023 24.1929 113.628 25.3979 113.628 26.8449C113.628 28.3189 114.053 29.4939 114.901 30.3689C115.751 31.2439 116.919 31.6819 118.407 31.6819C119.644 31.6819 120.716 31.4849 121.624 31.0889L121.29 29.6089C120.513 29.9119 119.649 30.0629 118.702 30.0629C117.846 30.0629 117.149 29.8389 116.61 29.3919C116.016 28.8919 115.707 28.1669 115.682 27.2189H122.078ZM119.709 24.0599C119.998 24.5209 120.137 25.0669 120.123 25.6989V25.6979H115.682C115.747 25.0539 115.958 24.5009 116.313 24.0399C116.746 23.4599 117.313 23.1709 118.01 23.1709C118.773 23.1709 119.34 23.4669 119.709 24.0599Z" fill="white"/>
<path fill-rule="evenodd" clip-rule="evenodd" d="M47.992 12.6669C48.697 12.0719 49.05 11.1859 49.05 10.0089C49.05 8.96095 48.723 8.15595 48.071 7.59295C47.489 7.09495 46.626 6.84595 45.481 6.84595C44.833 6.84595 44.233 6.89195 43.676 6.98195V13.4129C44.103 13.4649 44.613 13.4909 45.209 13.4909C46.411 13.4909 47.339 13.2159 47.992 12.6669ZM47.339 8.28195C47.743 8.68995 47.945 9.27495 47.945 10.0379C47.945 10.8919 47.725 11.5419 47.289 11.9879C46.853 12.4339 46.234 12.6569 45.432 12.6569C45.089 12.6569 44.853 12.6479 44.724 12.6279V7.73895C44.957 7.69295 45.238 7.67095 45.568 7.67095C46.345 7.67095 46.935 7.87495 47.339 8.28195Z" fill="white"/>
<path fill-rule="evenodd" clip-rule="evenodd" d="M54.2881 12.8218C54.7021 12.3558 54.9091 11.7618 54.9091 11.0368C54.9091 10.3328 54.7081 9.7568 54.3081 9.3108C53.8871 8.8518 53.3311 8.6228 52.6391 8.6228C51.9211 8.6228 51.3511 8.8558 50.9271 9.3208C50.5031 9.7858 50.2921 10.3848 50.2921 11.1148C50.2921 11.8128 50.4971 12.3918 50.9071 12.8508C51.3181 13.3108 51.8691 13.5398 52.5611 13.5398C53.2791 13.5398 53.8541 13.3008 54.2881 12.8218ZM53.5411 9.9518C53.7281 10.2628 53.8221 10.6358 53.8221 11.0708C53.8221 11.5058 53.7251 11.8818 53.5311 12.1988C53.3051 12.5818 52.9911 12.7728 52.5911 12.7728C52.1831 12.7728 51.8671 12.5848 51.6401 12.2088C51.4531 11.8978 51.3591 11.5248 51.3591 11.0898C51.3591 10.6418 51.4521 10.2628 51.6401 9.9518C51.8601 9.5758 52.1801 9.3878 52.6011 9.3878C53.0081 9.3878 53.3211 9.5758 53.5411 9.9518Z" fill="white"/>
<path d="M62.765 8.71899L61.29 13.433H60.33L59.719 11.386C59.564 10.875 59.438 10.367 59.34 9.86299H59.321C59.23 10.381 59.104 10.888 58.942 11.386L58.293 13.433H57.322L55.935 8.71899H57.012L57.545 10.96C57.674 11.49 57.78 11.995 57.865 12.473H57.884C57.962 12.079 58.091 11.577 58.273 10.97L58.942 8.71999H59.796L60.437 10.922C60.592 11.459 60.718 11.976 60.815 12.474H60.844C60.915 11.989 61.022 11.472 61.164 10.922L61.736 8.71999H62.765V8.71899Z" fill="white"/>
<path d="M68.198 13.4329H67.15V10.7329C67.15 9.90087 66.834 9.48487 66.2 9.48487C65.889 9.48487 65.638 9.59887 65.443 9.82787C65.25 10.0569 65.152 10.3269 65.152 10.6359V13.4319H64.104V10.0659C64.104 9.65187 64.091 9.20287 64.066 8.71687H64.987L65.036 9.45387H65.065C65.187 9.22487 65.369 9.03587 65.608 8.88487C65.892 8.70887 66.21 8.61987 66.558 8.61987C66.998 8.61987 67.364 8.76187 67.655 9.04687C68.017 9.39587 68.198 9.91687 68.198 10.6089V13.4329Z" fill="white"/>
<path d="M71.088 13.4329H70.041V6.55591H71.088V13.4329Z" fill="white"/>
<path fill-rule="evenodd" clip-rule="evenodd" d="M76.6371 12.8218C77.0511 12.3558 77.2581 11.7618 77.2581 11.0368C77.2581 10.3328 77.0571 9.7568 76.6571 9.3108C76.2351 8.8518 75.6801 8.6228 74.9871 8.6228C74.2701 8.6228 73.7001 8.8558 73.2761 9.3208C72.8521 9.7858 72.6411 10.3848 72.6411 11.1148C72.6411 11.8128 72.8461 12.3918 73.2561 12.8508C73.6661 13.3108 74.2171 13.5398 74.9101 13.5398C75.6271 13.5398 76.2031 13.3008 76.6371 12.8218ZM75.8891 9.9518C76.0761 10.2628 76.1701 10.6358 76.1701 11.0708C76.1701 11.5058 76.0741 11.8818 75.8791 12.1988C75.6531 12.5818 75.3401 12.7728 74.9401 12.7728C74.5321 12.7728 74.2161 12.5848 73.9891 12.2088C73.8021 11.8978 73.7081 11.5248 73.7081 11.0898C73.7081 10.6418 73.8011 10.2628 73.9891 9.9518C74.2081 9.5758 74.5281 9.3878 74.9501 9.3878C75.3561 9.3878 75.6701 9.5758 75.8891 9.9518Z" fill="white"/>
<path fill-rule="evenodd" clip-rule="evenodd" d="M81.389 13.4328H82.33C82.285 13.1548 82.262 12.7798 82.262 12.3088V10.5728C82.262 9.2728 81.644 8.6228 80.412 8.6228C79.774 8.6228 79.233 8.7588 78.795 9.0298L79.008 9.7178C79.362 9.4858 79.772 9.3688 80.237 9.3688C80.89 9.3688 81.216 9.6788 81.216 10.2998V10.3878C80.343 10.3808 79.665 10.5298 79.183 10.8338C78.7 11.1378 78.46 11.5768 78.46 12.1528C78.46 12.5338 78.583 12.8548 78.829 13.1128C79.1 13.3968 79.46 13.5398 79.905 13.5398C80.501 13.5398 80.96 13.3228 81.282 12.8898H81.311L81.389 13.4328ZM81.242 11.0858V11.8128C81.242 11.8838 81.236 11.9458 81.225 11.9968C81.18 12.2238 81.059 12.4088 80.862 12.5548C80.666 12.6998 80.451 12.7728 80.221 12.7728C80.016 12.7728 79.844 12.7118 79.709 12.5888C79.574 12.4658 79.508 12.2818 79.508 12.0358C79.508 11.3828 80.086 11.0658 81.242 11.0858Z" fill="white"/>
<path fill-rule="evenodd" clip-rule="evenodd" d="M87.355 13.4329H88.285C88.26 13.0449 88.248 12.6219 88.248 12.1629V6.55591H87.199V9.26191H87.179C86.927 8.83491 86.484 8.62191 85.851 8.62191C85.275 8.62191 84.791 8.84191 84.396 9.28191C83.988 9.75391 83.785 10.3719 83.785 11.1349C83.785 11.8459 83.972 12.4249 84.347 12.8709C84.722 13.3169 85.195 13.5399 85.763 13.5399C86.474 13.5399 86.98 13.2519 87.277 12.6759H87.306L87.355 13.4329ZM87.199 10.6589V11.4449C87.199 11.7809 87.1 12.0689 86.898 12.3079C86.689 12.5669 86.414 12.6959 86.07 12.6959C85.687 12.6959 85.381 12.5409 85.154 12.2309C84.939 11.9399 84.832 11.5619 84.832 11.0959C84.832 10.6109 84.945 10.2139 85.168 9.90291C85.393 9.59191 85.699 9.43691 86.09 9.43691C86.361 9.43691 86.596 9.52291 86.791 9.69391C86.984 9.86491 87.111 10.0769 87.17 10.3289C87.189 10.4129 87.199 10.5229 87.199 10.6589Z" fill="white"/>
<path fill-rule="evenodd" clip-rule="evenodd" d="M96.627 12.8218C97.041 12.3558 97.248 11.7618 97.248 11.0368C97.248 10.3328 97.047 9.7568 96.647 9.3108C96.227 8.8518 95.67 8.6228 94.979 8.6228C94.26 8.6228 93.69 8.8558 93.266 9.3208C92.842 9.7858 92.631 10.3848 92.631 11.1148C92.631 11.8128 92.836 12.3918 93.246 12.8508C93.658 13.3108 94.209 13.5398 94.9 13.5398C95.619 13.5398 96.193 13.3008 96.627 12.8218ZM95.881 9.9518C96.068 10.2628 96.162 10.6358 96.162 11.0708C96.162 11.5058 96.064 11.8818 95.871 12.1988C95.645 12.5818 95.33 12.7728 94.93 12.7728C94.522 12.7728 94.206 12.5848 93.979 12.2088C93.792 11.8978 93.698 11.5248 93.698 11.0898C93.698 10.6418 93.791 10.2628 93.979 9.9518C94.2 9.5758 94.52 9.3878 94.94 9.3878C95.348 9.3878 95.66 9.5758 95.881 9.9518Z" fill="white"/>
<path d="M102.883 13.4329H101.836V10.7329C101.836 9.90087 101.52 9.48487 100.885 9.48487C100.574 9.48487 100.323 9.59887 100.129 9.82787C99.935 10.0569 99.838 10.3269 99.838 10.6359V13.4319H98.789V10.0659C98.789 9.65187 98.777 9.20287 98.752 8.71687H99.672L99.721 9.45387H99.75C99.873 9.22487 100.055 9.03587 100.293 8.88487C100.578 8.70887 100.895 8.61987 101.244 8.61987C101.683 8.61987 102.049 8.76187 102.34 9.04687C102.703 9.39587 102.883 9.91687 102.883 10.6089V13.4329Z" fill="white"/>
<path d="M109.936 9.50392H108.782V11.7939C108.782 12.3759 108.987 12.6669 109.393 12.6669C109.581 12.6669 109.737 12.6509 109.86 12.6179L109.887 13.4129C109.68 13.4909 109.408 13.5299 109.073 13.5299C108.659 13.5299 108.337 13.4039 108.104 13.1519C107.87 12.8999 107.754 12.4759 107.754 11.8809V9.50392H107.065V8.71892H107.754V7.85492L108.781 7.54492V8.71792H109.935V9.50392H109.936Z" fill="white"/>
<path d="M115.484 13.4329H114.435V10.7529C114.435 9.90791 114.119 9.48491 113.486 9.48491C113 9.48491 112.668 9.72991 112.486 10.2199C112.455 10.3229 112.437 10.4489 112.437 10.5969V13.4319H111.39V6.55591H112.437V9.39691H112.457C112.787 8.87991 113.26 8.62191 113.873 8.62191C114.307 8.62191 114.666 8.76391 114.951 9.04891C115.306 9.40391 115.484 9.93191 115.484 10.6299V13.4329Z" fill="white"/>
<path fill-rule="evenodd" clip-rule="evenodd" d="M121.168 11.328C121.193 11.199 121.207 11.041 121.207 10.853C121.207 10.265 121.068 9.77001 120.787 9.37001C120.439 8.86601 119.924 8.61401 119.246 8.61401C118.553 8.61401 118.004 8.86601 117.598 9.37001C117.209 9.84201 117.016 10.434 117.016 11.145C117.016 11.869 117.223 12.446 117.641 12.876C118.057 13.306 118.632 13.521 119.362 13.521C119.971 13.521 120.497 13.424 120.944 13.23L120.78 12.502C120.398 12.651 119.974 12.725 119.509 12.725C119.089 12.725 118.746 12.615 118.48 12.395C118.189 12.149 118.039 11.794 118.025 11.328H121.168ZM120.004 9.77701C120.146 10.003 120.215 10.271 120.207 10.582H118.025C118.059 10.265 118.162 9.99401 118.336 9.76701C118.549 9.48201 118.828 9.34001 119.17 9.34001C119.545 9.34001 119.822 9.48601 120.004 9.77701Z" fill="white"/>
</svg>
