<?xml version="1.0" encoding="UTF-8" standalone="no" ?>
<!DOCTYPE svg PUBLIC "-//W3C//DTD SVG 1.1//EN" "http://www.w3.org/Graphics/SVG/1.1/DTD/svg11.dtd">
<svg xmlns="http://www.w3.org/2000/svg" xmlns:xlink="http://www.w3.org/1999/xlink" version="1.1" width="123.89999999999999" height="81.86642469157395" viewBox="188.05 209.06678765421302 123.89999999999999 81.86642469157395" xml:space="preserve">
<desc>Created with Fabric.js 5.3.0</desc>
<defs>
</defs>
<g transform="matrix(1 0 0 1 250 250)" id="TaLDzJHEagRZsUYi-ZtdU"  >
<path style="stroke: none; stroke-width: 1; stroke-dasharray: none; stroke-linecap: butt; stroke-dashoffset: 0; stroke-linejoin: miter; stroke-miterlimit: 4; fill: rgb(97,93,92); fill-rule: evenodd; opacity: 1;" vector-effect="non-scaling-stroke"  transform=" translate(-61.45, -40.4367876542)" d="M 51.57 57.1 L 51.57 57.1 C 55.4 60.550000000000004 72.44 63.1 76.66 65.45 C 76.90205081932832 65.58598556855367 77.13579708484376 65.73625102495645 77.36 65.9 C 80.26 65.15 82.85 64.30000000000001 84.21 63.07000000000001 C 84.16913445362948 62.268785403799846 84.01424253618974 61.47748973861853 83.75 60.720000000000006 C 80.99039109413816 58.107317018539895 79.36418948025116 54.517467981261746 79.22 50.72 C 76.39 51.02 75.92999999999999 39.800000000000004 79.22 43.60000000000001 L 79.03 42.93000000000001 C 78.62580625899969 42.55133218191195 78.37041800987025 42.040555683653096 78.31 41.49000000000001 L 78.31 34.38 L 89.24000000000001 37.72 C 91.28218536366613 38.16986528146901 93.39781463633389 38.169865281469 95.44000000000001 37.72 L 106.88000000000001 34.42 L 107.07000000000001 41.42 C 107.01992094587165 42.010605629106735 106.83519522505507 42.58188702496538 106.53 43.09 C 106.26617860178649 43.44362852561418 105.92385843261367 43.73117746771935 105.53 43.93000000000001 L 105.53 44.050000000000004 C 108.8 41.52 107.53 52.050000000000004 104.42 51.78 C 104.40537826239367 54.947870110353506 103.19041573443063 57.992423268660886 101.02 60.3 L 100.53999999999999 60.779999999999994 C 100.25594427760227 61.52020643092383 100.11347344782719 62.307188157300466 100.11999999999999 63.099999999999994 L 100.11999999999999 63.099999999999994 C 102.97999999999999 65.67999999999999 115.74999999999999 67.6 118.89999999999999 69.36 C 122.89999999999999 71.58 121.99 76.92 122.89999999999999 80.87 L 0 80.87 C 1.18 75.65 0 68.41 5.31 65.49000000000001 C 11.129999999999999 62.26000000000001 25.849999999999998 61.24000000000001 30.4 57.14000000000001 C 30.342554024491857 56.07257624140345 30.133803035702172 55.018720443158756 29.779999999999998 54.01 C 26.089878103818986 50.51372374361058 23.91775932720468 45.70993048227184 23.729999999999997 40.629999999999995 C 20 41 19.33 26 23.73 31 C 23.57 30.44 23.42 29.92 23.29 29.43 C 22.592253282848546 28.894924776838284 22.1297079514241 28.109673400233994 22 27.24 L 22 17.57 L 37 22.15 C 39.800604431015365 22.759038225075898 42.69939556898463 22.759038225075898 45.49999999999999 22.15 L 61.18 17.619999999999997 L 61.44 27.159999999999997 C 61.36914585419228 27.970794122738674 61.1125135264344 28.754378163492763 60.69 29.449999999999996 C 60.263240195002744 30.006504359001326 59.6976691573898 30.44102844887469 59.05 30.709999999999997 C 58.97 31.019999999999996 58.879999999999995 31.33 58.779999999999994 31.659999999999997 C 63.16 28.29 61.41 42.3 57.31 42 C 57.283719762624145 46.232667630386636 55.662571174536545 50.29982234807777 52.77 53.39 L 52.120000000000005 54.03 C 51.7443929373755 55.01636206777338 51.55781109883262 56.0646127606779 51.57000000000001 57.12 Z M 111.74000000000001 30.35 L 111.74000000000001 37.910000000000004 L 112 37.910000000000004 C 112.18225396744415 37.910000000000004 112.33 38.05774603255584 112.33 38.24 L 112.33 40.53 C 112.33007957549202 40.71393989470813 112.18386033642895 40.86459001980341 112 40.870000000000005 L 111.73 40.870000000000005 L 111.73 41.67 C 112.07800097598717 41.732978510749106 112.33080819821168 42.03634717741853 112.33 42.39 L 112.33 42.39 C 112.33 42.79869071487479 111.99869071487478 43.13 111.59 43.13 L 110.27000000000001 43.13 C 109.86130928512523 43.13 109.53000000000002 42.79869071487479 109.53000000000002 42.39 L 109.53000000000002 42.39 C 109.53003394370845 42.03316936028988 109.78802350594407 41.72865709011013 110.14000000000001 41.67 L 110.14000000000001 40.870000000000005 L 109.87000000000002 40.870000000000005 C 109.77982639345457 40.870000000000005 109.69334606306892 40.83417867427576 109.62958369439659 40.77041630560343 C 109.56582132572426 40.7066539369311 109.53000000000002 40.62017360654545 109.53000000000002 40.53 L 109.53000000000002 38.24 C 109.5354099801966 38.056139663571045 109.68606010529189 37.90992042450798 109.87000000000002 37.910000000000004 L 110.14000000000001 37.910000000000004 L 110.14000000000001 30.85 L 96.22 35.18 C 93.73473637015857 35.79987918762043 91.13526362984143 35.79987918762043 88.65 35.18 L 73.28 30.59 L 71.89 30.169999999999998 C 70.16 29.47 70.59 27.799999999999997 72.2 27.419999999999998 L 89.59 22.229999999999997 C 91.3413860859307 21.681455026424466 93.21861391406931 21.681455026424466 94.97 22.229999999999997 L 112 27.36 C 113.86 27.81 114.22 29.53 112.06 30.24 L 111.7 30.349999999999998 Z M 67.8 11.69 L 67.8 22.41 L 68.17 22.41 C 68.42019643198482 22.409940873023842 68.62456095396539 22.609862688004828 68.63 22.86 L 68.63 26 C 68.62456095396539 26.25013731199517 68.42019643198482 26.450059126976157 68.17 26.45 L 67.8 26.45 L 67.8 27.55 C 68.2850758386751 27.6336273815255 68.63715592402126 28.05782025543652 68.63 28.55 L 68.63 28.55 C 68.63 29.102284749830794 68.18228474983079 29.55 67.63 29.55 L 65.8 29.55 C 65.24771525016921 29.55 64.8 29.102284749830794 64.8 28.55 L 64.8 28.55 C 64.79284407597873 28.05782025543652 65.14492416132488 27.6336273815255 65.63 27.55 L 65.63 26.45 L 65.25999999999999 26.45 C 65.00980356801517 26.450059126976157 64.8054390460346 26.25013731199517 64.8 26 L 64.8 22.86 C 64.8054390460346 22.609862688004828 65.00980356801517 22.409940873023842 65.25999999999999 22.41 L 65.63 22.41 L 65.63 12.41 L 46.53 18.31 C 43.12496118560698 19.15489117885302 39.56503881439302 19.154891178853024 36.16 18.310000000000002 L 15.1 12 L 13.2 11.43 C 10.82 10.43 11.42 8.18 13.629999999999999 7.66 L 37.45 0.57 C 39.84862289801454 -0.1852329220985942 42.42137710198547 -0.18523292209859354 44.82000000000001 0.5700000000000017 L 68.22 7.57 C 70.76 8.18 71.22 10.57 68.3 11.51 L 67.8 11.66 Z" stroke-linecap="round" />
</g>
</svg>