<?xml version="1.0" encoding="UTF-8" standalone="no" ?>
<!DOCTYPE svg PUBLIC "-//W3C//DTD SVG 1.1//EN" "http://www.w3.org/Graphics/SVG/1.1/DTD/svg11.dtd">
<svg xmlns="http://www.w3.org/2000/svg" xmlns:xlink="http://www.w3.org/1999/xlink" version="1.1" width="122.702" height="123.88199999999998" viewBox="188.649 188.05900000000003 122.702 123.88199999999998" xml:space="preserve">
<desc>Created with Fabric.js 5.3.0</desc>
<defs>
</defs>
<g transform="matrix(1 0 0 1 250 250)" id="QZs0_1hKnHgT80Ac7JAq0"  >
<path style="stroke: none; stroke-width: 1; stroke-dasharray: none; stroke-linecap: butt; stroke-dashoffset: 0; stroke-linejoin: miter; stroke-miterlimit: 4; fill: rgb(97,93,92); fill-rule: nonzero; opacity: 1;" vector-effect="non-scaling-stroke"  transform=" translate(0, 0)" d="M -7.234 -61.441 C 7.571999999999999 -61.441 20.976 -55.440000000000005 30.678999999999995 -45.736000000000004 C 40.38199999999999 -36.033 46.382999999999996 -22.629000000000005 46.382999999999996 -7.8230000000000075 C 46.382999999999996 3.0089999999999932 43.169999999999995 13.090999999999994 37.645999999999994 21.522999999999993 L 60.85099999999999 46.81399999999999 L 44.849999999999994 61.440999999999995 L 22.470999999999993 36.81699999999999 C 13.967999999999993 42.486999999999995 3.752999999999993 45.794 -7.234000000000005 45.794 C -22.040000000000006 45.794 -35.444 39.791999999999994 -45.147000000000006 30.089 C -54.85000000000001 20.384999999999998 -60.851000000000006 6.980999999999998 -60.851000000000006 -7.823999999999998 C -60.851000000000006 -22.629999999999995 -54.85000000000001 -36.034 -45.147000000000006 -45.736999999999995 C -35.444 -55.44 -22.039000000000005 -61.440999999999995 -7.234000000000009 -61.440999999999995 z M 26.449 -41.507 C 17.830000000000002 -50.126999999999995 5.921000000000003 -55.458 -7.233999999999998 -55.458 C -20.388999999999996 -55.458 -32.297 -50.126 -40.917 -41.507 C -49.537 -32.887 -54.869 -20.977999999999998 -54.869 -7.823999999999998 C -54.869 5.330000000000002 -49.537 17.239 -40.917 25.858000000000004 C -32.297000000000004 34.479000000000006 -20.389000000000003 39.809000000000005 -7.234000000000002 39.809000000000005 C 5.920999999999998 39.809000000000005 17.83 34.479000000000006 26.448999999999998 25.858000000000004 C 35.068999999999996 17.239000000000004 40.4 5.331000000000003 40.4 -7.823999999999998 C 40.4 -20.979 35.068999999999996 -32.887 26.448999999999998 -41.507 z" stroke-linecap="round" />
</g>
</svg>