<?xml version="1.0" encoding="UTF-8" standalone="no" ?>
<!DOCTYPE svg PUBLIC "-//W3C//DTD SVG 1.1//EN" "http://www.w3.org/Graphics/SVG/1.1/DTD/svg11.dtd">
<svg xmlns="http://www.w3.org/2000/svg" xmlns:xlink="http://www.w3.org/1999/xlink" version="1.1" width="131.36345830928315" height="123.02809007750385" viewBox="184.31827084535843 171.11687451235352 131.36345830928315 123.02809007750385" xml:space="preserve">
<desc>Created with Fabric.js 5.3.0</desc>
<defs>
</defs>
<g transform="matrix(0.2546161295 0 0 0.2546161295 250 232.6309195511)" id="XIga4G6BgLR9pdUsivqpP"  >
<path style="stroke: none; stroke-width: 1; stroke-dasharray: none; stroke-linecap: butt; stroke-dashoffset: 0; stroke-linejoin: miter; stroke-miterlimit: 4; fill: rgb(97,93,92); fill-rule: nonzero; opacity: 1;" vector-effect="non-scaling-stroke"  transform=" translate(-256, -239.6315)" d="M 383.448 28.962 L 383.448 169.51899999999998 C 383.448 177.492 380.191 184.73799999999997 374.948 189.98099999999997 C 369.705 195.22499999999997 362.459 198.48099999999997 354.48499999999996 198.48099999999997 L 266.21899999999994 198.48099999999997 L 266.21899999999994 234.45699999999997 L 444.59299999999996 234.45699999999997 C 452.56699999999995 234.45699999999997 459.813 237.71299999999997 465.056 242.95599999999996 C 470.299 248.19899999999996 473.556 255.44499999999996 473.556 263.419 L 473.556 333.614 C 473.556 339.14099999999996 469.075 343.621 463.548 343.621 C 458.021 343.621 453.541 339.14099999999996 453.541 333.614 L 453.541 263.419 C 453.536731271735 261.04836306682006 452.58854201011707 258.7770269684017 450.906 257.10699999999997 C 449.2357285841414 255.42421263999998 446.9639837363162 254.4760029656741 444.593 254.47199999999998 L 266.219 254.47199999999998 L 266.219 333.686 C 266.219 339.21299999999997 261.739 343.693 256.212 343.693 C 250.685 343.693 246.20399999999998 339.21299999999997 246.20399999999998 333.686 L 246.20399999999998 254.47199999999998 L 67.83 254.47199999999998 C 65.45931861828156 254.47604788056196 63.18790119920444 255.42427109020522 61.518 257.10699999999997 L 61.499 257.087 C 59.822905375760094 258.7679719902681 58.88209513875148 261.04519309911313 58.883 263.419 L 58.883 333.686 C 58.883 339.21299999999997 54.402 343.693 48.875 343.693 C 43.348 343.693 38.868 339.21299999999997 38.868 333.686 L 38.868 263.419 C 38.868 255.47099999999998 42.124 248.24099999999999 47.368 242.99499999999998 L 47.388000000000005 242.97699999999998 L 47.368 242.956 C 52.611000000000004 237.713 59.856 234.457 67.83 234.457 L 246.204 234.457 L 246.204 198.481 L 157.938 198.481 C 149.964 198.481 142.719 195.225 137.476 189.981 C 132.232 184.738 128.976 177.492 128.976 169.519 L 128.976 28.962 C 128.976 20.988 132.232 13.743 137.476 8.498999999999999 C 142.719 3.256 149.964 0 157.938 0 L 354.485 0 C 362.459 0 369.70500000000004 3.256 374.94800000000004 8.499 C 380.19100000000003 13.743 383.44800000000004 20.988 383.44800000000004 28.962000000000003 z M 97.443 367.966 L 97.443 467.403 C 97.443 473.92600000000004 92.104 479.26300000000003 85.584 479.26300000000003 L 11.86 479.26300000000003 C 5.3389999999999995 479.26300000000003 0 473.92300000000006 0 467.403 L 0 367.966 C 0 361.445 5.337 356.106 11.86 356.106 L 85.584 356.106 C 92.10600000000001 356.106 97.443 361.443 97.443 367.966 z M 305.033 367.966 L 305.033 467.403 C 305.033 473.92600000000004 299.694 479.26300000000003 293.173 479.26300000000003 L 219.449 479.26300000000003 C 212.929 479.26300000000003 207.59 473.92300000000006 207.59 467.403 L 207.59 367.966 C 207.59 361.445 212.927 356.106 219.449 356.106 L 293.173 356.106 C 299.696 356.106 305.033 361.443 305.033 367.966 z M 512 367.966 L 512 467.403 C 512 473.92600000000004 506.661 479.26300000000003 500.14 479.26300000000003 L 426.416 479.26300000000003 C 419.896 479.26300000000003 414.557 473.92300000000006 414.557 467.403 L 414.557 367.966 C 414.557 361.445 419.894 356.106 426.416 356.106 L 500.14 356.106 C 506.663 356.106 512 361.443 512 367.966 z M 255.202 178.466 C 255.87357676254737 178.3972175120387 256.5504232374526 178.3972175120387 257.222 178.466 L 354.485 178.466 C 356.85589488676277 178.46155554202636 359.12747719882185 177.5134137089398 360.798 175.83100000000002 C 362.48016848192276 174.16072171358334 363.4282899236967 171.88954807393367 363.433 169.519 L 363.433 28.962 C 363.433 26.511 362.423 24.275 360.798 22.65 C 359.12747719882185 20.967586291060233 356.8558948867628 20.019444457973652 354.485 20.015 L 157.938 20.015 C 155.487 20.015 153.25099999999998 21.025000000000002 151.62599999999998 22.65 C 150.00099999999998 24.275 148.99099999999999 26.511 148.99099999999999 28.962 L 148.99099999999999 169.51899999999998 C 148.9957100763033 171.88954807393364 149.94383151807722 174.1607217135833 151.62599999999998 175.831 C 153.25099999999998 177.456 155.48699999999997 178.46599999999998 157.938 178.46599999999998 L 255.202 178.46599999999998 z" stroke-linecap="round" />
</g>
</svg>