<svg width="135" height="40" viewBox="0 0 135 40" fill="none" xmlns="http://www.w3.org/2000/svg">
<path fill-rule="evenodd" clip-rule="evenodd" d="M0 5C0 2.23858 2.23858 0 5 0H130C132.761 0 135 2.23858 135 5V35C135 37.7614 132.761 40 130 40H5C2.23857 40 0 37.7614 0 35V5Z" fill="#111111"/>
<path fill-rule="evenodd" clip-rule="evenodd" d="M106.734 30.8334H108.605V18.3324H106.734V30.8334ZM123.583 22.8354L121.438 28.2554H121.373L119.149 22.8354H117.133L120.47 30.4104L118.568 34.6244H120.519L125.662 22.8354H123.583ZM112.973 29.4134C112.361 29.4134 111.506 29.1084 111.506 28.3514C111.506 27.3874 112.57 27.0174 113.49 27.0174C114.312 27.0174 114.699 27.1944 115.198 27.4354C115.054 28.5934 114.053 29.4134 112.973 29.4134ZM113.199 22.5624C111.845 22.5624 110.442 23.1574 109.862 24.4764L111.522 25.1674C111.877 24.4764 112.538 24.2504 113.231 24.2504C114.199 24.2504 115.182 24.8294 115.198 25.8594V25.9874C114.859 25.7944 114.134 25.5054 113.247 25.5054C111.458 25.5054 109.636 26.4864 109.636 28.3194C109.636 29.9924 111.103 31.0704 112.748 31.0704C114.005 31.0704 114.699 30.5074 115.134 29.8474H115.198V30.8124H117.005V26.0194C117.005 23.8004 115.343 22.5624 113.199 22.5624ZM101.638 24.3574H98.9785V20.0724H101.638C103.037 20.0724 103.832 21.2274 103.832 22.2144C103.832 23.1834 103.037 24.3574 101.638 24.3574ZM101.59 18.3324H97.1078V30.8334H98.9785V26.0974H101.59C103.663 26.0974 105.701 24.5994 105.701 22.2144C105.701 19.8294 103.663 18.3324 101.59 18.3324ZM77.1479 29.4154C75.8557 29.4154 74.774 28.3364 74.774 26.8544C74.774 25.3564 75.8557 24.2604 77.1479 24.2604C78.4241 24.2604 79.4256 25.3564 79.4256 26.8544C79.4256 28.3364 78.4241 29.4154 77.1479 29.4154ZM79.2963 23.5354H79.2311C78.8111 23.0364 78.004 22.5854 76.9865 22.5854C74.8542 22.5854 72.9003 24.4534 72.9003 26.8544C72.9003 29.2384 74.8542 31.0914 76.9865 31.0914C78.004 31.0914 78.8111 30.6404 79.2311 30.1244H79.2963V30.7374C79.2963 32.3644 78.4241 33.2344 77.0186 33.2344C75.8717 33.2344 75.1609 32.4124 74.8712 31.7194L73.2391 32.3964C73.7073 33.5244 74.9514 34.9094 77.0186 34.9094C79.2151 34.9094 81.0727 33.6204 81.0727 30.4794V22.8424H79.2963V23.5354ZM82.3649 30.8334H84.2386V18.3314H82.3649V30.8334ZM87.0005 26.7094C86.9514 25.0664 88.2757 24.2284 89.2291 24.2284C89.972 24.2284 90.6015 24.5984 90.812 25.1304L87.0005 26.7094ZM92.8141 25.2914C92.4592 24.3414 91.3765 22.5854 89.1639 22.5854C86.9674 22.5854 85.1429 24.3084 85.1429 26.8384C85.1429 29.2224 86.9514 31.0914 89.3745 31.0914C91.3283 31.0914 92.4592 29.8994 92.9273 29.2064L91.4737 28.2394C90.9895 28.9484 90.3268 29.4154 89.3745 29.4154C88.4211 29.4154 87.7424 28.9804 87.3073 28.1274L93.0085 25.7744L92.8141 25.2914ZM47.3925 23.8904V25.6944H51.7213C51.592 26.7094 51.2522 27.4504 50.7359 27.9654C50.1053 28.5944 49.1208 29.2874 47.3925 29.2874C44.7278 29.2874 42.6446 27.1444 42.6446 24.4864C42.6446 21.8274 44.7278 19.6854 47.3925 19.6854C48.8301 19.6854 49.8797 20.2494 50.6547 20.9744L51.9308 19.7014C50.8491 18.6704 49.4116 17.8804 47.3925 17.8804C43.7424 17.8804 40.6737 20.8454 40.6737 24.4864C40.6737 28.1274 43.7424 31.0914 47.3925 31.0914C49.3624 31.0914 50.8491 30.4464 52.0121 29.2384C53.207 28.0464 53.578 26.3714 53.578 25.0174C53.578 24.5984 53.5459 24.2124 53.4817 23.8904H47.3925ZM58.4993 29.4154C57.207 29.4154 56.0923 28.3524 56.0923 26.8384C56.0923 25.3074 57.207 24.2604 58.4993 24.2604C59.7915 24.2604 60.9053 25.3074 60.9053 26.8384C60.9053 28.3524 59.7915 29.4154 58.4993 29.4154ZM58.4993 22.5854C56.1414 22.5854 54.2186 24.3734 54.2186 26.8384C54.2186 29.2874 56.1414 31.0914 58.4993 31.0914C60.8572 31.0914 62.779 29.2874 62.779 26.8384C62.779 24.3734 60.8572 22.5854 58.4993 22.5854ZM67.8356 29.4154C66.5434 29.4154 65.4296 28.3524 65.4296 26.8384C65.4296 25.3074 66.5434 24.2604 67.8356 24.2604C69.1278 24.2604 70.2416 25.3074 70.2416 26.8384C70.2416 28.3524 69.1278 29.4154 67.8356 29.4154ZM67.8356 22.5854C65.4777 22.5854 63.5559 24.3734 63.5559 26.8384C63.5559 29.2874 65.4777 31.0914 67.8356 31.0914C70.1935 31.0914 72.1153 29.2874 72.1153 26.8384C72.1153 24.3734 70.1935 22.5854 67.8356 22.5854Z" fill="white"/>
<path fill-rule="evenodd" clip-rule="evenodd" d="M79.369 7.47168V11.1957L79.3924 12.0654L76.5628 7.47168H75.4518V13.8604H76.4367V9.90353L76.4134 9.03486L79.3802 13.8604H80.3559V7.47168H79.369Z" fill="white"/>
<path fill-rule="evenodd" clip-rule="evenodd" d="M73.5516 10.6662C73.5516 11.3535 73.333 11.9264 72.9021 12.3685C72.4732 12.8095 71.9406 13.0331 71.3186 13.0331C70.6965 13.0331 70.1639 12.8095 69.734 12.3685C69.3041 11.9264 69.0855 11.3535 69.0855 10.6662C69.0855 9.97889 69.3041 9.40597 69.734 8.9639C70.1639 8.52287 70.6965 8.3003 71.3186 8.3003C71.9406 8.3003 72.4732 8.52287 72.9021 8.9639C73.333 9.40597 73.5516 9.97889 73.5516 10.6662ZM71.3186 7.33374C70.4018 7.33374 69.6263 7.65936 69.0103 8.30236C68.3954 8.9433 68.0834 9.73777 68.0834 10.6662C68.0834 11.5946 68.3954 12.3901 69.0103 13.03C69.6252 13.673 70.4018 13.9976 71.3186 13.9976C72.2343 13.9976 73.0119 13.673 73.6268 13.03C74.2427 12.3891 74.5537 11.5936 74.5537 10.6662C74.5537 9.74395 74.2417 8.95051 73.6227 8.30545C73.0037 7.66039 72.2282 7.33374 71.3186 7.33374Z" fill="white"/>
<path fill-rule="evenodd" clip-rule="evenodd" d="M61.329 8.43769H63.0325V13.8599H64.0184V8.43769H65.7219V7.47217H61.329V8.43769Z" fill="white"/>
<path fill-rule="evenodd" clip-rule="evenodd" d="M59.5574 13.86H60.5443V7.47119H59.5574V13.86Z" fill="white"/>
<path fill-rule="evenodd" clip-rule="evenodd" d="M52.3344 8.43769H54.0378V13.8599H55.0247V8.43769H56.7282V7.47217H52.3344V8.43769Z" fill="white"/>
<path fill-rule="evenodd" clip-rule="evenodd" d="M47.9572 13.86H51.7209V12.8944H48.9441V11.1406H51.4485V10.1916H48.9441V8.43775H51.7209V7.47119H47.9572V13.86Z" fill="white"/>
<path fill-rule="evenodd" clip-rule="evenodd" d="M46.9765 10.3471H43.8348V11.2961H46.0383C45.9814 11.7505 45.8239 12.1122 45.5677 12.3729C45.1348 12.8109 44.5859 13.0324 43.9364 13.0324C43.3246 13.0324 42.7879 12.8119 42.3417 12.375C41.8955 11.9391 41.6699 11.3641 41.6699 10.6665C41.6699 9.96786 41.8955 9.39287 42.3417 8.95699C42.7879 8.52111 43.3246 8.29957 43.9364 8.29957C44.6205 8.29957 45.1409 8.52729 45.5281 8.99615L45.6003 9.0827L46.2792 8.39231L46.2203 8.32017C45.9733 8.02238 45.6399 7.78022 45.2283 7.60092C44.8197 7.42369 44.3857 7.33301 43.9364 7.33301C43.0329 7.33301 42.2533 7.65554 41.6211 8.29132C40.9879 8.92711 40.6667 9.7257 40.6667 10.6665C40.6667 11.6063 40.9879 12.4049 41.6211 13.0406C42.2533 13.6754 43.0318 13.9979 43.9364 13.9979C44.8807 13.9979 45.6592 13.6795 46.2487 13.053C46.7711 12.5223 47.0364 11.8041 47.0364 10.9169C47.0364 10.7603 47.0212 10.5964 46.9917 10.4326L46.9765 10.3471Z" fill="white"/>
<path fill-rule="evenodd" clip-rule="evenodd" d="M9.46416 7.39795C9.17243 7.70495 9 8.18295 9 8.80295V30.918C9 31.538 9.17243 32.0149 9.46416 32.323L9.53734 32.395L21.9584 20.007V19.861V19.714L9.53734 7.32495L9.46416 7.39795Z" fill="url(#paint0_linear_1643_4541)"/>
<path fill-rule="evenodd" clip-rule="evenodd" d="M21.9584 19.714V19.861V20.007L26.0977 24.138L26.193 24.085L31.0972 21.304C32.4987 20.511 32.4987 19.211 31.0972 18.417L26.193 15.637L26.0987 15.584L21.9584 19.714Z" fill="url(#paint1_linear_1643_4541)"/>
<path fill-rule="evenodd" clip-rule="evenodd" d="M9.46417 32.3228C9.92533 32.8108 10.6882 32.8708 11.5474 32.3848L26.193 24.0848L21.9584 19.8608L9.46417 32.3228Z" fill="url(#paint2_linear_1643_4541)"/>
<path fill-rule="evenodd" clip-rule="evenodd" d="M9.46417 7.398L21.9584 19.861L26.193 15.636L11.5474 7.336C11.1444 7.108 10.7624 7 10.4236 7C10.0396 7 9.70878 7.139 9.46417 7.398Z" fill="url(#paint3_linear_1643_4541)"/>
<defs>
<linearGradient id="paint0_linear_1643_4541" x1="16.5312" y1="-7.81012" x2="-3.39813" y2="-2.49469" gradientUnits="userSpaceOnUse">
<stop stop-color="#00A1FF"/>
<stop offset="0.2601" stop-color="#00BEFF"/>
<stop offset="0.5122" stop-color="#00D2FF"/>
<stop offset="0.7604" stop-color="#00DFFF"/>
<stop offset="1" stop-color="#00E3FF"/>
</linearGradient>
<linearGradient id="paint1_linear_1643_4541" x1="32.9633" y1="9.62509" x2="8.67115" y2="9.62509" gradientUnits="userSpaceOnUse">
<stop stop-color="#FFE000"/>
<stop offset="0.4087" stop-color="#FFBD00"/>
<stop offset="0.7754" stop-color="#FFA500"/>
<stop offset="1" stop-color="#FF9C00"/>
</linearGradient>
<linearGradient id="paint2_linear_1643_4541" x1="9.04479" y1="13.3138" x2="-6.94404" y2="40.3122" gradientUnits="userSpaceOnUse">
<stop stop-color="#FF3A44"/>
<stop offset="1" stop-color="#C31162"/>
</linearGradient>
<linearGradient id="paint3_linear_1643_4541" x1="-0.310534" y1="4.03754" x2="6.84794" y2="15.9928" gradientUnits="userSpaceOnUse">
<stop stop-color="#32A071"/>
<stop offset="0.0685" stop-color="#2DA771"/>
<stop offset="0.4762" stop-color="#15CF74"/>
<stop offset="0.8009" stop-color="#06E775"/>
<stop offset="1" stop-color="#00F076"/>
</linearGradient>
</defs>
</svg>
