<svg xmlns="http://www.w3.org/2000/svg" xmlns:xlink="http://www.w3.org/1999/xlink" class="hide">
    <path id="core-social-rss" d="M19 0H5a5 5 0 0 0-5 5v14a5 5 0 0 0 5 5h14a5 5 0 0 0 5-5V5a5 5 0 0 0-5-5zM6.168 20C4.971 20 4 19.031 4 17.835s.971-2.165 2.168-2.165a2.166 2.166 0 1 1 0 4.33zm5.18 0c-.041-4.029-3.314-7.298-7.348-7.339V9.454C9.814 9.495 14.518 14.193 14.561 20h-3.213zm5.441 0C16.768 12.937 11.053 7.239 4 7.208V4c8.83.031 15.98 7.179 16 16h-3.211z"/>
    <path id="core-social-vk" d="M21.333 0H2.667A2.666 2.666 0 0 0 0 2.667v18.666A2.666 2.666 0 0 0 2.667 24h18.666A2.666 2.666 0 0 0 24 21.333V2.667A2.666 2.666 0 0 0 21.333 0Zm-1.457 16.912-2.313.032s-.499.097-1.152-.353c-.866-.595-1.682-2.142-2.318-1.94-.645.205-.625 1.597-.625 1.597s.005.245-.143.405c-.16.172-.473.155-.473.155h-1.036s-2.285.19-4.3-1.91c-2.195-2.29-4.133-6.809-4.133-6.809s-.114-.285.008-.43c.137-.162.508-.166.508-.166l2.476-.012s.233.042.401.164a.79.79 0 0 1 .216.292s.4 1.015.93 1.934c1.035 1.79 1.517 2.182 1.867 1.99.512-.28.359-2.53.359-2.53s.01-.818-.257-1.182c-.208-.284-.599-.368-.771-.389-.14-.019.088-.343.385-.49.446-.217 1.234-.23 2.163-.22.724.007.933.051 1.216.12.855.207.564 1.005.564 2.918 0 .613-.11 1.475.33 1.759.191.122.655.018 1.814-1.955.55-.936.963-2.036.963-2.036s.09-.196.23-.28c.144-.087.338-.06.338-.06l2.606-.016s.783-.095.911.261c.133.372-.292 1.24-1.357 2.66-1.748 2.334-1.943 2.116-.491 3.466 1.387 1.289 1.673 1.916 1.721 1.994.574.955-.637 1.031-.637 1.031Z" fill-rule="nonzero"/>
    <path id="core-social-instagram" d="M6.667 0A6.667 6.667 0 0 0 0 6.667v10.666A6.667 6.667 0 0 0 6.667 24h10.666A6.667 6.667 0 0 0 24 17.333V6.667A6.667 6.667 0 0 0 17.333 0H6.667ZM20 2.667a1.334 1.334 0 1 1-.001 2.667A1.334 1.334 0 0 1 20 2.667Zm-8 2.666a6.667 6.667 0 1 1-.001 13.335A6.667 6.667 0 0 1 12 5.333ZM12 8a4 4 0 1 0 0 8 4 4 0 0 0 0-8Z" fill-rule="nonzero"/>
    <path id="core-social-twitterx" d="m9.404 6.65 7.508 10.7h-1.996L7.421 6.65h1.983ZM24 24H0V0h24v24Zm-4.616-5.333-5.581-7.987 4.562-5.347h-1.748l-3.605 4.214-2.943-4.214H4.936l5.255 7.511-4.983 5.823h1.777l4.002-4.688 3.277 4.688h5.12Z" fill-rule="nonzero" />
    <path id="core-social-facebook" d="M18.667 0H5.333A5.334 5.334 0 0 0 0 5.333v13.334A5.334 5.334 0 0 0 5.333 24h7.495v-9.281H9.704v-3.634h3.124V8.412c0-3.099 1.895-4.788 4.66-4.788a26.69 26.69 0 0 1 2.79.14v3.24h-1.905c-1.506 0-1.8.712-1.8 1.763v2.313h3.6l-.468 3.633h-3.153V24h2.115A5.334 5.334 0 0 0 24 18.667V5.333A5.334 5.334 0 0 0 18.667 0Z" fill-rule="nonzero"/>
    <path id="core-social-telegram" d="M12 0C5.373 0 0 5.373 0 12s5.373 12 12 12 12-5.373 12-12A11.999 11.999 0 0 0 12 0Zm3.786 18.455a.842.842 0 0 1-.489.496.777.777 0 0 1-.674-.063l-3.15-2.596-2.02 1.978a.331.331 0 0 1-.331.048l.387-3.678.012.01.008-.072s5.668-5.473 5.899-5.706c.234-.233.157-.283.157-.283.013-.284-.42 0-.42 0l-7.51 5.124-3.127-1.13s-.48-.182-.525-.584c-.048-.399.541-.615.541-.615l12.434-5.24S18 5.663 18 6.462l-2.214 11.994Z" fill-rule="nonzero"/>
    <path id="core-social-whatsapp" d="M20.492 3.514c-2.498-2.5-5.906-3.761-9.484-3.473C6.197.427 1.98 3.773.568 8.388c-1.007 3.298-.584 6.74 1.058 9.584L.071 23.136a.661.661 0 0 0 .804.83l5.405-1.45a11.977 11.977 0 0 0 5.727 1.46h.005c5.034 0 9.685-3.08 11.294-7.85 1.568-4.65.408-9.387-2.814-12.612Zm-2.614 12.75c-.25.7-1.473 1.375-2.022 1.424-.55.05-1.065.248-3.594-.749-3.045-1.2-4.967-4.321-5.116-4.52-.15-.2-1.223-1.624-1.223-3.097 0-1.474.774-2.199 1.049-2.498a1.1 1.1 0 0 1 .8-.374c.198 0 .399 0 .573.007.213.009.45.02.674.517.267.593.849 2.074.923 2.224.074.15.125.325.025.524-.1.2-.15.324-.299.5-.15.175-.314.39-.448.524-.15.149-.306.312-.132.61.175.3.775 1.281 1.665 2.074 1.145 1.02 2.109 1.336 2.409 1.487.3.15.474.125.649-.075.175-.2.749-.874.948-1.174.199-.3.4-.25.674-.15.275.1 1.747.824 2.046.974.3.15.5.225.574.35.074.123.074.723-.175 1.423Z" fill-rule="nonzero"/>
</svg>
