<svg xmlns="http://www.w3.org/2000/svg" viewBox="0 0 12 19" class="hide d-none">
  <path id="icon-horizontal-arrow-tight" d="M10 9.057c0 .024-.006.047-.008.07s-.008.055-.014.082-.012.045-.018.068-.02.056-.031.083c0 .008 0 .015-.008.023s-.013.027-.021.041-.022.051-.036.076-.028.045-.042.067a.943.943 0 0 1-.1.127c-.02.021-.022.022-.028.033l-7.907 7.957a1.047 1.047 0 0 1-1.488 0 1.061 1.061 0 0 1-.01-1.484l6.434-6.473c.011-.011.018-.023.029-.033s.039-.043.057-.066.029-.04.043-.061l.041-.067.038-.076c.013-.023.014-.027.02-.041s0-.016.008-.023c.01-.027.019-.055.027-.083S7 9.233 7 9.21s.01-.055.014-.082l.009-.07c.003-.023 0-.057 0-.085v-.068c0-.023-.002-.058-.007-.088s-.006-.043-.011-.065a.85.85 0 0 0-.023-.085L6.961 8.6l-.009-.029c-.003-.009-.018-.031-.026-.047s-.02-.043-.032-.064-.03-.05-.046-.073-.025-.038-.039-.056-.039-.046-.059-.069l-.027-.032L.292 1.76A1.062 1.062 0 0 1 .3.275a1.046 1.046 0 0 1 1.488 0L9.693 8.23l.028.032c.01.011.04.045.059.069s.026.037.039.056.032.048.045.073l.036.064c.013.024.018.032.025.05s.006.02.009.029l.021.065a.867.867 0 0 1 .023.085l.009.064c.003.017.013.058.013.083v.157Z"/>
</svg>
