<?xml version="1.0" encoding="UTF-8" standalone="no"?>
<svg
   data-name="Layer 1"
   width="833.47852"
   height="173.1492"
   viewBox="0 0 833.47853 173.1492"
   version="1.1"
   id="svg182"
   sodipodi:docname="re_923lmr.svg"
   xml:space="preserve"
   inkscape:version="1.2.2 (b0a8486, 2022-12-01)"
   inkscape:export-filename="re_923lmr.svg"
   inkscape:export-xdpi="96"
   inkscape:export-ydpi="96"
   xmlns:inkscape="http://www.inkscape.org/namespaces/inkscape"
   xmlns:sodipodi="http://sodipodi.sourceforge.net/DTD/sodipodi-0.dtd"
   xmlns="http://www.w3.org/2000/svg"
   xmlns:svg="http://www.w3.org/2000/svg"><defs
     id="defs186" /><sodipodi:namedview
     id="namedview184"
     pagecolor="#ffffff"
     bordercolor="#000000"
     borderopacity="0.25"
     inkscape:showpageshadow="2"
     inkscape:pageopacity="0.0"
     inkscape:pagecheckerboard="0"
     inkscape:deskcolor="#d1d1d1"
     showgrid="false"
     inkscape:zoom="0.75298374"
     inkscape:cx="360.56556"
     inkscape:cy="304.12343"
     inkscape:window-width="1386"
     inkscape:window-height="712"
     inkscape:window-x="0"
     inkscape:window-y="25"
     inkscape:window-maximized="0"
     inkscape:current-layer="g6747" /><g
     id="f59d61bb-6173-4011-886f-cab752b15cf5"
     data-name="Group 14"
     transform="matrix(-0.42217974,0,0,0.38943803,352.94416,2.7850442)"
     inkscape:export-filename="path832.svg"
     inkscape:export-xdpi="96"
     inkscape:export-ydpi="96"><path
       id="ea601028-2261-4201-a5c6-6d1fee0209f8-3358"
       data-name="Path 284"
       d="m 994.40227,465.87775 a 10.13794,10.13794 0 0 1 -2.678,-15.312 l -10.57,-77.264 22.01903,1.081 3.457,75.363 a 10.192,10.192 0 0 1 -12.22803,16.132 z"
       transform="translate(-181.99777,-231.26924)"
       fill="#a0616a" /><path
       id="bab8e504-63c3-4a02-b094-c521f4d0da0a-3359"
       data-name="Path 285"
       d="m 1006.1953,375.40676 a 4.138,4.138 0 0 1 -1.681,1.189 l -19.78803,7.552 a 4.157,4.157 0 0 1 -5.281,-2.194 l -17.529,-39.393 a 16.46,16.46 0 0 1 -0.805,-11.649 16.0099,16.0099 0 0 1 12.185,-10.924 15.26906,15.26906 0 0 1 6.578,0.093 15.947,15.947 0 0 1 11.461,9.963 l 15.58503,41.2 a 4.16588,4.16588 0 0 1 -0.725,4.163 z"
       transform="translate(-181.99777,-231.26924)"
       fill="#cccccc" /><path
       id="e3cfda6a-f51e-4c96-8af0-12d99ec512c5-3360"
       data-name="Path 286"
       d="m 903.07927,654.46178 h -13.691 l -4.966,-53.057 18.657,0.25 z"
       transform="translate(-181.99777,-231.26924)"
       fill="#a0616a" /><path
       id="a90fb924-173c-4f4a-b9ae-ede5dff37993-3361"
       data-name="Path 287"
       d="m 879.60925,650.55077 h 26.4 v 16.625 h -43.028 a 16.625,16.625 0 0 1 16.625,-16.625 z"
       transform="translate(-181.99777,-231.26924)"
       fill="#2f2e41" /><path
       id="f7d48866-455f-47a0-876b-9c2c9b7d2f2d-3362"
       data-name="Path 288"
       d="m 966.73323,654.46278 h -13.691 l -6.513,-52.808 h 20.206 z"
       transform="translate(-181.99777,-231.26924)"
       fill="#a0616a" /><path
       id="ae80d259-143f-4a2f-8815-2d5111ab51c8-3363"
       data-name="Path 289"
       d="m 943.26326,650.55077 h 26.4 v 16.625 h -43.028 a 16.625,16.625 0 0 1 16.625,-16.625 z"
       transform="translate(-181.99777,-231.26924)"
       fill="#2f2e41" /><path
       id="b7aaac11-5418-4b5b-a747-2fb27f89cd88-3364"
       data-name="Path 290"
       d="m 968.45525,635.67377 -21.5,-1.592 a 5.032,5.032 0 0 1 -4.655,-4.768 l -4.794,-99.088 a 3.909,3.909 0 0 0 -7.733,-0.6 l -20,97.611 a 5.03194,5.03194 0 0 1 -5.324,4 l -19.438,-1.555 a 5.02495,5.02495 0 0 1 -4.60883,-5.40924 q 0.004,-0.0494 0.009,-0.0988 l 18.033,-180.326 a 5.025,5.025 0 0 1 6.068,-4.41 l 68.574,14.907 a 5.038,5.038 0 0 1 3.957,5 l -3.193,171.41192 a 5.028,5.028 0 0 1 -5.013,4.932 c -0.12702,-9.4e-4 -0.25403,-0.006 -0.38202,-0.0149 z"
       transform="translate(-181.99777,-231.26924)"
       fill="#2f2e41" /><circle
       id="eccc2a78-7d3a-4be1-aa48-fb8bb5d1e30a"
       data-name="Ellipse 40"
       cx="767.64545"
       cy="34.377529"
       r="27.427999"
       fill="#a0616a" /><path
       id="a0a57a86-6e42-4b50-b3a1-f8a38df428dd-3365"
       data-name="Path 291"
       d="m 907.08727,457.75575 a 24.525,24.525 0 0 1 -8.145,-18.835 c 0,-39.422 34.123,-127.5 35.192,-130.243 0.1,-0.662 1,-0.948 5.728,-4.139 4.728,-3.191 11.542,-3.684 20.257,-1.458 a 5,5 0 0 1 3.629,3.706 l 1.621,2.342 a 3.9,3.9 0 0 0 2.27,2.687 c 7.028,2.961 29.368,16.615 21.755,68 -7.071,47.733 -9.941,75.8 -10.846,85.659 a 5.015,5.015 0 0 1 -4.547,4.54 c -3.446,0.308 -9.36,0.719 -16.4,0.719 -16.33499,-0.005 -38.73202,-2.20499 -50.514,-12.978 z"
       transform="translate(-181.99777,-231.26924)"
       fill="#cccccc" /><path
       id="e2026d9f-0f48-4627-b939-bcbd235b248e-3366"
       data-name="Path 292"
       d="m 874.31224,443.15074 a 10.13694,10.13694 0 0 1 6.309,-14.207 l 34.276,-70.047 17.682,13.167 -39.122,64.505 a 10.192,10.192 0 0 1 -19.143,6.582 z"
       transform="translate(-181.99777,-231.26924)"
       fill="#a0616a" /><path
       id="aa5178ad-b05d-4950-85b1-a624717fe499-3367"
       data-name="Path 293"
       d="m 934.51427,374.60176 a 4.13711,4.13711 0 0 1 -2.058,0.051 l -20.64,-4.755 a 4.157,4.157 0 0 1 -3.163,-4.764 l 7.4,-42.478 a 16.46109,16.46109 0 0 1 5.822,-10.122 16.01107,16.01107 0 0 1 16.205,-2.281 15.269,15.269 0 0 1 5.41,3.742 15.947,15.947 0 0 1 3.965,14.659 l -10.01709,42.892 a 4.16594,4.16594 0 0 1 -2.924,3.056 z"
       transform="translate(-181.99777,-231.26924)"
       fill="#cccccc" /><path
       id="f1455aca-238f-491a-b535-1c1a045e39f4-3368"
       data-name="Path 294"
       d="m 943.22124,290.42876 a 11.82,11.82 0 0 1 -3.171,-10.482 c 0.956,-5 1.518,-8.275 1.625,-9.466 v 0 c 0.364,-4.073 -3.754,-7.371 -7.828,-7.9 -0.158,-0.021 -0.29,-0.034 -0.4,-0.043 0.1,0.1 0.215,0.206 0.313,0.3 0.774,0.727 1.737,1.632 1.508,2.566 -0.138,0.562 -0.652,0.961 -1.571,1.218 -6.372,1.783 -11.28,0.146 -15.445,-5.155 a 12.31284,12.31284 0 0 1 -2.351,-5.135 c -1.492,-7.32 2.483,-13.56 6.081,-17.505 2.967,-3.253 7.776,-7.2 13.841,-7.54 4.716,-0.263 10.325,2.451 12,7.342 a 9.112,9.112 0 0 1 7.1,-4 16.374,16.374 0 0 1 9.111,2.534 c 13.3,7.618 19.015,25.766 12.481,39.63 -4.11,8.721 -13.015,15.213 -23.239,16.943 a 11.61316,11.61316 0 0 1 -1.937,0.164 11.29988,11.29988 0 0 1 -8.125,-3.467 z"
       transform="translate(-181.99777,-231.26924)"
       fill="#2f2e41" /></g><path
     id="f152a38b-6c6f-456c-96ce-4c801960ccf2-3369"
     data-name="Path 336"
     d="m 233.10616,59.325794 a 4.8043462,4.2236733 0 0 0 -4.39348,-2.58424 h -87.69582 a 4.7563403,4.1814696 0 0 0 -4.75381,4.17924 v 97.534286 a 4.7563403,4.1814696 0 0 0 4.75381,4.17924 h 87.69898 a 4.7601332,4.1848041 0 0 0 4.75381,-4.17924 V 60.920794 a 4.6687804,4.1044925 0 0 0 -0.36033,-1.595 z m -0.69537,99.129286 a 3.7025366,3.2550329 0 0 1 -3.69811,3.25114 h -87.69582 a 3.6987437,3.2516984 0 0 1 -3.69811,-3.25059 V 60.921354 a 3.7031688,3.2555887 0 0 1 3.69811,-3.25114 h 87.69898 a 3.716482,3.2672928 0 0 1 3.4326,2.04516 4.1003332,3.6047502 0 0 1 0.13908,0.3668 3.6668261,3.2236385 0 0 1 0.12643,0.83918 z"
     fill="#3f3d56"
     style="stroke-width:0.592724" /><path
     id="fabca9b7-6499-499c-b0ba-e512eedfa0e6-3370-0"
     data-name="Path 337"
     d="m 209.31131,88.932974 h -35.20186 a 2.8162618,1.85788 0 1 1 0,-3.71576 h 35.20186 a 2.8162618,1.85788 0 1 1 0,3.71576 z"
     fill="#3f3d56"
     style="stroke-width:0.684239" /><path
     id="b1b2178d-f6c7-4a19-857a-cc93cc70df69-3371-2"
     data-name="Path 338"
     d="m 209.31131,98.686404 h -35.20186 a 2.8162545,1.8578752 0 1 1 0,-3.71575 h 35.20186 a 2.8162545,1.8578752 0 1 1 0,3.71575 z"
     fill="#3f3d56"
     style="stroke-width:0.684239" /><path
     id="ad20b6ae-6256-4ad3-9ba5-bff6ef303c78-3373"
     data-name="Path 340"
     d="m 210.99204,109.49399 h -38.8448 a 1.3750919,1.8578752 0 0 1 0,-3.71575 h 38.8448 a 1.3750919,1.8578752 0 1 1 0,3.71575 z"
     fill="#cccccc"
     style="stroke-width:0.478122" /><path
     id="f5b31b5a-d389-4394-a0c3-430493f21651-3374"
     data-name="Path 341"
     d="m 210.99204,119.24741 h -38.8448 a 1.3750919,1.8578752 0 0 1 0,-3.71574 h 38.8448 a 1.3750919,1.8578752 0 1 1 0,3.71574 z"
     fill="#cccccc"
     style="stroke-width:0.478122" /><path
     id="e6b00d4f-f233-434b-82e7-f520ed55a592-3375"
     data-name="Path 342"
     d="m 210.99204,129.00083 h -38.8448 a 1.3750919,1.8578752 0 0 1 0,-3.71575 h 38.8448 a 1.3750919,1.8578752 0 1 1 0,3.71575 z"
     fill="#cccccc"
     style="stroke-width:0.478122" /><path
     id="f83e6214-6629-4e95-ad35-3c9b0c78a3d6-3376"
     data-name="Path 343"
     d="m 210.99204,138.75427 h -38.8448 a 1.3750919,1.8578752 0 0 1 0,-3.71575 h 38.8448 a 1.3750919,1.8578752 0 1 1 0,3.71575 z"
     fill="#cccccc"
     style="stroke-width:0.478122" /><path
     id="a38c097c-1c01-4356-80b1-56a89c2c58fa-3378"
     data-name="Path 349"
     d="M 82.747232,173.1492 H 0.42218189 a 0.42218187,0.38944 0 0 1 0,-0.77888 H 82.747232 a 0.42218187,0.38944 0 0 1 0,0.77888 z"
     fill="#3f3d56"
     style="stroke-width:0.405478" /><path
     id="b01c4841-6b77-41d3-9bc6-bba4643c130f-3402"
     data-name="Path 420"
     d="m 122.697,162.96741 h 123.27039 a 0.63215774,0.55575257 0 0 0 0,-1.1115 H 122.697 a 0.63215774,0.55575257 0 0 0 0,1.1115 z"
     fill="#3f3d56"
     style="stroke-width:0.592724" /><path
     id="f152a38b-6c6f-456c-96ce-4c801960ccf2-3369-3"
     data-name="Path 336"
     d="m 529.05302,61.957074 a 4.8043462,4.2236733 0 0 0 -4.39348,-2.58424 h -87.69582 a 4.7563403,4.1814696 0 0 0 -4.75381,4.17925 v 97.534276 a 4.7563403,4.1814696 0 0 0 4.75381,4.17924 h 87.69898 a 4.7601332,4.1848041 0 0 0 4.75381,-4.17924 V 63.552084 a 4.6687804,4.1044925 0 0 0 -0.36033,-1.59501 z m -0.69537,99.129286 a 3.7025366,3.2550329 0 0 1 -3.69811,3.25114 h -87.69582 a 3.6987437,3.2516984 0 0 1 -3.69811,-3.25059 V 63.552634 a 3.7031688,3.2555887 0 0 1 3.69811,-3.25114 h 87.69898 a 3.716482,3.2672928 0 0 1 3.4326,2.04516 4.1003332,3.6047502 0 0 1 0.13908,0.3668 3.6668261,3.2236385 0 0 1 0.12643,0.83918 z"
     fill="#3f3d56"
     style="stroke-width:0.592724" /><path
     id="fabca9b7-6499-499c-b0ba-e512eedfa0e6-3370-9"
     data-name="Path 337"
     d="m 510.7521,82.400374 h -26.41523 a 2.1133001,1.857878 0 1 1 0,-3.71575 h 26.41523 a 2.1133001,1.857878 0 1 1 0,3.71575 z"
     fill="#3f3d56"
     style="stroke-width:0.592724" /><path
     id="b1b2178d-f6c7-4a19-857a-cc93cc70df69-3371-9"
     data-name="Path 338"
     d="m 510.7521,92.153814 h -26.41523 a 2.1132969,1.8578752 0 1 1 0,-3.71575 h 26.41523 a 2.1132969,1.8578752 0 1 1 0,3.71575 z"
     fill="#3f3d56"
     style="stroke-width:0.592724" /><path
     id="fabca9b7-6499-499c-b0ba-e512eedfa0e6-3370-0-7"
     data-name="Path 337"
     d="M 476.78033,82.302224 H 450.3651 a 2.1133024,1.85788 0 1 1 0,-3.71576 h 26.41523 a 2.1133024,1.85788 0 1 1 0,3.71576 z"
     fill="#3f3d56"
     style="stroke-width:0.592724" /><path
     id="b1b2178d-f6c7-4a19-857a-cc93cc70df69-3371-2-0"
     data-name="Path 338"
     d="M 476.78033,92.055654 H 450.3651 a 2.1132969,1.8578752 0 1 1 0,-3.71575 h 26.41523 a 2.1132969,1.8578752 0 1 1 0,3.71575 z"
     fill="#3f3d56"
     style="stroke-width:0.592724" /><path
     id="ad20b6ae-6256-4ad3-9ba5-bff6ef303c78-3373-3"
     data-name="Path 340"
     d="m 477.24376,112.12527 h -27.51141 a 0.97389351,1.8578752 0 0 1 0,-3.71575 h 27.51141 a 0.97389351,1.8578752 0 1 1 0,3.71575 z"
     fill="#cccccc"
     style="stroke-width:0.402372" /><path
     id="f5b31b5a-d389-4394-a0c3-430493f21651-3374-9"
     data-name="Path 341"
     d="m 477.24376,121.8787 h -27.51141 a 0.97389351,1.8578752 0 0 1 0,-3.71575 h 27.51141 a 0.97389351,1.8578752 0 1 1 0,3.71575 z"
     fill="#cccccc"
     style="stroke-width:0.402372" /><path
     id="e6b00d4f-f233-434b-82e7-f520ed55a592-3375-8"
     data-name="Path 342"
     d="m 508.93555,131.63211 h -58.1208 a 2.0574547,1.8578752 0 0 1 0,-3.71575 h 58.1208 a 2.0574547,1.8578752 0 1 1 0,3.71575 z"
     fill="#cccccc"
     style="stroke-width:0.58484" /><path
     id="f83e6214-6629-4e95-ad35-3c9b0c78a3d6-3376-6"
     data-name="Path 343"
     d="m 508.93555,141.38555 h -58.1208 a 2.0574547,1.8578752 0 0 1 0,-3.71574 h 58.1208 a 2.0574547,1.8578752 0 1 1 0,3.71574 z"
     fill="#cccccc"
     style="stroke-width:0.58484" /><path
     id="b83f14e7-a754-4235-a578-aebf681d4a1c-3377-5"
     data-name="Path 344"
     d="m 477.24376,151.13898 h -27.51141 a 0.97389351,1.8578752 0 0 1 0,-3.71575 h 27.51141 a 0.97389351,1.8578752 0 1 1 0,3.71575 z"
     fill="#cccccc"
     style="stroke-width:0.402372" /><path
     id="b01c4841-6b77-41d3-9bc6-bba4643c130f-3402-7"
     data-name="Path 420"
     d="m 418.64386,165.59869 h 123.27038 a 0.63215774,0.55575257 0 0 0 0,-1.1115 H 418.64386 a 0.63215774,0.55575257 0 0 0 0,1.1115 z"
     fill="#3f3d56"
     style="stroke-width:0.592724" /><path
     id="f152a38b-6c6f-456c-96ce-4c801960ccf2-3369-6"
     data-name="Path 336"
     d="m 819.98704,61.957074 a 4.8043462,4.2236733 0 0 0 -4.39348,-2.58424 h -87.69582 a 4.7563403,4.1814696 0 0 0 -4.75381,4.17925 v 97.534276 a 4.7563403,4.1814696 0 0 0 4.75381,4.17924 h 87.69898 a 4.7601332,4.1848041 0 0 0 4.75382,-4.17924 V 63.552084 a 4.6687804,4.1044925 0 0 0 -0.36034,-1.59501 z m -0.69537,99.129286 a 3.7025366,3.2550329 0 0 1 -3.69811,3.25114 h -87.69582 a 3.6987437,3.2516984 0 0 1 -3.69811,-3.25059 V 63.552634 a 3.7031688,3.2555887 0 0 1 3.69811,-3.25114 h 87.69898 a 3.716482,3.2672928 0 0 1 3.4326,2.04516 4.1003332,3.6047502 0 0 1 0.13908,0.3668 3.6668261,3.2236385 0 0 1 0.12643,0.83918 z"
     fill="#3f3d56"
     style="stroke-width:0.592724" /><path
     id="fabca9b7-6499-499c-b0ba-e512eedfa0e6-3370-2"
     data-name="Path 337"
     d="m 796.53643,105.55544 h -26.41522 a 2.1133001,1.857878 0 1 1 0,-3.71575 h 26.41522 a 2.1133001,1.857878 0 1 1 0,3.71575 z"
     fill="#3f3d56"
     style="stroke-width:0.592724" /><path
     id="b1b2178d-f6c7-4a19-857a-cc93cc70df69-3371-7"
     data-name="Path 338"
     d="m 796.53643,115.30888 h -26.41522 a 2.1132969,1.8578752 0 1 1 0,-3.71575 h 26.41522 a 2.1132969,1.8578752 0 1 1 0,3.71575 z"
     fill="#3f3d56"
     style="stroke-width:0.592724" /><path
     id="fabca9b7-6499-499c-b0ba-e512eedfa0e6-3370-0-0"
     data-name="Path 337"
     d="m 767.71435,82.302224 h -26.41522 a 2.1133024,1.85788 0 1 1 0,-3.71576 h 26.41522 a 2.1133024,1.85788 0 1 1 0,3.71576 z"
     fill="#3f3d56"
     style="stroke-width:0.592724" /><path
     id="b1b2178d-f6c7-4a19-857a-cc93cc70df69-3371-2-3"
     data-name="Path 338"
     d="m 767.71435,92.055654 h -26.41522 a 2.1132969,1.8578752 0 1 1 0,-3.71575 h 26.41522 a 2.1132969,1.8578752 0 1 1 0,3.71575 z"
     fill="#3f3d56"
     style="stroke-width:0.592724" /><path
     id="f83e6214-6629-4e95-ad35-3c9b0c78a3d6-3376-7"
     data-name="Path 343"
     d="m 801.50282,141.38555 h -59.69827 a 2.1132969,1.8578752 0 0 1 0,-3.71574 h 59.69827 a 2.1132969,1.8578752 0 1 1 0,3.71574 z"
     fill="#cccccc"
     style="stroke-width:0.592724" /><path
     id="b83f14e7-a754-4235-a578-aebf681d4a1c-3377-2"
     data-name="Path 344"
     d="m 801.50282,151.13898 h -59.69827 a 2.1132969,1.8578752 0 0 1 0,-3.71575 h 59.69827 a 2.1132969,1.8578752 0 1 1 0,3.71575 z"
     fill="#cccccc"
     style="stroke-width:0.592724" /><path
     id="b01c4841-6b77-41d3-9bc6-bba4643c130f-3402-3"
     data-name="Path 420"
     d="m 709.57788,165.59869 h 123.27039 a 0.63215774,0.55575257 0 0 0 0,-1.1115 H 709.57788 a 0.63215774,0.55575257 0 0 0 0,1.1115 z"
     fill="#3f3d56"
     style="stroke-width:0.592724" /><text
     xml:space="preserve"
     style="font-style:normal;font-variant:normal;font-weight:normal;font-stretch:normal;font-size:9.76694px;font-family:sans-serif;-inkscape-font-specification:sans-serif;fill:#ff0000;stroke-width:0.813912"
     x="131.92934"
     y="7.921329"
     id="text899"
     transform="scale(1.054514,0.94830414)"><tspan
       sodipodi:role="line"
       id="tspan897"
       x="131.92934"
       y="7.921329"
       style="stroke-width:0.813912">√</tspan></text><g
     id="g6747"
     transform="translate(-90.734061,183.05213)"><path
       id="bd84b5e9-e9c5-4886-bcfd-3c769a5bd20c-3372"
       data-name="Path 339"
       d="m 891.64193,-86.800012 h -18.06817 a 2.2276792,1.8772018 0 0 1 -2.22531,-1.875208 v -17.96729 a 2.2276792,1.8772018 0 0 1 2.22531,-1.87521 h 18.06817 a 2.2276792,1.8772018 0 0 1 2.22531,1.87521 v 17.96729 a 2.2276792,1.8772018 0 0 1 -2.22531,1.875208 z"
       fill="#004578"
       style="stroke-width:0.543146" /><path
       id="bd84b5e9-e9c5-4886-bcfd-3c769a5bd20c-3372-0"
       data-name="Path 339"
       d="M 850.04277,-62.055304 H 831.9746 a 2.2276792,1.8772018 0 0 1 -2.22531,-1.875208 v -17.967286 a 2.2276792,1.8772018 0 0 1 2.22531,-1.87521 h 18.06817 a 2.2276792,1.8772018 0 0 1 2.22531,1.87521 v 17.967286 a 2.2276792,1.8772018 0 0 1 -2.22531,1.875208 z"
       fill="#004578"
       style="stroke-width:0.543146" /><ellipse
       id="af1d3ae0-b86a-44f8-8168-f2f371efc620"
       data-name="Ellipse 44"
       cx="862.12891"
       cy="-157.30453"
       fill="#004578"
       rx="17.326292"
       ry="16.331997"
       style="stroke-width:0.521412" /><path
       id="b4906b3b-71df-4c7e-84d8-52e6769e6d26-3379"
       data-name="Path 395"
       d="m 860.41196,-151.07437 a 1.7969677,1.6938461 0 0 1 -1.08108,-0.33867 l -0.0193,-0.0137 -4.0719,-2.93613 a 1.8095303,1.7056877 0 1 1 2.2019,-2.70732 l 2.63745,1.90645 6.23246,-7.66432 a 1.8087828,1.7049831 0 0 1 2.53594,-0.31574 l 5.4e-4,3.7e-4 -0.0387,0.0506 0.0397,-0.0506 a 1.810931,1.7070081 0 0 1 0.33458,2.39093 l -7.33073,9.01089 a 1.8098569,1.7059956 0 0 1 -1.43928,0.66519 z"
       fill="#ffffff"
       style="stroke-width:0.521412" /><ellipse
       id="eb67bc87-0ab3-400d-9346-8836e9b135a0"
       data-name="Ellipse 46"
       cx="573.34326"
       cy="-156.17819"
       fill="#cccccc"
       rx="18.763742"
       ry="16.873871"
       style="stroke-width:0.813912" /><path
       id="a587243e-22a7-4e92-b127-7238b8715868-3380"
       data-name="Path 408"
       d="m 571.48339,-149.74186 a 1.9465816,1.7505233 0 0 1 -1.1707,-0.34964 l -0.0206,-0.0139 -4.40984,-3.0364 a 1.9594559,1.7621009 0 0 1 2.38258,-2.79714 l 2.85636,1.96973 6.74953,-7.91595 a 1.9585976,1.761329 0 0 1 2.74603,-0.32604 l 4.8e-4,3.3e-4 -0.0421,0.051 0.0429,-0.0502 a 1.9611724,1.7636446 0 0 1 0.3622,2.46987 l -7.9391,9.31143 a 1.9594559,1.7621009 0 0 1 -1.55864,0.6877 z"
       fill="#ffffff"
       style="stroke-width:0.813912" /><ellipse
       id="b1c5fac5-a790-403a-b8d0-31ae0bc4b4ba"
       data-name="Ellipse 46"
       cx="275.75266"
       cy="-157.20325"
       fill="#cccccc"
       rx="18.763742"
       ry="16.873871"
       style="stroke-width:0.813912" /><path
       id="a5ae1e6c-de0b-426c-a811-1990f7b7ccda-3391"
       data-name="Path 408"
       d="m 273.89278,-150.76689 a 1.9465816,1.7505233 0 0 1 -1.1707,-0.34965 l -0.0206,-0.0139 -4.40985,-3.0364 a 1.9594559,1.7621009 0 0 1 2.38259,-2.79713 l 2.85636,1.96972 6.74952,-7.91595 a 1.9585976,1.761329 0 0 1 2.74604,-0.32603 l 4.7e-4,3.3e-4 -0.0421,0.0509 0.0429,-0.0502 a 1.9611724,1.7636446 0 0 1 0.3622,2.46987 l -7.93911,9.31143 a 1.9594559,1.7621009 0 0 1 -1.55863,0.68771 z"
       fill="#ffffff"
       style="stroke-width:0.813912" /></g></svg>
