<svg viewBox="0 0 200 200" xmlns="http://www.w3.org/2000/svg"><path d="M187.048,70.733c-17.14,2.636-47.608,8.013-60.957,11.927a6.646,6.646,0,0,0-4.78,6.407v3.749c12.587-2.822,48.123-10.65,73.379-14.894v-.7A6.629,6.629,0,0,0,187.048,70.733ZM127.224,87.44a.752.752,0,0,1,0-1.5A.752.752,0,0,1,127.224,87.44Zm5.047-.886a.752.752,0,0,1,0-1.5A.752.752,0,0,1,132.271,86.554Zm4.367-.721a.753.753,0,0,1,0-1.5A.753.753,0,0,1,136.638,85.833Z" fill="#1ebd6d"></path><path d="M194.711,79.447c-25.442,4.285-61.184,12.154-73.4,14.894,0,16.913-.329,33.8-.391,50.718a6.628,6.628,0,0,0,7.952,6.531C149.369,147.325,169.5,141,189.89,136.2a6.6,6.6,0,0,0,5.109-6.53C194.814,106.948,194.979,101.036,194.711,79.447Zm-18.6,37.142a2.937,2.937,0,0,1-2.143,2.823l-25.586,7.024a2.914,2.914,0,0,1-3.687-2.822v-4.676a2.935,2.935,0,0,1,2.142-2.822l25.586-7.025a2.915,2.915,0,0,1,3.688,2.822ZM184.164,89.5l-50.8,11.124a1.982,1.982,0,0,1-.845-3.873l50.8-11.124a1.982,1.982,0,0,1,.845,3.873Z" fill="#1ebd6d"></path><path d="M97.909,146.337c-.35.267-3.255,2.018-3.214,2.307-.379-4.467-4.115-11.349-6.921-13.514-.433-.33-.68-.392-.763-.247a9.2,9.2,0,0,0-1.4-.186,178.757,178.757,0,0,0-21.528-.329c-6.948.188-16.731-.187-23.2,3.543-1.072.618-1.566,1.112-1.566,1.236,0,.215,1.005-.186,1.71-.412,7.281-2.471,13.686-2.038,21.527-2.184,3.351-.065,21.193-.447,24.433-1.318a2.369,2.369,0,0,0,.061.288,38.593,38.593,0,0,0,1.957,4.017c2.566,4.9,3.848,8.1,4.78,9.683a97.551,97.551,0,0,1-44.477,14.75c-12.691.851-27.627-1.1-35.577-11.1-8.606-10.779-8.6-26.212-1.4-37.781,5.279-8.509,13.748-13.721,23.032-17.264-5.645,4.347-6.18,10.424-4.944,14.173a.528.528,0,0,1-.68.66,4.378,4.378,0,0,0-2.472-.021c-6.737,1.5-10.836,4.841-13.02,11.351-1.689,5.026,1.051,11.784,5.109,13a1.3,1.3,0,0,1,.927,1.195c.144,2.657.041,9.826-4.882,13.987l8.508-.906a8.48,8.48,0,0,0,.948-4.9,10.629,10.629,0,0,0-1.607-4.944c.432.412,4.264,4.223,3.543,9.538l1.648-.185c.968-7.025-3.914-11.331-6.427-13.164a.685.685,0,0,1,.144-1.174c3.189-1.424,5.335-4.615,6.9-7.622a27.231,27.231,0,0,0,2.946-9.456,13.368,13.368,0,0,0-.145-4.532c-.185-.845,1.031-.247,1.4-.041,4.368,2.245,12.814,1.709,17.779-8.612,2.987-6.2,2.657-9.764,1.9-11.639.494.041.968.041,1.422.041,2.986,4.017,7.993,5.48,12.895,5.5,4.45.02,10.465-1.03,13.288-4.841a54.7,54.7,0,0,1,11.1,4.9c6.422,3.828,9.056,7.951,9.559,7.807.467-.067-1.99-5.134-8.116-9.229-4.767-3.31-11.3-5.569-16.976-6.757-.061-2.39.145-5.212-.494-7.54.1.392,5.707-2.595,6.2-2.966,4.532-3.523,6.592-9.106,7.293-14.647a55.589,55.589,0,0,0,.226-7.416c-.046-5.128,1.422-9.228-5.15-17.717-3.482-4.45-16.6-14.688-29.15-.906s-2.266,24.288-2.266,24.288c-1.112,0-5.541.35-10.733,9.167-4.676,7.931.989,16.027,5.192,18.644-13.582,2.929-27.156,8.068-35.31,19.323C-.652,129.448,3.794,155.887,25.91,163.559c19.526,6.8,48.8-.209,67.117-12.381,3.926-2.592,11.2-8.335,13.246-12.567A68.528,68.528,0,0,1,97.909,146.337Zm-78.9-23.506c-2.211,4.776-2.25,4.922-2.555,5.315s-.659.392-.927-.164a4.539,4.539,0,0,1-.041-2.946c.68-2.7,2.7-5.068,3.811-5.459C20.43,119.206,20.039,120.627,19.009,122.831Zm36.957-61.9c2.2-2.946,4.532-1.2,4.532-1.2,20.7-6.757,19.839-16.4,19.839-16.4,2,8.24,5.685,13.04,7.5,15-.02.783-.061,1.648-.123,2.534-.969-1.4-4.594-3.688-6.2.165-.577,1.38,2.246-2.719,5.088,1.38.144.206.639.227.989-.041-.1,1.153-.226,2.369-.412,3.625-.881,5.731-2.97,11.686-7.931,14.792-.611.382-1.236.7-1.834,1.05-2.451,1.269-6.036,1.418-9.908-.556-1.051-.556-1.628-.948-1.772-.886-.124.042.144.577,1.133,1.442a11.378,11.378,0,0,0,8.1,2.534c-.4,2.835-.564,6.146-.7,8.941,0,0,3.358.989,4.718,1.4-2.657,3.069-8.013,3.893-11.763,3.852-4.038-.041-8.322-1.051-11.083-4.1,12.113-1.091,7.107-13.946,7.107-13.946a13.007,13.007,0,0,1-3.77-9.95A1.179,1.179,0,0,0,58.4,69.29C54.5,69.125,53.562,64.213,55.966,60.927ZM45.645,72.834c.268-1.113,1.566-1.751,2.1-1.319.556.392.288,1.278.061,1.978-.247.7-.535,1.061-1.153,1.071C46.078,74.574,45.357,73.967,45.645,72.834Zm-.556,12.381a11.287,11.287,0,0,1-1.607-5.336,7.127,7.127,0,0,1,1.03-3.708c.433-.618.742-.453.886.268.186.721.124,2.06.33,3.564a30.345,30.345,0,0,0,1.442,4.388,7.97,7.97,0,0,0,1.524,2.348c.371.412.351.783-.432.824C46.942,87.563,45.752,86.367,45.089,85.215ZM41.113,97.884a6.929,6.929,0,0,1,4.574.268c.762.371.721.721-.042.906A26.834,26.834,0,0,0,42,99.944c-3.841,1.375-5.374,4.126-6.778,6.263-.247.432-.824.741-.926-.1a6.435,6.435,0,0,1,.618-3.029A9.3,9.3,0,0,1,41.113,97.884Z" class="svg-path-fill-color"></path><path d="M93.233,129.218c5.145-5.135,9.515-11,14.173-16.563,1.174-1.4,2.225-3.276,3.914-4.12.122-.061.172-.029.227.082a4.926,4.926,0,0,1-.268,4.656c-1.454,2.354-4.29,3.949-6.325,5.809-3.553,3.249.729.663,4.718-2.039,2.455-1.664,4.491-3.894,4.264-7.066a6.264,6.264,0,0,0-.7-2.555,1.968,1.968,0,0,0-1.937-.989c-2.181.211-3.753,2.613-5.006,4.162a214.374,214.374,0,0,0-13.246,17.428c-.146.225-1.465,1.9-1.236,2.225C92.015,130.538,93.088,129.362,93.233,129.218Z" class="svg-path-fill-color"></path><path d="M114.7,120.627c2.483-1.391,3.4.152,3.791.1.124,0,.251-.269.062-.783a2.651,2.651,0,0,0-1.586-1.4c-1.8-.649-3.651.465-5.315,1.36-1.844.991-4.227,2.512-5.048,4.553-.289.72-.082.947.557.618s1.683-1.082,3.049-1.854C111.684,122.387,113.169,121.484,114.7,120.627Z" class="svg-path-fill-color"></path><path d="M117.191,123.285c-2.16-1.064-5.116.168-7.025,1.648a6.814,6.814,0,0,0-2.245,2.719c-.236.635-.026.873.556.618,1.116-.49,3.428-2.392,6.448-3.358,2.062-.66,3.17.387,3.543.227.124-.062.165-.289-.02-.66A2.53,2.53,0,0,0,117.191,123.285Z" class="svg-path-fill-color"></path><path d="M110.311,128.826a5.6,5.6,0,0,0-2,2.328c-.2.573,0,.8.536.639,1.006-.31,2.513-1.509,5.706-2.555,1.195-.391,2.161-.6,2.7-.844C119.238,127.5,114.166,125.985,110.311,128.826Z" class="svg-path-fill-color"></path><path d="M78.009,71.66a4.226,4.226,0,0,0,3.111-.824,1.418,1.418,0,0,0,.391-1.236,21.993,21.993,0,0,0-.927-2.926c-.77-2.2-1.625-3.282-1.978-2.245a8.822,8.822,0,0,0,.412,4.244c.1.288.292.773.392,1.03a13.517,13.517,0,0,0-1.5,1.133C77.494,71.227,77.473,71.536,78.009,71.66Z" class="svg-path-fill-color"></path><path d="M72.818,66.509c.473,0,.844-.659.844-1.483s-.371-1.483-.844-1.483-.845.659-.845,1.483S72.344,66.509,72.818,66.509Z" class="svg-path-fill-color"></path><path d="M83.53,66.983c.474,0,.844-.659.844-1.483s-.37-1.483-.844-1.483-.845.659-.845,1.483S83.056,66.983,83.53,66.983Z" class="svg-path-fill-color"></path><path d="M72.426,73.864c.061,1.339,4.182,6.1,6.819,1.916.844-1.339-2.908,2.4-5.212-2.72A.932.932,0,0,0,72.426,73.864Z" class="svg-path-fill-color"></path><path d="M69.975,61.9c2.561-4.3,5.649-.394,5.006-1.731-2-4.168-6.212-.451-6.387.763S69.743,62.283,69.975,61.9Z" class="svg-path-fill-color"></path><path d="M77.453 58.887 A1.133 1.298 0 1 0 79.719 58.887 A1.133 1.298 0 1 0 77.453 58.887 Z" fill="#1ebd6d"></path></svg>
