<?xml version="1.0" encoding="UTF-8" standalone="no"?>
<svg
   viewBox="0 0 200 200"
   version="1.1"
   id="svg7099"
   sodipodi:docname="image2.svg"
   inkscape:version="1.2.2 (b0a8486, 2022-12-01)"
   xmlns:inkscape="http://www.inkscape.org/namespaces/inkscape"
   xmlns:sodipodi="http://sodipodi.sourceforge.net/DTD/sodipodi-0.dtd"
   xmlns="http://www.w3.org/2000/svg"
   xmlns:svg="http://www.w3.org/2000/svg">
  <defs
     id="defs7103" />
  <sodipodi:namedview
     id="namedview7101"
     pagecolor="#ffffff"
     bordercolor="#000000"
     borderopacity="0.25"
     inkscape:showpageshadow="2"
     inkscape:pageopacity="0.0"
     inkscape:pagecheckerboard="0"
     inkscape:deskcolor="#d1d1d1"
     showgrid="false"
     inkscape:zoom="1.7025295"
     inkscape:cx="150.65818"
     inkscape:cy="74.888571"
     inkscape:window-width="1344"
     inkscape:window-height="487"
     inkscape:window-x="0"
     inkscape:window-y="291"
     inkscape:window-maximized="0"
     inkscape:current-layer="svg7099" />
  <path
     d="m 61.210759,20.262104 a 3.114877,3.2285155 0 0 1 -1.835844,4.10891 3.0602843,3.171931 0 0 1 -0.52139,0.14896 l -1.768093,11.2211 -4.147579,-3.96927 2.314876,-10.04721 a 3.1260067,3.2400512 0 0 1 2.738368,-3.55521 3.0436769,3.1547178 0 0 1 3.219654,2.09271 z"
     fill="#ffb6b6"
     id="path6861"
     style="stroke-width:0.257111" />
  <path
     d="m 30.601685,45.687844 c 0,0 3.219027,-4.40836 14.900191,-4.28761 l 6.630257,-2.49685 1.51527,-14.39673 5.303454,1.30879 -0.757639,17.7996 -11.364539,6.80573 -14.900183,3.14111 z"
     fill="#e6e7e8"
     id="path6863"
     style="stroke-width:0.257111" />
  <polygon
     points="157.055,480.719 139.172,473.099 119.255,519.834 131.372,524.997 "
     fill="#ffb6b6"
     id="polygon6865"
     transform="matrix(0.25254538,0,0,0.26175886,-17.464955,18.148704)" />
  <polygon
     points="238.819,480.497 219.38,480.498 219.383,531.3 232.553,531.299 "
     fill="#ffb6b6"
     id="polygon6867"
     transform="matrix(0.25254538,0,0,0.26175886,-17.464955,18.148704)" />
  <path
     d="m 37.822076,160.81759 10.228487,-5.2e-4 v -0.13408 A 3.981431,4.1266834 0 0 0 44.06935,156.5566 h -2.52e-4 l -1.868359,-1.46915 -3.485958,1.46938 -0.892881,3e-5 z"
     fill="#2f2e41"
     id="path6869"
     style="stroke-width:0.257111" />
  <path
     d="m 10.791814,156.52211 9.409692,4.15625 0.05074,-0.12334 a 3.9814335,4.126686 0 0 0 -2.101551,-5.41388 l -2.3e-4,-1e-4 -1.163035,-2.11078 -3.762677,-0.0649 -0.8214,-0.36282 z"
     fill="#2f2e41"
     id="path6871"
     style="stroke-width:0.257111" />
  <path
     d="m 41.201968,78.51988 5.055131,31.90425 -1.375748,4.75428 1.805262,3.36716 -2.651054,29.57095 1.076119,2.45562 -3.006689,1.92196 h -6.118161 l -0.324701,-26.77082 -1.511296,-3.93054 v -2.1662 l -3.076556,-16.32422 -0.56646,18.67287 -0.894913,3.93669 0.751716,2.80295 -0.982219,1.9637 -8.417623,18.73425 h -6.860477 l 0.530597,-4.2367 v 0 c -1.229151,-0.64502 1.845434,-2.53021 2.140876,-3.92497 l -1.01018,-2.35583 1.01018,-4.4499 0.926244,-8.69522 -0.976809,-18.35416 0.459637,-24.716144 8.025477,-6.360865 z"
     fill="#2f2e41"
     id="path6873"
     style="stroke-width:0.257111" />
  <ellipse
     id="b6492e21-528b-49f6-adbd-cfab639933c4"
     data-name="ab6171fa-7d69-4734-b81c-8dff60f9761b"
     cx="28.891344"
     cy="29.318007"
     fill="#ffb6b6"
     rx="6.9330201"
     ry="7.1859536"
     style="stroke-width:0.257111" />
  <path
     d="m 17.157067,83.803702 a 0.13285402,0.13770087 0 0 1 -0.03637,-0.0051 c -0.127998,-0.03706 -0.22912,-0.06621 0.232818,-4.206161 l 0.498548,-3.272371 -0.486719,-2.889441 -0.818672,-0.848543 1.315761,-1.363625 -0.806346,-6.185077 -2.191892,-11.99988 a 9.2361525,9.5731105 0 0 1 5.072241,-10.40134 l 4.315222,-4.14852 7.940632,-0.0616 2.540495,3.42306 6.721056,2.36644 -1.114381,23.896873 0.781679,1.890467 -0.06694,0.06275 c -0.0053,0.0049 -0.525936,0.49297 -0.759862,0.761375 -0.113318,0.166796 0.09927,1.412451 0.361801,2.470096 l 0.336645,2.610814 -0.848391,0.628452 1.103033,1.350461 0.319383,2.482489 -0.180167,-0.04639 c -0.20297,-0.0524 -20.326691,-5.126024 -24.090583,3.375642 a 0.15188332,0.1574244 0 0 1 -0.138971,0.109154 z"
     fill="#e6e7e8"
     id="path6876"
     style="stroke-width:0.257111" />
  <path
     d="m 27.117737,36.152094 q -0.0444,-0.10138 -0.08861,-0.20347 c 0.01139,2.6e-4 0.02254,0.002 0.03393,0.002 z"
     fill="#2f2e41"
     id="path6878"
     style="stroke-width:0.257111" />
  <path
     d="m 21.765521,22.458834 a 1.929674,2.0000733 0 0 1 1.208809,-0.5417 c 0.448312,0.015 0.902937,0.43466 0.810053,0.8895 a 7.1245577,7.3844792 0 0 1 8.573963,-3.33229 c 1.114259,0.40746 2.206961,1.22262 2.462917,2.41822 a 2.1012811,2.177941 0 0 0 0.264699,0.89266 0.98315918,1.0190272 0 0 0 1.046386,0.27477 l 0.011,-0.003 a 0.32757408,0.3395248 0 0 1 0.395814,0.47928 l -0.315271,0.60944 a 2.5264943,2.618667 0 0 0 1.203681,-0.0265 0.32729882,0.33923948 0 0 1 0.34755,0.52791 5.7048309,5.9129573 0 0 1 -4.548781,2.42344 c -1.259694,-0.008 -2.532364,-0.45795 -3.758329,-0.1577 a 3.2646289,3.3837306 0 0 0 -2.195765,4.75007 c -0.376626,-0.42698 -1.104676,-0.32589 -1.48993,0.0927 a 2.0434634,2.118014 0 0 0 -0.446157,1.62062 7.2546792,7.5193478 0 0 0 0.744793,2.524 7.2799564,7.5455473 0 0 1 -4.315428,-13.44109 z"
     fill="#2f2e41"
     id="path6880"
     style="stroke-width:0.257111" />
  <path
     d="m 62.945334,156.6399 -1.94712,-3.24319 -0.388922,1.85327 c -0.06816,0.32458 -0.136372,0.6544 -0.199508,0.9816 -0.553064,-0.48952 -1.141509,-0.94236 -1.717261,-1.37686 q -2.651727,-1.99463 -5.300986,-3.99444 l 0.553057,3.32433 c 0.340962,2.04697 0.697094,4.1358 1.540555,6.00736 0.09347,0.21204 0.194457,0.42146 0.303106,0.62564 h 8.217823 a 2.648696,2.7453269 0 0 0 0.136373,-0.58637 0.19564438,0.20278197 0 0 0 0.0023,-0.0393 c 0.128861,-1.26955 -0.547998,-2.46577 -1.199586,-3.55208 z"
     fill="#f0f0f0"
     id="path6882"
     style="stroke-width:0.257111" />
  <path
     d="m -4.542285,156.6399 1.9471293,-3.24319 0.3889215,1.85327 c 0.068163,0.32458 0.1363728,0.6544 0.1995081,0.9816 0.5530563,-0.48952 1.14150884,-0.94236 1.71726091,-1.37686 q 2.65172709,-1.99463 5.30098609,-3.99444 l -0.5530564,3.32433 c -0.3409625,2.04697 -0.6970937,4.1358 -1.5405557,6.00736 -0.093473,0.21204 -0.1944569,0.42146 -0.3031058,0.62564 h -8.2178247 a 2.6485344,2.7451594 0 0 1 -0.1363728,-0.58637 0.1954474,0.2025778 0 0 1 -0.00229,-0.0393 c -0.1288763,-1.26955 0.5479824,-2.46577 1.1995778,-3.55208 z"
     fill="#f0f0f0"
     id="path6884"
     style="stroke-width:0.257111" />
  <path
     d="m 81.770402,161.12926 h -98.934651 a 0.30070455,0.311675 0 1 1 0,-0.62335 h 98.934651 a 0.30070456,0.311675 0 0 1 0,0.62335 z"
     fill="#cacaca"
     id="path6886"
     style="stroke-width:0.257111" />
  <path
     d="M 123.21644,28.361234 H 93.20827 a 1.1691512,1.2118048 0 0 1 0,-2.4236 h 30.00817 c 1.50775,-0.0218 1.52283,2.44561 0,2.4236 z"
     fill="#e4e4e4"
     id="path6888"
     style="stroke-width:0.257111" />
  <path
     d="M 163.64081,34.700144 H 93.20827 a 1.1691515,1.211805 0 0 1 0,-2.42361 h 70.43254 c 1.50775,-0.0218 1.52283,2.44562 0,2.42361 z"
     fill="#e4e4e4"
     id="path6890"
     style="stroke-width:0.257111" />
  <ellipse
     cx="188.17719"
     cy="30.318876"
     fill="#004578"
     id="circle6892"
     rx="7.5155439"
     ry="7.7897291"
     style="stroke-width:0.257111" />
  <path
     d="m 187.15192,34.373074 a 0.83576102,0.86625168 0 0 1 -0.66874,-0.34667 l -2.05035,-2.83359 a 0.8359808,0.86647941 0 1 1 1.3376,-1.03973 l 1.34143,1.85367 3.44524,-5.35633 a 0.83601946,0.86651949 0 1 1 1.39122,0.96131 l -4.10073,6.37546 a 0.83636211,0.86687467 0 0 1 -0.6724,0.3856 c -0.008,1.4e-4 -0.0155,2.6e-4 -0.0232,2.6e-4 z"
     fill="#ffffff"
     id="path6894"
     style="stroke-width:0.257111" />
  <path
     d="M 78.156133,23.014964 H 59.12229 a 1.1229102,1.1638767 0 0 0 -1.121633,1.16256 v 12.28272 a 1.1229178,1.1638846 0 0 0 1.121633,1.16256 h 19.033843 a 1.1229127,1.1638794 0 0 0 1.121656,-1.16256 v -12.28272 a 1.1229001,1.1638663 0 0 0 -1.121656,-1.16256 z m 0.368091,8.82283 a 4.6109508,4.7791697 0 0 1 -4.533299,4.76047 c -1.931333,0.026 1.068584,0.0362 -1.260742,0.0362 -5.3264,0 -10.880369,-0.0528 -12.952615,-0.087 a 1.0449318,1.0830535 0 0 1 -1.023377,-1.07864 v -11.29044 a 0.36933499,0.38280924 0 0 1 0.368014,-0.38239 h 19.033156 a 0.36929206,0.38276475 0 0 1 0.368863,0.38136 z"
     fill="#cacaca"
     id="path6896"
     style="stroke-width:0.257111" />
  <path
     d="M 75.645234,30.854254 H 61.143443 a 0.623282,0.64602087 0 0 1 -0.585907,-0.42824 l -2.23969,-6.51285 a 0.62201927,0.64471207 0 0 1 0.585021,-0.86115 l 19.449274,-0.0358 h 7.57e-4 a 0.62201927,0.64471207 0 0 1 0.571694,0.89865 l -0.03393,-0.0151 0.03393,0.0151 -2.707771,6.54864 a 0.62126164,0.64392679 0 0 1 -0.571702,0.39073 z"
     fill="#cacaca"
     id="path6898"
     style="stroke-width:0.257111" />
  <ellipse
     cx="68.628296"
     cy="30.854261"
     fill="#3f3d56"
     id="circle6900"
     rx="1.5495653"
     ry="1.6060973"
     style="stroke-width:0.257111" />
  <path
     d="M 123.21644,62.917914 H 93.20827 a 1.1691515,1.211805 0 0 1 0,-2.42361 h 30.00817 c 1.50775,-0.0218 1.52283,2.44562 0,2.42361 z"
     fill="#e4e4e4"
     id="path6902"
     style="stroke-width:0.257111" />
  <path
     d="M 163.64081,69.256831 H 93.20827 a 1.16915,1.2118035 0 0 1 0,-2.423607 h 70.43254 c 1.50775,-0.0218 1.52283,2.445615 0,2.423607 z"
     fill="#e4e4e4"
     id="path6904"
     style="stroke-width:0.257111" />
  <ellipse
     cx="188.17719"
     cy="64.875565"
     fill="#004578"
     id="circle6906"
     rx="7.5155439"
     ry="7.7897291"
     style="stroke-width:0.257111" />
  <path
     d="m 187.15192,68.92976 a 0.83575346,0.86624383 0 0 1 -0.66874,-0.34667 l -2.05035,-2.833586 a 0.8359808,0.86647941 0 1 1 1.3376,-1.03973 l 1.3414,1.85365 3.44525,-5.35633 a 0.83601877,0.86651877 0 1 1 1.39122,0.96131 l -4.10071,6.375477 a 0.83635959,0.86687205 0 0 1 -0.6724,0.385599 c -0.008,1.39e-4 -0.0155,2.62e-4 -0.0232,2.62e-4 z"
     fill="#ffffff"
     id="path6908"
     style="stroke-width:0.257111" />
  <path
     d="M 78.156133,57.571644 H 59.12229 a 1.1229152,1.163882 0 0 0 -1.121633,1.16256 v 12.282733 a 1.1229254,1.1638924 0 0 0 1.121633,1.16256 h 19.033843 a 1.1229203,1.1638872 0 0 0 1.121656,-1.16256 V 58.734204 a 1.1229077,1.1638741 0 0 0 -1.121656,-1.16256 z m 0.368091,8.82284 a 4.6109382,4.7791566 0 0 1 -4.533299,4.760454 c -1.931333,0.02607 1.068584,0.03622 -1.260742,0.03622 -5.3264,0 -10.880369,-0.05276 -12.952615,-0.08696 A 1.0449065,1.0830273 0 0 1 58.754191,70.025579 V 58.735134 a 0.36931984,0.38279354 0 0 1 0.368014,-0.38238 h 19.033156 a 0.36928953,0.38276213 0 0 1 0.368863,0.38135 z"
     fill="#cacaca"
     id="path6910"
     style="stroke-width:0.257111" />
  <path
     d="M 75.645234,65.410934 H 61.143443 a 0.62326684,0.64600516 0 0 1 -0.585907,-0.42822 l -2.239698,-6.51286 a 0.62201927,0.64471207 0 0 1 0.585014,-0.86115 l 19.449274,-0.0358 h 7.57e-4 a 0.62201927,0.64471207 0 0 1 0.571702,0.89865 l -0.03393,-0.0151 0.03393,0.0151 -2.707764,6.54863 a 0.62126164,0.64392679 0 0 1 -0.571702,0.39073 z"
     fill="#cacaca"
     id="path6912"
     style="stroke-width:0.257111" />
  <ellipse
     cx="68.628296"
     cy="65.410942"
     fill="#3f3d56"
     id="circle6914"
     rx="1.5495653"
     ry="1.6060973"
     style="stroke-width:0.257111" />
  <path
     d="M 123.21644,97.474598 H 93.20827 a 1.1691515,1.211805 0 0 1 0,-2.42361 h 30.00817 c 1.50775,-0.0218 1.52283,2.44562 0,2.42361 z"
     fill="#e4e4e4"
     id="path6916"
     style="stroke-width:0.257111" />
  <path
     d="M 163.64081,103.81352 H 93.20827 a 1.1691514,1.211805 0 0 1 0,-2.42361 h 70.43254 c 1.50775,-0.0218 1.52283,2.44562 0,2.42361 z"
     fill="#e4e4e4"
     id="path6918"
     style="stroke-width:0.257111" />
  <ellipse
     cx="188.17719"
     cy="99.432259"
     fill="#004578"
     id="circle6920"
     rx="7.5155439"
     ry="7.7897291"
     style="stroke-width:0.257111" />
  <path
     d="m 187.15192,103.48645 a 0.83576102,0.86625168 0 0 1 -0.66874,-0.34667 l -2.05035,-2.8336 a 0.83598125,0.86647994 0 1 1 1.3376,-1.039732 l 1.34141,1.853662 3.44524,-5.356332 a 0.836019,0.86651897 0 1 1 1.39122,0.96131 l -4.10071,6.375482 a 0.83635707,0.86686943 0 0 1 -0.6724,0.3856 c -0.008,1.4e-4 -0.0155,2.6e-4 -0.0232,2.6e-4 z"
     fill="#ffffff"
     id="path6922"
     style="stroke-width:0.257111" />
  <path
     d="M 78.156133,92.128333 H 59.12229 a 1.1229077,1.1638741 0 0 0 -1.121633,1.16256 v 12.282717 a 1.1229102,1.1638767 0 0 0 1.121633,1.16256 h 19.033843 a 1.1229051,1.1638715 0 0 0 1.121656,-1.16256 V 93.290893 a 1.1229077,1.1638741 0 0 0 -1.121656,-1.16256 z m 0.368091,8.822827 a 4.6109508,4.7791697 0 0 1 -4.533299,4.76047 c -1.931333,0.0261 1.068584,0.0362 -1.260742,0.0362 -5.3264,0 -10.880369,-0.0527 -12.952615,-0.087 a 1.0449217,1.083043 0 0 1 -1.023377,-1.07864 V 93.291804 a 0.36933247,0.38280663 0 0 1 0.368014,-0.38238 h 19.033156 a 0.36930468,0.38277783 0 0 1 0.368863,0.381383 z"
     fill="#cacaca"
     id="path6924"
     style="stroke-width:0.257111" />
  <path
     d="M 75.645234,99.967628 H 61.143443 a 0.62326684,0.64600516 0 0 1 -0.585907,-0.42824 L 58.317838,93.02653 a 0.62201927,0.64471207 0 0 1 0.585014,-0.861155 l 19.449274,-0.03578 h 7.57e-4 a 0.62201927,0.64471207 0 0 1 0.571702,0.89865 l -0.03393,-0.01505 0.03393,0.01505 -2.707764,6.548643 a 0.62126164,0.64392679 0 0 1 -0.571702,0.39073 z"
     fill="#cacaca"
     id="path6926"
     style="stroke-width:0.257111" />
  <ellipse
     cx="68.628296"
     cy="99.967628"
     fill="#3f3d56"
     id="circle6928"
     rx="1.5495653"
     ry="1.6060973"
     style="stroke-width:0.257111" />
  <path
     d="m 36.974725,84.50264 a 3.114877,3.2285155 0 0 1 -3.161272,-3.125338 3.0602692,3.1719153 0 0 1 0.03194,-0.559588 l -9.678953,-5.350612 4.961758,-2.790578 8.430606,5.508867 a 3.1260067,3.2400512 0 0 1 2.364738,3.832475 3.0436769,3.1547178 0 0 1 -2.948827,2.48478 z"
     fill="#ffb6b6"
     id="path6930"
     style="stroke-width:0.257111" />
  <path
     d="m 32.682199,80.657099 -16.174741,-6.544495 -2.571451,-13.43519 0.954938,-7.72483 a 7.6270978,7.9053531 0 0 1 8.744013,-6.80573 l 0.05426,0.009 0.0308,0.0472 c 0.123436,0.18904 2.976536,4.75844 -0.862948,16.09587 l 0.141814,7.205143 12.71938,6.154019 z"
     fill="#e6e7e8"
     id="path6932"
     style="stroke-width:0.257111" />
</svg>
