<?xml version="1.0" encoding="UTF-8" standalone="no"?>
<svg
   width="274pt"
   height="237pt"
   viewBox="0 0 274 237"
   version="1.1"
   id="svg297"
   xmlns="http://www.w3.org/2000/svg"
   xmlns:svg="http://www.w3.org/2000/svg">
  <defs
     id="defs301" />
  <g
     id="surface1"
     transform="matrix(1,0,0,0.99800981,0,-37.028396)">
    <path
       style="fill:#e6e6e6;fill-opacity:1;fill-rule:nonzero;stroke:none"
       d="m 254.80078,235.26953 c 0,0.1875 -0.0742,0.37109 -0.20703,0.50391 -0.13281,0.13281 -0.3125,0.20312 -0.5,0.20312 h -2.84766 c -0.1875,0 -0.36718,-0.0742 -0.5,-0.20703 -0.13281,-0.13281 -0.20703,-0.3125 -0.20703,-0.5 v -86.00391 c 0,-1.89843 -0.63672,-3.4375 -1.41797,-3.4414 H 35.835938 c -0.785157,0.004 -1.421876,1.54297 -1.425782,3.4414 v 85.47657 c 0,0.36328 -0.277344,0.66797 -0.640625,0.70312 -0.570312,0.0586 -1.144531,0.10938 -1.714843,0.15235 -0.01563,0 -0.02734,0.004 -0.04297,0.004 -0.3125,0.0312 -0.625,0.0508 -0.933594,0.0742 h -0.0039 c -0.164063,-0.29297 -0.320313,-0.59375 -0.480469,-0.89453 -0.05078,-0.10156 -0.07422,-0.21484 -0.07422,-0.32813 v -89.64843 c 0,-0.52344 0.01953,-1.05078 0.05469,-1.57032 0.05078,-0.71484 0.140625,-1.42578 0.265625,-2.13281 0.597656,-3.28515 1.949218,-5.50781 3.488281,-5.51562 H 250.625 c 0.22266,0 0.44531,0.0469 0.64844,0.13672 0.30468,0.13281 0.57812,0.32421 0.80468,0.5625 0.3125,0.32421 0.57813,0.6875 0.78907,1.07812 0.75781,1.33594 1.30078,3.32422 1.49218,5.63672 0,0.0195 0.004,0.043 0.004,0.0625 0.0469,0.57422 0.0742,1.15625 0.0703,1.74219 l 0.0508,7.57812 0.0312,4.52344 0.0937,14.18359 0.0352,5.03516 z m 0,0"
       id="path134" />
    <path
       style="fill:#cacaca;fill-opacity:1;fill-rule:nonzero;stroke:none"
       d="m 273.625,236.85547 -97.61719,0.10937 c -0.23437,0 -0.42187,-0.1875 -0.42187,-0.42187 0,-0.23438 0.1875,-0.42188 0.42187,-0.42188 l 97.61719,-0.10937 c 0.23437,0 0.42187,0.1914 0.42187,0.42187 0,0.23438 -0.1875,0.42188 -0.42187,0.42188 z m 0,0"
       id="path136" />
    <path
       style="fill:#2e2e3f;fill-opacity:1;fill-rule:nonzero;stroke:none"
       d="m 152.45703,110.45703 h -17.28906 c -0.50781,0 -0.91797,0.41406 -0.91797,0.92188 v 27.28906 h 19.13281 v -27.28906 c 0,-0.2461 -0.0977,-0.48047 -0.26953,-0.65235 -0.17578,-0.17187 -0.41016,-0.26953 -0.65625,-0.26953 z m -8.58594,15.50391 c -1.125,-0.004 -2.03515,-0.91406 -2.03906,-2.03906 v -3.14844 c 0,-1.125 0.91406,-2.03906 2.03906,-2.03906 1.12891,0 2.04297,0.91406 2.04297,2.03906 v 3.14844 c -0.004,1.125 -0.91797,2.03515 -2.04297,2.03906 z m 0,0"
       id="path138" />
    <path
       style="fill:#3d3a54;fill-opacity:1;fill-rule:nonzero;stroke:none"
       d="m 181.08594,67.867188 h -73.90235 c -1.32031,0 -2.39453,1.070312 -2.39453,2.394531 v 49.832031 c 0,1.32031 1.07422,2.39063 2.39453,2.39063 h 73.90235 c 1.32422,0 2.39453,-1.07032 2.39843,-2.39063 V 70.261719 c -0.004,-1.324219 -1.07421,-2.394531 -2.39843,-2.394531 z m 0,0"
       id="path140" />
    <path
       style="fill:#ffffff;fill-opacity:1;fill-rule:nonzero;stroke:none"
       d="m 180.46875,69.59375 h -72.66797 c -0.70703,0.0039 -1.28125,0.578125 -1.28125,1.285156 v 48.593754 c 0,0.70703 0.57422,1.28125 1.28125,1.28125 h 72.66797 c 0.70703,0 1.28125,-0.57422 1.28125,-1.28125 V 70.878906 c 0,-0.707031 -0.57422,-1.28125 -1.28125,-1.285156 z m 0,0"
       id="path142" />
    <path
       style="fill:#3d3a54;fill-opacity:1;fill-rule:nonzero;stroke:none"
       d="m 134.1875,137.79687 v 2.63282 c 0.004,0.28515 0.23437,0.51562 0.51562,0.51562 h 18.22266 c 0.28516,-0.004 0.51563,-0.23047 0.51563,-0.51562 v -2.63282 z m 0,0"
       id="path144" />
    <path
       style="fill:#2e2e3f;fill-opacity:1;fill-rule:nonzero;stroke:none"
       d="m 166.31641,141.85937 h -43.23438 c -0.23828,0 -0.46875,-0.10546 -0.61719,-0.29296 -0.15234,-0.1875 -0.21093,-0.42969 -0.16015,-0.66407 l 0.66797,-3.18359 c 0.082,-0.36719 0.40234,-0.62891 0.78125,-0.63281 h 41.89062 c 0.375,0.004 0.69922,0.26562 0.77734,0.63281 l 0.67188,3.18359 c 0.0508,0.23438 -0.008,0.47657 -0.16016,0.66407 -0.15234,0.1875 -0.3789,0.29296 -0.61718,0.29296 z m 0,0"
       id="path146" />
    <path
       style="fill:#3d3a54;fill-opacity:1;fill-rule:nonzero;stroke:none"
       d="m 124.23438,137.66016 h 0.98437 c 0.0937,0 0.17188,0.0781 0.17188,0.17187 v 0.45313 c 0,0.0977 -0.0781,0.17578 -0.17188,0.17578 h -0.98437 c -0.0977,0 -0.17579,-0.0781 -0.17579,-0.17578 v -0.45313 c 0,-0.0937 0.0781,-0.17187 0.17579,-0.17187 z m 0,0"
       id="path148" />
    <path
       style="fill:#3d3a54;fill-opacity:1;fill-rule:nonzero;stroke:none"
       d="m 126.89453,137.66016 h 0.98828 c 0.0937,0 0.17188,0.0781 0.17188,0.17187 v 0.45313 c 0,0.0977 -0.0781,0.17578 -0.17188,0.17578 h -0.98828 c -0.0937,0 -0.17187,-0.0781 -0.17187,-0.17578 v -0.45313 c 0,-0.0937 0.0781,-0.17187 0.17187,-0.17187 z m 0,0"
       id="path150" />
    <path
       style="fill:#3d3a54;fill-opacity:1;fill-rule:nonzero;stroke:none"
       d="m 129.55859,137.66016 h 0.98438 c 0.0977,0 0.17578,0.0781 0.17578,0.17187 v 0.45313 c 0,0.0977 -0.0781,0.17578 -0.17578,0.17578 h -0.98438 c -0.0937,0 -0.17187,-0.0781 -0.17187,-0.17578 v -0.45313 c 0,-0.0937 0.0781,-0.17187 0.17187,-0.17187 z m 0,0"
       id="path152" />
    <path
       style="fill:#3d3a54;fill-opacity:1;fill-rule:nonzero;stroke:none"
       d="m 132.22266,137.66016 h 0.98437 c 0.0977,0 0.17188,0.0781 0.17188,0.17187 v 0.45313 c 0,0.0977 -0.0742,0.17578 -0.17188,0.17578 h -0.98437 c -0.0977,0 -0.17188,-0.0781 -0.17188,-0.17578 v -0.45313 c 0,-0.0937 0.0742,-0.17187 0.17188,-0.17187 z m 0,0"
       id="path154" />
    <path
       style="fill:#3d3a54;fill-opacity:1;fill-rule:nonzero;stroke:none"
       d="m 134.88672,137.66016 h 0.98437 c 0.0937,0 0.17188,0.0781 0.17188,0.17187 v 0.45313 c 0,0.0977 -0.0781,0.17578 -0.17188,0.17578 h -0.98437 c -0.0977,0 -0.17578,-0.0781 -0.17578,-0.17578 v -0.45313 c 0,-0.0937 0.0781,-0.17187 0.17578,-0.17187 z m 0,0"
       id="path156" />
    <path
       style="fill:#3d3a54;fill-opacity:1;fill-rule:nonzero;stroke:none"
       d="m 137.54687,137.66016 h 0.98829 c 0.0937,0 0.17187,0.0781 0.17187,0.17187 v 0.45313 c 0,0.0977 -0.0781,0.17578 -0.17187,0.17578 h -0.98829 c -0.0937,0 -0.17187,-0.0781 -0.17187,-0.17578 v -0.45313 c 0,-0.0937 0.0781,-0.17187 0.17187,-0.17187 z m 0,0"
       id="path158" />
    <path
       style="fill:#3d3a54;fill-opacity:1;fill-rule:nonzero;stroke:none"
       d="m 140.21094,137.66016 h 0.98437 c 0.0977,0 0.17578,0.0781 0.17578,0.17187 v 0.45313 c 0,0.0977 -0.0781,0.17578 -0.17578,0.17578 h -0.98437 c -0.0937,0 -0.17188,-0.0781 -0.17188,-0.17578 v -0.45313 c 0,-0.0937 0.0781,-0.17187 0.17188,-0.17187 z m 0,0"
       id="path160" />
    <path
       style="fill:#3d3a54;fill-opacity:1;fill-rule:nonzero;stroke:none"
       d="m 142.875,137.66016 h 0.98437 c 0.0977,0 0.17188,0.0781 0.17188,0.17187 v 0.45313 c 0,0.0977 -0.0742,0.17578 -0.17188,0.17578 H 142.875 c -0.0977,0 -0.17188,-0.0781 -0.17188,-0.17578 v -0.45313 c 0,-0.0937 0.0742,-0.17187 0.17188,-0.17187 z m 0,0"
       id="path162" />
    <path
       style="fill:#3d3a54;fill-opacity:1;fill-rule:nonzero;stroke:none"
       d="m 145.53906,137.66016 h 0.98438 c 0.0937,0 0.17187,0.0781 0.17187,0.17187 v 0.45313 c 0,0.0977 -0.0781,0.17578 -0.17187,0.17578 h -0.98438 c -0.0977,0 -0.17578,-0.0781 -0.17578,-0.17578 v -0.45313 c 0,-0.0937 0.0781,-0.17187 0.17578,-0.17187 z m 0,0"
       id="path164" />
    <path
       style="fill:#3d3a54;fill-opacity:1;fill-rule:nonzero;stroke:none"
       d="m 148.19922,137.66016 h 0.98828 c 0.0937,0 0.17187,0.0781 0.17187,0.17187 v 0.45313 c 0,0.0977 -0.0781,0.17578 -0.17187,0.17578 h -0.98828 c -0.0937,0 -0.17188,-0.0781 -0.17188,-0.17578 v -0.45313 c 0,-0.0937 0.0781,-0.17187 0.17188,-0.17187 z m 0,0"
       id="path166" />
    <path
       style="fill:#3d3a54;fill-opacity:1;fill-rule:nonzero;stroke:none"
       d="m 150.86328,137.66016 h 0.98828 c 0.0937,0 0.17188,0.0781 0.17188,0.17187 v 0.45313 c 0,0.0977 -0.0781,0.17578 -0.17188,0.17578 h -0.98828 c -0.0937,0 -0.17187,-0.0781 -0.17187,-0.17578 v -0.45313 c 0,-0.0937 0.0781,-0.17187 0.17187,-0.17187 z m 0,0"
       id="path168" />
    <path
       style="fill:#3d3a54;fill-opacity:1;fill-rule:nonzero;stroke:none"
       d="m 153.52734,137.66016 h 0.98438 c 0.0977,0 0.17578,0.0781 0.17578,0.17187 v 0.45313 c 0,0.0977 -0.0781,0.17578 -0.17578,0.17578 h -0.98438 c -0.0937,0 -0.17187,-0.0781 -0.17187,-0.17578 v -0.45313 c 0,-0.0937 0.0781,-0.17187 0.17187,-0.17187 z m 0,0"
       id="path170" />
    <path
       style="fill:#3d3a54;fill-opacity:1;fill-rule:nonzero;stroke:none"
       d="m 156.19141,137.66016 h 0.98437 c 0.0977,0 0.17188,0.0781 0.17188,0.17187 v 0.45313 c 0,0.0977 -0.0742,0.17578 -0.17188,0.17578 h -0.98437 c -0.0977,0 -0.17579,-0.0781 -0.17579,-0.17578 v -0.45313 c 0,-0.0937 0.0781,-0.17187 0.17579,-0.17187 z m 0,0"
       id="path172" />
    <path
       style="fill:#3d3a54;fill-opacity:1;fill-rule:nonzero;stroke:none"
       d="m 158.85156,137.66016 h 0.98828 c 0.0937,0 0.17188,0.0781 0.17188,0.17187 v 0.45313 c 0,0.0977 -0.0781,0.17578 -0.17188,0.17578 h -0.98828 c -0.0937,0 -0.17187,-0.0781 -0.17187,-0.17578 v -0.45313 c 0,-0.0937 0.0781,-0.17187 0.17187,-0.17187 z m 0,0"
       id="path174" />
    <path
       style="fill:#3d3a54;fill-opacity:1;fill-rule:nonzero;stroke:none"
       d="m 161.51562,137.66016 h 0.98829 c 0.0937,0 0.17187,0.0781 0.17187,0.17187 v 0.45313 c 0,0.0977 -0.0781,0.17578 -0.17187,0.17578 h -0.98829 c -0.0937,0 -0.17187,-0.0781 -0.17187,-0.17578 v -0.45313 c 0,-0.0937 0.0781,-0.17187 0.17187,-0.17187 z m 0,0"
       id="path176" />
    <path
       style="fill:#3d3a54;fill-opacity:1;fill-rule:nonzero;stroke:none"
       d="m 164.17969,137.66016 h 0.98437 c 0.0977,0 0.17578,0.0781 0.17578,0.17187 v 0.45313 c 0,0.0977 -0.0781,0.17578 -0.17578,0.17578 h -0.98437 c -0.0937,0 -0.17188,-0.0781 -0.17188,-0.17578 v -0.45313 c 0,-0.0937 0.0781,-0.17187 0.17188,-0.17187 z m 0,0"
       id="path178" />
    <path
       style="fill:#3d3a54;fill-opacity:1;fill-rule:nonzero;stroke:none"
       d="m 124.19922,138.99219 h 0.98828 c 0.0937,0 0.17188,0.0781 0.17188,0.17187 v 0.45313 c 0,0.0937 -0.0781,0.17187 -0.17188,0.17187 h -0.98828 c -0.0937,0 -0.17188,-0.0781 -0.17188,-0.17187 v -0.45313 c 0,-0.0937 0.0781,-0.17187 0.17188,-0.17187 z m 0,0"
       id="path180" />
    <path
       style="fill:#3d3a54;fill-opacity:1;fill-rule:nonzero;stroke:none"
       d="m 126.86328,138.99219 h 0.98828 c 0.0937,0 0.17188,0.0781 0.17188,0.17187 v 0.45313 c 0,0.0937 -0.0781,0.17187 -0.17188,0.17187 h -0.98828 c -0.0937,0 -0.17187,-0.0781 -0.17187,-0.17187 v -0.45313 c 0,-0.0937 0.0781,-0.17187 0.17187,-0.17187 z m 0,0"
       id="path182" />
    <path
       style="fill:#3d3a54;fill-opacity:1;fill-rule:nonzero;stroke:none"
       d="m 129.52734,138.99219 h 0.98438 c 0.0977,0 0.17578,0.0781 0.17578,0.17187 v 0.45313 c 0,0.0937 -0.0781,0.17187 -0.17578,0.17187 h -0.98438 c -0.0937,0 -0.17187,-0.0781 -0.17187,-0.17187 v -0.45313 c 0,-0.0937 0.0781,-0.17187 0.17187,-0.17187 z m 0,0"
       id="path184" />
    <path
       style="fill:#3d3a54;fill-opacity:1;fill-rule:nonzero;stroke:none"
       d="m 132.19141,138.99219 h 0.98437 c 0.0937,0 0.17188,0.0781 0.17188,0.17187 v 0.45313 c 0,0.0937 -0.0781,0.17187 -0.17188,0.17187 h -0.98437 c -0.0977,0 -0.17579,-0.0781 -0.17579,-0.17187 v -0.45313 c 0,-0.0937 0.0781,-0.17187 0.17579,-0.17187 z m 0,0"
       id="path186" />
    <path
       style="fill:#3d3a54;fill-opacity:1;fill-rule:nonzero;stroke:none"
       d="m 134.85156,138.99219 h 0.98828 c 0.0937,0 0.17188,0.0781 0.17188,0.17187 v 0.45313 c 0,0.0937 -0.0781,0.17187 -0.17188,0.17187 h -0.98828 c -0.0937,0 -0.17187,-0.0781 -0.17187,-0.17187 v -0.45313 c 0,-0.0937 0.0781,-0.17187 0.17187,-0.17187 z m 0,0"
       id="path188" />
    <path
       style="fill:#3d3a54;fill-opacity:1;fill-rule:nonzero;stroke:none"
       d="m 137.51562,138.99219 h 0.98829 c 0.0937,0 0.17187,0.0781 0.17187,0.17187 v 0.45313 c 0,0.0937 -0.0781,0.17187 -0.17187,0.17187 h -0.98829 c -0.0937,0 -0.17187,-0.0781 -0.17187,-0.17187 v -0.45313 c 0,-0.0937 0.0781,-0.17187 0.17187,-0.17187 z m 0,0"
       id="path190" />
    <path
       style="fill:#3d3a54;fill-opacity:1;fill-rule:nonzero;stroke:none"
       d="m 140.17969,138.99219 h 0.98437 c 0.0977,0 0.17578,0.0781 0.17578,0.17187 v 0.45313 c 0,0.0937 -0.0781,0.17187 -0.17578,0.17187 h -0.98437 c -0.0937,0 -0.17188,-0.0781 -0.17188,-0.17187 v -0.45313 c 0,-0.0937 0.0781,-0.17187 0.17188,-0.17187 z m 0,0"
       id="path192" />
    <path
       style="fill:#3d3a54;fill-opacity:1;fill-rule:nonzero;stroke:none"
       d="m 142.84375,138.99219 h 0.98437 c 0.0977,0 0.17188,0.0781 0.17188,0.17187 v 0.45313 c 0,0.0937 -0.0742,0.17187 -0.17188,0.17187 h -0.98437 c -0.0977,0 -0.17188,-0.0781 -0.17188,-0.17187 v -0.45313 c 0,-0.0937 0.0742,-0.17187 0.17188,-0.17187 z m 0,0"
       id="path194" />
    <path
       style="fill:#3d3a54;fill-opacity:1;fill-rule:nonzero;stroke:none"
       d="m 145.50781,138.99219 h 0.98438 c 0.0937,0 0.17187,0.0781 0.17187,0.17187 v 0.45313 c 0,0.0937 -0.0781,0.17187 -0.17187,0.17187 h -0.98438 c -0.0977,0 -0.17578,-0.0781 -0.17578,-0.17187 v -0.45313 c 0,-0.0937 0.0781,-0.17187 0.17578,-0.17187 z m 0,0"
       id="path196" />
    <path
       style="fill:#3d3a54;fill-opacity:1;fill-rule:nonzero;stroke:none"
       d="m 148.16797,138.99219 h 0.98828 c 0.0937,0 0.17187,0.0781 0.17187,0.17187 v 0.45313 c 0,0.0937 -0.0781,0.17187 -0.17187,0.17187 h -0.98828 c -0.0937,0 -0.17188,-0.0781 -0.17188,-0.17187 v -0.45313 c 0,-0.0937 0.0781,-0.17187 0.17188,-0.17187 z m 0,0"
       id="path198" />
    <path
       style="fill:#3d3a54;fill-opacity:1;fill-rule:nonzero;stroke:none"
       d="m 150.83203,138.99219 h 0.98438 c 0.0977,0 0.17578,0.0781 0.17578,0.17187 v 0.45313 c 0,0.0937 -0.0781,0.17187 -0.17578,0.17187 h -0.98438 c -0.0937,0 -0.17187,-0.0781 -0.17187,-0.17187 v -0.45313 c 0,-0.0937 0.0781,-0.17187 0.17187,-0.17187 z m 0,0"
       id="path200" />
    <path
       style="fill:#3d3a54;fill-opacity:1;fill-rule:nonzero;stroke:none"
       d="m 153.49609,138.99219 h 0.98438 c 0.0977,0 0.17187,0.0781 0.17187,0.17187 v 0.45313 c 0,0.0937 -0.0742,0.17187 -0.17187,0.17187 h -0.98438 c -0.0977,0 -0.17187,-0.0781 -0.17187,-0.17187 v -0.45313 c 0,-0.0937 0.0742,-0.17187 0.17187,-0.17187 z m 0,0"
       id="path202" />
    <path
       style="fill:#3d3a54;fill-opacity:1;fill-rule:nonzero;stroke:none"
       d="m 156.16016,138.99219 h 0.98437 c 0.0937,0 0.17188,0.0781 0.17188,0.17187 v 0.45313 c 0,0.0937 -0.0781,0.17187 -0.17188,0.17187 h -0.98437 c -0.0977,0 -0.17579,-0.0781 -0.17579,-0.17187 v -0.45313 c 0,-0.0937 0.0781,-0.17187 0.17579,-0.17187 z m 0,0"
       id="path204" />
    <path
       style="fill:#3d3a54;fill-opacity:1;fill-rule:nonzero;stroke:none"
       d="m 158.82031,138.99219 h 0.98828 c 0.0937,0 0.17188,0.0781 0.17188,0.17187 v 0.45313 c 0,0.0937 -0.0781,0.17187 -0.17188,0.17187 h -0.98828 c -0.0937,0 -0.17187,-0.0781 -0.17187,-0.17187 v -0.45313 c 0,-0.0937 0.0781,-0.17187 0.17187,-0.17187 z m 0,0"
       id="path206" />
    <path
       style="fill:#3d3a54;fill-opacity:1;fill-rule:nonzero;stroke:none"
       d="m 161.48437,138.99219 h 0.98438 c 0.0977,0 0.17578,0.0781 0.17578,0.17187 v 0.45313 c 0,0.0937 -0.0781,0.17187 -0.17578,0.17187 h -0.98438 c -0.0937,0 -0.17187,-0.0781 -0.17187,-0.17187 v -0.45313 c 0,-0.0937 0.0781,-0.17187 0.17187,-0.17187 z m 0,0"
       id="path208" />
    <path
       style="fill:#3d3a54;fill-opacity:1;fill-rule:nonzero;stroke:none"
       d="m 164.14844,138.99219 h 0.98437 c 0.0977,0 0.17188,0.0781 0.17188,0.17187 v 0.45313 c 0,0.0937 -0.0742,0.17187 -0.17188,0.17187 h -0.98437 c -0.0977,0 -0.17188,-0.0781 -0.17188,-0.17187 v -0.45313 c 0,-0.0937 0.0742,-0.17187 0.17188,-0.17187 z m 0,0"
       id="path210" />
    <path
       style="fill:#3d3a54;fill-opacity:1;fill-rule:nonzero;stroke:none"
       d="m 136.98437,140.58984 h 10.3086 c 0.0937,0 0.17187,0.0742 0.17187,0.17188 v 0.45312 c 0,0.0937 -0.0781,0.17188 -0.17187,0.17188 h -10.3086 c -0.0977,0 -0.17187,-0.0781 -0.17187,-0.17188 v -0.45312 c 0,-0.0977 0.0742,-0.17188 0.17187,-0.17188 z m 0,0"
       id="path212" />
    <path
       style="fill:#cacaca;fill-opacity:1;fill-rule:nonzero;stroke:none"
       d="m 176.81641,76.289062 h -67.9961 c -0.14453,-0.0039 -0.25781,-0.121093 -0.25781,-0.269531 0,-0.144531 0.11328,-0.261719 0.25781,-0.269531 h 67.9961 c 0.14843,0.0078 0.26171,0.125 0.26171,0.269531 0,0.148438 -0.11328,0.265625 -0.26171,0.269531 z m 0,0"
       id="path214" />
    <path
       style="fill:#3d3a54;fill-opacity:1;fill-rule:nonzero;stroke:none"
       d="m 115.03516,72.753906 c 0,-0.894531 -0.71094,-1.621094 -1.58594,-1.621094 -0.875,0 -1.58203,0.726563 -1.58203,1.621094 0,0.894532 0.70703,1.617188 1.58203,1.617188 0.875,0 1.58594,-0.722656 1.58594,-1.617188 z m 0,0"
       id="path216" />
    <path
       style="fill:#3d3a54;fill-opacity:1;fill-rule:nonzero;stroke:none"
       d="m 120.50781,72.753906 c 0,-0.894531 -0.70703,-1.621094 -1.58203,-1.621094 -0.875,0 -1.58594,0.726563 -1.58594,1.621094 0,0.894532 0.71094,1.617188 1.58594,1.617188 0.875,0 1.58203,-0.722656 1.58203,-1.617188 z m 0,0"
       id="path218" />
    <path
       style="fill:#3d3a54;fill-opacity:1;fill-rule:nonzero;stroke:none"
       d="m 125.98438,72.753906 c 0,-0.894531 -0.71094,-1.621094 -1.58594,-1.621094 -0.875,0 -1.58594,0.726563 -1.58594,1.621094 0,0.894532 0.71094,1.617188 1.58594,1.617188 0.875,0 1.58594,-0.722656 1.58594,-1.617188 z m 0,0"
       id="path220" />
    <path
       style="fill:#3d3a54;fill-opacity:1;fill-rule:nonzero;stroke:none"
       d="m 173.52344,71.535156 h -3.89063 c -0.15625,0.0039 -0.28515,0.136719 -0.28515,0.292969 0,0.160156 0.1289,0.289063 0.28515,0.296875 h 3.89063 c 0.15625,-0.0078 0.28125,-0.136719 0.28125,-0.296875 0,-0.15625 -0.125,-0.289063 -0.28125,-0.292969 z m 0,1.105469 h -3.89063 c -0.15625,0.0039 -0.28515,0.132813 -0.28515,0.292969 0,0.160156 0.1289,0.289062 0.28515,0.292968 h 3.89063 c 0.15625,-0.0039 0.28125,-0.132812 0.28125,-0.292968 0,-0.160156 -0.125,-0.289063 -0.28125,-0.292969 z m 0,1.101563 h -3.89063 c -0.15625,0.0039 -0.28515,0.136718 -0.28515,0.292968 0,0.160156 0.1289,0.289063 0.28515,0.296875 h 3.89063 c 0.15625,-0.0078 0.28125,-0.136719 0.28125,-0.296875 0,-0.15625 -0.125,-0.289062 -0.28125,-0.292968 z m 0,0"
       id="path222" />
    <path
       style="fill:#6b61ff;fill-opacity:1;fill-rule:nonzero;stroke:none"
       d="M 139.75391,92.078125 H 148.25 c 0.64062,0 1.15625,0.515625 1.15625,1.152344 0,0.636719 -0.51563,1.15625 -1.15625,1.15625 h -8.49609 c -0.63672,0 -1.15625,-0.519531 -1.15625,-1.15625 0,-0.636719 0.51953,-1.152344 1.15625,-1.152344 z m 0,0"
       id="path224" />
    <path
       style="fill:#e6e6e6;fill-opacity:1;fill-rule:nonzero;stroke:none"
       d="m 134.26562,96.695312 h 19.47266 c 0.64063,0 1.15625,0.515626 1.15625,1.152344 0,0.640625 -0.51562,1.15625 -1.15625,1.15625 h -19.47266 c -0.63671,0 -1.15625,-0.515625 -1.15625,-1.15625 0,-0.636718 0.51954,-1.152344 1.15625,-1.152344 z m 0,0"
       id="path226" />
    <path
       style="fill:#e6e6e6;fill-opacity:1;fill-rule:nonzero;stroke:none"
       d="m 134.26562,101.3125 h 19.47266 c 0.64063,0 1.15625,0.51953 1.15625,1.15625 0,0.63672 -0.51562,1.15234 -1.15625,1.15234 h -19.47266 c -0.63671,0 -1.15625,-0.51562 -1.15625,-1.15234 0,-0.63672 0.51954,-1.15625 1.15625,-1.15625 z m 0,0"
       id="path228" />
    <path
       style="fill:#3d3a54;fill-opacity:1;fill-rule:nonzero;stroke:none"
       d="M 109.48438,145.33594 H 88.246094 c -1.566406,0 -2.832032,1.26562 -2.832032,2.82812 0,1.5625 1.265626,2.82813 2.832032,2.82813 h 7.789062 v 21.93359 h 5.664064 v -21.93359 h 7.78516 c 1.5664,0 2.83203,-1.26563 2.83203,-2.82813 0,-1.5625 -1.26563,-2.82812 -2.83203,-2.82812 z m 0,0"
       id="path230" />
    <path
       style="fill:#3d3a54;fill-opacity:1;fill-rule:nonzero;stroke:none"
       d="M 123.50391,185.07031 H 66.691406 c -11.382812,-0.0391 -21.015625,-8.41797 -22.625,-19.67969 L 42.054688,158 C 37.894531,142.68359 31.550781,128.04297 23.226562,114.52344 19.425781,108.35156 17.464844,102.375 21.914062,96.621094 l 0.109376,-0.144532 c 3.570312,-4.640624 21.324218,-5.644531 27.113281,-5.839843 0.230469,-0.0078 0.457031,-0.01172 0.6875,-0.01172 h 35.335937 c 0.230469,0 0.460938,0.0039 0.691406,0.01172 6.355469,0.183593 12.097657,3.84375 14.949218,9.523441 3.04297,5.79687 2.65625,12.80078 -1.007811,18.22656 -12.414063,18.63281 -16.214844,30.3125 -12.324219,37.8789 3.765625,7.32032 15.30078,11.0586 36.30469,11.77344 5.64843,0.19141 8.23828,4.58594 8.2539,8.58594 0.0195,3.89453 -2.47265,8.19531 -7.98046,8.43359 -0.17969,0.008 -0.35938,0.0117 -0.54297,0.0117 z m 0,0"
       id="path232" />
    <path
       style="fill:#3d3a54;fill-opacity:1;fill-rule:nonzero;stroke:none"
       d="m 76.34375,235.47656 h 21.242188 c 1.5625,0 2.832032,-1.26562 2.832032,-2.82812 0,-1.5625 -1.269532,-2.83203 -2.832032,-2.83203 h -7.789063 v -47.75 h -5.664063 v 47.75 H 76.34375 c -1.5625,0 -2.832031,1.26953 -2.832031,2.83203 0,1.5625 1.269531,2.82812 2.832031,2.82812 z m 0,0"
       id="path234" />
    <path
       style="fill:#2e2e3f;fill-opacity:1;fill-rule:nonzero;stroke:none"
       d="m 74.648438,92.398438 0.445312,2.703124 c 0.210938,1.308594 0.972656,10.570318 0.40625,11.675778 -0.04687,-2.0625 -3.894531,-5.30468 -6.382812,-4.5664 l -3.910157,0.86719 -2.425781,0.54296 -1.976562,0.42969 -5.738282,1.25391 c -0.0078,-0.0664 -0.01563,-0.13672 -0.02734,-0.20313 -0.01172,-0.0859 -0.02734,-0.16797 -0.04297,-0.2539 -0.105469,-0.53516 -0.300782,-1.05078 -0.578125,-1.52735 -0.02734,0.63672 -0.214844,1.25391 -0.542969,1.79688 -0.01172,0.0156 -0.01953,0.0312 -0.02344,0.0469 -0.101562,0.16407 -0.214843,0.32032 -0.335937,0.47266 -0.0078,0.004 -0.01172,0.008 -0.01563,0.0156 0,0 -1.179688,-18.781246 -1.058594,-18.953121 0.09375,-0.125 0.183594,-0.246094 0.277344,-0.363281 0.09375,-0.117188 0.1875,-0.234376 0.285156,-0.351563 0.01172,-0.01172 0.02344,-0.02344 0.03125,-0.03906 0.277344,-0.328124 0.570313,-0.640624 0.878906,-0.9375 0.08984,-0.08984 0.183594,-0.175781 0.277344,-0.265624 1.4375,-1.324219 3.152344,-2.3125 5.019532,-2.890626 0.21875,-0.06641 0.433593,-0.128906 0.652343,-0.183593 0.222657,-0.05859 0.445313,-0.109375 0.671875,-0.15625 l 0.07422,-0.01563 c 0.109375,-0.02344 0.21875,-0.03906 0.328125,-0.05859 0.136719,-0.02344 0.273438,-0.04687 0.40625,-0.0625 1.738281,-0.25 3.511719,-0.148438 5.210938,0.292969 0.0039,0 0.0039,0.0039 0.0078,0.0039 1.417969,0.367187 2.765625,0.96875 3.988281,1.773437 2.121094,1.398438 2.945313,3.679688 3.53125,6.238282 0.203125,0.878906 0.375,1.792968 0.566407,2.714844 z m 0,0"
       id="path236" />
    <path
       style="fill:#ffb5b5;fill-opacity:1;fill-rule:nonzero;stroke:none"
       d="m 95.566406,216.22656 3.660156,1.98438 9.687498,-13.38282 -5.40234,-2.92968 z m 0,0"
       id="path238" />
    <path
       style="fill:#2e2e3f;fill-opacity:1;fill-rule:nonzero;stroke:none"
       d="m 97.328125,211.45703 6.644535,2.07813 -1.0586,2.78125 4.55469,6.60546 c 0.46484,0.67188 0.43359,1.5625 -0.0664,2.20313 -0.5039,0.63672 -1.36328,0.87891 -2.125,0.58984 l -7.730465,-2.9375 -0.289063,-3.25781 -1.566406,2.55469 -2.914062,-1.10547 z m 0,0"
       id="path240" />
    <path
       style="fill:#ffb5b5;fill-opacity:1;fill-rule:nonzero;stroke:none"
       d="m 116.29297,156.37109 c -1.17969,0.28907 -2.42969,0.0352 -3.41016,-0.68359 -0.98047,-0.72266 -1.58984,-1.83984 -1.66406,-3.05469 l -31.210938,-11.21875 5.726563,-4.98047 29.625005,11.78516 c 2.09375,0.008 3.85156,1.58203 4.08984,3.66016 0.23828,2.08203 -1.11719,4.01171 -3.15625,4.49218 z m 0,0"
       id="path242" />
    <path
       style="fill:#6b61ff;fill-opacity:1;fill-rule:nonzero;stroke:none"
       d="m 71.289062,113.62109 c 0,0 -5.253906,0.11719 -5.722656,6.11329 -0.46875,5.99609 11,20.82812 12.777344,23.27343 1.777344,2.44531 21.515625,5.45703 21.515625,5.45703 l 6.710935,-4.86718 c -7.050779,-4.56641 -13.484372,-8.06641 -17.804685,-7.90625 z m 0,0"
       id="path244" />
    <path
       style="fill:#ffb5b5;fill-opacity:1;fill-rule:nonzero;stroke:none"
       d="m 64.84375,140.08203 1.28125,5.49609 c 0,0 0.01172,5.07032 0.910156,6.00782 0.890625,0.92968 20.515625,-0.9375 20.515625,-0.9375 0,0 -2.078125,-8.17188 -2.050781,-14.35547 z m 0,0"
       id="path246" />
    <path
       style="fill:#2e2e3f;fill-opacity:1;fill-rule:nonzero;stroke:none"
       d="m 106.30078,210.42187 -7.08203,-3.89062 c -0.132812,-9.20703 5.40625,-21.66406 11.98047,-34.71484 -14.69922,2.52734 -28.566408,3.33593 -40.562501,0.28125 -4.097657,-1.08204 -6.566407,-5.25 -5.542969,-9.35938 0.04687,-0.19531 0.09766,-0.38672 0.160156,-0.57422 1.4375,-4.3789 -1.78125,-7.12109 1.175782,-11.93359 7.789062,-2.66016 15.1875,-3.41016 21.949218,-1.0625 l 4.238282,9.36328 21.007812,-2.71484 c 2.05078,-0.2461 4.11328,0.33593 5.73047,1.61718 1.62109,1.28125 2.66016,3.15625 2.88672,5.20703 0.0312,0.22657 0.0469,0.45704 0.0586,0.6836 -4.25,19.89844 -9.01172,37.80469 -16,47.09765 z m 0,0"
       id="path248" />
    <path
       style="fill:#ffb5b5;fill-opacity:1;fill-rule:nonzero;stroke:none"
       d="m 72.660156,91.726562 c 0.972656,4.746094 -2.09375,9.382818 -6.84375,10.355468 -4.75,0.96875 -9.390625,-2.089842 -10.363281,-6.839842 -0.972656,-4.746094 2.09375,-9.382813 6.84375,-10.355469 4.75,-0.96875 9.390625,2.089843 10.363281,6.839843 z m 0,0"
       id="path250" />
    <path
       style="fill:#6b61ff;fill-opacity:1;fill-rule:nonzero;stroke:none"
       d="m 61.992188,105.26563 8.089843,-0.47657 c 0.703125,-0.043 1.351563,0.36328 1.617188,1.01172 l 2.289062,5.53906 9.503907,7.85157 c 0,0 3.761718,4.78515 3.773437,10.96484 0.0078,6.17969 1.332031,20.48437 1.332031,20.48437 0,0 -5.492187,-7.72656 -8.878906,-5.67187 -0.578125,0.35156 -0.78125,1.06641 -1.386719,1.42578 -0.300781,0.17969 -0.996093,0.004 -1.300781,0.1875 -4.671875,2.76953 -9.542969,5.47656 -10,5.00391 -0.890625,-0.9336 -1.976562,-5.69532 -1.976562,-5.69532 l -7.40625,-27.19921 c -0.816407,-2.89453 -0.289063,-6.00391 1.433593,-8.47657 0.515625,-0.72656 1.058594,-1.26953 1.5625,-1.35937 1.128907,-0.23828 0.527344,-2.77344 1.347657,-3.58984 z m 0,0"
       id="path252" />
    <path
       style="fill:#ffb5b5;fill-opacity:1;fill-rule:nonzero;stroke:none"
       d="m 130.83594,227.74609 3.41406,-2.37109 -7.73828,-14.58984 -5.04297,3.5 z m 0,0"
       id="path254" />
    <path
       style="fill:#2e2e3f;fill-opacity:1;fill-rule:nonzero;stroke:none"
       d="m 131.35156,217.95703 -5.35547,4.78125 c -8.51171,-9.47656 -14.94921,-22.76953 -20.40234,-37.86719 -14.289062,-4.18359 -25.066406,-10.92578 -34.472656,-18.93359 -3.191406,-2.69922 -5.585938,-6.16406 -2.863282,-9.45313 0.128907,-0.15234 0.261719,-0.30078 0.398438,-0.44531 3.214844,-3.30078 11.363281,-2.67187 16.136719,-5.69531 l 10.664062,11.39062 -0.671875,3.05079 20.031254,6.78125 c 1.94531,0.67968 3.53906,2.10937 4.42578,3.97265 0.88672,1.85938 0.99219,3.9961 0.29297,5.9375 -0.0742,0.21485 -0.15625,0.42969 -0.25,0.64063 z m -2.50781,8.82813 5.46875,-4.30469 1.69922,2.4414 8.02734,-0.0234 c 0.8125,0 1.53516,0.52343 1.77735,1.30078 0.24609,0.77344 -0.043,1.62109 -0.71094,2.08203 L 138.3125,233 l -2.85156,-1.60156 1.22265,2.73437 -2.55859,1.77735 z m 0,0"
       id="path256" />
    <path
       style="fill:#ffb5b5;fill-opacity:1;fill-rule:nonzero;stroke:none"
       d="m 73.941406,173.80859 c -1.121094,-0.47656 -1.972656,-1.42187 -2.328125,-2.58593 -0.351562,-1.16407 -0.171875,-2.42188 0.492188,-3.44141 l -18.320313,-27.62891 7.570313,-0.57422 16.707031,27.13282 c 1.675781,1.25781 2.148438,3.5664 1.09375,5.3789 -1.050781,1.8086 -3.292969,2.54688 -5.214844,1.71875 z m 0,0"
       id="path258" />
    <path
       style="fill:#6b61ff;fill-opacity:1;fill-rule:nonzero;stroke:none"
       d="m 63.40625,112.66016 c 0,0 -4.28125,-3.04297 -8.242188,1.48437 -3.960937,4.53125 -3.628906,23.26953 -3.667968,26.29297 -0.01172,0.94531 1.355468,2.98828 3.242187,5.34766 0.84375,1.05859 1.796875,2.18359 2.769531,3.29687 0.566407,0.64844 0.07813,1.99219 0.648438,2.61719 0.5625,0.625 2.179688,0.53515 2.71875,1.11328 2.546875,2.75 4.613281,4.84375 4.613281,4.84375 l 8.292969,0.10156 c 0.09375,-6.15625 -4.128906,-11.65625 -9.550781,-16.96875 z m 0,0"
       id="path260" />
    <path
       style="fill:#2e2e3f;fill-opacity:1;fill-rule:nonzero;stroke:none"
       d="m 75.03125,89.222656 c -0.324219,0.160156 -0.640625,0.3125 -0.949219,0.460938 -1.242187,0.609375 -2.527343,1.132812 -3.84375,1.5625 -0.21875,-0.597656 -0.554687,-1.144532 -0.984375,-1.609375 0.109375,0.644531 0.05469,1.304687 -0.160156,1.921875 -1.992188,0.492187 -4.085938,0.410156 -6.035156,-0.234375 1.277344,2.359375 2.21875,7.324219 2.148437,11.753911 -0.03125,2.34375 -0.347656,4.53515 -1.039062,6.10937 l -0.890625,-2.70703 c -0.08203,-0.96484 -0.25,-1.92188 -0.496094,-2.85938 -0.597656,-2.63281 -1.15625,-0.875 -1.976562,0.42969 l -5.738282,1.25391 c -0.0078,-0.0664 -0.01563,-0.13672 -0.02734,-0.20313 -0.01172,-0.0859 -0.02734,-0.16797 -0.04297,-0.2539 -0.105469,-0.53516 -0.300782,-1.05078 -0.578125,-1.52735 -0.02734,0.63672 -0.214844,1.25391 -0.542969,1.79688 -0.01172,0.0156 -0.01953,0.0312 -0.02344,0.0469 -0.101562,0.16407 -0.214843,0.32032 -0.335937,0.47266 -0.0078,0.004 -0.01172,0.008 -0.01563,0.0156 -3.707031,0.49219 -6.304688,-18.597652 -1.054688,-18.949215 0.152344,-0.01172 0.179688,-0.246094 0.273438,-0.367187 0.09375,-0.117188 0.1875,-0.234376 0.285156,-0.351563 0.01172,-0.01172 0.02344,-0.02344 0.03125,-0.03906 0.28125,-0.324218 0.574219,-0.636718 0.878906,-0.9375 0.08984,-0.08984 0.183594,-0.175781 0.277344,-0.265624 1.441406,-1.320313 3.15625,-2.304688 5.019532,-2.886719 0.210937,-0.06641 0.429687,-0.128907 0.652343,-0.1875 0.222657,-0.05859 0.445313,-0.109375 0.671875,-0.15625 l 0.07422,-0.01563 c 0.109375,-0.02344 0.21875,-0.03906 0.328125,-0.05859 0.136719,-0.02344 0.273438,-0.04687 0.40625,-0.0625 0.503906,0.253906 0.933594,0.628906 1.25,1.09375 l 3.667969,-0.746094 c 0.09766,-0.02344 0.195312,-0.03906 0.292969,-0.05078 h 0.0078 c 4.574219,-0.769531 7.519531,2.910156 8.46875,7.550781 z m 0,0"
       id="path262" />
    <path
       style="fill:#2e2e3f;fill-opacity:1;fill-rule:nonzero;stroke:none"
       d="m 55.050781,85.847656 c -0.785156,0.566406 -1.609375,1.148438 -2.570312,1.289063 C 51.523438,87.277344 50.402344,86.8125 50.136719,85.882812 49.8125,84.746094 50.84375,83.710938 51.765625,82.96875 L 54.695312,80.625 c 0.535157,-0.472656 1.140626,-0.863281 1.796876,-1.160156 0.664062,-0.292969 1.425781,-0.265625 2.070312,0.07031 0.640625,0.433594 1.011719,1.164063 0.980469,1.9375 C 59.5,82.230469 59.25,82.964844 58.816406,83.59375 57.71875,85.304688 55.96875,86.492188 53.96875,86.882812"
       id="path264" />
    <path
       style="fill:#3d3a54;fill-opacity:1;fill-rule:nonzero;stroke:none"
       d="M 77.269531,146.75 H 56.03125 c -1.566406,0 -2.832031,1.26562 -2.832031,2.82812 0,1.5625 1.265625,2.83204 2.832031,2.83204 h 7.789062 v 21.92968 h 5.664063 v -21.92968 h 7.785156 c 1.566407,0 2.832031,-1.26954 2.832031,-2.83204 0,-1.5625 -1.265624,-2.82812 -2.832031,-2.82812 z m 0,0"
       id="path266" />
    <path
       style="fill:#cacaca;fill-opacity:1;fill-rule:nonzero;stroke:none"
       d="M 155.74219,236.5 0.421875,236.60937 C 0.1875,236.60937 0,236.42187 0,236.1875 c 0,-0.23047 0.1875,-0.41797 0.421875,-0.41797 l 155.320315,-0.10937 c 0.23047,0 0.42187,0.1875 0.42187,0.42187 0,0.23047 -0.1914,0.41797 -0.42187,0.41797 z m 0,0"
       id="path268" />
    <path
       style="fill:#9e6168;fill-opacity:1;fill-rule:nonzero;stroke:none"
       d="m 200.94141,189.51953 3.45703,3.76563 16.17968,-11.53516 -5.10546,-5.55469 z m 0,0"
       id="path270" />
    <path
       style="fill:#2e2e3f;fill-opacity:1;fill-rule:nonzero;stroke:none"
       d="m 208.09766,194.84766 -0.35157,-3.76172 -0.16015,-0.0742 -0.92969,-0.44141 -4.39453,-2.07812 -0.0898,-0.0977 -0.88281,-0.96484 -4.88281,4.48047 6.61328,7.20312 4.53516,4.9375 0.15234,-0.14062 c 1.25781,-1.15235 2.00391,-2.75 2.07422,-4.44922 0.0742,-1.69922 -0.53125,-3.35938 -1.68359,-4.61328 z m 0,0"
       id="path272" />
    <path
       style="fill:#9e6168;fill-opacity:1;fill-rule:nonzero;stroke:none"
       d="m 183.02734,227.08203 4.89453,1.48438 8.0586,-18.15235 -7.21875,-2.1914 z m 0,0"
       id="path274" />
    <path
       style="fill:#2e2e3f;fill-opacity:1;fill-rule:nonzero;stroke:none"
       d="m 195.69531,231.14453 c -0.79687,-1.50391 -2.16406,-2.625 -3.79297,-3.11328 l -2.21875,-3.05859 -0.17578,0.0156 -5.86328,0.53516 -0.13281,-0.0391 -1.2461,-0.375 -1.92578,6.33204 15.77735,4.78906 0.0625,-0.19922 c 0.49609,-1.62891 0.32031,-3.38672 -0.48438,-4.88672 z m 0,0"
       id="path276" />
    <path
       style="fill:#2e2e3f;fill-opacity:1;fill-rule:nonzero;stroke:none"
       d="m 223.375,132.03516 c 0,0 31.24219,30.14062 11.49219,39.47265 h -6.10547 c 0,0 -1.83203,-6.51562 -6.03125,-12.0039 -0.57813,-0.75391 -2.73828,-0.60157 -3.33985,-1.33594 -3.66406,-4.48828 -7.63671,-8.34375 -10.3789,-8.19141 l 0.65625,20.82422 1.0625,7.42969 c 0.55859,3.83984 -15.17969,37.37109 -15.17969,37.37109 l -9.89062,-3.88672 c 0,0 10.30468,-27.61718 10.42578,-31.59765 l -8.25782,-43.77344 z m 0,0"
       id="path278" />
    <path
       style="fill:#6b61ff;fill-opacity:1;fill-rule:nonzero;stroke:none"
       d="m 225.98047,133.52344 c -0.15625,0.22656 -0.36719,0.41406 -0.60938,0.55078 -0.39453,0.22656 -0.82812,0.38672 -1.27734,0.47265 -7.03125,1.59766 -30.01172,4.90625 -35.97656,3.32813 -0.73438,-0.19141 -1.21094,-0.46094 -1.36719,-0.81641 -0.5,-1.11718 -0.43359,-5.83984 -0.14063,-11.53906 0.0547,-1.07031 1.23047,-2.22656 1.30079,-3.34375 0.0508,-0.83984 -1.00782,-1.6289 -0.94922,-2.48047 0.38672,-5.76562 0.89062,-11.64062 1.22656,-15.35547 0.21484,-2.38671 0.35937,-3.8789 0.35937,-3.8789 l -3.6289,-22.863284 0.16797,-0.277344 0.1914,-0.09766 11.69922,-5.785156 0.64063,-1.628906 c 0.375,-0.957032 1.30078,-1.589844 2.33203,-1.59375 l 7.70703,-0.03125 c 0.80859,-0.0078 1.57422,0.382812 2.04687,1.039062 l 2.08985,2.890625 13.80469,8.839844 -0.0508,0.164063 -6.48046,19.699226 -0.0312,1.53515 v 0.004 l -0.23829,12.34375 0.66797,1.67578 -0.7539,2.74219 c 0,0 0.34765,3.21094 2.20312,5.59375 1.6875,2.16406 3.83203,4.42187 4.80078,6.2539 v 0.004 c 0.53907,1.01172 0.71875,1.89062 0.26563,2.55469 z m 0,0"
       id="path280" />
    <path
       style="fill:#2e2e3f;fill-opacity:1;fill-rule:nonzero;stroke:none"
       d="m 236.36719,169.71484 -1.66797,2.10938 c 0,0 -15.35938,10.73828 -15.88672,11.73828 l -2.42578,2.29687 -5.875,-6.27343 3.05469,-3.82422 c 2.44531,-3.0625 5.60156,-5.47656 9.19531,-7.03516 l 4.68359,-4.14844 z m 0,0"
       id="path282" />
    <path
       style="fill:#9e6168;fill-opacity:1;fill-rule:nonzero;stroke:none"
       d="m 226.60937,139.58203 -2.79687,-27.05078 -0.73828,-11.13281 7.82812,-1.414065 c 0,0 -0.30859,7.960935 0.71485,12.453125 1.01172,4.43359 0.13281,26.55078 0.0703,27.14453 1.17969,1.05078 1.58203,2.71875 1.01953,4.19141 -0.5625,1.47265 -1.97656,2.44922 -3.55469,2.44922 -1.57812,0 -2.99609,-0.97266 -3.55859,-2.44532 -0.56641,-1.47265 -0.16016,-3.14062 1.01562,-4.19531 z m 0,0"
       id="path284" />
    <path
       style="fill:#6b61ff;fill-opacity:1;fill-rule:nonzero;stroke:none"
       d="m 234.24609,118.13672 -10.0625,2.08203 -0.8789,-3.50391 -1.02735,-1.08593 -2.05078,-10.72657 -2.9375,-6.285152 0.76563,-21.488282 7.46484,3.960938 0.008,0.0039 c 1.14453,1.238281 1.92969,3.011719 3.23828,4.792969 4.125,5.605469 4.58204,19.226557 4.45704,26.691407 0,0.12109 0.12109,0.25 0.26953,0.38671 1.44922,1.32813 1.76172,3.48829 0.7539,5.17188 z m 0,0"
       id="path286" />
    <path
       style="fill:#9e6168;fill-opacity:1;fill-rule:nonzero;stroke:none"
       d="m 181.04687,140.64453 2.79688,-27.05078 0.73828,-11.13281 -7.82812,-1.41406 c 0,0 0.30859,7.96093 -0.71485,12.45312 -1.01172,4.42969 -0.13672,26.55078 -0.0742,27.14062 -1.17578,1.05079 -1.58203,2.71875 -1.01562,4.19532 0.5625,1.47265 1.97656,2.44531 3.55469,2.44922 1.57812,0 2.99218,-0.97266 3.55859,-2.44532 0.5625,-1.47656 0.16016,-3.14453 -1.01563,-4.19531 z m 0,0"
       id="path288" />
    <path
       style="fill:#6b61ff;fill-opacity:1;fill-rule:nonzero;stroke:none"
       d="m 190.36719,99.679688 -2.17969,4.660152 -0.76172,1.625 -2.04687,10.72266 -1.02344,1.08594 -0.88281,3.50781 -0.41407,-0.0859 -7.46875,-1.54687 -2.17968,-0.44922 c -1.01172,-1.68359 -0.69532,-3.84766 0.7539,-5.17578 0.14844,-0.13281 0.26953,-0.26172 0.26563,-0.38672 -0.1211,-7.46094 0.33593,-21.082032 4.45703,-26.691408 1.3125,-1.777343 2.09765,-3.550781 3.24219,-4.789062 0.004,-0.0039 0.004,-0.0039 0.004,-0.0039 l 2.78516,-4.554688 0.16797,-0.277344 0.1914,-0.09766 z m 0,0"
       id="path290" />
    <path
       style="fill:#9e6168;fill-opacity:1;fill-rule:nonzero;stroke:none"
       d="m 213.83203,55.742188 c 0,5.660156 -4.58984,10.246093 -10.25391,10.246093 -5.66406,0 -10.2539,-4.585937 -10.2539,-10.246093 0,-5.65625 4.58984,-10.246094 10.2539,-10.246094 5.66407,0 10.25391,4.589844 10.25391,10.246094 z m 0,0"
       id="path292" />
    <path
       style="fill:#2e2e3f;fill-opacity:1;fill-rule:nonzero;stroke:none"
       d="m 215.10547,51.25 c -0.0352,-1.75 -0.23438,-3.984375 -1.45703,-5.765625 -1.03516,-1.5 -3.11719,-2.691406 -5.0625,-2.09375 0.043,-0.792969 -0.35938,-1.542969 -1.04688,-1.941406 -0.73828,-0.449219 -1.62109,-0.53125 -2.40625,-0.605469 -1.96875,-0.183594 -4.01172,-0.375 -6.00781,0.0039 -2.24219,0.425782 -4.07813,1.578125 -5.02734,3.167969 l -0.0234,0.04687 -0.19531,0.941406 c -0.0508,0.257813 -0.21094,0.476563 -0.44141,0.601563 -0.22656,0.128906 -0.50391,0.148437 -0.74609,0.05469 -0.26954,-0.101562 -0.57032,-0.05078 -0.79297,0.128906 -0.22657,0.179688 -0.33594,0.464844 -0.29297,0.746094 l 0.0508,0.375 -0.5625,-0.105468 c -0.28516,-0.05469 -0.58203,0.05078 -0.76953,0.273437 -0.19141,0.222656 -0.24219,0.53125 -0.14063,0.804687 l 0.15625,0.429688 c -0.23437,0.0039 -0.45703,0.101562 -0.61718,0.273438 -0.23438,0.253906 -0.27735,0.625 -0.10938,0.925781 0.63281,1.074219 1.52734,1.972656 2.60156,2.609375 0.48047,0.292968 1,0.515625 1.54688,0.664062 0.11328,0.03125 0.22656,0.05859 0.34765,0.08203 4.34766,0.9375 8.82813,1.070312 13.22266,0.398437 -0.25781,0.867187 -0.35937,1.773437 -0.29297,2.671875 0.14063,1.128906 0.80469,2.058594 1.6875,2.371094 0.20313,0.06641 0.40625,0.117187 0.61719,0.148437 0.19922,0.03125 0.39844,0.08203 0.58984,0.144531 0.58203,0.214844 1.00391,0.71875 1.10547,1.328126 0.10547,0.605468 -0.125,1.222656 -0.60156,1.617187 0,0 0.92578,0.765625 1.04297,0.726563 0.45703,-0.199219 0.83984,-0.539063 1.08984,-0.96875 1.76953,-2.539063 2.6211,-5.921876 2.53516,-10.054688 z m 0,0"
       id="path294" />
  </g>
</svg>
