<?xml version="1.0" encoding="UTF-8" standalone="no"?>
<svg
   viewBox="0 0 200 200"
   version="1.1"
   id="svg158"
   sodipodi:docname="image1b.svg"
   inkscape:export-filename="image1-old.svg"
   inkscape:export-xdpi="27.57"
   inkscape:export-ydpi="27.57"
   inkscape:version="1.2.2 (b0a8486, 2022-12-01)"
   xmlns:inkscape="http://www.inkscape.org/namespaces/inkscape"
   xmlns:sodipodi="http://sodipodi.sourceforge.net/DTD/sodipodi-0.dtd"
   xmlns="http://www.w3.org/2000/svg"
   xmlns:svg="http://www.w3.org/2000/svg">
  <defs
     id="defs162" />
  <sodipodi:namedview
     id="namedview160"
     pagecolor="#ffffff"
     bordercolor="#000000"
     borderopacity="0.25"
     inkscape:showpageshadow="2"
     inkscape:pageopacity="0.0"
     inkscape:pagecheckerboard="0"
     inkscape:deskcolor="#d1d1d1"
     showgrid="false"
     inkscape:zoom="1.523723"
     inkscape:cx="58.081423"
     inkscape:cy="4.2658672"
     inkscape:window-width="1420"
     inkscape:window-height="559"
     inkscape:window-x="0"
     inkscape:window-y="25"
     inkscape:window-maximized="0"
     inkscape:current-layer="svg158" />
  <path
     d="m 21.318091,37.073561 0.987999,-1.292113 a 22.891489,19.371374 0 0 0 -1.013624,-2.007939 l -0.638873,0.436652 0.505856,-0.66156 c -0.482094,-0.803056 -0.861427,-1.309019 -0.861427,-1.309019 0,0 -1.981475,2.642326 -2.643478,5.439948 l 1.267838,1.658098 -1.403553,-0.959333 a 9.2618282,7.8376 0 0 0 -0.077,0.982746 c 0,3.313333 1.278763,5.99931 2.8562,5.99931 1.577438,0 2.856198,-2.685977 2.856198,-5.99931 a 12.193098,10.318117 0 0 0 -0.653409,-3.095873 z"
     fill="#004578"
     id="path238"
     style="stroke-width:0.261957" />
  <path
     d="m 28.311338,39.946021 1.778317,-0.32247 a 22.891176,19.371108 0 0 0 0.961085,-2.02635 l -0.816635,-0.07354 0.910505,-0.165094 c 0.330136,-0.856318 0.484695,-1.441077 0.484695,-1.441077 0,0 -3.609052,0.682748 -6.41485,2.264848 l -0.489002,1.931084 -0.190855,-1.51819 a 9.2617599,7.8375422 0 0 0 -0.875631,0.648836 c -2.768619,2.342873 -4.108796,5.007317 -2.993393,5.951207 1.11542,0.94389 4.264039,-0.190202 7.032658,-2.533074 a 12.193098,10.318117 0 0 0 2.124888,-2.580106 z"
     fill="#004578"
     id="path240"
     style="stroke-width:0.261957" />
  <path
     d="m 28.960882,52.766909 c -4.123742,0.223215 -8.616994,-0.01295 -13.397058,0 v -9.261168 c 4.212038,0.55488 8.703786,0.497899 13.397058,0 z"
     fill="#3f3d56"
     id="path242"
     style="stroke-width:0.261957" />
  <rect
     x="143.625"
     y="55.673672"
     width="55.674904"
     height="61.100384"
     fill="#e6e6e6"
     id="rect244"
     style="stroke-width:0.261957" />
  <rect
     x="27.345659"
     y="58.863651"
     width="2.899735"
     height="57.910412"
     fill="#e6e6e6"
     id="rect246"
     style="stroke-width:0.261957" />
  <rect
     y="51.502163"
     width="198.34183"
     height="4.9076629"
     fill="#e6e6e6"
     id="rect248"
     x="0.95808214"
     style="stroke-width:0.261957" />
  <rect
     x="25.895809"
     y="56.409821"
     width="5.7994699"
     height="4.9076629"
     fill="#e6e6e6"
     id="rect250"
     style="stroke-width:0.261957" />
  <polygon
     points="687.344,489.796 614.155,489.796 613.009,494.379 584.497,494.379 582.779,489.796 510.162,489.796 510.162,536.638 687.344,536.638 "
     fill="#3f3d56"
     id="polygon252"
     transform="matrix(0.28476571,0,0,0.24097616,0.9580771,-58.797534)" />
  <polygon
     points="687.344,548.857 614.155,548.857 613.009,553.439 584.497,553.439 582.779,548.857 510.162,548.857 510.162,595.698 687.344,595.698 "
     fill="#3f3d56"
     id="polygon254"
     transform="matrix(0.28476571,0,0,0.24097616,0.9580771,-58.797534)" />
  <polygon
     points="687.344,607.918 614.155,607.918 613.009,612.5 584.497,612.5 582.779,607.918 510.162,607.918 510.162,654.759 687.344,654.759 "
     fill="#3f3d56"
     id="polygon256"
     transform="matrix(0.28476571,0,0,0.24097616,0.9580771,-58.797534)" />
  <polygon
     points="687.344,666.979 614.155,666.979 613.009,671.561 584.497,671.561 582.779,666.979 510.162,666.979 510.162,713.82 687.344,713.82 "
     fill="#3f3d56"
     id="polygon258"
     transform="matrix(0.28476571,0,0,0.24097616,0.9580771,-58.797534)" />
  <polygon
     points="375.748,428.19 377.785,454.665 317.706,454.665 319.742,428.19 "
     fill="#e6e6e6"
     id="polygon260"
     transform="matrix(0.28476571,0,0,0.24097616,0.9580771,-58.797534)" />
  <rect
     x="90.559875"
     y="50.029854"
     width="19.138247"
     height="1.4722993"
     fill="#e6e6e6"
     id="rect262"
     style="stroke-width:0.261957" />
  <path
     d="M 132.75102,3.284391 H 67.362003 a 1.7398415,1.4722993 0 0 0 -1.73984,1.4722943 V 38.496856 H 134.49085 V 4.7566853 A 1.7398415,1.4722993 0 0 0 132.75102,3.284391 Z"
     fill="#3f3d56"
     id="path264"
     style="stroke-width:0.261957" />
  <path
     d="m 65.622163,38.496856 v 5.521117 a 1.7398415,1.4722993 0 0 0 1.73984,1.472306 h 65.389017 a 1.7398415,1.4722993 0 0 0 1.73983,-1.472306 v -5.521117 z"
     fill="#e6e6e6"
     id="path266"
     style="stroke-width:0.261957" />
  <rect
     x="69.101822"
     y="6.3516836"
     width="62.054314"
     height="29.445967"
     fill="#ffffff"
     id="rect268"
     style="stroke-width:0.261957" />
  <ellipse
     cx="100.129"
     cy="41.932217"
     fill="#3f3d56"
     id="circle270"
     rx="1.7398413"
     ry="1.4722993"
     style="stroke-width:0.261957" />
  <rect
     x="89.225189"
     y="14.663531"
     width="16.731741"
     height="0.81277156"
     fill="#3f3d56"
     id="rect286"
     style="stroke-width:0.261957" />
  <rect
     x="89.225189"
     y="17.628292"
     width="25.837446"
     height="0.81277156"
     fill="#004578"
     id="rect288"
     style="stroke-width:0.261957" />
  <rect
     x="89.225189"
     y="20.421534"
     width="21.056946"
     height="0.81277156"
     fill="#004578"
     id="rect290"
     style="stroke-width:0.261957" />
  <rect
     x="89.225189"
     y="23.204224"
     width="12.292706"
     height="0.81277156"
     fill="#3f3d56"
     id="rect292"
     style="stroke-width:0.261957" />
  <rect
     x="89.225189"
     y="25.986895"
     width="18.552881"
     height="0.81277156"
     fill="#3f3d56"
     id="rect294"
     style="stroke-width:0.261957" />
  <rect
     x="81.599159"
     y="14.374584"
     width="2.0487838"
     height="1.7337343"
     fill="#3f3d56"
     id="rect296"
     style="stroke-width:0.261957" />
  <rect
     x="81.599159"
     y="17.167809"
     width="2.0487838"
     height="1.7337343"
     fill="#004578"
     id="rect298"
     style="stroke-width:0.261957" />
  <rect
     x="81.599159"
     y="19.96105"
     width="2.0487838"
     height="1.7337343"
     fill="#004578"
     id="rect300"
     style="stroke-width:0.261957" />
  <rect
     x="81.599159"
     y="22.754293"
     width="2.0487838"
     height="1.7337343"
     fill="#3f3d56"
     id="rect302"
     style="stroke-width:0.261957" />
  <rect
     x="81.599159"
     y="25.547535"
     width="2.0487838"
     height="1.7337343"
     fill="#3f3d56"
     id="rect304"
     style="stroke-width:0.261957" />
  <path
     d="m 128.28121,13.124842 h -8.78023 a 30.709258,25.986973 0 0 1 0,-8.8589174 h 8.78024 a 18.836794,15.940185 0 0 0 -1e-5,8.8589174 z"
     fill="#004578"
     id="path306"
     style="stroke-width:0.261957" />
  <path
     d="M 64.393602,30.880415 60.7814,30.135314 A 9.2994542,7.8694401 0 0 1 51.654456,20.70734 v 0 A 12.15513,10.285988 0 0 1 63.794305,10.408442 h 2.4e-5 a 12.155132,10.28599 0 0 1 12.170392,10.273061 v 8e-6 C 78.012819,26.71272 71.59828,32.366564 64.393602,30.880415 Z"
     fill="#2f2e41"
     id="path308"
     style="stroke-width:0.261957" />
  <ellipse
     cx="68.339264"
     cy="24.397875"
     fill="#ffb8b8"
     id="circle310"
     rx="8.931303"
     ry="7.5579014"
     style="stroke-width:0.261957" />
  <path
     d="m 62.514518,28.341133 c 0,0 -2.718231,7.886507 -4.271486,8.543722 -1.55327,0.657204 12.426161,1.643021 12.426161,1.643021 0,0 -0.38832,-7.557903 0.388319,-8.215119 0.776629,-0.657213 -8.542994,-1.971624 -8.542994,-1.971624 z"
     fill="#ffb8b8"
     id="path312"
     style="stroke-width:0.261957" />
  <path
     d="m 76.493947,76.974579 c 0,0 17.47429,-1.314417 19.80419,3.614646 2.32991,4.929064 -1.553267,34.174865 -1.553267,34.174865 H 87.366827 V 90.775963 c 0,0 -31.458776,-7.567073 -31.458776,-10.195911 0,-2.628827 20.585896,-3.605473 20.585896,-3.605473 z"
     fill="#2f2e41"
     id="path314"
     style="stroke-width:0.261957" />
  <path
     d="m 93.579912,113.44968 3.883174,1.31441 c 0,0 4.659814,-0.3286 2.718224,2.62884 a 7.6897163,6.5072381 0 0 1 -5.43644,3.28603 c 0,0 -7.378043,2.30024 -7.76635,0 -0.388322,-2.30023 1.941583,-6.90068 1.941583,-6.90068 z"
     fill="#2f2e41"
     id="path316"
     style="stroke-width:0.261957" />
  <path
     d="m 66.786003,76.974579 c 0,0 17.474288,-1.314417 19.804195,3.614646 2.329901,4.929064 -1.553278,34.174865 -1.553278,34.174865 H 77.658896 V 90.775963 c 0,0 -22.330795,-4.377085 -22.330795,-7.005935 0,-1.234974 -1.52164,-7.511463 1.1599,-8.833791 3.026487,-1.492417 10.298002,2.038342 10.298002,2.038342 z"
     fill="#2f2e41"
     id="path318"
     style="stroke-width:0.261957" />
  <path
     d="m 83.87197,113.44968 3.883177,1.31441 c 0,0 4.659812,-0.3286 2.718223,2.62884 a 7.6897163,6.5072381 0 0 1 -5.43645,3.28603 c 0,0 -7.378037,2.30024 -7.766356,0 -0.388309,-2.30023 1.941587,-6.90068 1.941587,-6.90068 z"
     fill="#2f2e41"
     id="path320"
     style="stroke-width:0.261957" />
  <path
     d="m 58.631328,35.899038 11.66975,1.073389 a 8.5948669,7.2732 0 0 1 7.480499,5.727209 l 4.537124,18.173347 c 0,0 1.553269,18.073241 -1.553268,19.059039 -3.106537,0.985806 -7.378035,-3.943249 -13.202802,-3.286044 -5.824753,0.657215 -13.396949,2.135936 -13.396949,2.135936 0,0 -1.202496,-32.350388 -1.35912,-34.996371 -0.313116,-5.289679 5.824766,-7.886505 5.824766,-7.886505 z"
     fill="#575a89"
     id="path322"
     style="stroke-width:0.261957" />
  <path
     d="m 86.274038,77.913497 4.790796,2.387549 c 0,0 8.595017,-1.043583 8.326709,1.512843 -0.268309,2.556424 -9.650335,2.062476 -9.650335,2.062476 l -5.773625,-3.010504 z"
     fill="#ffb8b8"
     id="path324"
     style="stroke-width:0.261957" />
  <ellipse
     cx="51.003632"
     cy="13.368815"
     fill="#2f2e41"
     id="circle326"
     rx="5.7692566"
     ry="4.8820949"
     style="stroke-width:0.261957" />
  <path
     d="m 56.326818,10.744326 a 5.7665626,4.8798152 0 0 0 -6.904571,-4.7799973 5.7665712,4.8798224 0 1 1 3.596651,9.1967353 5.7645121,4.8780802 0 0 0 3.30792,-4.416738 z"
     fill="#2f2e41"
     id="path328"
     style="stroke-width:0.261957" />
  <path
     d="m 61.276205,13.513144 7.777798,-1.211886 5.981488,3.172445 a 9.0734128,7.678158 0 0 1 4.17967,7.493179 l -5.990665,-1.284936 -1.341468,-2.846434 -1.597667,2.216017 -8.353336,9.096918 -4.690026,-2.527391 -4.181195,-5.544698 z"
     fill="#2f2e41"
     id="path330"
     style="stroke-width:0.261957" />
  <path
     d="m 67.681219,38.694318 3.883176,-1.643031 c 0,0 8.154665,0.985818 9.707946,5.58628 1.553279,4.600462 8.54297,36.47509 8.54297,36.47509 l -6.601395,2.628827 -9.319622,-19.38765 z"
     fill="#575a89"
     id="path332"
     style="stroke-width:0.261957" />
  <polygon
     points="245.917,458.23 259.565,511.205 283.767,570.701 282.928,572.761 254.063,512.199 "
     opacity="0.2"
     id="polygon334"
     transform="matrix(0.28476571,0,0,0.24097616,0.9580771,-58.797534)" />
  <polygon
     points="192.636,612.553 144.084,750.379 139.271,748.721 185.896,610.231 "
     fill="#3f3d56"
     id="polygon336"
     transform="matrix(0.28476571,0,0,0.24097616,0.9580771,-58.797534)" />
  <polygon
     points="273.74,612.553 322.291,750.379 327.105,748.721 280.479,610.231 "
     fill="#3f3d56"
     id="polygon338"
     transform="matrix(0.28476571,0,0,0.24097616,0.9580771,-58.797534)" />
  <polygon
     points="223.315,617.082 223.77,778.981 228.861,778.999 230.443,617.107 "
     fill="#3f3d56"
     id="polygon340"
     transform="matrix(0.28476571,0,0,0.24097616,0.9580771,-58.797534)" />
  <path
     d="m 38.632507,68.644234 3.976988,13.60194 a 12.764979,10.802057 0 0 0 9.29536,7.885083 h 2.3e-5 a 67.848409,57.41509 0 0 0 33.758109,-0.184055 l 5.937704,-1.325183 c 3.450106,-0.769997 6.044588,-3.277538 6.290078,-6.289788 a 7.3141189,6.1893978 0 0 0 -0.66151,-3.101798 q -0.03474,-0.06258 -0.06991,-0.124037 a 9.7003844,8.2087177 0 0 0 -8.428528,-4.61191 l -6.29017,-0.171708 -22.907868,-8.588405 c 0,0 -7.878628,-3.386451 -14.355527,-3.765557 -4.277407,-0.25036 -7.5745,3.153339 -6.544705,6.675418 z"
     fill="#004578"
     id="path342"
     style="stroke-width:0.261957" />
  <rect
     x="155.65891"
     y="25.859632"
     width="22.617929"
     height="26.010609"
     fill="#e6e6e6"
     id="rect344"
     style="stroke-width:0.261957" />
  <rect
     x="158.26868"
     y="28.860847"
     width="17.398407"
     height="20.00816"
     fill="#ffffff"
     id="rect346"
     style="stroke-width:0.261957" />
  <rect
     x="165.1162"
     y="34.096783"
     width="8.4296293"
     height="0.81277156"
     fill="#3f3d56"
     id="rect348"
     style="stroke-width:0.261957" />
  <rect
     x="160.38989"
     y="33.64687"
     width="2.0487838"
     height="1.7337343"
     fill="#3f3d56"
     id="rect350"
     style="stroke-width:0.261957" />
  <rect
     x="165.1162"
     y="37.532154"
     width="8.4296293"
     height="0.81277156"
     fill="#3f3d56"
     id="rect352"
     style="stroke-width:0.261957" />
  <rect
     x="160.38989"
     y="37.082226"
     width="2.0487838"
     height="1.7337343"
     fill="#3f3d56"
     id="rect354"
     style="stroke-width:0.261957" />
  <rect
     x="165.1162"
     y="40.96751"
     width="8.4296293"
     height="0.81277156"
     fill="#3f3d56"
     id="rect356"
     style="stroke-width:0.261957" />
  <rect
     x="160.38989"
     y="40.517597"
     width="2.0487838"
     height="1.7337343"
     fill="#3f3d56"
     id="rect358"
     style="stroke-width:0.261957" />
  <rect
     x="166.09796"
     y="26.595779"
     width="1.7398413"
     height="1.4722993"
     rx="0.86991936"
     fill="#3f3d56"
     id="rect360"
     style="stroke-width:0.261957" />
</svg>
