<?xml version="1.0" encoding="UTF-8" standalone="no"?>
<svg
   viewBox="0 0 200 200"
   version="1.1"
   id="svg158"
   sodipodi:docname="image2b.svg"
   inkscape:version="1.2.2 (b0a8486, 2022-12-01)"
   xmlns:inkscape="http://www.inkscape.org/namespaces/inkscape"
   xmlns:sodipodi="http://sodipodi.sourceforge.net/DTD/sodipodi-0.dtd"
   xmlns="http://www.w3.org/2000/svg"
   xmlns:svg="http://www.w3.org/2000/svg">
  <defs
     id="defs162" />
  <sodipodi:namedview
     id="namedview160"
     pagecolor="#ffffff"
     bordercolor="#000000"
     borderopacity="0.25"
     inkscape:showpageshadow="2"
     inkscape:pageopacity="0.0"
     inkscape:pagecheckerboard="0"
     inkscape:deskcolor="#d1d1d1"
     showgrid="false"
     inkscape:zoom="1.6531941"
     inkscape:cx="50.508285"
     inkscape:cy="115.53392"
     inkscape:window-width="1344"
     inkscape:window-height="430"
     inkscape:window-x="322"
     inkscape:window-y="25"
     inkscape:window-maximized="0"
     inkscape:current-layer="svg158" />
  <path
     d="m 73.637714,28.043978 -1.013216,-0.0055 Q 72.141924,27.739687 71.654787,27.44793 c -0.201031,-0.125655 -0.404413,-0.246634 -0.6079,-0.369964 Q 66.005602,24.029111 60.901267,21.229025 55.801586,18.426622 50.650611,15.882434 a 0.42464878,0.42049821 0 0 1 -0.244108,-0.48076 0.12229919,0.12110381 0 0 1 0.01686,-0.03515 c 0.0479,-0.08904 0.154946,-0.126054 0.311188,-0.05 0.421199,0.209133 0.844834,0.418278 1.266007,0.632116 q 5.165037,2.587728 10.285744,5.433747 5.117175,2.844801 10.176041,5.940736 c 0.07091,0.0427 0.141915,0.08774 0.212827,0.130423 0.321614,0.196837 0.640899,0.393657 0.962526,0.59048 z"
     fill="#ffffff"
     id="path331"
     style="stroke-width:0.236155" />
  <path
     d="m 86.701908,32.353249 -0.62654,-0.0035 C 85.934057,32.153941 85.795179,31.958118 85.653872,31.76227 Q 80.673688,24.846827 75.695588,17.931381 67.543386,6.6097337 59.396049,-4.7118956 a 0.40353702,0.3995928 0 0 1 -0.07048,-0.1366918 c -0.04645,-0.1671162 0.07751,-0.2651242 0.236404,-0.2477932 a 0.47596396,0.47131178 0 0 1 0.331058,0.2086328 Q 64.463585,1.4614249 69.031852,7.8058989 77.141615,19.07092 85.249077,30.333569 c 0.34379,0.476612 0.687565,0.955559 1.031356,1.43217 0.141282,0.195848 0.282601,0.391685 0.421476,0.587494 z"
     fill="#ffffff"
     id="path333"
     style="stroke-width:0.236155" />
  <path
     d="m 100.6601,28.75036 c -0.032,1.045582 -0.1019,2.074505 -0.19312,3.093898 q -0.0265,0.292437 -0.0531,0.584858 l -0.65736,-0.0038 c 0.02001,-0.194927 0.04022,-0.389872 0.0579,-0.58483 0.138903,-1.472696 0.23746,-2.962051 0.25085,-4.491841 A 63.282142,62.663611 0 0 0 98.819422,14.717527 79.421854,78.64557 0 0 0 94.960984,1.594842 a 91.009431,90.119886 0 0 0 -6.312966,-12.983525 0.35020704,0.34678405 0 0 1 -0.05803,-0.230619 c 0.02713,-0.185507 0.276571,-0.240526 0.463064,-0.06324 a 0.54406931,0.53875148 0 0 1 0.09424,0.118022 q 0.454856,0.774497 0.893125,1.553606 a 90.946731,90.057792 0 0 1 6.042255,13.0290136 79.04587,78.273263 0 0 1 3.597137,13.1424014 62.432136,61.821915 0 0 1 0.980321,12.589753 z"
     fill="#ffffff"
     id="path335"
     style="stroke-width:0.236155" />
  <path
     d="M 143.55683,27.793563 H 6.4922215 a 1.9707634,1.8431387 0 0 0 -1.9689706,1.84152 v 86.864037 a 1.9707634,1.8431387 0 0 0 1.9689706,1.84152 H 143.55683 a 1.9673222,1.8399202 0 0 0 1.49719,-0.64623 0.46133872,0.43146288 0 0 0 0.0429,-0.0507 1.8439821,1.7245675 0 0 0 0.28228,-0.44561 1.9209549,1.7965558 0 0 0 0.14895,-0.69903 V 29.635096 a 1.9711879,1.8435357 0 0 0 -1.9713,-1.841533 z m 1.40909,88.705557 a 1.3944281,1.3041263 0 0 1 -0.23264,0.72223 1.4554998,1.361243 0 0 1 -0.53287,0.44773 1.3964559,1.3060228 0 0 1 -0.64358,0.14572 H 6.4922215 A 1.4084846,1.3172725 0 0 1 5.0854467,116.49912 V 29.635096 A 1.4084846,1.3172725 0 0 1 6.4922215,28.319423 H 143.55683 a 1.4089091,1.3176695 0 0 1 1.40909,1.315673 z"
     fill="#3f3d56"
     id="path337"
     style="stroke-width:0.218373" />
  <rect
     x="4.8038549"
     y="36.006561"
     width="140.44194"
     height="0.58580512"
     fill="#3f3d56"
     id="rect339"
     style="stroke-width:0.230357" />
  <ellipse
     cx="9.5884457"
     cy="32.187103"
     fill="#3f3d56"
     id="circle341"
     rx="1.6886811"
     ry="1.7574177"
     style="stroke-width:0.230357" />
  <ellipse
     cx="14.4434"
     cy="32.187103"
     fill="#3f3d56"
     id="circle343"
     rx="1.6886811"
     ry="1.7574177"
     style="stroke-width:0.230357" />
  <ellipse
     cx="19.298359"
     cy="32.187103"
     fill="#3f3d56"
     id="circle345"
     rx="1.6886811"
     ry="1.7574177"
     style="stroke-width:0.230357" />
  <path
     d="M 110.50715,49.566575 H 36.464099 a 3.0851274,3.0549729 0 0 1 0,-6.109944 h 74.043051 a 3.0851274,3.0549729 0 0 1 0,6.109944 z M 36.464099,43.926626 a 2.6104933,2.5849777 0 0 0 0,5.169955 h 74.043051 a 2.6104933,2.5849777 0 0 0 0,-5.169955 z"
     fill="#3f3d56"
     id="path347"
     style="stroke-width:0.236155" />
  <path
     d="M 42.611932,85.431436 H 14.133833 A 4.0389467,3.9994692 0 0 1 10.099436,81.436468 V 68.276583 a 4.0389467,3.9994692 0 0 1 4.034397,-3.994956 h 28.478099 a 4.0389467,3.9994692 0 0 1 4.034395,3.994956 v 13.159885 a 4.0389467,3.9994692 0 0 1 -4.034395,3.994968 z"
     fill="#004578"
     id="path349"
     style="stroke-width:0.236155" />
  <path
     d="M 87.702279,85.431436 H 59.224181 A 4.0389513,3.9994741 0 0 1 55.189754,81.436468 V 68.276583 a 4.0389513,3.9994741 0 0 1 4.034427,-3.994956 h 28.478098 a 4.0389467,3.9994692 0 0 1 4.0344,3.994956 v 13.159885 a 4.0389467,3.9994692 0 0 1 -4.0344,3.994968 z"
     fill="#004578"
     id="path351"
     style="stroke-width:0.236155" />
  <path
     d="M 132.79259,85.431436 H 104.3145 a 4.0389467,3.9994692 0 0 1 -4.03439,-3.994968 V 68.276583 a 4.0389467,3.9994692 0 0 1 4.03439,-3.994956 h 28.47809 a 4.0389467,3.9994692 0 0 1 4.03441,3.994956 v 13.159885 a 4.0389467,3.9994692 0 0 1 -4.03441,3.994968 z"
     fill="#004578"
     id="path353"
     style="stroke-width:0.236155" />
  <path
     d="M 42.611932,113.1612 H 14.133833 a 4.0389467,3.9994692 0 0 1 -4.034397,-3.99497 V 96.006352 a 4.0389467,3.9994692 0 0 1 4.034397,-3.994974 h 28.478099 a 4.0389467,3.9994692 0 0 1 4.034395,3.994974 v 13.159878 a 4.0389467,3.9994692 0 0 1 -4.034395,3.99497 z"
     fill="#004578"
     id="path355"
     style="stroke-width:0.236155" />
  <path
     d="M 87.702279,113.1612 H 59.224181 a 4.0389513,3.9994741 0 0 1 -4.034427,-3.99497 V 96.006352 a 4.0389513,3.9994741 0 0 1 4.034427,-3.994974 h 28.478098 a 4.0389467,3.9994692 0 0 1 4.0344,3.994974 v 13.159878 a 4.0389467,3.9994692 0 0 1 -4.0344,3.99497 z"
     fill="#004578"
     id="path357"
     style="stroke-width:0.236155" />
  <path
     d="M 132.79259,113.1612 H 104.3145 a 4.0389467,3.9994692 0 0 1 -4.03439,-3.99497 V 96.006352 a 4.0389467,3.9994692 0 0 1 4.03439,-3.994974 h 28.47809 a 4.0389467,3.9994692 0 0 1 4.03441,3.994974 v 13.159878 a 4.0389467,3.9994692 0 0 1 -4.03441,3.99497 z"
     fill="#004578"
     id="path359"
     style="stroke-width:0.236155" />
  <path
     d="M 89.490685,48.243115 H 36.342894 a 0.13949553,0.1415228 0 1 1 0,-0.283045 h 53.147791 a 0.13949553,0.1415228 0 1 1 0,0.283045 z"
     fill="#cccccc"
     id="path1306"
     style="stroke-width:0.140506" />
  <path
     d="m 180.27728,73.864115 a 2.9380711,2.8905695 0 0 1 3.58708,-2.68166 l 3.88535,-5.387036 3.90336,1.524513 -5.59549,7.531721 a 2.9539951,2.9062361 0 0 1 -5.78031,-0.987547 z"
     fill="#a0616a"
     id="path1308"
     style="stroke-width:0.235392" />
  <path
     d="m 184.53945,69.231255 6.90807,-11.430524 -2.81449,-7.383926 3.83323,-10.056932 0.14136,0.05966 c 0.0927,0.03908 2.27073,0.995282 2.59356,4.419672 l 4.40506,13.620546 -11.75652,15.005126 z"
     fill="#3f3d56"
     id="path1310"
     style="stroke-width:0.235392" />
  <path
     d="m 147.02131,26.548902 a 2.9380617,2.9093444 0 0 1 2.44021,3.750074 l 5.15877,4.25509 -1.84673,3.734999 -7.19995,-6.110332 a 2.9539976,2.9251247 0 0 1 1.4477,-5.629831 z"
     fill="#a0616a"
     id="path1312"
     style="stroke-width:0.236155" />
  <path
     d="m 151.38664,31.747998 11.04948,7.659799 7.70044,-2.189789 9.89522,4.53752 -0.0714,0.13405 c -0.0467,0.0879 -1.18417,2.15039 -4.67937,2.202262 l -14.14354,3.267776 -14.29709,-12.691951 z"
     fill="#3f3d56"
     id="path1314"
     style="stroke-width:0.235392" />
  <polygon
     points="309.202,577.863 333.092,577.864 333.089,640.297 316.903,640.297 "
     fill="#a0616a"
     id="polygon1316"
     transform="matrix(0.23731749,0,0,0.23348063,92.557286,-24.6022)" />
  <path
     d="m 163.8884,124.67432 h 8.53989 v 4.12401 H 160.3555 v -1.00046 a 3.5329121,3.1235621 0 0 1 3.5329,-3.12355 z"
     fill="#2f2e41"
     id="path1318"
     style="stroke-width:0.223146" />
  <polygon
     points="373.897,577.863 397.786,577.864 397.784,640.297 381.597,640.297 "
     fill="#a0616a"
     id="polygon1320"
     transform="matrix(0.23731749,0,0,0.23348063,92.557286,-24.6022)" />
  <path
     d="m 179.24153,123.81479 h 8.53986 v 4.58906 h -12.07278 v -1.11328 a 3.5329121,3.4757934 0 0 1 3.53292,-3.47578 z"
     fill="#2f2e41"
     id="path1322"
     style="stroke-width:0.235392" />
  <polygon
     points="308.859,623.654 305.839,454.657 316.401,417.688 403.54,412.407 402.22,504.828 400.9,626.295 371.853,623.654 357.33,455.977 338.846,623.654 "
     fill="#2f2e41"
     id="polygon1324"
     transform="matrix(0.23731749,0,0,0.23348063,92.557286,-24.6022)" />
  <path
     d="m 166.9577,73.051605 -1.05013,-0.04477 4.87777,-26.436368 -1.9972,-7.990479 a 1.7774084,1.7486719 0 0 1 1.10161,-2.054324 l 3.59343,-1.325633 1.26951,-3.43483 10.0163,1.061871 0.24632,2.684401 c 1.0854,0.342482 10.02356,3.271064 9.40684,6.607998 -0.6087,3.293633 -4.2027,13.655942 -4.3852,14.181092 l -0.6294,14.86084 -0.0774,0.0381 c -0.0932,0.04595 -6.99709,3.385605 -14.49736,3.385049 -2.64122,-1.44e-4 -5.35792,-0.414567 -7.87505,-1.532985 z"
     fill="#3f3d56"
     id="path1326"
     style="stroke-width:0.235392" />
  <ellipse
     cx="64.73484"
     cy="167.96324"
     transform="matrix(0.48569435,-0.87412871,0.88071006,0.47365578,0,0)"
     fill="#a0616a"
     id="circle1328"
     rx="7.1221938"
     ry="7.1851377"
     style="stroke-width:0.235402" />
  <path
     d="m 185.20984,29.838591 c -1.3744,1.440356 -3.92684,0.667141 -4.10592,-1.300593 a 2.4162836,2.377218 0 0 1 0.003,-0.459097 c 0.0925,-0.87162 0.60429,-1.662947 0.4817,-2.583255 a 1.3769468,1.354685 0 0 0 -0.252,-0.634161 c -1.09523,-1.442882 -3.66617,0.645363 -4.69979,-0.660834 -0.6338,-0.80093 0.11121,-2.061955 -0.37516,-2.957132 -0.64192,-1.181484 -2.54328,-0.598654 -3.73561,-1.245694 -1.32665,-0.719911 -1.2473,-2.722441 -0.37402,-3.940484 1.065,-1.485454 2.93229,-2.27809 4.77633,-2.392324 1.84403,-0.114235 3.67535,0.37619 5.39692,1.036257 1.95604,0.749969 3.89574,1.786437 5.09948,3.478589 1.46386,2.057839 1.60473,4.824413 0.87263,7.230663 -0.44535,1.463743 -1.96525,3.251859 -3.08759,4.428065 z"
     fill="#2f2e41"
     id="path1330"
     style="stroke-width:0.235392" />
  <ellipse
     cx="119.83108"
     cy="7.5746083"
     fill="#004578"
     id="circle708"
     rx="6.5562892"
     ry="6.6515713"
     style="stroke-width:0.140506" />
  <ellipse
     cx="143.18773"
     cy="19.334047"
     fill="#004578"
     id="circle710"
     rx="6.5562892"
     ry="6.6515713"
     style="stroke-width:0.140506" />
  <ellipse
     cx="137.26801"
     cy="47.072514"
     fill="#004578"
     id="circle712"
     rx="6.5562892"
     ry="6.6515713"
     style="stroke-width:0.140506" />
  <ellipse
     cx="105.74206"
     cy="48.204712"
     fill="#004578"
     id="circle714"
     rx="6.5562892"
     ry="6.6515713"
     style="stroke-width:0.140506" />
  <ellipse
     cx="96.25634"
     cy="23.571035"
     fill="#004578"
     id="circle716"
     rx="6.5562892"
     ry="6.6515713"
     style="stroke-width:0.140506" />
  <path
     d="m 122.64066,7.044313 h -2.28688 A 0.78406808,0.79546286 0 0 1 119.56972,6.2488504 V 3.9287458 a 0.06533691,0.06628645 0 0 0 -0.0654,-0.066288 h -1.50279 a 1.0454241,1.0606172 0 0 0 -1.04543,1.0606134 v 5.3030868 a 1.0454241,1.0606172 0 0 0 1.04543,1.060613 h 3.65899 a 1.0454241,1.0606172 0 0 0 1.04541,-1.060613 V 7.1105954 a 0.06533832,0.06628786 0 0 0 -0.0653,-0.066267 z m -1.50282,2.6515387 h -2.61355 a 0.26135638,0.26515466 0 1 1 0,-0.5303088 h 2.61355 a 0.26135638,0.26515466 0 0 1 0,0.5303088 z m 0,-1.3257714 h -2.61355 a 0.26135612,0.2651544 0 1 1 0,-0.5303088 h 2.61355 a 0.26135612,0.2651544 0 1 1 0,0.5303088 z"
     fill="#ffffff"
     id="path718"
     style="stroke-width:0.140506" />
  <path
     d="m 122.49723,6.4574881 -2.34911,-2.383242 a 0.03266985,0.03314464 0 0 0 -0.0557,0.023378 v 2.1512277 a 0.26135601,0.26515429 0 0 0 0.26136,0.2651581 h 2.12042 a 0.03266985,0.03314464 0 0 0 0.023,-0.056521 z"
     fill="#ffffff"
     id="path720"
     style="stroke-width:0.140506" />
  <path
     d="m 138.21631,45.762201 a 0.34745684,0.35250639 0 1 0 0.24578,0.10315 0.34745406,0.35250357 0 0 0 -0.24578,-0.10315 z"
     fill="#ffffff"
     id="path722"
     style="stroke-width:0.140506" />
  <path
     d="m 140.15068,44.352576 v -0.0013 a 0.26557158,0.26943112 0 0 0 -0.19698,-0.202071 c -0.38793,-0.09602 -0.99822,0.0064 -1.67454,0.281053 a 5.3855203,5.4637877 0 0 0 -1.75198,1.125528 4.1749447,4.2356187 0 0 0 -0.38467,0.446807 1.7062869,1.7310841 0 0 0 -0.7625,0.124281 c -0.75167,0.335601 -0.96633,1.194475 -1.02348,1.547111 a 0.32545701,0.33018683 0 0 0 0.35396,0.383016 h 0.002 l 0.83773,-0.09269 c 0.002,0.01088 0.002,0.02072 0.003,0.02986 a 0.44730075,0.45380134 0 0 0 0.12886,0.273658 l 0.40866,0.414843 a 0.44613457,0.4526182 0 0 0 0.2696,0.130888 l 0.0279,0.0031 -0.0911,0.848442 v 0.0017 a 0.3254542,0.33018401 0 0 0 0.29024,0.362395 q 0.0149,0.0017 0.0302,0.0017 a 0.32879095,0.33356923 0 0 0 0.054,-0.0046 c 0.34955,-0.05705 1.19572,-0.272206 1.52562,-1.038894 a 1.7215896,1.7466093 0 0 0 0.123,-0.770515 4.0981163,4.157674 0 0 0 0.44198,-0.39028 5.3467813,5.4244853 0 0 0 1.11057,-1.763449 c 0.26937,-0.678327 0.37077,-1.30211 0.27848,-1.710749 z m -1.39372,2.309706 a 0.76507851,0.77619735 0 1 1 0,-1.097709 v 4.59e-4 a 0.75896163,0.76999164 0 0 1 0.008,1.0889 z"
     fill="#ffffff"
     id="path724"
     style="stroke-width:0.140506" />
  <path
     d="m 136.04331,48.795278 a 0.20828355,0.21131051 0 0 0 -0.14322,0.03525 c -0.0831,0.05772 -0.16675,0.114776 -0.25111,0.170375 a 0.19424611,0.19706908 0 0 1 -0.27338,-0.264148 l 0.15817,-0.277355 a 0.20829053,0.2113176 0 0 0 -0.19736,-0.328994 0.79735642,0.80894431 0 0 0 -0.46383,0.230599 c -0.0476,0.04847 -0.19254,0.195603 -0.27053,0.756256 a 4.6593428,4.7270569 0 0 0 -0.0418,0.485635 0.20828914,0.21131618 0 0 0 0.20288,0.216664 q 0.002,7e-5 0.005,6.7e-5 h 0.005 a 4.684957,4.7530429 0 0 0 0.47907,-0.04226 c 0.55286,-0.07924 0.69791,-0.226376 0.74553,-0.274716 a 0.78746619,0.79891037 0 0 0 0.2264,-0.472031 0.20829053,0.2113176 0 0 0 -0.18136,-0.235354 z"
     fill="#ffffff"
     id="path726"
     style="stroke-width:0.140506" />
  <path
     d="m 103.48565,51.819176 h -0.47504 a 0.35627157,0.36144921 0 0 1 -0.35626,-0.361449 v -2.168683 a 0.35627157,0.36144921 0 0 1 0.35626,-0.361449 h 0.47504 a 0.35627157,0.36144921 0 0 1 0.35627,0.361449 v 2.168683 a 0.35627157,0.36144921 0 0 1 -0.35627,0.361449 z"
     fill="#ffffff"
     id="path728"
     style="stroke-width:0.140506" />
  <path
     d="m 106.81083,51.819176 h -0.47502 a 0.35627157,0.36144921 0 0 1 -0.35628,-0.361449 v -3.61447 a 0.35627157,0.36144921 0 0 1 0.35628,-0.361448 h 0.47502 a 0.35627157,0.36144921 0 0 1 0.35628,0.361448 v 3.61447 a 0.35627157,0.36144921 0 0 1 -0.35628,0.361449 z"
     fill="#ffffff"
     id="path730"
     style="stroke-width:0.140506" />
  <path
     d="m 108.47342,51.819176 h -0.47503 a 0.35627157,0.36144921 0 0 1 -0.35627,-0.361449 v -5.301222 a 0.35627157,0.36144921 0 0 1 0.35627,-0.36145 h 0.47503 a 0.35627157,0.36144921 0 0 1 0.35627,0.36145 v 5.301222 a 0.35627157,0.36144921 0 0 1 -0.35627,0.361449 z"
     fill="#ffffff"
     id="path732"
     style="stroke-width:0.140506" />
  <path
     d="m 105.14825,51.819176 h -0.47501 a 0.35627157,0.36144921 0 0 1 -0.3563,-0.361449 v -6.506045 a 0.35627157,0.36144921 0 0 1 0.3563,-0.36145 h 0.47501 a 0.35627157,0.36144921 0 0 1 0.35628,0.36145 v 6.506045 a 0.35627157,0.36144921 0 0 1 -0.35628,0.361449 z"
     fill="#ffffff"
     id="path734"
     style="stroke-width:0.140506" />
  <path
     d="m 143.50183,19.159854 -0.33936,-0.344443 a 0.4159366,0.42198135 0 0 0 -0.58674,-0.0017 l -2.35953,2.209213 a 0.44065103,0.44705496 0 0 0 -0.14754,0.304091 0.41737061,0.42343619 0 0 0 0.11972,0.315695 l 0.50693,0.519962 0.002,9.36e-4 a 0.41970993,0.42580953 0 0 0 0.29493,0.124223 h 0.0154 a 0.43645916,0.44280219 0 0 0 0.30119,-0.147299 l 2.1927,-2.382949 a 0.41593938,0.42198417 0 0 0 0.002,-0.596768 z"
     fill="#ffffff"
     id="path736"
     style="stroke-width:0.140506" />
  <path
     d="m 146.22935,18.463713 -0.004,-0.0041 -0.44543,-0.447303 a 0.27893943,0.28299324 0 0 0 -0.19861,-0.08256 0.28452345,0.28865838 0 0 0 -0.16624,0.05459 c 0,-0.0056 0.002,-0.01121 0.002,-0.01609 a 0.47515386,0.48205923 0 0 0 -0.0677,-0.332578 3.3533203,3.4020537 0 0 0 -0.32234,-0.379002 l -0.002,-9.35e-4 a 3.5184063,3.5695388 0 0 0 -1.12719,-0.73768 1.81387,1.8402308 0 0 0 -0.68996,-0.137802 1.3148848,1.333994 0 0 0 -0.84161,0.29908 1.558723,1.5813758 0 0 0 -0.18431,0.213894 0.20796969,0.21099208 0 0 0 0.2424,0.320973 0.967527,0.98158799 0 0 1 0.11151,-0.03468 0.82482729,0.83681436 0 0 1 0.23983,-0.01515 1.0082569,1.0229098 0 0 1 0.4639,0.172618 0.66811519,0.67782484 0 0 1 0.23736,0.541853 1.3863902,1.4065385 0 0 1 -0.25999,0.454685 0.20796829,0.21099069 0 0 0 0.0188,0.276926 l 0.44726,0.453765 a 0.20796969,0.21099208 0 0 0 0.28598,0.0082 c 0.12645,-0.114595 0.31909,-0.287347 0.38642,-0.329674 a 0.48407737,0.49111239 0 0 1 0.19106,-0.07648 0.24930221,0.25292531 0 0 1 0.14676,0.03139 0.0161201,0.01635437 0 0 1 -0.004,0.01254 l -0.0238,0.02281 -0.004,0.0038 a 0.27971782,0.28378293 0 0 0 -0.002,0.401329 l 0.002,0.0015 0.44532,0.447171 a 0.27880272,0.28285454 0 0 0 0.19861,0.08242 0.28205018,0.28614919 0 0 0 0.19783,-0.08176 l 0.7214,-0.722909 c 0.002,-0.0024 0.005,-0.0052 0.007,-0.0077 a 0.28426816,0.2883994 0 0 0 -0.003,-0.392697 z"
     fill="#ffffff"
     id="path738"
     style="stroke-width:0.140506" />
  <path
     d="M 97.297295,23.175002 A 0.26024146,0.26402351 0 0 1 97.113272,22.72429 l 0.596721,-0.605383 -0.596721,-0.605383 a 0.26023809,0.2640201 0 0 1 0.368036,-0.373377 l 0.780724,0.79207 a 0.26021493,0.26399661 0 0 1 0,0.373379 l -0.780724,0.79207 a 0.25943239,0.26320267 0 0 1 -0.184013,0.07735 z"
     fill="#ffffff"
     id="path740"
     style="stroke-width:0.140506" />
  <path
     d="M 93.133436,23.967071 A 0.26023308,0.26401501 0 0 1 92.8732,23.703049 v -0.264023 a 1.5692199,1.5920254 0 0 1 1.560662,-1.58414 h 3.383923 a 0.2602416,0.26402367 0 1 1 0,0.528046 h -3.38313 a 1.0471929,1.0624117 0 0 0 -1.040971,1.056882 v 0.263232 a 0.26023308,0.26401501 0 0 1 -0.260248,0.264025 z"
     fill="#ffffff"
     id="path742"
     style="stroke-width:0.140506" />
  <path
     d="m 95.215378,26.079262 a 0.25943376,0.26320409 0 0 1 -0.184012,-0.07735 L 94.250632,25.20984 a 0.26021077,0.26399239 0 0 1 0,-0.373379 l 0.780734,-0.79207 a 0.26023663,0.26401864 0 0 1 0.368025,0.373376 l -0.596701,0.605384 0.596701,0.605382 a 0.26024146,0.26402351 0 0 1 -0.184013,0.450712 z"
     fill="#ffffff"
     id="path744"
     style="stroke-width:0.140506" />
  <path
     d="m 94.694889,25.287188 a 0.26024146,0.26402351 0 0 1 0,-0.528044 h 3.38313 a 1.0471929,1.0624117 0 0 0 1.040968,-1.056885 v -0.263232 a 0.26024468,0.2640268 0 0 1 0.520489,0 v 0.264022 a 1.5692199,1.5920254 0 0 1 -1.560675,1.584143 z"
     fill="#ffffff"
     id="path746"
     style="stroke-width:0.140506" />
</svg>
