<?xml version="1.0" encoding="UTF-8" standalone="no"?>
<svg
   viewBox="0 0 200 200"
   version="1.1"
   id="svg4603"
   sodipodi:docname="image2.svg"
   inkscape:version="1.2.2 (b0a8486, 2022-12-01)"
   xmlns:inkscape="http://www.inkscape.org/namespaces/inkscape"
   xmlns:sodipodi="http://sodipodi.sourceforge.net/DTD/sodipodi-0.dtd"
   xmlns="http://www.w3.org/2000/svg"
   xmlns:svg="http://www.w3.org/2000/svg">
  <defs
     id="defs4607" />
  <sodipodi:namedview
     id="namedview4605"
     pagecolor="#ffffff"
     bordercolor="#000000"
     borderopacity="0.25"
     inkscape:showpageshadow="2"
     inkscape:pageopacity="0.0"
     inkscape:pagecheckerboard="0"
     inkscape:deskcolor="#d1d1d1"
     showgrid="false"
     inkscape:zoom="0.95192951"
     inkscape:cx="-18.383714"
     inkscape:cy="110.30229"
     inkscape:window-width="1344"
     inkscape:window-height="430"
     inkscape:window-x="0"
     inkscape:window-y="25"
     inkscape:window-maximized="0"
     inkscape:current-layer="svg4603" />
  <polygon
     points="450.679,414.434 450.676,463.637 437.92,463.636 431.851,414.433 "
     fill="#ffb6b6"
     id="polygon815"
     transform="matrix(0.34465883,0,0,0.28491682,4.1388373,5.2970962)"
     inkscape:export-filename="image2.svg"
     inkscape:export-xdpi="96"
     inkscape:export-ydpi="96" />
  <path
     d="m 159.35108,136.20798 -4.69425,-1.57844 -0.13441,-0.0457 -2.59185,1.62402 a 5.5189048,4.5622764 0 0 0 -5.51798,4.56153 v 0.14816 h 14.17581 v -4.70969 z"
     fill="#2f2e41"
     id="path817"
     style="stroke-width:0.313367" />
  <polygon
     points="543.896,405.965 558.496,452.952 546.314,456.737 525.916,411.551 "
     fill="#ffb6b6"
     id="polygon819"
     transform="matrix(0.34465883,0,0,0.28491682,4.1388373,5.2970962)" />
  <path
     d="m 196.09108,133.24596 -5.04941,-0.35569 -0.14474,-0.0106 -1.89202,2.18672 a 5.5189151,4.5622848 0 0 0 -3.63182,5.70973 l 0.0531,0.1415 13.53717,-3.47777 -1.69076,-4.49751 z"
     fill="#2f2e41"
     id="path821"
     style="stroke-width:0.313367" />
  <path
     d="m 179.03813,65.58151 1.7881,4.204102 v 2.272575 l -0.24918,2.49909 2.76766,8.33481 2.17107,18.379543 10.92595,27.20714 -8.37764,1.99441 -21.38945,-44.453743 -6.75589,44.963593 -7.66128,-0.16894 c 0,0 -1.3107,-2.62023 -0.96605,-4.04482 0.34467,-1.42458 0.34467,0.28492 0.34467,-1.42458 0,-1.7095 -1.49413,-0.96691 -0.40243,-2.33541 1.09175,-1.3685 0.95584,-2.5665 1.02381,-3.39209 0.068,-0.82558 -0.62138,-34.160853 -0.62138,-35.300523 0,-1.13966 -0.23883,-0.89005 -0.11937,-2.01207 0.11937,-1.12203 1.63417,-0.66077 1.22144,-2.60092 -0.41272,-1.94011 -0.54861,-1.60096 -0.48065,-3.05267 0.0679,-1.45169 1.01777,-9.96355 1.01777,-9.96355 z"
     fill="#2f2e41"
     id="path823"
     style="stroke-width:0.313367" />
  <path
     d="m 150.36462,66.949143 15.35875,-12.244255 4.25692,-9.964108 -6.27913,-2.25711 c -3.22522,2.553994 -6.71155,10.508913 -6.71155,10.508913 l -10.56899,11.115459 c -0.0824,0.02329 -0.1645,0.04807 -0.24563,0.0777 a 3.0245364,2.5002732 0 1 0 4.18963,2.763407 z"
     fill="#ffb8b8"
     id="path825"
     style="stroke-width:0.313367" />
  <path
     d="m 161.93434,43.596193 7.96462,2.090212 0.03,-0.0042 c 2.96443,-0.410494 5.42428,-4.412912 6.96572,-7.698224 A 5.5460053,4.5846793 0 0 0 174.0709,32.17634 v 0 a 5.5582302,4.5947851 0 0 0 -5.82136,0.60715 l -4.08987,2.762645 z"
     fill="#004578"
     id="path827"
     style="stroke-width:0.313367" />
  <path
     d="m 180.39126,70.982277 0.0466,-0.0511 c 2.48501,-2.724475 -0.91377,-9.471305 -1.4276,-10.449797 l 2.31061,-0.565791 -0.40274,-3.636807 -0.19398,-1.621672 1.79654,-1.410342 0.005,-0.03599 1.2355,-7.268514 1.61661,-4.810683 a 12.863491,10.633776 0 0 0 -3.32851,-10.379837 l -3.30474,-2.712384 -3.95927,-5.123034 -6.6383,-0.141678 -2.38715,3.505509 a 9.678799,8.0011083 0 0 0 -7.74127,8.00652 l 0.22472,9.332337 -2.38192,11.56276 -0.0669,2.100333 -2.33788,2.039435 0.43222,2.061828 -1.74879,0.575855 -0.85577,2.929812 c -0.3268,0.338017 -2.48482,2.592984 -2.50444,3.221611 -0.003,0.09438 0.0787,0.187404 0.25615,0.292465 1.39684,0.826173 9.2042,2.616344 12.71801,1.540104 3.74284,-1.145435 18.41187,1.00581 18.55965,1.0277 z"
     fill="#004578"
     id="path829"
     style="stroke-width:0.313367" />
  <path
     d="m 163.96585,39.320076 -5.56033,-4.238283 C 153.91959,36.779 146.79073,44.03267 146.79073,44.03267 l -15.90721,8.427577 a 3.3391411,2.7603455 0 1 0 2.8672,4.147107 l 21.40043,-8.168561 z"
     fill="#ffb8b8"
     id="path831"
     style="stroke-width:0.313367" />
  <path
     d="m 162.75059,42.315805 8.85601,-5.440532 1.55995,-4.647192 a 6.1402936,5.0759554 0 0 0 -1.84678,-5.13578 v 0 a 6.1257797,5.0639575 0 0 0 -8.3593,0.222956 c -3.33267,2.749862 -7.13376,6.586176 -6.31726,9.246372 l 0.007,0.02695 z"
     fill="#004578"
     id="path833"
     style="stroke-width:0.313367" />
  <ellipse
     cx="171.68602"
     cy="14.994375"
     fill="#ffb8b8"
     id="circle835"
     style="stroke-width:0.313367"
     rx="7.8750205"
     ry="6.5099902" />
  <path
     d="m 176.86846,21.802673 c -1.31718,-0.511453 -2.85567,-0.200644 -4.30978,-0.15334 -1.45416,0.04731 -3.21603,-0.405859 -3.5246,-1.581529 -0.22811,-0.869297 0.45759,-1.82208 0.0257,-2.636728 -0.47121,-0.888396 -1.88554,-1.014833 -3.01974,-1.263579 a 6.9610743,5.7544649 0 0 1 -5.02659,-5.386699 c -0.0788,0.485397 0.9259,0.644828 1.25593,0.238099 0.33001,-0.406732 0.10268,-0.969687 -0.26118,-1.3561738 -0.36388,-0.386481 -0.85502,-0.695137 -1.12941,-1.129178 -0.27441,-0.434047 -0.22104,-1.078664 0.31481,-1.287546 a 4.3758677,3.6173695 0 0 0 2.77159,1.884696 c -0.24375,-0.612061 0.10093,-1.30017 0.65557,-1.752874 a 6.3457826,5.2458259 0 0 1 2.0028,-0.974987 c 1.81527,-0.650501 3.93483,-1.29782 5.69272,-0.547292 a 3.4041091,2.8140523 0 0 1 1.75978,1.969167 c 3.25177,0.227295 6.59084,3.1391938 6.40576,5.8325728 -0.19926,2.899494 -0.34465,3.134083 -3.26447,8.013286"
     fill="#2f2e41"
     id="path837"
     style="stroke-width:0.313367" />
  <path
     d="M 133.78925,140.57745 H 122.3512 l -0.0491,-0.0738 c -0.14625,-0.21924 -0.28745,-0.45158 -0.41939,-0.6903 -1.17819,-2.08514 -1.67617,-4.46992 -2.11557,-6.57396 l -0.33086,-1.58597 a 1.1845511,0.97922499 0 0 1 1.86465,-0.95797 q 2.60741,1.56845 5.21685,3.1338 c 0.6587,0.39621 1.41096,0.85474 2.13139,1.3503 0.0694,-0.27909 0.14222,-0.55899 0.21491,-0.835 a 1.1853369,0.97987448 0 0 1 2.16472,-0.30941 l 1.33825,1.77739 c 0.97609,1.298 1.83755,2.57705 1.66204,3.95655 a 0.26056208,0.21539712 0 0 1 -0.004,0.0502 3.7729076,3.1189245 0 0 1 -0.1942,0.66417 z"
     fill="#f0f0f0"
     id="path839"
     style="stroke-width:0.313367" />
  <path
     d="m 227.798,141.28918 -108.69073,0.0875 a 0.41038184,0.33924761 0 0 1 0,-0.67848 L 227.798,140.6107 a 0.41038184,0.33924761 0 0 1 0,0.67848 z"
     fill="#cacaca"
     id="path841"
     style="stroke-width:0.313367" />
  <path
     d="M 115.06934,72.490177 H 72.762262 a 2.1365816,1.8174023 0 0 1 -2.134189,-1.81537 V 50.492236 a 2.1365816,1.8174023 0 0 1 2.134189,-1.815364 h 42.307078 a 2.1365916,1.8174107 0 0 1 2.13417,1.815364 v 20.182571 a 2.1365916,1.8174107 0 0 1 -2.13417,1.81537 z M 72.762262,48.890444 a 1.8852385,1.6036068 0 0 0 -1.883108,1.601792 v 20.182571 a 1.8852385,1.6036068 0 0 0 1.883108,1.60179 h 42.307078 a 1.8852385,1.6036068 0 0 0 1.8831,-1.60179 V 50.492236 a 1.8852385,1.6036068 0 0 0 -1.8831,-1.601792 z"
     fill="#3f3d56"
     id="path1694"
     style="stroke-width:0.115785" />
  <path
     d="m 104.34824,56.719252 h -8.160101 a 0.56493201,0.48053803 0 0 0 0,0.961076 h 8.160101 a 0.56493201,0.48053803 0 0 0 0,-0.961076 z"
     fill="#3f3d56"
     id="path1696"
     style="stroke-width:0.115785" />
  <path
     d="M 112.30245,59.762653 H 96.08017 c -0.252363,0 -0.456968,0.215708 -0.456968,0.480539 0,0.264832 0.204605,0.480537 0.456968,0.480537 h 16.22228 c 0.25238,0 0.45701,-0.215705 0.45701,-0.480537 0,-0.264831 -0.20463,-0.480539 -0.45701,-0.480539 z"
     fill="#3f3d56"
     id="path1698"
     style="stroke-width:0.115785" />
  <path
     d="M 112.30245,62.879419 H 96.08017 c -0.252363,0 -0.456968,0.215709 -0.456968,0.480541 0,0.264827 0.204605,0.480535 0.456968,0.480535 h 16.22228 c 0.25238,0 0.45701,-0.215708 0.45701,-0.480535 0,-0.264832 -0.20463,-0.480541 -0.45701,-0.480541 z"
     fill="#3f3d56"
     id="path1700"
     style="stroke-width:0.115785" />
  <path
     d="M 89.961281,68.058544 H 75.900761 A 1.3196796,1.1225356 0 0 1 74.582598,66.937296 V 53.589028 a 1.3196796,1.1225356 0 0 1 1.318163,-1.121252 h 14.06052 a 1.3196796,1.1225356 0 0 1 1.31817,1.121252 v 13.348268 a 1.3196796,1.1225356 0 0 1 -1.31817,1.121248 z"
     fill="#004578"
     id="path1702"
     style="stroke-width:0.115785" />
  <ellipse
     cx="116.07366"
     cy="48.997211"
     fill="#004578"
     id="circle1704"
     rx="4.5194511"
     ry="3.8442998"
     style="stroke-width:0.115785" />
  <path
     d="m 115.8196,50.55345 a 0.56806985,0.48320707 0 0 1 -0.34179,-0.09658 l -0.004,-0.0039 -1.28723,-0.83832 a 0.57188754,0.48645443 0 1 1 0.69516,-0.772278 l 0.83375,0.543816 1.97036,-2.18573 a 0.57186619,0.48643629 0 0 1 0.80179,-0.09003 l -0.0123,0.01419 0.0127,-0.01391 a 0.57253031,0.48700115 0 0 1 0.1058,0.682031 l -2.31756,2.570945 a 0.57211849,0.48665095 0 0 1 -0.45499,0.189844 z"
     fill="#ffffff"
     id="path1706"
     style="stroke-width:0.115785" />
  <path
     d="m 83.395901,64.979161 c -0.316635,-0.0079 -0.710723,-0.01696 -1.014127,-0.205491 a 0.77889593,0.6625383 0 0 1 -0.306471,-0.494678 0.52390102,0.44563654 0 0 1 0.178163,-0.365975 0.67597925,0.57499615 0 0 1 0.63954,-0.07832 l -0.258487,-1.606883 0.18975,-0.02211 0.3039,1.889092 -0.158446,-0.06185 c -0.183731,-0.07167 -0.435914,-0.10811 -0.592623,0.0045 a 0.33647438,0.28620917 0 0 0 -0.110369,0.23579 0.58865845,0.50071999 0 0 0 0.22803,0.368874 c 0.236115,0.146765 0.550235,0.165705 0.906526,0.174213 z"
     fill="#ffffff"
     id="path1716"
     style="stroke-width:0.115785" />
  <rect
     x="80.664528"
     y="62.366383"
     width="1.0315684"
     height="0.16292034"
     fill="#ffffff"
     id="rect1718"
     style="stroke-width:0.115785" />
  <rect
     x="83.92057"
     y="62.366383"
     width="1.0315684"
     height="0.16292034"
     fill="#ffffff"
     id="rect1720"
     style="stroke-width:0.115785" />
  <path
     d="m 78.872351,60.116663 c -0.830702,-0.08057 -1.47407,-0.757599 -1.544721,-1.444528 -0.08407,-0.817214 0.475433,-1.593383 1.243029,-2.05197 0.802728,-0.479572 1.802855,-0.679843 2.770527,-0.723928 a 7.6143303,6.476842 0 0 1 5.204723,1.459242 c 0.725087,0.51225 1.402265,1.164782 1.658911,1.952955 0.22291,0.684489 0.04162,1.459934 -0.60569,1.939332 a 1.5299821,1.3014213 0 0 1 -1.174091,0.307487 C 85.922866,61.510903 85.45951,61.28629 85.058427,61.03824 84.278231,60.55572 83.637724,59.883515 82.68721,59.631368 c -0.696962,-0.184882 -1.601411,-0.02213 -2.027324,0.513975 a 1.1472074,0.97582838 0 0 0 -0.183171,0.408818 0.14876526,0.12654153 0 0 0 0.100373,0.150306 0.14454207,0.12294923 0 0 0 0.176704,-0.08534 c 0.111861,-0.675254 1.087918,-0.927224 1.772879,-0.773017 0.998703,0.224843 1.669127,0.982908 2.488519,1.464535 a 3.0240473,2.5722913 0 0 0 1.449183,0.492014 1.7995298,1.5307017 0 0 0 1.264419,-0.330407 c 0.700016,-0.470176 0.967731,-1.27887 0.812931,-2.006965 -0.179251,-0.843144 -0.846403,-1.565763 -1.57841,-2.125224 a 7.8956273,6.7161158 0 0 0 -5.395859,-1.69554 c -1.012591,0.01974 -2.069142,0.197592 -2.941478,0.652838 -0.846163,0.441585 -1.500186,1.180356 -1.585667,2.039104 -0.07522,0.755859 0.401518,1.54645 1.219912,1.877594 a 1.9104094,1.6250174 0 0 0 0.61216,0.146985 c 0.183378,0.01781 0.181884,-0.226738 0,-0.244381 z"
     fill="#ffffff"
     id="path1722"
     style="stroke-width:0.115785" />
  <path
     d="M 56.01856,73.505887 H 13.711489 a 2.1365816,1.8174023 0 0 1 -2.134184,-1.81537 V 51.507948 a 2.1365816,1.8174023 0 0 1 2.134184,-1.815365 H 56.01856 a 2.1365916,1.8174107 0 0 1 2.134202,1.815365 v 20.182569 a 2.1365916,1.8174107 0 0 1 -2.134202,1.81537 z M 13.711489,49.906157 a 1.8852385,1.6036068 0 0 0 -1.883105,1.601791 v 20.182569 a 1.8852385,1.6036068 0 0 0 1.883105,1.6018 H 56.01856 a 1.8852385,1.6036068 0 0 0 1.883111,-1.6018 V 51.507948 A 1.8852385,1.6036068 0 0 0 56.01856,49.906157 Z"
     fill="#e6e6e6"
     id="path1654-3"
     style="stroke-width:0.115785" />
  <path
     d="m 37.660824,70.257403 a 0.29523787,0.25596916 0 0 1 -0.174079,-0.05001 l -0.419514,-0.264255 a 0.20329021,0.17625118 0 0 0 -0.239785,0 l -0.419508,0.264252 a 0.29614815,0.25675835 0 0 1 -0.455739,-0.287032 l 0.160245,-0.427566 a 0.20351815,0.17644882 0 0 0 -0.0741,-0.197766 l -0.419506,-0.264244 a 0.29613833,0.2567499 0 0 1 0.174062,-0.46446 h 0.518555 a 0.20347152,0.17640837 0 0 0 0.193995,-0.1222 l 0.160227,-0.427553 a 0.29615341,0.25676294 0 0 1 0.563331,0 l 0.160224,0.427556 a 0.20347226,0.17640902 0 0 0 0.193991,0.1222 h 0.518559 a 0.29614209,0.25675314 0 0 1 0.174055,0.46446 L 37.85633,69.29503 a 0.20351889,0.17644947 0 0 0 -0.0741,0.197765 l 0.160247,0.427567 a 0.29169304,0.25289584 0 0 1 -0.107588,0.287032 0.2952243,0.25595742 0 0 1 -0.174061,0.05001 z"
     fill="#004578"
     id="path2628-0-7"
     style="fill:#666666;stroke-width:0.070048" />
  <path
     d="m 41.911918,70.257403 a 0.29524013,0.25597113 0 0 1 -0.174079,-0.05001 l -0.419514,-0.264255 a 0.20329021,0.17625118 0 0 0 -0.239777,0 l -0.419516,0.264252 a 0.29614741,0.25675771 0 0 1 -0.455738,-0.287032 l 0.160247,-0.427566 a 0.20351966,0.17645011 0 0 0 -0.07411,-0.197766 l -0.419508,-0.264244 a 0.29614815,0.25675835 0 0 1 0.174079,-0.464461 h 0.518536 a 0.20347077,0.17640772 0 0 0 0.193994,-0.122199 l 0.160243,-0.427557 a 0.29613761,0.25674923 0 0 1 0.563315,0 l 0.160223,0.427557 a 0.20349558,0.17642925 0 0 0 0.194013,0.122199 h 0.51853 a 0.29614815,0.25675835 0 0 1 0.174085,0.464461 l -0.419514,0.264244 a 0.20349558,0.17642925 0 0 0 -0.07411,0.197766 l 0.16024,0.427566 a 0.29169304,0.25289584 0 0 1 -0.107588,0.287032 0.29522205,0.25595546 0 0 1 -0.174056,0.05001 z"
     fill="#004578"
     id="path2630-56-5"
     style="fill:#666666;stroke-width:0.070048" />
  <path
     d="m 53.238264,70.28275 a 0.32447649,0.2813189 0 0 1 -0.191182,-0.05484 0.32052098,0.27788944 0 0 1 -0.118204,-0.315359 l 0.160266,-0.427549 a 0.17442092,0.15122172 0 0 0 -0.0635,-0.169456 l -0.419528,-0.264271 a 0.32529201,0.2820259 0 0 1 0.191214,-0.510197 h 0.518547 a 0.17435395,0.15116366 0 0 0 0.166253,-0.104745 l 0.160265,-0.427558 a 0.32529878,0.28203178 0 0 1 0.618742,0 l 0.160235,0.427558 a 0.17439309,0.15119758 0 0 0 0.166277,0.104745 h 0.518536 a 0.32530251,0.28203503 0 0 1 0.191221,0.510197 l -0.419513,0.264271 a 0.17434568,0.1511565 0 0 0 -0.0635,0.169456 l 0.160244,0.427549 a 0.32530928,0.28204092 0 0 1 -0.500597,0.315315 l -0.419505,-0.264235 a 0.1743818,0.15118779 0 0 0 -0.205529,0 l -0.419507,0.264235 a 0.32423879,0.28111277 0 0 1 -0.1912,0.05484 z m 0.713476,-0.478665 a 0.3246443,0.28146435 0 0 1 0.191187,0.05396 l 0.419502,0.264244 a 0.17482188,0.15156935 0 0 0 0.269053,-0.169466 l -0.160223,-0.427548 a 0.32445771,0.28130257 0 0 1 0.118192,-0.315324 l 0.419491,-0.26427 a 0.17483317,0.15157914 0 0 0 -0.102794,-0.274204 h -0.518547 a 0.32445922,0.28130388 0 0 1 -0.309364,-0.194873 l -0.160247,-0.42755 a 0.17483317,0.15157914 0 0 0 -0.332564,0 l -0.160248,0.42755 a 0.32441937,0.28126929 0 0 1 -0.309352,0.194873 h -0.51854 a 0.17483317,0.15157914 0 0 0 -0.102794,0.274201 l 0.419531,0.26427 a 0.32451489,0.28135212 0 0 1 0.118169,0.315325 l -0.160266,0.427548 a 0.17483317,0.15157914 0 0 0 0.269049,0.169465 l 0.419524,-0.264244 a 0.3247398,0.28154718 0 0 1 0.19121,-0.05396 z"
     fill="#3f3d56"
     id="path2636-30-02"
     style="fill:#666666;stroke-width:0.070048" />
  <path
     d="m 49.039438,70.438338 a 0.32447649,0.2813189 0 0 1 -0.191183,-0.05483 0.32052098,0.27788944 0 0 1 -0.118208,-0.315351 l 0.160269,-0.427547 a 0.17442092,0.15122172 0 0 0 -0.0635,-0.169458 l -0.41953,-0.264275 a 0.32529201,0.2820259 0 0 1 0.191211,-0.510197 h 0.518546 a 0.17435395,0.15116366 0 0 0 0.166261,-0.104754 l 0.160259,-0.427548 a 0.32529878,0.28203178 0 0 1 0.618753,0 l 0.160227,0.427548 a 0.17439309,0.15119758 0 0 0 0.16628,0.104754 h 0.518535 a 0.32530251,0.28203503 0 0 1 0.191217,0.510197 l -0.419509,0.264271 a 0.17434568,0.1511565 0 0 0 -0.06354,0.169458 l 0.160245,0.427547 a 0.32530928,0.28204092 0 0 1 -0.500603,0.315316 l -0.419483,-0.26424 a 0.1743818,0.15118779 0 0 0 -0.205536,0 l -0.419514,0.264235 a 0.32423879,0.28111277 0 0 1 -0.191195,0.05483 z m 0.713485,-0.478664 a 0.3246443,0.28146435 0 0 1 0.191169,0.05396 l 0.419515,0.264235 a 0.17482188,0.15156935 0 0 0 0.269055,-0.169456 l -0.160229,-0.427547 a 0.32445771,0.28130257 0 0 1 0.118184,-0.315325 l 0.419492,-0.26427 A 0.17483317,0.15157914 0 0 0 50.907338,68.82707 H 50.38881 a 0.32445922,0.28130388 0 0 1 -0.309369,-0.194876 l -0.160253,-0.427557 a 0.17483317,0.15157914 0 0 0 -0.33256,0 l -0.160246,0.427557 a 0.32441937,0.28126929 0 0 1 -0.309351,0.194874 h -0.518542 a 0.17483317,0.15157914 0 0 0 -0.102783,0.274201 l 0.419526,0.26427 a 0.32451489,0.28135212 0 0 1 0.118169,0.315325 l -0.160258,0.427548 a 0.17483317,0.15157914 0 0 0 0.269046,0.169457 l 0.419526,-0.264235 a 0.3247398,0.28154718 0 0 1 0.191208,-0.05396 z"
     fill="#3f3d56"
     id="path2636-30-0-1"
     style="fill:#666666;stroke-width:0.070048" />
  <path
     d="m 44.742756,70.451556 a 0.32447649,0.2813189 0 0 1 -0.191177,-0.05484 0.32052098,0.27788944 0 0 1 -0.118201,-0.31535 l 0.160262,-0.427557 a 0.17442092,0.15122172 0 0 0 -0.0635,-0.169457 l -0.419532,-0.264261 a 0.32529201,0.2820259 0 0 1 0.191219,-0.510199 h 0.518537 a 0.17435395,0.15116366 0 0 0 0.166258,-0.104745 l 0.160266,-0.427557 a 0.32529878,0.28203178 0 0 1 0.618754,0 l 0.160227,0.427557 a 0.17439309,0.15119758 0 0 0 0.166277,0.104745 h 0.518536 a 0.32530251,0.28203503 0 0 1 0.19121,0.510199 l -0.4195,0.264261 a 0.17434568,0.1511565 0 0 0 -0.06352,0.169457 l 0.16024,0.427557 a 0.32530928,0.28204092 0 0 1 -0.500598,0.315315 l -0.419491,-0.264235 a 0.1743818,0.15118779 0 0 0 -0.205538,0 l -0.419513,0.264235 a 0.32423879,0.28111277 0 0 1 -0.1912,0.05484 z m 0.713485,-0.478664 a 0.3246443,0.28146435 0 0 1 0.191182,0.05406 l 0.419504,0.264235 a 0.17482188,0.15156935 0 0 0 0.269052,-0.169456 l -0.160222,-0.427558 a 0.32445771,0.28130257 0 0 1 0.118186,-0.315315 l 0.419491,-0.264271 A 0.17483317,0.15157914 0 0 0 46.610663,68.840386 H 46.092127 A 0.32445922,0.28130388 0 0 1 45.78276,68.64551 l -0.160248,-0.427549 a 0.17483317,0.15157914 0 0 0 -0.332565,0 L 45.1297,68.64551 a 0.32441937,0.28126929 0 0 1 -0.309346,0.194873 h -0.518546 a 0.17483317,0.15157914 0 0 0 -0.102793,0.274202 l 0.419533,0.26427 a 0.32451489,0.28135212 0 0 1 0.118169,0.315324 l -0.160266,0.427549 a 0.17483317,0.15157914 0 0 0 0.269048,0.169456 l 0.419533,-0.264234 a 0.3247398,0.28154718 0 0 1 0.191199,-0.05396 z"
     fill="#3f3d56"
     id="path2636-30-0-5-8"
     style="fill:#666666;stroke-width:0.070048" />
  <path
     d="m 37.105494,103.54468 a 0.29523787,0.25596916 0 0 1 -0.174078,-0.0501 l -0.419515,-0.26425 a 0.20329021,0.17625118 0 0 0 -0.239784,0 l -0.41951,0.26425 a 0.29614815,0.25675835 0 0 1 -0.455745,-0.28704 l 0.160254,-0.42755 a 0.20351815,0.17644882 0 0 0 -0.0741,-0.19777 l -0.419509,-0.26425 a 0.29613833,0.2567499 0 0 1 0.174055,-0.46446 h 0.51856 a 0.20347152,0.17640837 0 0 0 0.193997,-0.12221 l 0.160222,-0.42754 a 0.29615341,0.25676294 0 0 1 0.563333,0 l 0.160222,0.42754 a 0.20347226,0.17640902 0 0 0 0.193992,0.12221 h 0.518558 a 0.29614209,0.25675314 0 0 1 0.174057,0.46446 l -0.419516,0.26424 a 0.20351889,0.17644947 0 0 0 -0.07409,0.19777 l 0.160247,0.42756 a 0.29169304,0.25289584 0 0 1 -0.107599,0.28702 0.2952243,0.25595742 0 0 1 -0.174055,0.0501 z"
     fill="#004578"
     id="path2628-0-0"
     style="fill:#666666;stroke-width:0.070048" />
  <path
     d="m 52.682936,103.57 a 0.32447649,0.2813189 0 0 1 -0.191184,-0.0549 0.32052098,0.27788944 0 0 1 -0.11821,-0.31534 l 0.160272,-0.42755 a 0.17442092,0.15122172 0 0 0 -0.0635,-0.16946 l -0.419529,-0.26428 a 0.32529201,0.2820259 0 0 1 0.191213,-0.5102 h 0.518541 a 0.17435395,0.15116366 0 0 0 0.166261,-0.10474 l 0.160263,-0.42755 a 0.32529878,0.28203178 0 0 1 0.618753,0 l 0.160234,0.42755 a 0.17439309,0.15119758 0 0 0 0.166275,0.10474 h 0.518527 a 0.32530251,0.28203503 0 0 1 0.191221,0.5102 l -0.419503,0.26428 a 0.17434568,0.1511565 0 0 0 -0.0635,0.16946 l 0.160247,0.42755 a 0.32530928,0.28204092 0 0 1 -0.5006,0.31531 l -0.419491,-0.26421 a 0.1743818,0.15118779 0 0 0 -0.205538,0 l -0.419514,0.26421 a 0.32423879,0.28111277 0 0 1 -0.191194,0.055 z m 0.713478,-0.47866 a 0.3246443,0.28146435 0 0 1 0.191177,0.054 l 0.419505,0.26424 a 0.17482188,0.15156935 0 0 0 0.269054,-0.16945 l -0.160225,-0.42755 a 0.32445771,0.28130257 0 0 1 0.118189,-0.31533 l 0.419481,-0.26426 a 0.17483317,0.15157914 0 0 0 -0.102783,-0.27421 h -0.518548 a 0.32445922,0.28130388 0 0 1 -0.309361,-0.19488 l -0.160253,-0.42754 a 0.17483317,0.15157914 0 0 0 -0.332561,0 l -0.160244,0.42754 a 0.32441937,0.28126929 0 0 1 -0.30935,0.19488 h -0.518542 a 0.17483317,0.15157914 0 0 0 -0.102773,0.27421 l 0.419521,0.26426 a 0.32451489,0.28135212 0 0 1 0.118172,0.31533 l -0.160263,0.42755 a 0.17483317,0.15157914 0 0 0 0.269054,0.16945 l 0.419525,-0.26424 a 0.3247398,0.28154718 0 0 1 0.1912,-0.054 z"
     fill="#3f3d56"
     id="path2636-30-4"
     style="fill:#666666;stroke-width:0.070048" />
  <path
     d="m 48.484108,103.72558 a 0.32447649,0.2813189 0 0 1 -0.191183,-0.0549 0.32052098,0.27788944 0 0 1 -0.118202,-0.31536 l 0.160263,-0.42755 a 0.17442092,0.15122172 0 0 0 -0.0635,-0.16945 l -0.419525,-0.26427 a 0.32529201,0.2820259 0 0 1 0.191211,-0.5102 h 0.518543 a 0.17435395,0.15116366 0 0 0 0.166253,-0.10475 l 0.16027,-0.42754 a 0.32529878,0.28203178 0 0 1 0.618746,0 l 0.160243,0.42754 a 0.17439309,0.15119758 0 0 0 0.16627,0.10475 h 0.518536 a 0.32530251,0.28203503 0 0 1 0.191218,0.5102 l -0.419509,0.26427 a 0.17434568,0.1511565 0 0 0 -0.06353,0.16945 l 0.160247,0.42755 a 0.32530928,0.28204092 0 0 1 -0.500597,0.31532 l -0.419503,-0.26424 a 0.1743818,0.15118779 0 0 0 -0.205536,0 l -0.419515,0.26423 a 0.32423879,0.28111277 0 0 1 -0.191193,0.055 z m 0.713484,-0.47866 a 0.3246443,0.28146435 0 0 1 0.191171,0.054 l 0.419513,0.26425 a 0.17482188,0.15156935 0 0 0 0.269056,-0.16947 l -0.160236,-0.42753 a 0.32445771,0.28130257 0 0 1 0.118194,-0.31533 l 0.419489,-0.26426 a 0.17483317,0.15157914 0 0 0 -0.102752,-0.27421 h -0.518535 a 0.32445922,0.28130388 0 0 1 -0.309368,-0.19485 l -0.160247,-0.42757 a 0.17483317,0.15157914 0 0 0 -0.332568,0 l -0.160251,0.42757 a 0.32441937,0.28126929 0 0 1 -0.309343,0.19485 h -0.518536 a 0.17483317,0.15157914 0 0 0 -0.102773,0.27421 l 0.419524,0.26426 a 0.32451489,0.28135212 0 0 1 0.118169,0.31533 l -0.160259,0.42754 a 0.17483317,0.15157914 0 0 0 0.269043,0.16948 l 0.419525,-0.26425 a 0.3247398,0.28154718 0 0 1 0.191213,-0.054 z"
     fill="#3f3d56"
     id="path2636-30-0-59"
     style="fill:#666666;stroke-width:0.070048" />
  <path
     d="m 44.187427,103.73882 a 0.32447649,0.2813189 0 0 1 -0.191183,-0.0549 0.32052098,0.27788944 0 0 1 -0.118197,-0.31536 l 0.160264,-0.42754 a 0.17442092,0.15122172 0 0 0 -0.06351,-0.16948 l -0.419534,-0.26427 a 0.32529201,0.2820259 0 0 1 0.191218,-0.51019 h 0.518542 a 0.17435395,0.15116366 0 0 0 0.166255,-0.10475 l 0.160269,-0.42754 a 0.32529878,0.28203178 0 0 1 0.618747,0 l 0.160237,0.42754 a 0.17439309,0.15119758 0 0 0 0.166271,0.10475 h 0.518541 a 0.32530251,0.28203503 0 0 1 0.191218,0.51019 l -0.419515,0.26427 a 0.17434568,0.1511565 0 0 0 -0.06351,0.16948 l 0.160239,0.42754 a 0.32530928,0.28204092 0 0 1 -0.500591,0.31532 l -0.419504,-0.26423 a 0.1743818,0.15118779 0 0 0 -0.205528,0 l -0.419515,0.26423 a 0.32423879,0.28111277 0 0 1 -0.191201,0.0549 z m 0.713484,-0.47866 a 0.3246443,0.28146435 0 0 1 0.191175,0.054 l 0.419515,0.26423 a 0.17482188,0.15156935 0 0 0 0.269055,-0.16944 l -0.160236,-0.42756 a 0.32445771,0.28130257 0 0 1 0.118187,-0.31532 l 0.419492,-0.26426 a 0.17483317,0.15157914 0 0 0 -0.102763,-0.27422 h -0.518541 a 0.32445922,0.28130388 0 0 1 -0.309369,-0.19487 l -0.160246,-0.42755 a 0.17483317,0.15157914 0 0 0 -0.332567,0 l -0.160244,0.42755 a 0.32441937,0.28126929 0 0 1 -0.30935,0.19487 h -0.518547 a 0.17483317,0.15157914 0 0 0 -0.102783,0.27422 l 0.419526,0.26426 a 0.32451489,0.28135212 0 0 1 0.118175,0.31532 l -0.160261,0.42756 a 0.17483317,0.15157914 0 0 0 0.269043,0.16944 l 0.419526,-0.26423 a 0.3247398,0.28154718 0 0 1 0.191206,-0.054 z"
     fill="#3f3d56"
     id="path2636-30-0-5-7"
     style="fill:#666666;stroke-width:0.070048" />
  <path
     d="m 39.886438,103.76153 a 0.32447649,0.2813189 0 0 1 -0.191188,-0.0549 0.32052098,0.27788944 0 0 1 -0.118203,-0.31535 l 0.160263,-0.42756 a 0.17442092,0.15122172 0 0 0 -0.0635,-0.16946 l -0.419526,-0.26428 a 0.32529201,0.2820259 0 0 1 0.191217,-0.5102 h 0.51854 a 0.17435395,0.15116366 0 0 0 0.166255,-0.10473 l 0.160269,-0.42755 a 0.32529878,0.28203178 0 0 1 0.618747,0 l 0.160231,0.42755 a 0.17439309,0.15119758 0 0 0 0.166276,0.10473 h 0.518535 a 0.32530251,0.28203503 0 0 1 0.191223,0.5102 l -0.419513,0.26428 a 0.17434568,0.1511565 0 0 0 -0.06353,0.16946 l 0.160248,0.42756 a 0.32530928,0.28204092 0 0 1 -0.500599,0.31531 l -0.419494,-0.26423 a 0.1743818,0.15118779 0 0 0 -0.205535,0 l -0.419514,0.26423 a 0.32423879,0.28111277 0 0 1 -0.191187,0.055 z m 0.713479,-0.47868 a 0.3246443,0.28146435 0 0 1 0.191175,0.054 l 0.419509,0.26425 a 0.17482188,0.15156935 0 0 0 0.269055,-0.16946 l -0.160228,-0.42758 a 0.32445771,0.28130257 0 0 1 0.118186,-0.31533 l 0.41949,-0.26428 a 0.17483317,0.15157914 0 0 0 -0.102752,-0.2742 h -0.518536 a 0.32445922,0.28130388 0 0 1 -0.309367,-0.19487 l -0.160248,-0.42756 a 0.17483317,0.15157914 0 0 0 -0.332567,0 l -0.160256,0.42756 a 0.32441937,0.28126929 0 0 1 -0.30934,0.19485 h -0.51855 a 0.17483317,0.15157914 0 0 0 -0.102773,0.27419 l 0.419531,0.26429 a 0.32451489,0.28135212 0 0 1 0.118173,0.31532 l -0.160265,0.42755 a 0.17483317,0.15157914 0 0 0 0.269051,0.16945 l 0.419524,-0.26424 a 0.3247398,0.28154718 0 0 1 0.191207,-0.054 z"
     fill="#3f3d56"
     id="path2636-30-0-5-7-7"
     style="fill:#666666;stroke-width:0.070048" />
  <path
     d="m 45.297471,57.734967 h -8.16011 a 0.56493181,0.48053788 0 1 0 0,0.961073 h 8.16011 a 0.56493181,0.48053788 0 0 0 0,-0.961073 z"
     fill="#e6e6e6"
     id="path1656-6"
     style="stroke-width:0.115785" />
  <path
     d="M 53.251695,60.778369 H 37.029412 c -0.252373,0 -0.456987,0.215707 -0.456987,0.480539 0,0.264829 0.204614,0.480537 0.456987,0.480537 h 16.222283 c 0.252365,0 0.456978,-0.215708 0.456978,-0.480537 0,-0.264832 -0.204613,-0.480539 -0.456978,-0.480539 z"
     fill="#e6e6e6"
     id="path1658-5"
     style="stroke-width:0.115785" />
  <path
     d="M 53.251695,63.895135 H 37.029412 c -0.252373,0 -0.456987,0.21571 -0.456987,0.480534 0,0.264834 0.204614,0.480537 0.456987,0.480537 h 16.222283 c 0.252365,0 0.456978,-0.215703 0.456978,-0.480537 0,-0.264824 -0.204613,-0.480534 -0.456978,-0.480534 z"
     fill="#e6e6e6"
     id="path1660-5"
     style="stroke-width:0.115785" />
  <path
     d="M 30.910509,69.074255 H 16.849997 A 1.3196796,1.1225356 0 0 1 15.531823,67.953007 V 54.604744 a 1.3196796,1.1225356 0 0 1 1.318174,-1.121255 h 14.060512 a 1.3196796,1.1225356 0 0 1 1.318171,1.121255 v 13.348263 a 1.3196796,1.1225356 0 0 1 -1.318171,1.121248 z"
     fill="#e6e6e6"
     id="path1662-8"
     style="stroke-width:0.115785" />
  <ellipse
     cx="57.022884"
     cy="50.012936"
     fill="#e6e6e6"
     id="circle1664-1"
     rx="4.5194511"
     ry="3.8442998"
     style="stroke-width:0.115785" />
  <path
     d="m 23.717426,66.635585 c -0.316639,-0.0079 -0.710719,-0.01696 -1.014124,-0.205482 a 0.77889593,0.6625383 0 0 1 -0.306472,-0.494686 0.52390102,0.44563654 0 0 1 0.178159,-0.365966 0.67597925,0.57499615 0 0 1 0.639549,-0.0783 l -0.258496,-1.606887 0.189756,-0.02211 0.3039,1.889095 -0.15845,-0.06187 c -0.183721,-0.07172 -0.435905,-0.108111 -0.592624,0.0044 a 0.33647438,0.28620917 0 0 0 -0.110381,0.235776 0.58865845,0.50071999 0 0 0 0.228032,0.368883 c 0.23612,0.146764 0.550237,0.165696 0.906524,0.174213 z"
     fill="#3f3d56"
     id="path1732-4"
     style="stroke-width:0.115785" />
  <rect
     x="20.986067"
     y="64.02282"
     width="1.0315684"
     height="0.16292034"
     fill="#3f3d56"
     id="rect1734-7"
     style="stroke-width:0.115785" />
  <rect
     x="24.242119"
     y="64.02282"
     width="1.0315684"
     height="0.16292034"
     fill="#3f3d56"
     id="rect1736-1"
     style="stroke-width:0.115785" />
  <path
     d="m 19.193868,61.773088 c -0.8307,-0.08057 -1.474056,-0.757593 -1.544716,-1.444521 -0.08407,-0.817217 0.475439,-1.593387 1.243038,-2.051971 0.80273,-0.479579 1.802858,-0.679845 2.770526,-0.723932 a 7.6143303,6.476842 0 0 1 5.204716,1.459246 c 0.725087,0.512252 1.402272,1.164779 1.658927,1.952953 0.2229,0.684497 0.04151,1.459933 -0.605695,1.939332 a 1.5299821,1.3014213 0 0 1 -1.174091,0.307488 c -0.502188,-0.04435 -0.965539,-0.268961 -1.366621,-0.517015 -0.780194,-0.482521 -1.420695,-1.15472 -2.371219,-1.406865 -0.696961,-0.184889 -1.601405,-0.02213 -2.027318,0.513968 a 1.1472074,0.97582838 0 0 0 -0.18316,0.408815 0.14876526,0.12654153 0 0 0 0.100332,0.150309 0.14454207,0.12294923 0 0 0 0.176706,-0.08533 c 0.111817,-0.675253 1.08792,-0.927219 1.772883,-0.773014 0.9987,0.224843 1.669118,0.982905 2.488515,1.464534 a 3.0240473,2.5722913 0 0 0 1.449177,0.492017 1.7995298,1.5307017 0 0 0 1.264429,-0.330412 c 0.70001,-0.470179 0.967714,-1.278874 0.812922,-2.006966 -0.179251,-0.843143 -0.846403,-1.565763 -1.57842,-2.125229 a 7.8956273,6.7161158 0 0 0 -5.395848,-1.695536 c -1.01259,0.01974 -2.069128,0.197595 -2.941478,0.652837 -0.846167,0.441585 -1.500181,1.180357 -1.585661,2.039103 -0.07523,0.755863 0.401514,1.546451 1.219909,1.877595 a 1.9104094,1.6250174 0 0 0 0.612154,0.146981 c 0.183389,0.01781 0.181891,-0.226734 0,-0.24438 z"
     fill="#3f3d56"
     id="path1738-3"
     style="stroke-width:0.115785" />
  <path
     d="M 55.714983,107.27558 H 13.407908 a 2.1365816,1.8174023 0 0 1 -2.134187,-1.81537 V 85.277647 a 2.1365816,1.8174023 0 0 1 2.134187,-1.81537 h 42.307075 a 2.1365916,1.8174107 0 0 1 2.134191,1.81537 v 20.182563 a 2.1365916,1.8174107 0 0 1 -2.134191,1.81537 z M 13.407908,83.675847 a 1.8852385,1.6036068 0 0 0 -1.883105,1.6018 v 20.182563 a 1.8852385,1.6036068 0 0 0 1.883105,1.60179 h 42.307075 a 1.8852385,1.6036068 0 0 0 1.883111,-1.60179 V 85.277647 a 1.8852385,1.6036068 0 0 0 -1.883111,-1.6018 z"
     fill="#e6e6e6"
     id="path1654-3-1"
     style="stroke-width:0.115785" />
  <path
     d="m 44.993896,91.504657 h -8.160122 a 0.56493463,0.48054028 0 1 0 0,0.96108 h 8.160122 a 0.56493463,0.48054028 0 0 0 0,-0.96108 z"
     fill="#e6e6e6"
     id="path1656-6-3"
     style="stroke-width:0.115785" />
  <path
     d="M 52.948108,94.548057 H 36.725831 c -0.252373,0 -0.456991,0.21572 -0.456991,0.48054 0,0.26482 0.204618,0.48054 0.456991,0.48054 h 16.222277 c 0.252373,0 0.456979,-0.21572 0.456979,-0.48054 0,-0.26482 -0.204606,-0.48054 -0.456979,-0.48054 z"
     fill="#e6e6e6"
     id="path1658-5-7"
     style="stroke-width:0.115785" />
  <path
     d="M 52.948108,97.664827 H 36.725831 c -0.252373,0 -0.456991,0.2157 -0.456991,0.48053 0,0.26484 0.204618,0.48054 0.456991,0.48054 h 16.222277 c 0.252373,0 0.456979,-0.2157 0.456979,-0.48054 0,-0.26483 -0.204606,-0.48053 -0.456979,-0.48053 z"
     fill="#e6e6e6"
     id="path1660-5-8"
     style="stroke-width:0.115785" />
  <path
     d="M 30.606928,102.84395 H 16.546412 a 1.3196796,1.1225356 0 0 1 -1.31817,-1.12125 V 88.374427 a 1.3196796,1.1225356 0 0 1 1.31817,-1.12124 h 14.060516 a 1.3196796,1.1225356 0 0 1 1.31817,1.12124 V 101.7227 a 1.3196796,1.1225356 0 0 1 -1.31817,1.12125 z"
     fill="#e6e6e6"
     id="path1662-8-8"
     style="stroke-width:0.115785" />
  <ellipse
     cx="56.719311"
     cy="83.782623"
     fill="#e6e6e6"
     id="circle1664-1-3"
     rx="4.5194511"
     ry="3.8442998"
     style="stroke-width:0.115785" />
  <path
     d="m 23.413844,100.40527 c -0.316639,-0.006 -0.710718,-0.0169 -1.014126,-0.20547 a 0.77889593,0.6625383 0 0 1 -0.306473,-0.494683 0.52390102,0.44563654 0 0 1 0.17816,-0.36597 0.67597925,0.57499615 0 0 1 0.639549,-0.0784 l -0.258495,-1.60689 0.189757,-0.0221 0.303898,1.8891 -0.158451,-0.0619 c -0.18372,-0.0717 -0.435903,-0.10811 -0.59262,0.005 a 0.33647438,0.28620917 0 0 0 -0.11038,0.2358 0.58865845,0.50071999 0 0 0 0.228026,0.368863 c 0.23612,0.14677 0.550239,0.1657 0.906527,0.17422 z"
     fill="#3f3d56"
     id="path1732-4-8"
     style="stroke-width:0.115785" />
  <rect
     x="20.682478"
     y="97.792519"
     width="1.0315684"
     height="0.16292034"
     fill="#3f3d56"
     id="rect1734-7-1"
     style="stroke-width:0.115785" />
  <rect
     x="23.938532"
     y="97.792519"
     width="1.0315684"
     height="0.16292034"
     fill="#3f3d56"
     id="rect1736-1-5"
     style="stroke-width:0.115785" />
  <path
     d="m 18.890285,95.542787 c -0.830698,-0.0806 -1.474054,-0.7576 -1.544719,-1.44452 -0.08406,-0.81722 0.475443,-1.59339 1.24304,-2.05198 0.802732,-0.47958 1.802858,-0.67984 2.770525,-0.72394 a 7.6143303,6.476842 0 0 1 5.204715,1.45925 c 0.72509,0.51226 1.402274,1.16478 1.658932,1.95294 0.222895,0.6845 0.0415,1.45996 -0.6057,1.93935 a 1.5299821,1.3014213 0 0 1 -1.174087,0.30749 c -0.50219,-0.0444 -0.965539,-0.26895 -1.366624,-0.51701 -0.780191,-0.48252 -1.420693,-1.15472 -2.371219,-1.40689 -0.696961,-0.18487 -1.601402,-0.0221 -2.027314,0.51398 a 1.1472074,0.97582838 0 0 0 -0.183164,0.40882 0.14876526,0.12654153 0 0 0 0.100332,0.1503 0.14454207,0.12294923 0 0 0 0.176706,-0.0854 c 0.111816,-0.67524 1.087919,-0.92721 1.77288,-0.77301 0.998704,0.22485 1.669125,0.98291 2.48852,1.46453 a 3.0240473,2.5722913 0 0 0 1.449178,0.49202 1.7995298,1.5307017 0 0 0 1.264427,-0.33041 c 0.700013,-0.47017 0.967716,-1.27886 0.812926,-2.00696 -0.179251,-0.84314 -0.846404,-1.56578 -1.578418,-2.12522 a 7.8956273,6.7161158 0 0 0 -5.395849,-1.69555 c -1.012594,0.0198 -2.069135,0.19759 -2.941481,0.65283 -0.84617,0.44159 -1.500181,1.18036 -1.585664,2.03911 -0.07523,0.75586 0.401518,1.54645 1.219914,1.87761 a 1.9104094,1.6250174 0 0 0 0.612153,0.14696 c 0.183386,0.0179 0.181891,-0.22674 0,-0.24437 z"
     fill="#3f3d56"
     id="path1738-3-3"
     style="stroke-width:0.115785" />
  <path
     d="M 115.36887,106.14521 H 73.061797 a 2.1365816,1.8174023 0 0 1 -2.134178,-1.81537 V 84.147257 a 2.1365816,1.8174023 0 0 1 2.134178,-1.81535 h 42.307073 a 2.1365916,1.8174107 0 0 1 2.13421,1.81535 v 20.182583 a 2.1365916,1.8174107 0 0 1 -2.13421,1.81537 z M 73.061797,82.545487 a 1.8852385,1.6036068 0 0 0 -1.883098,1.60177 v 20.182583 a 1.8852385,1.6036068 0 0 0 1.883098,1.6018 h 42.307073 a 1.8852385,1.6036068 0 0 0 1.88311,-1.6018 V 84.147257 a 1.8852385,1.6036068 0 0 0 -1.88311,-1.60177 z"
     fill="#e6e6e6"
     id="path1654-3-5"
     style="stroke-width:0.115785" />
  <path
     d="m 104.64779,90.374287 h -8.16013 a 0.5649365,0.48054185 0 1 0 0,0.96107 h 8.16013 a 0.5649365,0.48054185 0 0 0 0,-0.96107 z"
     fill="#e6e6e6"
     id="path1656-6-4"
     style="stroke-width:0.115785" />
  <path
     d="M 112.60202,93.417697 H 96.379724 c -0.252363,0 -0.456979,0.2157 -0.456979,0.48053 0,0.26484 0.204616,0.48054 0.456979,0.48054 h 16.222296 c 0.25235,0 0.45697,-0.2157 0.45697,-0.48054 0,-0.26483 -0.20462,-0.48053 -0.45697,-0.48053 z"
     fill="#e6e6e6"
     id="path1658-5-3"
     style="stroke-width:0.115785" />
  <path
     d="M 112.60202,96.534467 H 96.379724 c -0.252363,0 -0.456979,0.2157 -0.456979,0.48053 0,0.26483 0.204616,0.48054 0.456979,0.48054 h 16.222296 c 0.25235,0 0.45697,-0.21571 0.45697,-0.48054 0,-0.26483 -0.20462,-0.48053 -0.45697,-0.48053 z"
     fill="#e6e6e6"
     id="path1660-5-6"
     style="stroke-width:0.115785" />
  <path
     d="M 90.260824,101.71358 H 76.200306 a 1.3196796,1.1225356 0 0 1 -1.318174,-1.12124 V 87.244077 a 1.3196796,1.1225356 0 0 1 1.318174,-1.12126 h 14.060518 a 1.3196796,1.1225356 0 0 1 1.318158,1.12126 v 13.348263 a 1.3196796,1.1225356 0 0 1 -1.318158,1.12124 z"
     fill="#e6e6e6"
     id="path1662-8-5"
     style="stroke-width:0.115785" />
  <ellipse
     cx="116.37322"
     cy="82.652267"
     fill="#e6e6e6"
     id="circle1664-1-9"
     rx="4.5194511"
     ry="3.8442998"
     style="stroke-width:0.115785" />
  <path
     d="m 83.067736,99.274907 c -0.316636,-0.006 -0.710711,-0.0169 -1.014117,-0.20548 a 0.77889593,0.6625383 0 0 1 -0.306482,-0.49468 0.52390102,0.44563654 0 0 1 0.178164,-0.36598 0.67597925,0.57499615 0 0 1 0.639551,-0.0784 l -0.2585,-1.60687 0.189763,-0.0221 0.303899,1.88908 -0.158455,-0.0619 c -0.183721,-0.0716 -0.435903,-0.10811 -0.592624,0.005 a 0.33647438,0.28620917 0 0 0 -0.110369,0.23578 0.58865845,0.50071999 0 0 0 0.228028,0.36888 c 0.236116,0.14676 0.550237,0.1657 0.906527,0.17421 z"
     fill="#3f3d56"
     id="path1732-4-5"
     style="stroke-width:0.115785" />
  <rect
     x="80.336372"
     y="96.662117"
     width="1.0315684"
     height="0.16292034"
     fill="#3f3d56"
     id="rect1734-7-4"
     style="stroke-width:0.115785" />
  <rect
     x="83.59243"
     y="96.662117"
     width="1.0315684"
     height="0.16292034"
     fill="#3f3d56"
     id="rect1736-1-9"
     style="stroke-width:0.115785" />
  <path
     d="m 78.544175,94.412417 c -0.830693,-0.0805 -1.474047,-0.75759 -1.544712,-1.44453 -0.08407,-0.81722 0.475434,-1.59337 1.243043,-2.05197 0.802727,-0.47957 1.802854,-0.67985 2.770527,-0.72392 a 7.6143303,6.476842 0 0 1 5.204706,1.45924 c 0.725091,0.51224 1.402279,1.16479 1.658936,1.95296 0.222889,0.6845 0.04162,1.45993 -0.605689,1.93932 a 1.5299821,1.3014213 0 0 1 -1.174095,0.30749 c -0.502185,-0.0444 -0.965543,-0.26896 -1.366636,-0.51701 -0.78019,-0.48253 -1.420684,-1.15474 -2.371209,-1.40687 -0.696953,-0.18489 -1.601401,-0.022 -2.027314,0.51396 a 1.1472074,0.97582838 0 0 0 -0.183159,0.40882 0.14876526,0.12654153 0 0 0 0.100373,0.15031 0.14454207,0.12294923 0 0 0 0.176706,-0.0854 c 0.111861,-0.67526 1.087917,-0.92723 1.77288,-0.77301 0.998702,0.22484 1.669125,0.9829 2.488518,1.46453 a 3.0240473,2.5722913 0 0 0 1.449173,0.49201 1.7995298,1.5307017 0 0 0 1.264436,-0.33041 c 0.700004,-0.47018 0.96772,-1.27886 0.812908,-2.00695 -0.179239,-0.84315 -0.846392,-1.56577 -1.578421,-2.12524 a 7.8956273,6.7161158 0 0 0 -5.395844,-1.69554 c -1.012578,0.0198 -2.069129,0.19759 -2.941467,0.65284 -0.846173,0.44158 -1.500186,1.18036 -1.585667,2.03911 -0.07522,0.75585 0.401519,1.54644 1.219911,1.87758 a 1.9104094,1.6250174 0 0 0 0.612149,0.14699 c 0.18339,0.0179 0.181887,-0.22674 0,-0.24438 z"
     fill="#3f3d56"
     id="path1738-3-1"
     style="stroke-width:0.115785" />
  <path
     d="M 55.482303,139.9149 H 13.175219 a 2.1365816,1.8174023 0 0 1 -2.134184,-1.81538 v -20.18256 a 2.1365816,1.8174023 0 0 1 2.134184,-1.81536 h 42.307084 a 2.1365916,1.8174107 0 0 1 2.134177,1.81536 v 20.18256 a 2.1365916,1.8174107 0 0 1 -2.134177,1.81538 z M 13.175219,116.31518 a 1.8852385,1.6036068 0 0 0 -1.883103,1.60178 v 20.18256 a 1.8852385,1.6036068 0 0 0 1.883103,1.6018 h 42.307084 a 1.8852385,1.6036068 0 0 0 1.883098,-1.6018 v -20.18256 a 1.8852385,1.6036068 0 0 0 -1.883098,-1.60178 z"
     fill="#e6e6e6"
     id="path1654-3-1-7"
     style="stroke-width:0.115785" />
  <path
     d="m 44.761204,124.14398 h -8.160118 a 0.56493362,0.4805394 0 1 0 0,0.96107 h 8.160118 a 0.56493362,0.4805394 0 0 0 0,-0.96107 z"
     fill="#e6e6e6"
     id="path1656-6-3-5"
     style="stroke-width:0.115785" />
  <path
     d="M 52.715429,127.18739 H 36.493137 c -0.252365,0 -0.456982,0.21569 -0.456982,0.48053 0,0.26483 0.204617,0.48054 0.456982,0.48054 h 16.222292 c 0.25236,0 0.456977,-0.21571 0.456977,-0.48054 0,-0.26484 -0.204617,-0.48053 -0.456977,-0.48053 z"
     fill="#e6e6e6"
     id="path1658-5-7-5"
     style="stroke-width:0.115785" />
  <path
     d="M 52.715429,130.30415 H 36.493137 c -0.252365,0 -0.456982,0.21571 -0.456982,0.48053 0,0.26484 0.204617,0.48054 0.456982,0.48054 h 16.222292 c 0.25236,0 0.456977,-0.2157 0.456977,-0.48054 0,-0.26482 -0.204617,-0.48053 -0.456977,-0.48053 z"
     fill="#e6e6e6"
     id="path1660-5-8-4"
     style="stroke-width:0.115785" />
  <path
     d="M 30.374241,135.48328 H 16.313729 a 1.3196796,1.1225356 0 0 1 -1.318174,-1.12125 v -13.34828 a 1.3196796,1.1225356 0 0 1 1.318174,-1.12124 h 14.060512 a 1.3196796,1.1225356 0 0 1 1.31817,1.12124 v 13.34828 a 1.3196796,1.1225356 0 0 1 -1.31817,1.12125 z"
     fill="#e6e6e6"
     id="path1662-8-8-1"
     style="stroke-width:0.115785" />
  <ellipse
     cx="56.486618"
     cy="116.42195"
     fill="#e6e6e6"
     id="circle1664-1-3-8"
     rx="4.5194511"
     ry="3.8442998"
     style="stroke-width:0.115785" />
  <path
     d="m 23.181159,133.0446 c -0.31664,-0.006 -0.710721,-0.0169 -1.014124,-0.20548 a 0.77889593,0.6625383 0 0 1 -0.306476,-0.49468 0.52390102,0.44563654 0 0 1 0.178161,-0.36598 0.67597925,0.57499615 0 0 1 0.63955,-0.0783 l -0.258496,-1.60689 0.189755,-0.0221 0.303902,1.8891 -0.15845,-0.0619 c -0.183727,-0.0717 -0.435908,-0.10811 -0.592628,0.005 a 0.33647438,0.28620917 0 0 0 -0.110379,0.2358 0.58865845,0.50071999 0 0 0 0.22803,0.36886 c 0.236121,0.14678 0.550239,0.1657 0.906528,0.17422 z"
     fill="#3f3d56"
     id="path1732-4-8-8"
     style="stroke-width:0.115785" />
  <rect
     x="20.449795"
     y="130.43182"
     width="1.0315684"
     height="0.16292034"
     fill="#3f3d56"
     id="rect1734-7-1-3"
     style="stroke-width:0.115785" />
  <rect
     x="23.705843"
     y="130.43182"
     width="1.0315684"
     height="0.16292034"
     fill="#3f3d56"
     id="rect1736-1-5-5"
     style="stroke-width:0.115785" />
  <path
     d="m 18.657599,128.1821 c -0.8307,-0.0806 -1.474056,-0.75759 -1.544716,-1.44454 -0.08407,-0.81719 0.475441,-1.59338 1.243038,-2.05196 0.802731,-0.47957 1.802857,-0.67983 2.770525,-0.72393 a 7.6143303,6.476842 0 0 1 5.204713,1.45925 c 0.72509,0.51225 1.402277,1.16478 1.658932,1.95296 0.222897,0.68448 0.0415,1.45993 -0.605696,1.93933 a 1.5299821,1.3014213 0 0 1 -1.17409,0.3075 c -0.502187,-0.0444 -0.96554,-0.26898 -1.366622,-0.51702 -0.780194,-0.48253 -1.420695,-1.15473 -2.371218,-1.40688 -0.696961,-0.18488 -1.601401,-0.0221 -2.027318,0.51398 a 1.1472074,0.97582838 0 0 0 -0.18316,0.40881 0.14876526,0.12654153 0 0 0 0.100332,0.15031 0.14454207,0.12294923 0 0 0 0.176707,-0.0854 c 0.111816,-0.67527 1.08792,-0.92724 1.772878,-0.77302 0.998706,0.22485 1.669125,0.9829 2.48852,1.46452 a 3.0240473,2.5722913 0 0 0 1.449178,0.49204 1.7995298,1.5307017 0 0 0 1.264427,-0.33041 c 0.700014,-0.47019 0.967717,-1.27888 0.812925,-2.00697 -0.179251,-0.84314 -0.846404,-1.56578 -1.57842,-2.12522 a 7.8956273,6.7161158 0 0 0 -5.395848,-1.69555 c -1.01259,0.0197 -2.069129,0.19759 -2.94148,0.65284 -0.846164,0.44158 -1.500179,1.18035 -1.585661,2.0391 -0.07523,0.75586 0.401514,1.54646 1.219911,1.8776 a 1.9104094,1.6250174 0 0 0 0.612153,0.14699 c 0.183388,0.0179 0.181892,-0.22676 0,-0.2444 z"
     fill="#3f3d56"
     id="path1738-3-3-2"
     style="stroke-width:0.115785" />
  <path
     d="M 115.13618,138.78453 H 72.829117 a 2.1365816,1.8174023 0 0 1 -2.134179,-1.81536 v -20.18258 a 2.1365816,1.8174023 0 0 1 2.134179,-1.81535 h 42.307063 a 2.1365916,1.8174107 0 0 1 2.1342,1.81535 v 20.18258 a 2.1365916,1.8174107 0 0 1 -2.1342,1.81536 z M 72.829117,115.18479 a 1.8852385,1.6036068 0 0 0 -1.883101,1.6018 v 20.18258 a 1.8852385,1.6036068 0 0 0 1.883101,1.60179 h 42.307063 a 1.8852385,1.6036068 0 0 0 1.88312,-1.60179 v -20.18258 a 1.8852385,1.6036068 0 0 0 -1.88312,-1.6018 z"
     fill="#e6e6e6"
     id="path1654-3-5-2"
     style="stroke-width:0.115785" />
  <path
     d="m 104.41511,123.01361 h -8.160124 a 0.56493463,0.48054028 0 1 0 0,0.96108 h 8.160124 a 0.56493463,0.48054028 0 0 0 0,-0.96108 z"
     fill="#e6e6e6"
     id="path1656-6-4-6"
     style="stroke-width:0.115785" />
  <path
     d="M 112.36931,126.05702 H 96.14704 c -0.252374,0 -0.456981,0.21571 -0.456981,0.48054 0,0.26483 0.204607,0.48054 0.456981,0.48054 h 16.22227 c 0.25238,0 0.45701,-0.21571 0.45701,-0.48054 0,-0.26483 -0.20463,-0.48054 -0.45701,-0.48054 z"
     fill="#e6e6e6"
     id="path1658-5-3-6"
     style="stroke-width:0.115785" />
  <path
     d="M 112.36931,129.17379 H 96.14704 c -0.252374,0 -0.456981,0.2157 -0.456981,0.48052 0,0.26483 0.204607,0.48056 0.456981,0.48056 h 16.22227 c 0.25238,0 0.45701,-0.21573 0.45701,-0.48056 0,-0.26482 -0.20463,-0.48052 -0.45701,-0.48052 z"
     fill="#e6e6e6"
     id="path1660-5-6-7"
     style="stroke-width:0.115785" />
  <path
     d="M 90.02814,134.35291 H 75.967626 a 1.3196796,1.1225356 0 0 1 -1.318175,-1.12127 V 119.8834 a 1.3196796,1.1225356 0 0 1 1.318175,-1.12126 H 90.02814 a 1.3196796,1.1225356 0 0 1 1.318158,1.12126 v 13.34824 a 1.3196796,1.1225356 0 0 1 -1.318158,1.12127 z"
     fill="#e6e6e6"
     id="path1662-8-5-8"
     style="stroke-width:0.115785" />
  <ellipse
     cx="116.14054"
     cy="115.29156"
     fill="#e6e6e6"
     id="circle1664-1-9-4"
     rx="4.5194511"
     ry="3.8442998"
     style="stroke-width:0.115785" />
  <path
     d="m 82.835054,131.91424 c -0.316636,-0.006 -0.710712,-0.0169 -1.014128,-0.20548 a 0.77889593,0.6625383 0 0 1 -0.306469,-0.4947 0.52390102,0.44563654 0 0 1 0.178162,-0.36596 0.67597925,0.57499615 0 0 1 0.639553,-0.0784 l -0.258499,-1.60688 0.18975,-0.022 0.303899,1.88909 -0.158445,-0.0619 c -0.18372,-0.0717 -0.435903,-0.10812 -0.592623,0.005 a 0.33647438,0.28620917 0 0 0 -0.110369,0.23578 0.58865845,0.50071999 0 0 0 0.228029,0.36887 c 0.236114,0.14677 0.550236,0.16571 0.906526,0.17422 z"
     fill="#3f3d56"
     id="path1732-4-5-1"
     style="stroke-width:0.115785" />
  <rect
     x="80.103683"
     y="129.30147"
     width="1.0315684"
     height="0.16292034"
     fill="#3f3d56"
     id="rect1734-7-4-7"
     style="stroke-width:0.115785" />
  <rect
     x="83.359741"
     y="129.30147"
     width="1.0315684"
     height="0.16292034"
     fill="#3f3d56"
     id="rect1736-1-9-1"
     style="stroke-width:0.115785" />
  <path
     d="m 78.311493,127.05174 c -0.830692,-0.0805 -1.474058,-0.75759 -1.544711,-1.44452 -0.08407,-0.81723 0.475435,-1.59338 1.243042,-2.05197 0.802726,-0.47958 1.802854,-0.67986 2.770516,-0.72393 a 7.6143303,6.476842 0 0 1 5.204723,1.45925 c 0.725092,0.51224 1.40226,1.16478 1.658926,1.95295 0.222889,0.6845 0.04162,1.45993 -0.605699,1.93932 a 1.5299821,1.3014213 0 0 1 -1.174097,0.30748 c -0.502184,-0.0444 -0.96552,-0.26894 -1.366615,-0.51701 -0.780194,-0.48251 -1.42069,-1.15472 -2.371214,-1.40686 -0.696963,-0.18488 -1.601411,-0.0221 -2.027313,0.51397 a 1.1472074,0.97582838 0 0 0 -0.183172,0.40882 0.14876526,0.12654153 0 0 0 0.100374,0.1503 0.14454207,0.12294923 0 0 0 0.176714,-0.0854 c 0.111749,-0.67526 1.087919,-0.92721 1.772871,-0.77301 0.998704,0.22484 1.669137,0.98291 2.488518,1.46454 a 3.0240473,2.5722913 0 0 0 1.449182,0.492 1.7995298,1.5307017 0 0 0 1.264425,-0.33042 c 0.700026,-0.47016 0.96772,-1.27886 0.81292,-2.00695 -0.17924,-0.84315 -0.846404,-1.56575 -1.578411,-2.12522 a 7.8956273,6.7161158 0 0 0 -5.395842,-1.69555 c -1.012599,0.0197 -2.069139,0.1976 -2.941477,0.65285 -0.846177,0.44158 -1.500197,1.18036 -1.585678,2.03909 -0.07522,0.75587 0.401519,1.54645 1.219922,1.8776 a 1.9104094,1.6250174 0 0 0 0.612151,0.14699 c 0.183388,0.0179 0.181882,-0.22673 0,-0.24438 z"
     fill="#3f3d56"
     id="path1738-3-1-8"
     style="stroke-width:0.115785" />
  <path
     d="M 115.36887,41.431744 H 73.061797 A 2.1365816,1.8174023 0 0 1 70.927619,39.616378 V 19.43381 a 2.1365816,1.8174023 0 0 1 2.134178,-1.815363 h 42.307073 a 2.1365916,1.8174107 0 0 1 2.13421,1.815363 v 20.182568 a 2.1365916,1.8174107 0 0 1 -2.13421,1.815366 z M 73.061797,17.832017 a 1.8852385,1.6036068 0 0 0 -1.883098,1.601793 v 20.182568 a 1.8852385,1.6036068 0 0 0 1.883098,1.601792 h 42.307073 a 1.8852385,1.6036068 0 0 0 1.88311,-1.601792 V 19.43381 a 1.8852385,1.6036068 0 0 0 -1.88311,-1.601793 z"
     fill="#e6e6e6"
     id="path1654-8"
     style="stroke-width:0.115785" />
  <path
     d="m 104.64779,25.660825 h -8.16013 a 0.5649334,0.48053918 0 1 0 0,0.961078 h 8.16013 a 0.5649334,0.48053918 0 0 0 0,-0.961078 z"
     fill="#e6e6e6"
     id="path1656-0"
     style="stroke-width:0.115785" />
  <path
     d="M 112.60202,28.704228 H 96.379724 c -0.252363,0 -0.456979,0.215709 -0.456979,0.480539 0,0.26483 0.204616,0.480538 0.456979,0.480538 h 16.222296 c 0.25235,0 0.45697,-0.215708 0.45697,-0.480538 0,-0.26483 -0.20462,-0.480539 -0.45697,-0.480539 z"
     fill="#e6e6e6"
     id="path1658-4"
     style="stroke-width:0.115785" />
  <path
     d="M 112.60202,31.820997 H 96.379724 c -0.252363,0 -0.456979,0.215704 -0.456979,0.480538 0,0.264825 0.204616,0.480535 0.456979,0.480535 h 16.222296 c 0.25235,0 0.45697,-0.21571 0.45697,-0.480535 0,-0.264834 -0.20462,-0.480538 -0.45697,-0.480538 z"
     fill="#e6e6e6"
     id="path1660-6"
     style="stroke-width:0.115785" />
  <path
     d="M 90.260824,37.000122 H 76.200306 A 1.3196796,1.1225356 0 0 1 74.882132,35.878868 V 22.530603 a 1.3196796,1.1225356 0 0 1 1.318174,-1.121248 h 14.060518 a 1.3196796,1.1225356 0 0 1 1.318158,1.121248 v 13.348265 a 1.3196796,1.1225356 0 0 1 -1.318158,1.121254 z"
     fill="#e6e6e6"
     id="path1662-0"
     style="stroke-width:0.115785" />
  <ellipse
     cx="116.3732"
     cy="17.938799"
     fill="#e6e6e6"
     id="circle1664-3"
     rx="4.5194511"
     ry="3.8442998"
     style="stroke-width:0.115785" />
  <path
     d="m 83.067736,34.561447 c -0.316636,-0.0074 -0.710711,-0.01694 -1.014117,-0.205476 a 0.77889593,0.6625383 0 0 1 -0.306482,-0.49469 0.52390102,0.44563654 0 0 1 0.178164,-0.365973 0.67597925,0.57499615 0 0 1 0.639551,-0.07832 l -0.2585,-1.606883 0.189763,-0.02211 0.303899,1.889095 -0.158455,-0.06185 c -0.183721,-0.07167 -0.435903,-0.108112 -0.592624,0.0047 a 0.33647438,0.28620917 0 0 0 -0.110369,0.235782 0.58865845,0.50071999 0 0 0 0.228028,0.368876 c 0.236116,0.146774 0.550237,0.165704 0.906527,0.174217 z"
     fill="#3f3d56"
     id="path1732-2"
     style="stroke-width:0.115785" />
  <rect
     x="80.336372"
     y="31.948679"
     width="1.0315684"
     height="0.16292034"
     fill="#3f3d56"
     id="rect1734-6"
     style="stroke-width:0.115785" />
  <rect
     x="83.592422"
     y="31.948679"
     width="1.0315684"
     height="0.16292034"
     fill="#3f3d56"
     id="rect1736-9"
     style="stroke-width:0.115785" />
  <path
     d="m 78.544175,29.698953 c -0.830693,-0.08058 -1.474047,-0.757596 -1.544712,-1.444527 -0.08407,-0.817214 0.475434,-1.59338 1.243043,-2.051969 0.802727,-0.479574 1.802854,-0.679847 2.770527,-0.723932 a 7.6143303,6.476842 0 0 1 5.204706,1.459244 c 0.725091,0.512254 1.402279,1.164784 1.658936,1.952953 0.222889,0.684501 0.04162,1.459937 -0.605689,1.939335 a 1.5299821,1.3014213 0 0 1 -1.174095,0.307489 c -0.502185,-0.04435 -0.965543,-0.268961 -1.366636,-0.517019 -0.78019,-0.48252 -1.420684,-1.154718 -2.371209,-1.406865 -0.696953,-0.184883 -1.601401,-0.02215 -2.027314,0.51397 a 1.1472074,0.97582838 0 0 0 -0.183159,0.408821 0.14876526,0.12654153 0 0 0 0.100373,0.150304 0.14454207,0.12294923 0 0 0 0.176706,-0.08534 c 0.111861,-0.675257 1.087917,-0.927227 1.77288,-0.773017 0.998702,0.22484 1.669125,0.982909 2.488518,1.464535 a 3.0240473,2.5722913 0 0 0 1.449173,0.492015 1.7995298,1.5307017 0 0 0 1.264436,-0.330409 c 0.700005,-0.470179 0.967721,-1.278871 0.81291,-2.006964 -0.17924,-0.843142 -0.846393,-1.565767 -1.578422,-2.125229 a 7.8956273,6.7161158 0 0 0 -5.395842,-1.695532 c -1.012577,0.01978 -2.069128,0.197593 -2.941467,0.652838 -0.846172,0.441582 -1.500185,1.180356 -1.585666,2.039104 -0.07522,0.755861 0.401521,1.546453 1.219912,1.877592 a 1.9104094,1.6250174 0 0 0 0.612149,0.146985 c 0.183388,0.01778 0.181886,-0.22674 0,-0.244382 z"
     fill="#3f3d56"
     id="path1738-4"
     style="stroke-width:0.115785" />
  <path
     d="M 55.994924,41.675836 H 13.687843 A 2.1365816,1.8174023 0 0 1 11.553659,39.860474 V 19.677901 a 2.1365816,1.8174023 0 0 1 2.134184,-1.815365 h 42.307081 a 2.1365916,1.8174107 0 0 1 2.13418,1.815365 v 20.182573 a 2.1365916,1.8174107 0 0 1 -2.13418,1.815362 z M 13.687843,18.076109 a 1.8852385,1.6036068 0 0 0 -1.883101,1.601792 v 20.182573 a 1.8852385,1.6036068 0 0 0 1.883101,1.601792 h 42.307081 a 1.8852385,1.6036068 0 0 0 1.8831,-1.601792 V 19.677901 a 1.8852385,1.6036068 0 0 0 -1.8831,-1.601792 z"
     fill="#3f3d56"
     id="path1694-5"
     style="stroke-width:0.115785" />
  <path
     d="M 45.273827,25.904918 H 37.11371 a 0.56493132,0.48053747 0 0 0 0,0.961072 h 8.160117 a 0.56493132,0.48053747 0 0 0 0,-0.961072 z"
     fill="#3f3d56"
     id="path1696-2"
     style="stroke-width:0.115785" />
  <path
     d="M 53.228045,28.94832 H 37.005767 c -0.252367,0 -0.456989,0.215709 -0.456989,0.480538 0,0.264835 0.204622,0.48054 0.456989,0.48054 h 16.222278 c 0.252372,0 0.456985,-0.215705 0.456985,-0.48054 0,-0.264829 -0.204613,-0.480538 -0.456985,-0.480538 z"
     fill="#3f3d56"
     id="path1698-1"
     style="stroke-width:0.115785" />
  <path
     d="M 53.228045,32.065089 H 37.005767 c -0.252367,0 -0.456989,0.215709 -0.456989,0.480534 0,0.264829 0.204622,0.480539 0.456989,0.480539 h 16.222278 c 0.252372,0 0.456985,-0.21571 0.456985,-0.480539 0,-0.264825 -0.204613,-0.480534 -0.456985,-0.480534 z"
     fill="#3f3d56"
     id="path1700-1"
     style="stroke-width:0.115785" />
  <path
     d="M 30.886864,37.244215 H 16.826349 A 1.3196796,1.1225356 0 0 1 15.508177,36.12296 V 22.7747 a 1.3196796,1.1225356 0 0 1 1.318172,-1.121253 h 14.060515 a 1.3196796,1.1225356 0 0 1 1.318169,1.121253 v 13.34826 a 1.3196796,1.1225356 0 0 1 -1.318169,1.121255 z"
     fill="#004578"
     id="path1702-0"
     style="stroke-width:0.115785" />
  <ellipse
     cx="56.999252"
     cy="18.182894"
     fill="#004578"
     id="circle1704-1"
     rx="4.5194511"
     ry="3.8442998"
     style="stroke-width:0.115785" />
  <path
     d="m 56.745189,19.739117 a 0.56806985,0.48320707 0 0 1 -0.341797,-0.09658 l -0.0059,-0.0038 -1.287225,-0.838322 a 0.57188754,0.48645443 0 1 1 0.695643,-0.772274 l 0.833773,0.543815 1.970324,-2.185731 a 0.57186619,0.48643629 0 0 1 0.801809,-0.09003 l -0.01228,0.01419 0.01262,-0.01391 a 0.57253031,0.48700115 0 0 1 0.105887,0.682034 l -2.31759,2.570943 a 0.57211849,0.48665095 0 0 1 -0.454981,0.189844 z"
     fill="#ffffff"
     id="path1706-8"
     style="stroke-width:0.115785" />
  <path
     d="m 24.321482,34.164825 c -0.316639,-0.0074 -0.710718,-0.01695 -1.014125,-0.205481 a 0.77889593,0.6625383 0 0 1 -0.306473,-0.494686 0.52390102,0.44563654 0 0 1 0.17816,-0.365973 0.67597925,0.57499615 0 0 1 0.639548,-0.07832 l -0.258496,-1.606889 0.189755,-0.02211 0.303903,1.88909 -0.158449,-0.06184 c -0.183727,-0.07167 -0.435906,-0.108106 -0.592622,0.0047 a 0.33647438,0.28620917 0 0 0 -0.110379,0.235781 0.58865845,0.50071999 0 0 0 0.228026,0.368881 c 0.236118,0.146769 0.550238,0.165705 0.906524,0.174217 z"
     fill="#ffffff"
     id="path1716-7"
     style="stroke-width:0.115785" />
  <rect
     x="21.590118"
     y="31.552061"
     width="1.0315684"
     height="0.16292034"
     fill="#ffffff"
     id="rect1718-6"
     style="stroke-width:0.115785" />
  <rect
     x="24.846163"
     y="31.552061"
     width="1.0315684"
     height="0.16292034"
     fill="#ffffff"
     id="rect1720-0"
     style="stroke-width:0.115785" />
  <path
     d="m 19.797925,29.302328 c -0.830702,-0.08058 -1.474058,-0.757597 -1.544719,-1.444523 -0.08407,-0.817217 0.475441,-1.593388 1.243039,-2.051974 0.802731,-0.47957 1.802857,-0.679844 2.770526,-0.723928 a 7.6143303,6.476842 0 0 1 5.204715,1.459239 c 0.725088,0.512253 1.402273,1.164783 1.658929,1.952956 0.222896,0.684493 0.04151,1.459937 -0.605696,1.939336 a 1.5299821,1.3014213 0 0 1 -1.174091,0.307485 c -0.502184,-0.04435 -0.965538,-0.268957 -1.366622,-0.517015 -0.780193,-0.482523 -1.420696,-1.154718 -2.371218,-1.406869 -0.696961,-0.184883 -1.601402,-0.02215 -2.027314,0.513975 a 1.1472074,0.97582838 0 0 0 -0.183164,0.408815 0.14876526,0.12654153 0 0 0 0.100332,0.150311 0.14454207,0.12294923 0 0 0 0.176707,-0.08535 c 0.111814,-0.675255 1.087917,-0.927222 1.772882,-0.77301 0.998702,0.224839 1.669123,0.982904 2.488518,1.46453 a 3.0240473,2.5722913 0 0 0 1.449174,0.492019 1.7995298,1.5307017 0 0 0 1.26443,-0.33041 c 0.700013,-0.470179 0.967716,-1.278869 0.812923,-2.006967 -0.179246,-0.843142 -0.846403,-1.565763 -1.578414,-2.125223 a 7.8956273,6.7161158 0 0 0 -5.395851,-1.69554 c -1.012591,0.01977 -2.069133,0.197597 -2.941476,0.652843 -0.84617,0.441583 -1.500187,1.180356 -1.585669,2.039099 -0.07523,0.755861 0.401519,1.546452 1.219913,1.877597 a 1.9104094,1.6250174 0 0 0 0.61215,0.146984 c 0.18339,0.01778 0.181898,-0.226738 0,-0.244381 z"
     fill="#ffffff"
     id="path1722-0"
     style="stroke-width:0.115785" />
  <path
     d="m 96.185894,69.861731 a 0.29523787,0.25596916 0 0 1 -0.174075,-0.05001 L 95.5923,69.547468 a 0.20329021,0.17625118 0 0 0 -0.239783,0 l -0.419518,0.264253 a 0.29614815,0.25675835 0 0 1 -0.455738,-0.287034 l 0.160248,-0.427557 a 0.20351815,0.17644882 0 0 0 -0.07409,-0.197775 l -0.4195,-0.264244 a 0.29613833,0.2567499 0 0 1 0.174042,-0.464461 h 0.518564 a 0.20347152,0.17640837 0 0 0 0.194004,-0.122199 l 0.160226,-0.427557 a 0.29615341,0.25676294 0 0 1 0.56333,0 l 0.160226,0.427557 a 0.20347226,0.17640902 0 0 0 0.193982,0.122199 h 0.518564 a 0.29614209,0.25675314 0 0 1 0.174042,0.464461 l -0.419497,0.264244 a 0.20351889,0.17644947 0 0 0 -0.07409,0.197775 l 0.160237,0.427557 a 0.29169304,0.25289584 0 0 1 -0.107544,0.287034 0.2952243,0.25595742 0 0 1 -0.174053,0.05001 z"
     fill="#004578"
     id="path2628"
     style="stroke-width:0.070048" />
  <path
     d="m 100.43699,69.861731 a 0.29524013,0.25597113 0 0 1 -0.17407,-0.05001 l -0.419522,-0.264252 a 0.20329021,0.17625118 0 0 0 -0.239777,0 l -0.41952,0.264253 a 0.29614741,0.25675771 0 0 1 -0.455737,-0.287036 l 0.160237,-0.427557 a 0.20351966,0.17645011 0 0 0 -0.07409,-0.197775 l -0.419507,-0.264243 a 0.29614815,0.25675835 0 0 1 0.174075,-0.464462 h 0.518552 A 0.20347077,0.17640772 0 0 0 99.2816,68.04845 l 0.160247,-0.427557 a 0.29613761,0.25674923 0 0 1 0.563303,0 l 0.16024,0.427557 a 0.20349558,0.17642925 0 0 0 0.19401,0.122199 h 0.51853 a 0.29614815,0.25675835 0 0 1 0.17409,0.464462 l -0.41953,0.264243 a 0.20349558,0.17642925 0 0 0 -0.0741,0.197775 l 0.16023,0.427557 a 0.29169304,0.25289584 0 0 1 -0.10754,0.287034 0.29522205,0.25595546 0 0 1 -0.17405,0.05001 z"
     fill="#004578"
     id="path2630"
     style="stroke-width:0.070048" />
  <path
     d="m 104.68809,69.861731 a 0.29522582,0.25595873 0 0 1 -0.17407,-0.05001 l -0.41949,-0.264253 a 0.20375361,0.17665296 0 0 0 -0.23981,0 l -0.41953,0.264253 a 0.29613234,0.25674468 0 0 1 -0.45572,-0.287034 l 0.16024,-0.427557 a 0.20351815,0.17644882 0 0 0 -0.0741,-0.197775 l -0.4195,-0.264244 a 0.29614815,0.25675835 0 0 1 0.17407,-0.464461 h 0.51855 a 0.20347152,0.17640837 0 0 0 0.194,-0.122199 l 0.16022,-0.427557 a 0.29613686,0.25674859 0 0 1 0.56333,0 l 0.16025,0.427557 a 0.20347226,0.17640902 0 0 0 0.19398,0.122199 h 0.51854 a 0.29614815,0.25675835 0 0 1 0.17408,0.464461 l -0.41951,0.264244 a 0.20351815,0.17644882 0 0 0 -0.074,0.197775 l 0.16023,0.427557 a 0.29171637,0.25291606 0 0 1 -0.10754,0.287034 0.29529053,0.2560148 0 0 1 -0.17408,0.05001 z"
     fill="#004578"
     id="path2632"
     style="stroke-width:0.070048" />
  <path
     d="m 108.9392,69.861731 a 0.29523936,0.25597046 0 0 1 -0.17409,-0.05001 l -0.41949,-0.264253 a 0.20329021,0.17625118 0 0 0 -0.23979,0 l -0.41952,0.264253 a 0.29614741,0.25675771 0 0 1 -0.45575,-0.287034 l 0.16027,-0.427557 a 0.20340757,0.17635294 0 0 0 -0.074,-0.19773 l -0.41952,-0.26428 a 0.29614815,0.25675835 0 0 1 0.17407,-0.46447 h 0.51853 a 0.20349558,0.17642925 0 0 0 0.19402,-0.122199 l 0.16023,-0.427557 a 0.29613761,0.25674923 0 0 1 0.56331,0 l 0.16025,0.427557 a 0.20347077,0.17640772 0 0 0 0.19399,0.122199 h 0.51855 a 0.29614815,0.25675835 0 0 1 0.17408,0.46447 l -0.41951,0.264244 a 0.20351966,0.17645011 0 0 0 -0.0739,0.197766 l 0.16025,0.427557 a 0.29169304,0.25289584 0 0 1 -0.10755,0.287034 0.2952243,0.25595742 0 0 1 -0.17406,0.05001 z"
     fill="#004578"
     id="path2634"
     style="stroke-width:0.070048" />
  <path
     d="m 111.76334,69.887078 a 0.32447649,0.2813189 0 0 1 -0.19119,-0.05483 0.32052098,0.27788944 0 0 1 -0.11819,-0.315351 l 0.16025,-0.427549 a 0.17442092,0.15122172 0 0 0 -0.0634,-0.169456 l -0.41956,-0.26427 a 0.32529201,0.2820259 0 0 1 0.19124,-0.510199 h 0.51853 a 0.17435395,0.15116366 0 0 0 0.16624,-0.104754 l 0.16028,-0.427549 a 0.32529878,0.28203178 0 0 1 0.61876,0 l 0.1602,0.427549 a 0.17439309,0.15119758 0 0 0 0.1663,0.104754 h 0.51853 a 0.32530251,0.28203503 0 0 1 0.19121,0.510199 l -0.41952,0.26427 a 0.17434568,0.1511565 0 0 0 -0.0634,0.169456 l 0.16025,0.427549 a 0.32530928,0.28204092 0 0 1 -0.50058,0.315315 l -0.41952,-0.264227 a 0.1743818,0.15118779 0 0 0 -0.20553,0 l -0.41952,0.264227 a 0.32423879,0.28111277 0 0 1 -0.1912,0.05483 z m 0.71348,-0.478664 a 0.3246443,0.28146435 0 0 1 0.19117,0.05396 l 0.41952,0.264244 a 0.17482188,0.15156935 0 0 0 0.26904,-0.169465 l -0.16021,-0.42754 a 0.32445771,0.28130257 0 0 1 0.11819,-0.315333 l 0.41949,-0.264261 a 0.17483317,0.15157914 0 0 0 -0.10288,-0.274211 h -0.51852 a 0.32445922,0.28130388 0 0 1 -0.30938,-0.194874 l -0.16025,-0.427549 a 0.17483317,0.15157914 0 0 0 -0.33257,0 l -0.16025,0.427549 a 0.32441937,0.28126929 0 0 1 -0.30935,0.194874 h -0.51854 a 0.17483317,0.15157914 0 0 0 -0.10278,0.274211 l 0.41953,0.264261 a 0.32451489,0.28135212 0 0 1 0.11818,0.315333 l -0.16024,0.42754 a 0.17483317,0.15157914 0 0 0 0.26902,0.169465 l 0.41952,-0.264244 a 0.3247398,0.28154718 0 0 1 0.19122,-0.05396 z"
     fill="#3f3d56"
     id="path2636"
     style="stroke-width:0.070048" />
  <path
     d="m 96.972577,38.131213 a 0.29523787,0.25596916 0 0 1 -0.174086,-0.04996 l -0.419519,-0.264252 a 0.20329021,0.17625118 0 0 0 -0.239778,0 l -0.419519,0.264252 a 0.29614815,0.25675835 0 0 1 -0.455742,-0.287039 l 0.160264,-0.427555 A 0.20351815,0.17644882 0 0 0 95.350107,37.16889 L 94.9306,36.904647 a 0.29613833,0.2567499 0 0 1 0.174052,-0.464464 h 0.518569 a 0.20347152,0.17640837 0 0 0 0.194004,-0.122204 l 0.160225,-0.427555 a 0.29615341,0.25676294 0 0 1 0.563315,0 l 0.160237,0.427555 a 0.20347226,0.17640902 0 0 0 0.193982,0.122204 h 0.518564 a 0.29614209,0.25675314 0 0 1 0.174054,0.464464 l -0.419509,0.264243 a 0.20351889,0.17644947 0 0 0 -0.07409,0.197769 l 0.160237,0.427555 a 0.29169304,0.25289584 0 0 1 -0.107543,0.287037 0.2952243,0.25595742 0 0 1 -0.174076,0.04996 z"
     fill="#004578"
     id="path2628-0"
     style="fill:#666666;stroke-width:0.070048" />
  <path
     d="m 101.22365,38.131213 a 0.29524013,0.25597113 0 0 1 -0.17406,-0.04996 l -0.41951,-0.264252 a 0.20329021,0.17625118 0 0 0 -0.23979,0 l -0.419517,0.264252 a 0.29614741,0.25675771 0 0 1 -0.455738,-0.287036 l 0.160248,-0.427556 a 0.20351966,0.17645011 0 0 0 -0.07409,-0.197768 L 99.181671,36.90465 a 0.29614815,0.25675835 0 0 1 0.174075,-0.464466 h 0.518542 a 0.20347077,0.17640772 0 0 0 0.193992,-0.122202 l 0.16025,-0.427556 a 0.29613761,0.25674923 0 0 1 0.5633,0 l 0.16024,0.427556 a 0.20349558,0.17642925 0 0 0 0.194,0.122202 h 0.51853 a 0.29614815,0.25675835 0 0 1 0.17408,0.464466 l -0.4195,0.264243 a 0.20349558,0.17642925 0 0 0 -0.0741,0.197768 l 0.16024,0.427556 a 0.29169304,0.25289584 0 0 1 -0.10754,0.287036 0.29522205,0.25595546 0 0 1 -0.17406,0.04996 z"
     fill="#004578"
     id="path2630-56"
     style="fill:#666666;stroke-width:0.070048" />
  <path
     d="m 112.54999,38.156556 a 0.32447649,0.2813189 0 0 1 -0.19117,-0.05483 0.32052098,0.27788944 0 0 1 -0.11819,-0.315359 l 0.16026,-0.427542 a 0.17442092,0.15122172 0 0 0 -0.0634,-0.16946 l -0.41954,-0.26427 a 0.32529201,0.2820259 0 0 1 0.19122,-0.510198 h 0.51854 a 0.17435395,0.15116366 0 0 0 0.16624,-0.10475 l 0.16028,-0.427547 a 0.32529878,0.28203178 0 0 1 0.61877,0 l 0.16021,0.427547 a 0.17439309,0.15119758 0 0 0 0.16627,0.10475 h 0.51854 a 0.32530251,0.28203503 0 0 1 0.19122,0.510198 l -0.4195,0.26427 a 0.17434568,0.1511565 0 0 0 -0.0634,0.16946 l 0.16025,0.427542 a 0.32530928,0.28204092 0 0 1 -0.5006,0.315322 l -0.4195,-0.264234 a 0.1743818,0.15118779 0 0 0 -0.20553,0 l -0.41951,0.264234 a 0.32423879,0.28111277 0 0 1 -0.19119,0.05488 z m 0.71351,-0.478662 a 0.3246443,0.28146435 0 0 1 0.19117,0.054 l 0.41949,0.264238 a 0.17482188,0.15156935 0 0 0 0.26907,-0.169459 l -0.16022,-0.427547 a 0.32445771,0.28130257 0 0 1 0.11818,-0.315327 l 0.41949,-0.264266 a 0.17483317,0.15157914 0 0 0 -0.10278,-0.274206 h -0.51854 a 0.32445922,0.28130388 0 0 1 -0.30939,-0.194875 l -0.16024,-0.427546 a 0.17483317,0.15157914 0 0 0 -0.33255,0 l -0.16025,0.427546 a 0.32441937,0.28126929 0 0 1 -0.30935,0.194875 h -0.51855 a 0.17483317,0.15157914 0 0 0 -0.10278,0.274206 l 0.41952,0.264266 a 0.32451489,0.28135212 0 0 1 0.11816,0.315327 l -0.16025,0.427547 a 0.17483317,0.15157914 0 0 0 0.26905,0.169459 l 0.41954,-0.264238 a 0.3247398,0.28154718 0 0 1 0.19118,-0.054 z"
     fill="#3f3d56"
     id="path2636-30"
     style="fill:#666666;stroke-width:0.070048" />
  <path
     d="m 108.35119,38.312145 a 0.32447649,0.2813189 0 0 1 -0.19119,-0.05483 0.32052098,0.27788944 0 0 1 -0.11821,-0.31536 l 0.16028,-0.427547 a 0.17442092,0.15122172 0 0 0 -0.0634,-0.16946 l -0.41953,-0.264266 a 0.32529201,0.2820259 0 0 1 0.19124,-0.510198 h 0.51853 a 0.17435395,0.15116366 0 0 0 0.16625,-0.104748 l 0.16027,-0.427554 a 0.32529878,0.28203178 0 0 1 0.61876,0 l 0.16021,0.427554 a 0.17439309,0.15119758 0 0 0 0.16628,0.104748 h 0.51855 a 0.32530251,0.28203503 0 0 1 0.19121,0.510198 l -0.41951,0.264266 a 0.17434568,0.1511565 0 0 0 -0.0634,0.16946 l 0.16024,0.427547 a 0.32530928,0.28204092 0 0 1 -0.50059,0.315322 l -0.4195,-0.264233 a 0.1743818,0.15118779 0 0 0 -0.20553,0 l -0.41954,0.264233 a 0.32423879,0.28111277 0 0 1 -0.19121,0.05488 z m 0.71347,-0.478663 a 0.3246443,0.28146435 0 0 1 0.19118,0.054 l 0.41951,0.264239 a 0.17482188,0.15156935 0 0 0 0.26905,-0.169461 l -0.16024,-0.427548 a 0.32445771,0.28130257 0 0 1 0.1182,-0.315322 l 0.4195,-0.264267 a 0.17483317,0.15157914 0 0 0 -0.10279,-0.274205 h -0.51856 a 0.32445922,0.28130388 0 0 1 -0.30934,-0.194875 l -0.16028,-0.427547 a 0.17483317,0.15157914 0 0 0 -0.33255,0 l -0.16025,0.427547 a 0.32441937,0.28126929 0 0 1 -0.30935,0.194875 h -0.51853 a 0.17483317,0.15157914 0 0 0 -0.10288,0.274205 l 0.41952,0.264267 a 0.32451489,0.28135212 0 0 1 0.11817,0.315322 l -0.16026,0.427551 a 0.17483317,0.15157914 0 0 0 0.26905,0.16946 l 0.41952,-0.264237 a 0.3247398,0.28154718 0 0 1 0.19119,-0.054 z"
     fill="#3f3d56"
     id="path2636-30-0"
     style="fill:#666666;stroke-width:0.070048" />
  <path
     d="m 104.05451,38.32537 a 0.32447649,0.2813189 0 0 1 -0.1912,-0.05484 0.32052098,0.27788944 0 0 1 -0.1182,-0.315356 l 0.16029,-0.42755 a 0.17442092,0.15122172 0 0 0 -0.0636,-0.169457 l -0.41951,-0.26427 a 0.32529201,0.2820259 0 0 1 0.1912,-0.510196 h 0.51856 a 0.17435395,0.15116366 0 0 0 0.16624,-0.104752 l 0.16026,-0.42755 a 0.32529878,0.28203178 0 0 1 0.61876,0 l 0.16023,0.42755 a 0.17439309,0.15119758 0 0 0 0.16629,0.104752 h 0.51853 a 0.32530251,0.28203503 0 0 1 0.1912,0.510196 l -0.4195,0.26427 a 0.17434568,0.1511565 0 0 0 -0.0634,0.169457 l 0.16025,0.42755 a 0.32530928,0.28204092 0 0 1 -0.50057,0.315319 l -0.41952,-0.26423 a 0.1743818,0.15118779 0 0 0 -0.20554,0 l -0.4195,0.26423 a 0.32423879,0.28111277 0 0 1 -0.19119,0.05488 z m 0.71348,-0.478663 a 0.3246443,0.28146435 0 0 1 0.19118,0.054 l 0.41949,0.264238 a 0.17482188,0.15156935 0 0 0 0.26907,-0.16946 l -0.16023,-0.42755 a 0.32445771,0.28130257 0 0 1 0.11819,-0.315318 l 0.41948,-0.26427 a 0.17483317,0.15157914 0 0 0 -0.10278,-0.274207 h -0.51853 a 0.32445922,0.28130388 0 0 1 -0.3094,-0.194874 l -0.16029,-0.427548 a 0.17483317,0.15157914 0 0 0 -0.33256,0 l -0.16025,0.427548 a 0.32441937,0.28126929 0 0 1 -0.30934,0.194874 h -0.51856 a 0.17483317,0.15157914 0 0 0 -0.10278,0.274207 l 0.41952,0.26427 a 0.32451489,0.28135212 0 0 1 0.11816,0.315318 l -0.16022,0.42755 a 0.17483317,0.15157914 0 0 0 0.26906,0.16946 l 0.41951,-0.264238 a 0.3247398,0.28154718 0 0 1 0.19121,-0.054 z"
     fill="#3f3d56"
     id="path2636-30-0-5"
     style="fill:#666666;stroke-width:0.070048" />
  <path
     d="m 37.752257,38.782981 a 0.29523787,0.25596916 0 0 1 -0.17408,-0.04998 l -0.419508,-0.264244 a 0.20329021,0.17625118 0 0 0 -0.239784,0 l -0.419514,0.264242 a 0.29614815,0.25675835 0 0 1 -0.455739,-0.287027 l 0.160238,-0.427561 a 0.20351815,0.17644882 0 0 0 -0.0741,-0.197763 l -0.419515,-0.264252 a 0.29613833,0.2567499 0 0 1 0.174062,-0.464464 h 0.518553 a 0.20347152,0.17640837 0 0 0 0.193996,-0.122198 l 0.160223,-0.427555 a 0.29615341,0.25676294 0 0 1 0.563327,0 l 0.16023,0.427555 a 0.20347226,0.17640902 0 0 0 0.19399,0.122198 h 0.518558 a 0.29614209,0.25675314 0 0 1 0.174056,0.464464 l -0.419507,0.264255 a 0.20351889,0.17644947 0 0 0 -0.07409,0.197765 l 0.160247,0.42756 a 0.29169304,0.25289584 0 0 1 -0.107587,0.287028 0.2952243,0.25595742 0 0 1 -0.174061,0.04997 z"
     fill="#004578"
     id="path2628-8"
     style="stroke-width:0.070048" />
  <path
     d="m 42.003352,38.782981 a 0.29524013,0.25597113 0 0 1 -0.174086,-0.04998 l -0.419509,-0.264246 a 0.20329021,0.17625118 0 0 0 -0.239783,0 l -0.419513,0.264242 a 0.29614741,0.25675771 0 0 1 -0.455736,-0.287025 l 0.160247,-0.427559 a 0.20351966,0.17645011 0 0 0 -0.0741,-0.197762 l -0.41951,-0.264249 a 0.29614815,0.25675835 0 0 1 0.17408,-0.464465 h 0.518533 a 0.20347077,0.17640772 0 0 0 0.193998,-0.122198 l 0.160246,-0.427556 a 0.29613761,0.25674923 0 0 1 0.56331,0 l 0.160218,0.427556 a 0.20349558,0.17642925 0 0 0 0.194018,0.122198 h 0.51853 a 0.29614815,0.25675835 0 0 1 0.174079,0.464465 l -0.419508,0.264246 a 0.20349558,0.17642925 0 0 0 -0.07411,0.197765 l 0.160241,0.427561 a 0.29169304,0.25289584 0 0 1 -0.107588,0.287028 0.29522205,0.25595546 0 0 1 -0.17405,0.04998 z"
     fill="#004578"
     id="path2630-5"
     style="stroke-width:0.070048" />
  <path
     d="m 46.254446,38.782981 a 0.29522582,0.25595873 0 0 1 -0.174062,-0.04998 l -0.419513,-0.264245 a 0.20375361,0.17665296 0 0 0 -0.239808,0 l -0.419506,0.264243 a 0.29613234,0.25674468 0 0 1 -0.455718,-0.287024 l 0.160223,-0.427561 a 0.20351815,0.17644882 0 0 0 -0.07409,-0.197765 l -0.419515,-0.264246 a 0.29614815,0.25675835 0 0 1 0.174088,-0.464465 h 0.518529 A 0.20347152,0.17640837 0 0 0 45.09907,36.96974 l 0.160241,-0.427556 a 0.29613686,0.25674859 0 0 1 0.563308,0 l 0.160254,0.427556 a 0.20347226,0.17640902 0 0 0 0.193985,0.122198 h 0.518539 a 0.29614815,0.25675835 0 0 1 0.174079,0.464465 l -0.419506,0.264246 a 0.20351815,0.17644882 0 0 0 -0.0741,0.197765 l 0.160216,0.427561 a 0.29171637,0.25291606 0 0 1 -0.107565,0.287028 0.29529053,0.2560148 0 0 1 -0.174081,0.04998 z"
     fill="#004578"
     id="path2632-9"
     style="stroke-width:0.070048" />
  <path
     d="m 50.505566,38.782981 a 0.29523936,0.25597046 0 0 1 -0.174086,-0.04998 l -0.419506,-0.264242 a 0.20329021,0.17625118 0 0 0 -0.239783,0 l -0.419516,0.264242 A 0.29614741,0.25675771 0 0 1 48.79693,38.445973 l 0.160246,-0.427555 a 0.20340757,0.17635294 0 0 0 -0.07411,-0.197726 l -0.419514,-0.264291 a 0.29614815,0.25675835 0 0 1 0.174079,-0.464469 h 0.518535 a 0.20349558,0.17642925 0 0 0 0.194013,-0.122198 l 0.160223,-0.427555 a 0.29613761,0.25674923 0 0 1 0.563309,0 l 0.160248,0.427555 a 0.20347077,0.17640772 0 0 0 0.193989,0.122198 h 0.518537 a 0.29614815,0.25675835 0 0 1 0.174084,0.464469 l -0.419519,0.264247 a 0.20351966,0.17645011 0 0 0 -0.07409,0.197766 l 0.160246,0.427555 a 0.29169304,0.25289584 0 0 1 -0.107576,0.287028 0.2952243,0.25595742 0 0 1 -0.174061,0.04997 z"
     fill="#004578"
     id="path2634-4"
     style="stroke-width:0.070048" />
  <path
     d="m 54.814613,38.771508 a 0.29523936,0.25597046 0 0 1 -0.174087,-0.04998 l -0.419504,-0.264244 a 0.20329021,0.17625118 0 0 0 -0.23978,0 l -0.419515,0.264247 a 0.29614741,0.25675771 0 0 1 -0.455741,-0.287039 l 0.16024,-0.427559 a 0.20340757,0.17635294 0 0 0 -0.07411,-0.197723 l -0.419508,-0.264285 a 0.29614815,0.25675835 0 0 1 0.174078,-0.46447 h 0.518529 a 0.20349558,0.17642925 0 0 0 0.194026,-0.122192 l 0.160217,-0.427565 a 0.29613761,0.25674923 0 0 1 0.563305,0 l 0.160246,0.427565 a 0.20347077,0.17640772 0 0 0 0.193989,0.122192 h 0.518537 a 0.29614815,0.25675835 0 0 1 0.174086,0.46447 l -0.419527,0.264244 a 0.20351966,0.17645011 0 0 0 -0.07408,0.197764 l 0.160246,0.427559 a 0.29169304,0.25289584 0 0 1 -0.107609,0.287032 0.2952243,0.25595742 0 0 1 -0.174063,0.04998 z"
     fill="#004578"
     id="path2634-4-9"
     style="stroke-width:0.070048" />
  <path
     d="m 53.329698,38.808319 a 0.32447649,0.2813189 0 0 1 -0.191184,-0.05482 0.32052098,0.27788944 0 0 1 -0.118209,-0.315354 l 0.160271,-0.427552 a 0.17442092,0.15122172 0 0 0 -0.0635,-0.169456 l -0.419527,-0.26427 a 0.32529201,0.2820259 0 0 1 0.191214,-0.510197 h 0.518546 a 0.17435395,0.15116366 0 0 0 0.166253,-0.104747 l 0.160264,-0.427551 a 0.32529878,0.28203178 0 0 1 0.618755,0 l 0.160224,0.427551 a 0.17439309,0.15119758 0 0 0 0.166276,0.104747 h 0.518537 a 0.32530251,0.28203503 0 0 1 0.19122,0.510197 l -0.419503,0.26427 a 0.17434568,0.1511565 0 0 0 -0.06351,0.169456 l 0.160237,0.427552 a 0.32530928,0.28204092 0 0 1 -0.500586,0.315322 l -0.419495,-0.264239 a 0.1743818,0.15118779 0 0 0 -0.205541,0 l -0.419515,0.264239 a 0.32423879,0.28111277 0 0 1 -0.191194,0.05488 z m 0.713483,-0.478658 a 0.3246443,0.28146435 0 0 1 0.191175,0.054 l 0.419504,0.264243 a 0.17482188,0.15156935 0 0 0 0.269064,-0.16946 L 54.76269,38.050901 a 0.32445771,0.28130257 0 0 1 0.118189,-0.315326 l 0.419493,-0.264267 a 0.17483317,0.15157914 0 0 0 -0.102804,-0.274202 h -0.51855 A 0.32445922,0.28130388 0 0 1 54.369653,37.002232 L 54.209407,36.57468 a 0.17483317,0.15157914 0 0 0 -0.332565,0 l -0.160251,0.427552 a 0.32441937,0.28126929 0 0 1 -0.30934,0.194874 h -0.518517 a 0.17483317,0.15157914 0 0 0 -0.102762,0.274202 l 0.41953,0.264267 a 0.32451489,0.28135212 0 0 1 0.118169,0.315326 l -0.160264,0.427552 a 0.17483317,0.15157914 0 0 0 0.269047,0.169459 l 0.419533,-0.264242 a 0.3247398,0.28154718 0 0 1 0.191209,-0.054 z"
     fill="#3f3d56"
     id="path2636-3"
     style="stroke-width:0.070048" />
  <path
     d="m 36.861309,136.38066 a 0.29523787,0.25596916 0 0 1 -0.17408,-0.0501 l -0.419507,-0.26425 a 0.20329021,0.17625118 0 0 0 -0.239784,0 l -0.41951,0.26424 a 0.29614815,0.25675835 0 0 1 -0.455738,-0.28703 l 0.160241,-0.42756 a 0.20351815,0.17644882 0 0 0 -0.0741,-0.19776 l -0.419509,-0.26425 a 0.29613833,0.2567499 0 0 1 0.174056,-0.46446 h 0.518561 a 0.20347152,0.17640837 0 0 0 0.193994,-0.12221 l 0.160225,-0.42755 a 0.29615341,0.25676294 0 0 1 0.563327,0 l 0.160222,0.42755 a 0.20347226,0.17640902 0 0 0 0.193996,0.12221 h 0.518558 a 0.29614209,0.25675314 0 0 1 0.174056,0.46446 l -0.419513,0.26425 a 0.20351889,0.17644947 0 0 0 -0.0741,0.19776 l 0.16024,0.42756 a 0.29169304,0.25289584 0 0 1 -0.107599,0.28703 0.2952243,0.25595742 0 0 1 -0.174057,0.0501 z"
     fill="#004578"
     id="path2628-0-5"
     style="fill:#666666;stroke-width:0.070048" />
  <path
     d="m 41.112406,136.38066 a 0.29524013,0.25597113 0 0 1 -0.174081,-0.0501 l -0.419506,-0.26425 a 0.20329021,0.17625118 0 0 0 -0.239786,0 l -0.419514,0.26424 a 0.29614741,0.25675771 0 0 1 -0.455739,-0.28703 l 0.160245,-0.42756 a 0.20351966,0.17645011 0 0 0 -0.07409,-0.19776 l -0.419516,-0.26425 a 0.29614815,0.25675835 0 0 1 0.174086,-0.46446 h 0.518532 a 0.20347077,0.17640772 0 0 0 0.193988,-0.12221 l 0.160248,-0.42755 a 0.29613761,0.25674923 0 0 1 0.56331,0 l 0.160216,0.42755 a 0.20349558,0.17642925 0 0 0 0.19402,0.12221 h 0.518535 a 0.29614815,0.25675835 0 0 1 0.174079,0.46446 l -0.419507,0.26425 a 0.20349558,0.17642925 0 0 0 -0.07412,0.19776 l 0.160246,0.42756 a 0.29169304,0.25289584 0 0 1 -0.107587,0.28703 0.29522205,0.25595546 0 0 1 -0.174056,0.0501 z"
     fill="#004578"
     id="path2630-56-9"
     style="fill:#666666;stroke-width:0.070048" />
  <path
     d="m 52.43875,136.406 a 0.32447649,0.2813189 0 0 1 -0.191182,-0.0549 0.32052098,0.27788944 0 0 1 -0.118203,-0.31535 l 0.160271,-0.42755 a 0.17442092,0.15122172 0 0 0 -0.06352,-0.16946 l -0.419529,-0.26427 a 0.32529201,0.2820259 0 0 1 0.191212,-0.5102 h 0.518543 a 0.17435395,0.15116366 0 0 0 0.16626,-0.10474 l 0.160271,-0.42756 a 0.32529878,0.28203178 0 0 1 0.618745,0 l 0.160236,0.42756 a 0.17439309,0.15119758 0 0 0 0.166276,0.10474 h 0.518537 a 0.32530251,0.28203503 0 0 1 0.191211,0.5102 l -0.419505,0.26427 a 0.17434568,0.1511565 0 0 0 -0.0635,0.16946 l 0.160236,0.42755 a 0.32530928,0.28204092 0 0 1 -0.500597,0.31532 l -0.419504,-0.26424 a 0.1743818,0.15118779 0 0 0 -0.205532,0 l -0.419519,0.26423 a 0.32423879,0.28111277 0 0 1 -0.191194,0.055 z m 0.713485,-0.47864 a 0.3246443,0.28146435 0 0 1 0.191177,0.054 l 0.419505,0.26423 a 0.17482188,0.15156935 0 0 0 0.269055,-0.16945 l -0.160225,-0.42755 a 0.32445771,0.28130257 0 0 1 0.118178,-0.31533 l 0.419505,-0.26428 a 0.17483317,0.15157914 0 0 0 -0.102794,-0.2742 h -0.518538 a 0.32445922,0.28130388 0 0 1 -0.309369,-0.19487 l -0.160246,-0.42755 a 0.17483317,0.15157914 0 0 0 -0.332561,0 l -0.16025,0.42755 a 0.32441937,0.28126929 0 0 1 -0.309345,0.19487 h -0.518532 a 0.17483317,0.15157914 0 0 0 -0.102772,0.2742 l 0.419528,0.26428 a 0.32451489,0.28135212 0 0 1 0.118172,0.31533 l -0.160264,0.42755 a 0.17483317,0.15157914 0 0 0 0.269048,0.16945 l 0.419525,-0.26423 a 0.3247398,0.28154718 0 0 1 0.191208,-0.054 z"
     fill="#3f3d56"
     id="path2636-30-09"
     style="fill:#666666;stroke-width:0.070048" />
  <path
     d="m 48.239928,136.5616 a 0.32447649,0.2813189 0 0 1 -0.191188,-0.0549 0.32052098,0.27788944 0 0 1 -0.118204,-0.31537 l 0.16027,-0.42755 a 0.17442092,0.15122172 0 0 0 -0.0635,-0.16947 l -0.419534,-0.26425 a 0.32529201,0.2820259 0 0 1 0.191218,-0.5102 h 0.51854 a 0.17435395,0.15116366 0 0 0 0.166254,-0.10475 l 0.160271,-0.42754 a 0.32529878,0.28203178 0 0 1 0.618747,0 l 0.160229,0.42754 a 0.17439309,0.15119758 0 0 0 0.166276,0.10475 h 0.518543 a 0.32530251,0.28203503 0 0 1 0.191216,0.5102 l -0.419512,0.26427 a 0.17434568,0.1511565 0 0 0 -0.06353,0.16946 l 0.160247,0.42754 a 0.32530928,0.28204092 0 0 1 -0.500598,0.31532 l -0.419496,-0.26422 a 0.1743818,0.15118779 0 0 0 -0.205538,0 l -0.419507,0.26422 a 0.32423879,0.28111277 0 0 1 -0.191195,0.055 z m 0.71348,-0.47867 a 0.3246443,0.28146435 0 0 1 0.191175,0.0539 l 0.419511,0.26425 a 0.17482188,0.15156935 0 0 0 0.269053,-0.16947 l -0.160228,-0.42754 a 0.32445771,0.28130257 0 0 1 0.118184,-0.31532 l 0.419491,-0.26427 a 0.17483317,0.15157914 0 0 0 -0.102763,-0.27421 h -0.518534 a 0.32445922,0.28130388 0 0 1 -0.309369,-0.19488 l -0.160245,-0.42755 a 0.17483317,0.15157914 0 0 0 -0.332568,0 l -0.160251,0.42755 a 0.32441937,0.28126929 0 0 1 -0.309345,0.19488 h -0.518554 a 0.17483317,0.15157914 0 0 0 -0.102794,0.27421 l 0.419533,0.26426 a 0.32451489,0.28135212 0 0 1 0.118175,0.31532 l -0.160271,0.42755 a 0.17483317,0.15157914 0 0 0 0.269054,0.16946 l 0.419528,-0.26424 a 0.3247398,0.28154718 0 0 1 0.191204,-0.054 z"
     fill="#3f3d56"
     id="path2636-30-0-3"
     style="fill:#666666;stroke-width:0.070048" />
  <path
     d="m 43.943247,136.57483 a 0.32447649,0.2813189 0 0 1 -0.191183,-0.0549 0.32052098,0.27788944 0 0 1 -0.118202,-0.31536 l 0.160264,-0.42754 a 0.17442092,0.15122172 0 0 0 -0.0635,-0.16946 l -0.419534,-0.26426 a 0.32529201,0.2820259 0 0 1 0.191218,-0.51021 h 0.518543 a 0.17435395,0.15116366 0 0 0 0.166253,-0.10474 l 0.16027,-0.42755 a 0.32529878,0.28203178 0 0 1 0.618752,0 l 0.160223,0.42755 a 0.17439309,0.15119758 0 0 0 0.166278,0.10474 h 0.518541 a 0.32530251,0.28203503 0 0 1 0.191218,0.51021 l -0.419514,0.26426 a 0.17434568,0.1511565 0 0 0 -0.06352,0.16946 l 0.160248,0.42754 a 0.32530928,0.28204092 0 0 1 -0.500598,0.31533 l -0.41949,-0.26424 a 0.1743818,0.15118779 0 0 0 -0.205542,0 l -0.419508,0.26424 a 0.32423879,0.28111277 0 0 1 -0.191201,0.055 z m 0.713484,-0.47868 a 0.3246443,0.28146435 0 0 1 0.191172,0.054 l 0.419513,0.26425 a 0.17482188,0.15156935 0 0 0 0.269055,-0.16946 l -0.160228,-0.42756 a 0.32445771,0.28130257 0 0 1 0.118185,-0.31532 l 0.419491,-0.26426 a 0.17483317,0.15157914 0 0 0 -0.102763,-0.27422 h -0.518542 a 0.32445922,0.28130388 0 0 1 -0.309367,-0.19486 l -0.160248,-0.42755 a 0.17483317,0.15157914 0 0 0 -0.332561,0 l -0.16025,0.42755 a 0.32441937,0.28126929 0 0 1 -0.30935,0.19486 h -0.518539 a 0.17483317,0.15157914 0 0 0 -0.102783,0.27422 l 0.41953,0.26426 a 0.32451489,0.28135212 0 0 1 0.118174,0.31532 l -0.160265,0.42756 a 0.17483317,0.15157914 0 0 0 0.269042,0.16946 l 0.419533,-0.26425 a 0.3247398,0.28154718 0 0 1 0.191207,-0.054 z"
     fill="#3f3d56"
     id="path2636-30-0-5-4"
     style="fill:#666666;stroke-width:0.070048" />
  <path
     d="m 96.836813,135.03769 a 0.29523787,0.25596916 0 0 1 -0.174064,-0.0501 l -0.41952,-0.26425 a 0.20329021,0.17625118 0 0 0 -0.239778,0 l -0.419519,0.26425 a 0.29614815,0.25675835 0 0 1 -0.455741,-0.28705 l 0.160236,-0.42755 a 0.20351815,0.17644882 0 0 0 -0.07409,-0.19776 l -0.419509,-0.26425 a 0.29613833,0.2567499 0 0 1 0.174054,-0.46446 h 0.518568 a 0.20347152,0.17640837 0 0 0 0.193982,-0.12221 l 0.160226,-0.42756 a 0.29615341,0.25676294 0 0 1 0.563325,0 l 0.160237,0.42756 a 0.20347226,0.17640902 0 0 0 0.193993,0.12221 h 0.518564 a 0.29614209,0.25675314 0 0 1 0.174053,0.46446 l -0.419508,0.26425 a 0.20351889,0.17644947 0 0 0 -0.07409,0.19776 l 0.160248,0.42755 a 0.29169304,0.25289584 0 0 1 -0.107544,0.28705 0.2952243,0.25595742 0 0 1 -0.174075,0.0501 z"
     fill="#004578"
     id="path2628-0-4"
     style="fill:#666666;stroke-width:0.070048" />
  <path
     d="m 101.08791,135.03769 a 0.29524013,0.25597113 0 0 1 -0.17407,-0.0501 l -0.41951,-0.26425 a 0.20329021,0.17625118 0 0 0 -0.23978,0 l -0.419531,0.26425 a 0.29614741,0.25675771 0 0 1 -0.455726,-0.28705 l 0.160248,-0.42755 a 0.20351966,0.17645011 0 0 0 -0.07409,-0.19776 l -0.419519,-0.26425 a 0.29614815,0.25675835 0 0 1 0.174097,-0.46446 h 0.518542 a 0.20347077,0.17640772 0 0 0 0.193982,-0.12221 l 0.160247,-0.42756 a 0.29613761,0.25674923 0 0 1 0.5633,0 l 0.16023,0.42756 a 0.20349558,0.17642925 0 0 0 0.19401,0.12221 h 0.51854 a 0.29614815,0.25675835 0 0 1 0.17408,0.46446 l -0.41952,0.26425 a 0.20349558,0.17642925 0 0 0 -0.0741,0.19776 l 0.16023,0.42755 a 0.29169304,0.25289584 0 0 1 -0.10754,0.28705 0.29522205,0.25595546 0 0 1 -0.17406,0.0501 z"
     fill="#004578"
     id="path2630-56-0"
     style="fill:#666666;stroke-width:0.070048" />
  <path
     d="m 112.41425,135.06302 a 0.32447649,0.2813189 0 0 1 -0.19118,-0.0549 0.32052098,0.27788944 0 0 1 -0.1182,-0.31534 l 0.16028,-0.42757 a 0.17442092,0.15122172 0 0 0 -0.0634,-0.16945 l -0.41952,-0.26427 a 0.32529201,0.2820259 0 0 1 0.19121,-0.5102 h 0.51855 a 0.17435395,0.15116366 0 0 0 0.16626,-0.10475 l 0.16026,-0.42754 a 0.32529878,0.28203178 0 0 1 0.61876,0 l 0.16023,0.42754 a 0.17439309,0.15119758 0 0 0 0.16626,0.10475 h 0.51853 a 0.32530251,0.28203503 0 0 1 0.19124,0.5102 l -0.41953,0.26427 a 0.17434568,0.1511565 0 0 0 -0.0634,0.16945 l 0.16022,0.42757 a 0.32530928,0.28204092 0 0 1 -0.50058,0.31531 l -0.41949,-0.26424 a 0.1743818,0.15118779 0 0 0 -0.20554,0 l -0.41951,0.26424 a 0.32423879,0.28111277 0 0 1 -0.19121,0.055 z m 0.71349,-0.47865 a 0.3246443,0.28146435 0 0 1 0.19116,0.054 l 0.41953,0.26424 a 0.17482188,0.15156935 0 0 0 0.26905,-0.16946 l -0.16025,-0.42754 a 0.32445771,0.28130257 0 0 1 0.11822,-0.31534 l 0.41947,-0.26426 a 0.17483317,0.15157914 0 0 0 -0.10288,-0.2742 h -0.51854 a 0.32445922,0.28130388 0 0 1 -0.30937,-0.19488 l -0.16024,-0.42755 a 0.17483317,0.15157914 0 0 0 -0.33257,0 l -0.16028,0.42755 a 0.32441937,0.28126929 0 0 1 -0.30932,0.19488 h -0.51854 a 0.17483317,0.15157914 0 0 0 -0.10279,0.2742 l 0.41954,0.26426 a 0.32451489,0.28135212 0 0 1 0.11817,0.31534 l -0.16027,0.42754 a 0.17483317,0.15157914 0 0 0 0.26906,0.16946 l 0.41952,-0.26424 a 0.3247398,0.28154718 0 0 1 0.19119,-0.054 z"
     fill="#3f3d56"
     id="path2636-30-06"
     style="fill:#666666;stroke-width:0.070048" />
  <path
     d="m 108.21543,135.21862 a 0.32447649,0.2813189 0 0 1 -0.19117,-0.0549 0.32052098,0.27788944 0 0 1 -0.11822,-0.31535 l 0.16026,-0.42755 a 0.17442092,0.15122172 0 0 0 -0.0634,-0.16947 l -0.4195,-0.26426 a 0.32529201,0.2820259 0 0 1 0.19119,-0.5102 h 0.51854 a 0.17435395,0.15116366 0 0 0 0.16627,-0.10474 l 0.16026,-0.42756 a 0.32529878,0.28203178 0 0 1 0.61874,0 l 0.16024,0.42756 a 0.17439309,0.15119758 0 0 0 0.16626,0.10474 h 0.51856 a 0.32530251,0.28203503 0 0 1 0.19123,0.5102 l -0.41953,0.26426 a 0.17434568,0.1511565 0 0 0 -0.0634,0.16947 l 0.16025,0.42755 a 0.32530928,0.28204092 0 0 1 -0.50062,0.31532 l -0.41947,-0.26424 a 0.1743818,0.15118779 0 0 0 -0.20553,0 l -0.41954,0.26424 a 0.32423879,0.28111277 0 0 1 -0.19117,0.0549 z m 0.71348,-0.47866 a 0.3246443,0.28146435 0 0 1 0.19119,0.054 l 0.41949,0.26423 a 0.17482188,0.15156935 0 0 0 0.26907,-0.16947 l -0.16024,-0.42755 a 0.32445771,0.28130257 0 0 1 0.11819,-0.31532 l 0.4195,-0.26427 a 0.17483317,0.15157914 0 0 0 -0.10279,-0.27419 h -0.51855 a 0.32445922,0.28130388 0 0 1 -0.30934,-0.19488 l -0.16026,-0.42754 a 0.17483317,0.15157914 0 0 0 -0.33257,0 l -0.16024,0.42754 a 0.32441937,0.28126929 0 0 1 -0.30935,0.19488 h -0.51854 a 0.17483317,0.15157914 0 0 0 -0.10278,0.27419 l 0.41953,0.26427 a 0.32451489,0.28135212 0 0 1 0.11818,0.31532 l -0.16028,0.42755 a 0.17483317,0.15157914 0 0 0 0.26905,0.16947 l 0.41953,-0.26423 a 0.3247398,0.28154718 0 0 1 0.19121,-0.054 z"
     fill="#3f3d56"
     id="path2636-30-0-2"
     style="fill:#666666;stroke-width:0.070048" />
  <path
     d="m 103.91874,135.23184 a 0.32447649,0.2813189 0 0 1 -0.19116,-0.0549 0.32052098,0.27788944 0 0 1 -0.11822,-0.31536 l 0.16027,-0.42755 a 0.17442092,0.15122172 0 0 0 -0.0636,-0.16946 l -0.4195,-0.26427 a 0.32529201,0.2820259 0 0 1 0.19122,-0.51018 h 0.51853 a 0.17435395,0.15116366 0 0 0 0.16627,-0.10476 l 0.16024,-0.42756 a 0.32529878,0.28203178 0 0 1 0.61875,0 l 0.16025,0.42756 a 0.17439309,0.15119758 0 0 0 0.16627,0.10476 h 0.51853 a 0.32530251,0.28203503 0 0 1 0.19123,0.51018 l -0.41953,0.26427 a 0.17434568,0.1511565 0 0 0 -0.0634,0.16946 l 0.16024,0.42755 a 0.32530928,0.28204092 0 0 1 -0.5006,0.31532 l -0.41948,-0.26423 a 0.1743818,0.15118779 0 0 0 -0.20556,0 l -0.41951,0.26423 a 0.32423879,0.28111277 0 0 1 -0.19121,0.0549 z m 0.71349,-0.47867 a 0.3246443,0.28146435 0 0 1 0.19118,0.054 l 0.41952,0.26425 a 0.17482188,0.15156935 0 0 0 0.26905,-0.16947 l -0.16023,-0.42753 a 0.32445771,0.28130257 0 0 1 0.11819,-0.31534 l 0.41948,-0.26426 a 0.17483317,0.15157914 0 0 0 -0.10289,-0.27422 H 105.268 a 0.32445922,0.28130388 0 0 1 -0.30937,-0.19486 l -0.16025,-0.42756 a 0.17483317,0.15157914 0 0 0 -0.33257,0 l -0.16025,0.42756 a 0.32441937,0.28126929 0 0 1 -0.30934,0.19486 h -0.51855 a 0.17483317,0.15157914 0 0 0 -0.10278,0.27422 l 0.41955,0.26426 a 0.32451489,0.28135212 0 0 1 0.11816,0.31534 l -0.16027,0.42753 a 0.17483317,0.15157914 0 0 0 0.26904,0.16947 l 0.41955,-0.26425 a 0.3247398,0.28154718 0 0 1 0.1912,-0.054 z"
     fill="#3f3d56"
     id="path2636-30-0-5-47"
     style="fill:#666666;stroke-width:0.070048" />
  <path
     d="m 96.689433,102.49714 a 0.29523787,0.25596916 0 0 1 -0.174087,-0.0501 l -0.419507,-0.26427 a 0.20329021,0.17625118 0 0 0 -0.239779,0 l -0.419519,0.26426 a 0.29614815,0.25675835 0 0 1 -0.45573,-0.28704 l 0.160248,-0.42755 a 0.20351815,0.17644882 0 0 0 -0.07409,-0.19776 l -0.419498,-0.26426 a 0.29613833,0.2567499 0 0 1 0.174043,-0.46446 h 0.518563 a 0.20347152,0.17640837 0 0 0 0.194009,-0.12219 l 0.160226,-0.42756 a 0.29615341,0.25676294 0 0 1 0.563325,0 l 0.160226,0.42756 a 0.20347226,0.17640902 0 0 0 0.193994,0.12219 h 0.518552 a 0.29614209,0.25675314 0 0 1 0.174054,0.46446 l -0.419509,0.26426 a 0.20351889,0.17644947 0 0 0 -0.07409,0.19776 l 0.160248,0.42755 a 0.29169304,0.25289584 0 0 1 -0.107545,0.28704 0.2952243,0.25595742 0 0 1 -0.174053,0.0501 z"
     fill="#004578"
     id="path2628-0-8"
     style="fill:#666666;stroke-width:0.070048" />
  <path
     d="m 100.94052,102.49714 a 0.29524013,0.25597113 0 0 1 -0.17409,-0.0501 l -0.41949,-0.26426 a 0.20329021,0.17625118 0 0 0 -0.23978,0 l -0.419521,0.26426 A 0.29614741,0.25675771 0 0 1 99.231902,102.16 l 0.160248,-0.42755 a 0.20351966,0.17645011 0 0 0 -0.07409,-0.19777 l -0.419508,-0.26425 a 0.29614815,0.25675835 0 0 1 0.174064,-0.46446 h 0.518542 a 0.20347077,0.17640772 0 0 0 0.194004,-0.12219 l 0.160237,-0.42756 a 0.29613761,0.25674923 0 0 1 0.563311,0 l 0.16023,0.42756 a 0.20349558,0.17642925 0 0 0 0.194,0.12219 h 0.51854 a 0.29614815,0.25675835 0 0 1 0.17407,0.46446 l -0.41949,0.26425 a 0.20349558,0.17642925 0 0 0 -0.0741,0.19777 l 0.16025,0.42755 a 0.29169304,0.25289584 0 0 1 -0.10754,0.28704 0.29522205,0.25595546 0 0 1 -0.17406,0.0501 z"
     fill="#004578"
     id="path2630-56-99"
     style="fill:#666666;stroke-width:0.070048" />
  <path
     d="m 105.20212,102.64545 a 0.29524013,0.25597113 0 0 1 -0.1741,-0.0501 l -0.41949,-0.26425 a 0.20329021,0.17625118 0 0 0 -0.23978,0 l -0.41952,0.26425 a 0.29614741,0.25675771 0 0 1 -0.45574,-0.28704 l 0.16025,-0.42756 a 0.20351966,0.17645011 0 0 0 -0.074,-0.19776 l -0.41951,-0.26425 a 0.29614815,0.25675835 0 0 1 0.17407,-0.46446 h 0.51855 a 0.20347077,0.17640772 0 0 0 0.194,-0.1222 l 0.16024,-0.42756 a 0.29613761,0.25674923 0 0 1 0.56331,0 l 0.16022,0.42756 a 0.20349558,0.17642925 0 0 0 0.194,0.1222 h 0.51854 a 0.29614815,0.25675835 0 0 1 0.17407,0.46446 l -0.41948,0.26425 a 0.20349558,0.17642925 0 0 0 -0.074,0.19776 l 0.16025,0.42756 a 0.29169304,0.25289584 0 0 1 -0.10754,0.28704 0.29522205,0.25595546 0 0 1 -0.17406,0.0501 z"
     fill="#004578"
     id="path2630-56-99-0"
     style="fill:#666666;stroke-width:0.070048" />
  <path
     d="m 105.49388,38.333133 a 0.29524013,0.25597113 0 0 1 -0.17408,-0.04998 l -0.41953,-0.264244 a 0.20329021,0.17625118 0 0 0 -0.23978,0 l -0.4195,0.264244 a 0.29614741,0.25675771 0 0 1 -0.45573,-0.287033 l 0.16024,-0.427556 a 0.20351966,0.17645011 0 0 0 -0.074,-0.197768 l -0.41951,-0.264244 a 0.29614815,0.25675835 0 0 1 0.17407,-0.464468 h 0.51855 a 0.20347077,0.17640772 0 0 0 0.19401,-0.122192 l 0.16023,-0.427566 a 0.29613761,0.25674923 0 0 1 0.56331,0 l 0.16022,0.427566 a 0.20349558,0.17642925 0 0 0 0.194,0.122192 h 0.51854 a 0.29614815,0.25675835 0 0 1 0.17409,0.464468 l -0.41951,0.264244 a 0.20349558,0.17642925 0 0 0 -0.0739,0.197768 l 0.16025,0.427556 a 0.29169304,0.25289584 0 0 1 -0.10755,0.287033 0.29522205,0.25595546 0 0 1 -0.17404,0.04998 z"
     fill="#004578"
     id="path2630-56-99-0-5"
     style="fill:#666666;stroke-width:0.070048" />
  <path
     d="m 112.26688,102.52248 a 0.32447649,0.2813189 0 0 1 -0.19119,-0.0549 0.32052098,0.27788944 0 0 1 -0.11821,-0.31535 l 0.16027,-0.42756 a 0.17442092,0.15122172 0 0 0 -0.0634,-0.16946 l -0.41952,-0.26427 a 0.32529201,0.2820259 0 0 1 0.19121,-0.51019 h 0.51852 a 0.17435395,0.15116366 0 0 0 0.16628,-0.10475 l 0.16027,-0.42755 a 0.32529878,0.28203178 0 0 1 0.61875,0 l 0.16022,0.42755 a 0.17439309,0.15119758 0 0 0 0.16629,0.10475 h 0.5185 a 0.32530251,0.28203503 0 0 1 0.19122,0.51019 l -0.41951,0.26427 a 0.17434568,0.1511565 0 0 0 -0.0634,0.16946 l 0.16025,0.42756 a 0.32530928,0.28204092 0 0 1 -0.5006,0.31531 l -0.41951,-0.26422 a 0.1743818,0.15118779 0 0 0 -0.20553,0 l -0.41952,0.26422 a 0.32423879,0.28111277 0 0 1 -0.19118,0.055 z m 0.71348,-0.47867 a 0.3246443,0.28146435 0 0 1 0.19119,0.054 l 0.41948,0.26423 a 0.17482188,0.15156935 0 0 0 0.26905,-0.16944 l -0.1602,-0.42758 a 0.32445771,0.28130257 0 0 1 0.11817,-0.31531 l 0.4195,-0.26426 a 0.17483317,0.15157914 0 0 0 -0.10279,-0.27421 h -0.51854 a 0.32445922,0.28130388 0 0 1 -0.30937,-0.19489 l -0.16026,-0.42753 a 0.17483317,0.15157914 0 0 0 -0.33254,0 l -0.16025,0.42753 a 0.32441937,0.28126929 0 0 1 -0.30937,0.19489 h -0.51853 a 0.17483317,0.15157914 0 0 0 -0.10278,0.27421 l 0.41952,0.26426 a 0.32451489,0.28135212 0 0 1 0.11818,0.31531 l -0.16028,0.42758 a 0.17483317,0.15157914 0 0 0 0.26906,0.16944 l 0.41954,-0.26423 a 0.3247398,0.28154718 0 0 1 0.19119,-0.054 z"
     fill="#3f3d56"
     id="path2636-30-9"
     style="fill:#666666;stroke-width:0.070048" />
  <path
     d="m 108.06805,102.67807 a 0.32447649,0.2813189 0 0 1 -0.19119,-0.0549 0.32052098,0.27788944 0 0 1 -0.1182,-0.31535 l 0.16025,-0.42755 a 0.17442092,0.15122172 0 0 0 -0.0634,-0.16947 l -0.41953,-0.26427 a 0.32529201,0.2820259 0 0 1 0.19123,-0.51018 h 0.51853 a 0.17435395,0.15116366 0 0 0 0.16625,-0.10476 l 0.16026,-0.42754 a 0.32529878,0.28203178 0 0 1 0.61876,0 l 0.16024,0.42754 a 0.17439309,0.15119758 0 0 0 0.16627,0.10476 h 0.51854 a 0.32530251,0.28203503 0 0 1 0.19121,0.51018 l -0.41951,0.26427 a 0.17434568,0.1511565 0 0 0 -0.0634,0.16947 l 0.16025,0.42755 a 0.32530928,0.28204092 0 0 1 -0.5006,0.31532 l -0.41949,-0.26424 a 0.1743818,0.15118779 0 0 0 -0.20555,0 l -0.41949,0.26424 a 0.32423879,0.28111277 0 0 1 -0.19119,0.055 z m 0.71348,-0.47868 a 0.3246443,0.28146435 0 0 1 0.19117,0.054 l 0.41953,0.26424 a 0.17482188,0.15156935 0 0 0 0.26903,-0.16947 l -0.16023,-0.42753 a 0.32445771,0.28130257 0 0 1 0.11819,-0.31533 l 0.41949,-0.26427 a 0.17483317,0.15157914 0 0 0 -0.10278,-0.27421 h -0.51854 a 0.32445922,0.28130388 0 0 1 -0.30939,-0.19485 l -0.16024,-0.42755 a 0.17483317,0.15157914 0 0 0 -0.33257,0 l -0.16026,0.42755 a 0.32441937,0.28126929 0 0 1 -0.30934,0.19485 h -0.51855 a 0.17483317,0.15157914 0 0 0 -0.10278,0.27421 l 0.41954,0.26427 a 0.32451489,0.28135212 0 0 1 0.11816,0.31533 l -0.16027,0.42754 a 0.17483317,0.15157914 0 0 0 0.26904,0.16947 l 0.41953,-0.26424 a 0.3247398,0.28154718 0 0 1 0.19121,-0.0541 z"
     fill="#3f3d56"
     id="path2636-30-0-33"
     style="fill:#666666;stroke-width:0.070048" />
  <path
     d="m 103.77138,102.69129 a 0.32447649,0.2813189 0 0 1 -0.1912,-0.0549 0.32052098,0.27788944 0 0 1 -0.1182,-0.31535 l 0.16026,-0.42755 a 0.17442092,0.15122172 0 0 0 -0.0636,-0.16946 l -0.41952,-0.26426 a 0.32529201,0.2820259 0 0 1 0.19123,-0.5102 h 0.51851 a 0.17435395,0.15116366 0 0 0 0.16626,-0.10475 l 0.16029,-0.42756 a 0.32529878,0.28203178 0 0 1 0.61874,0 l 0.16024,0.42756 a 0.17439309,0.15119758 0 0 0 0.16628,0.10475 h 0.51852 a 0.32530251,0.28203503 0 0 1 0.19123,0.5102 l -0.41952,0.26426 a 0.17434568,0.1511565 0 0 0 -0.0634,0.16946 l 0.16026,0.42755 a 0.32530928,0.28204092 0 0 1 -0.50062,0.31532 l -0.41948,-0.26424 a 0.1743818,0.15118779 0 0 0 -0.20555,0 l -0.4195,0.26424 a 0.32423879,0.28111277 0 0 1 -0.1912,0.0549 z m 0.71346,-0.47867 a 0.3246443,0.28146435 0 0 1 0.19118,0.054 l 0.41951,0.26425 a 0.17482188,0.15156935 0 0 0 0.26906,-0.16947 l -0.16022,-0.42754 a 0.32445771,0.28130257 0 0 1 0.11819,-0.31532 l 0.41948,-0.26427 a 0.17483317,0.15157914 0 0 0 -0.10278,-0.27421 h -0.51854 a 0.32445922,0.28130388 0 0 1 -0.30936,-0.19487 l -0.16027,-0.42755 a 0.17483317,0.15157914 0 0 0 -0.33253,0 l -0.16026,0.42755 a 0.32441937,0.28126929 0 0 1 -0.30936,0.19487 h -0.51854 a 0.17483317,0.15157914 0 0 0 -0.10279,0.27421 l 0.41953,0.26427 a 0.32451489,0.28135212 0 0 1 0.11817,0.31532 l -0.16027,0.42754 a 0.17483317,0.15157914 0 0 0 0.26908,0.16947 l 0.41951,-0.26425 a 0.3247398,0.28154718 0 0 1 0.19118,-0.054 z"
     fill="#3f3d56"
     id="path2636-30-0-5-77"
     style="fill:#666666;stroke-width:0.070048" />
  <path
     d="m 45.349264,136.59941 a 0.29524013,0.25597113 0 0 1 -0.174078,-0.0501 l -0.419516,-0.26425 a 0.20329021,0.17625118 0 0 0 -0.239776,0 l -0.419515,0.26426 a 0.29614741,0.25675771 0 0 1 -0.455742,-0.28704 l 0.160248,-0.42756 a 0.20351966,0.17645011 0 0 0 -0.0741,-0.19778 l -0.419508,-0.26422 a 0.29614815,0.25675835 0 0 1 0.174079,-0.46448 h 0.518535 a 0.20347077,0.17640772 0 0 0 0.193997,-0.1222 l 0.16024,-0.42756 a 0.29613761,0.25674923 0 0 1 0.563315,0 l 0.160218,0.42756 a 0.20349558,0.17642925 0 0 0 0.19402,0.1222 h 0.518528 a 0.29614815,0.25675835 0 0 1 0.174087,0.46448 l -0.419516,0.26422 a 0.20349558,0.17642925 0 0 0 -0.07412,0.19778 l 0.160242,0.42756 a 0.29169304,0.25289584 0 0 1 -0.107588,0.28704 0.29522205,0.25595546 0 0 1 -0.17405,0.0501 z"
     fill="#004578"
     id="path2630-56-99-0-7"
     style="fill:#666666;stroke-width:0.070048" />
</svg>
