<?xml version="1.0" encoding="UTF-8" standalone="no"?>
<svg
   viewBox="0 0 200 200"
   version="1.1"
   id="svg158"
   sodipodi:docname="image3b.svg"
   inkscape:version="1.2.2 (b0a8486, 2022-12-01)"
   xmlns:inkscape="http://www.inkscape.org/namespaces/inkscape"
   xmlns:sodipodi="http://sodipodi.sourceforge.net/DTD/sodipodi-0.dtd"
   xmlns="http://www.w3.org/2000/svg"
   xmlns:svg="http://www.w3.org/2000/svg">
  <defs
     id="defs162" />
  <sodipodi:namedview
     id="namedview160"
     pagecolor="#ffffff"
     bordercolor="#000000"
     borderopacity="0.25"
     inkscape:showpageshadow="2"
     inkscape:pageopacity="0.0"
     inkscape:pagecheckerboard="0"
     inkscape:deskcolor="#d1d1d1"
     showgrid="false"
     inkscape:zoom="8.8442095"
     inkscape:cx="33.750896"
     inkscape:cy="28.380151"
     inkscape:window-width="1344"
     inkscape:window-height="430"
     inkscape:window-x="0"
     inkscape:window-y="25"
     inkscape:window-maximized="0"
     inkscape:current-layer="svg158" />
  <path
     d="m 98.812885,20.771903 -1.204804,4.24387 c -0.09073,0.324444 -0.185681,0.654685 -0.288831,0.982028 a 5.8951347,4.1389225 0 0 0 -3.028491,0.118771 28.267741,19.846533 0 0 1 2.07951,2.442034 c -0.759167,1.642507 -1.8732,3.160452 -3.738167,4.258352 a 9.3741573,6.5815139 0 0 1 -9.05661,1.118182 l 0.05371,-0.168017 c -2.005251,-2.73172 -0.915974,-6.176061 1.576136,-8.699209 a 24.089571,16.91308 0 0 1 4.476739,-3.322674 c 1.683384,-0.984925 3.502975,-1.86846 5.306037,-2.740409 a 2.4715118,1.7352268 0 0 1 3.824819,1.767072 z"
     fill="#e4e4e4"
     id="path132"
     style="stroke-width:0.345723" />
  <path
     id="b311a411-101b-4365-a37b-2cdfec47a637-810"
     data-name="a4b268fa-75d0-4ac1-9d87-14bdca948464-2189"
     d="m -7.2822425,136.6186 c -0.5070868,-3.01469 -1.0286151,-6.06773 -0.6729539,-9.11475 0.3160535,-2.70591 1.3273399,-5.34883 3.3870469,-7.51599 a 15.320606,12.503107 0 0 1 3.9308534,-2.90693 c 0.39320903,-0.20203 0.75464854,0.30609 0.36350214,0.50744 a 14.56478,11.886277 0 0 0 -5.76115414,5.67276 c -1.2543085,2.60354 -1.4556587,5.4418 -1.2378043,8.2073 0.1307896,1.67251 0.4076495,3.33356 0.6869816,4.99361 a 0.37134136,0.30305066 0 0 1 -0.2516869,0.36164 0.36226412,0.29564275 0 0 1 -0.4431345,-0.2054 z"
     fill="#f2f2f2"
     style="stroke-width:0.372737" />
  <path
     d="M 119.3606,63.062767 H 10.037785 A 5.2199193,2.8458206 0 0 1 4.8235963,60.220158 V 7.0989844 A 5.2200472,2.8458903 0 0 1 10.037785,4.2562891 H 119.3606 a 5.2200442,2.8458886 0 0 1 5.21418,2.8426953 V 60.220158 a 5.2199159,2.8458192 0 0 1 -5.21418,2.842609 z M 10.037785,4.5802923 A 4.6251567,2.5215652 0 0 0 5.417895,7.0989844 V 60.220158 a 4.6251303,2.5215505 0 0 0 4.61989,2.518606 H 119.3606 a 4.6251303,2.5215505 0 0 0 4.61989,-2.518606 V 7.0989844 A 4.6251567,2.5215652 0 0 0 119.3606,4.5802923 Z"
     fill="#e6e6e6"
     id="path149"
     style="stroke-width:0.219405" />
  <path
     d="m 7.9695963,42.473789 43.1267567,-0.132511 42.906726,-0.131843 24.203771,-0.07431 a 0.50030419,0.5053875 0 0 0 0,-1.010167 L 75.080117,41.25747 32.17339,41.389314 7.9695963,41.463624 a 0.50030419,0.5053875 0 0 0 0,1.010165 z"
     fill="#e6e6e6"
     id="path151"
     style="stroke-width:0.335024" />
  <path
     d="M 19.025698,41.654832 19.355779,25.74905 c 0.01341,-0.650282 -1.224303,-0.650411 -1.237803,0 l -0.330081,15.905782 c -0.01341,0.650289 1.224303,0.650412 1.237803,0 z"
     fill="#e6e6e6"
     id="path153"
     style="stroke-width:0.372737" />
  <path
     d="M 44.539037,41.826952 45.34344,21.834195 45.573255,16.12198 c 0.02614,-0.650213 -1.211671,-0.649448 -1.237801,0 l -0.804405,19.992745 -0.229814,5.712227 c -0.02614,0.650203 1.211681,0.649444 1.237802,0 z"
     fill="#e6e6e6"
     id="path155"
     style="stroke-width:0.372737" />
  <path
     d="m 69.983521,14.526279 c -0.485192,6.092053 -1.382989,24.061131 -1.868181,30.153178 -0.04444,0.558795 1.193443,0.557021 1.237812,0 0.485192,-6.092056 1.382979,-24.06113 1.868181,-30.153178 0.04444,-0.558797 -1.193444,-0.557024 -1.237812,0 z"
     fill="#e6e6e6"
     id="path157"
     style="stroke-width:0.345723" />
  <path
     d="M 86.630201,34.588797 86.4902,41.395033 c -0.01342,0.650291 1.128752,0.650346 1.142128,0 0.165348,-8.038649 0.589397,-7.776613 0.636064,-10.045368 0.01342,-0.650288 -1.128763,-0.650347 -1.142128,0 0,0 -0.330716,-4.799504 -0.496063,3.239132 z"
     fill="#e6e6e6"
     id="path159"
     style="stroke-width:0.358042" />
  <path
     d="m 109.5155,16.708656 0.12916,19.095096 0.0369,5.467762 a 0.5714096,0.5053875 0 0 0 1.14213,0 l -0.12917,-19.0951 -0.0369,-5.467758 a 0.5714096,0.5053875 0 0 0 -1.14212,0 z"
     fill="#e6e6e6"
     id="path161"
     style="stroke-width:0.358042" />
  <path
     d="m 8.050003,44.861101 c -0.8277488,-1.976786 1.0381804,-3.878056 2.955463,-4.732382 2.297018,-1.023539 4.939454,-1.255526 7.26082,-2.242246 3.460789,-1.471011 5.981518,-4.11105 8.224499,-6.753642 2.308618,-2.719922 4.420965,-5.639072 7.354455,-7.898996 a 14.731537,12.80236 0 0 1 5.356277,-2.69381 c 2.500777,-0.678231 5.152978,-0.724757 7.737019,-0.451426 5.339594,0.564805 10.289425,2.481388 15.441468,3.699521 4.857393,1.148468 10.209284,1.794302 14.977016,0.0083 2.422324,-0.907374 4.403164,-2.429183 6.530748,-3.746088 a 21.765454,18.915145 0 0 1 6.802828,-2.851812 c 4.786009,-1.156582 10.012704,-0.847751 14.468494,1.107463 a 19.414428,16.872001 0 0 1 9.15667,8.398648 c 2.11241,4.385374 1.83738,9.286019 1.14734,13.901907 -0.17838,1.193124 -0.39065,2.38227 -0.60524,3.570814 -0.0987,0.547139 0.86469,0.782817 0.9643,0.231029 0.85935,-4.75973 1.71591,-9.670206 0.64676,-14.45989 A 20.152116,17.513084 0 0 0 109.02519,19.410804 20.681359,17.973021 0 0 0 95.387981,15.67059 22.359695,19.43157 0 0 0 87.896523,17.118526 c -2.473141,0.889006 -4.567365,2.206675 -6.694592,3.593171 -2.187118,1.425535 -4.441705,2.604673 -7.157079,3.069595 -2.633871,0.450966 -5.373842,0.281918 -7.996158,-0.143871 -5.410835,-0.878565 -10.454286,-2.892534 -15.819198,-3.924446 -4.970581,-0.956067 -10.334281,-1.051596 -14.785272,1.388713 -3.423836,1.877152 -5.843158,4.791351 -8.16499,7.605346 -2.301478,2.789323 -4.632059,5.772037 -7.99743,7.677455 -2.052927,1.162332 -4.360653,1.591216 -6.657173,2.244861 -2.302447,0.655341 -4.5128239,1.76091 -5.451627,3.810928 a 4.2646057,3.7061319 0 0 0 -0.087285,2.651833 c 0.2183342,0.521414 1.1850888,0.296278 0.9642816,-0.231029 z"
     fill="#e6e6e6"
     id="path163"
     style="stroke-width:0.310744" />
  <polygon
     points="86.171,166.905 86.167,166.907 86.175,166.905 "
     fill="#e6e6e6"
     id="polygon165"
     transform="matrix(0.4126015,0,0,0.33672296,-16.939169,-32.651102)" />
  <path
     d="m 20.76127,22.62046 a 2.4598022,2.007438 0 0 0 -2.980277,-0.900175 2.164854,1.7667313 0 0 0 -1.2333,0.937147 c -0.02368,0.0458 -0.03756,0.09398 -0.05687,0.140927 -0.02681,0.0354 -0.05906,0.06733 -0.08308,0.104364 a 2.4581519,2.0060911 0 0 0 3.833412,2.396767 2.6473008,2.1604547 0 0 0 0.520131,-2.679029 z m -1.550252,0.857837 c 0.0051,0.0255 0.0033,0.04893 0,0 z m -0.157572,-0.292411 c -0.006,-0.0056 -0.0054,-0.005 0,0 z m -0.694554,0.227919 c -0.0094,-0.01168 -0.01024,-0.01362 0,0 z m 0.164629,0.113899 c 0.03921,0.01091 0.02368,0.0087 0,0 z m 0.07352,0.02859 0.0163,-0.0062 a 0.02069198,0.01688666 0 0 1 -0.01159,-0.0019 l 4.11e-4,-6.3e-5 0.01274,0.0014 0.0024,-0.001 -0.0075,-0.0014 c 0.0063,-1.83e-4 0.0072,6.72e-4 0.0075,0.0014 0.07362,-0.02752 0.02376,-0.01428 -0.01889,-0.0036 l -0.003,-6.73e-4 a 0.28113016,0.22942956 0 0 0 -0.08487,-0.02221 c -0.003,-0.0014 -0.0059,-0.0019 -0.0083,-0.0036 -0.02368,-0.01376 -0.143466,-0.09011 -0.03235,-0.01003 -0.02418,-0.01745 -0.04807,-0.03456 -0.07081,-0.05334 a 0.32302984,0.26362378 0 0 1 -0.03629,-0.03643 q -0.02185,-0.0306 -0.0424,-0.06177 l -0.002,-0.01121 c -0.0018,-0.0093 -0.0033,-0.01316 -0.0047,-0.01875 8.06e-4,-0.0057 0.0018,-0.01198 0.003,-0.01801 a 0.26667259,0.21763079 0 0 0 0.01572,-0.05645 l 0.0049,-0.0049 c 0.01778,-0.02024 0.03335,-0.04386 0.0503,-0.06491 -0.0897,0.111186 0.03509,-0.01226 0.0444,-0.02792 0.0018,-0.0027 -0.0011,-0.0014 -4.14e-4,-0.0029 0.0036,-0.0016 0.0024,-6.69e-4 0.0069,-0.0027 0.02781,-0.01336 0.05414,-0.02824 0.08238,-0.04104 0.03364,-0.01523 0.166055,-0.0459 0.0287,-0.01383 0.0312,-0.0071 0.06115,-0.01646 0.09269,-0.02319 0.0056,-0.0014 0.05194,-0.0065 0.07686,-0.01013 0.02188,-3.37e-4 0.04309,-0.001 0.04533,-0.001 0.01034,1.06e-4 0.02055,0.001 0.03082,0.0014 -0.02278,0.0024 0.07821,0.02031 0.108219,0.02409 0.0045,0.0027 0.0065,0.0046 0.01244,0.0082 0.02535,0.01511 0.0562,0.02856 0.08298,0.04268 -0.119695,-0.06314 0.0018,0.005 0.02444,0.02368 0.01371,0.01114 0.02629,0.02306 0.03911,0.03479 a 0.33375334,0.2723752 0 0 1 0.03188,0.0357 c 0.01966,0.02936 0.0405,0.05906 0.06113,0.08792 l 0.0059,0.0075 a 0.03417579,0.02789075 0 0 0 -1.76e-4,0.0027 0.9787815,0.79878092 0 0 0 0.04739,0.137306 0.13745819,0.11217925 0 0 1 0.0024,0.01141 c 0.002,0.02566 0.0045,0.05121 0.0047,0.077 l -2.78e-4,0.0052 a 0.67790426,0.55323582 0 0 0 -0.61819,-0.0036 z"
     fill="#e6e6e6"
     id="path167"
     style="stroke-width:0.372737" />
  <path
     d="m 18.618935,23.549016 c 0.0018,3.38e-4 7.8e-5,3.38e-4 -3.26e-4,3.38e-4 z"
     fill="#e6e6e6"
     id="path169"
     style="stroke-width:0.372737" />
  <path
     d="m 18.618482,23.548896 4.11e-4,1.2e-4 z"
     fill="#e6e6e6"
     id="path171"
     style="stroke-width:0.372737" />
  <path
     d="m 18.618609,23.549512 -0.002,2.46e-4 c 0.0024,2.01e-4 0.0018,-1.35e-4 0.002,-2.46e-4 z"
     fill="#e6e6e6"
     id="path173"
     style="stroke-width:0.372737" />
  <polygon
     points="86.179,166.903 86.177,166.902 "
     fill="#e6e6e6"
     id="polygon175"
     transform="matrix(0.4126015,0,0,0.33672296,-16.939169,-32.651102)" />
  <polygon
     points="150.171,138.905 150.167,138.907 150.175,138.905 "
     fill="#e6e6e6"
     id="polygon177"
     transform="matrix(0.4126015,0,0,0.33672296,-16.939169,-32.651102)" />
  <path
     d="M 47.167761,20.158964 A 2.4598022,1.7270057 0 0 0 44.18749,19.38454 2.164854,1.5199249 0 0 0 42.954183,20.190771 c -0.02369,0.03942 -0.03754,0.08085 -0.05685,0.121238 -0.02685,0.03043 -0.0591,0.05792 -0.0831,0.08979 a 2.4581519,1.725847 0 0 0 3.833408,2.061946 2.6473008,1.8586466 0 0 0 0.520141,-2.304776 z m -1.550251,0.738001 c 0.0051,0.02194 0.003,0.0421 0,0 z m -0.157566,-0.251566 c -0.0061,-0.0048 -0.0051,-0.0043 0,0 z m -0.694551,0.196084 c -0.0091,-0.01006 -0.01013,-0.01172 0,0 z m 0.164627,0.09799 c 0.03917,0.0094 0.02369,0.0074 0,0 z m 0.07355,0.02461 0.01627,-0.0054 a 0.02069198,0.01452765 0 0 1 -0.0116,-0.0016 l 4.17e-4,-5.4e-5 0.01271,0.0012 0.0021,-8.66e-4 -0.0072,-0.0012 c 0.0061,-1.56e-4 0.0072,5.79e-4 0.0072,0.0012 0.07364,-0.02367 0.0238,-0.01228 -0.01892,-0.0031 l -0.003,-5.8e-4 a 0.28113016,0.19737902 0 0 0 -0.08483,-0.01912 c -0.003,-0.0012 -0.0061,-0.0016 -0.0081,-0.0031 -0.02369,-0.01186 -0.14347,-0.07754 -0.03234,-0.0087 -0.02421,-0.01501 -0.04811,-0.02973 -0.07079,-0.04589 a 0.32302984,0.22679643 0 0 1 -0.0363,-0.03132 q -0.02188,-0.02633 -0.04241,-0.05314 l -0.0021,-0.0096 c -0.0021,-0.0081 -0.003,-0.01132 -0.0051,-0.01614 8.04e-4,-0.0049 0.0021,-0.01031 0.003,-0.01549 a 0.26667259,0.18722851 0 0 0 0.01577,-0.04857 l 0.0051,-0.0042 c 0.0178,-0.01742 0.03337,-0.03774 0.05034,-0.05584 -0.08971,0.09565 0.0351,-0.01054 0.04445,-0.02402 0.0021,-0.0023 -9.81e-4,-0.0012 -4.07e-4,-0.0025 0.0041,-0.0013 0.0021,-5.77e-4 0.0072,-0.0023 0.02778,-0.01149 0.05412,-0.0243 0.08239,-0.0353 0.03367,-0.01309 0.16605,-0.03949 0.02869,-0.0119 0.03123,-0.0062 0.06114,-0.01416 0.09268,-0.01995 0.0061,-0.0012 0.05198,-0.0056 0.0769,-0.0087 0.02188,-2.91e-4 0.04313,-8.67e-4 0.04537,-8.67e-4 0.01024,9e-5 0.02055,8.67e-4 0.03082,0.0012 -0.02279,0.002 0.07823,0.01747 0.108207,0.02072 0.0041,0.0023 0.0061,0.004 0.01241,0.0071 0.02532,0.01299 0.05614,0.02456 0.083,0.03672 -0.119699,-0.05432 0.0021,0.0043 0.02442,0.02037 0.01373,0.0096 0.02624,0.01983 0.03916,0.02993 a 0.33375334,0.23432531 0 0 1 0.03194,0.0307 c 0.01963,0.02527 0.04048,0.05082 0.06114,0.07564 l 0.0061,0.0065 a 0.03417579,0.02399451 0 0 0 -1.83e-4,0.0023 0.9787815,0.68719394 0 0 0 0.0474,0.118125 0.13745819,0.09650819 0 0 1 0.0021,0.0098 c 0.0021,0.02207 0.0041,0.04406 0.0051,0.06624 l -2.76e-4,0.0045 a 0.67790426,0.47595065 0 0 0 -0.618172,-0.0031 z"
     fill="#e6e6e6"
     id="path179"
     style="stroke-width:0.345723" />
  <path
     d="m 45.025103,14.121267 -0.0021,2.49e-4 c 0.0021,2.02e-4 0.0021,-1.35e-4 0.0021,-2.49e-4 z"
     fill="#e6e6e6"
     id="path181"
     style="stroke-width:0.372737" />
  <polygon
     points="150.179,138.903 150.177,138.902 "
     fill="#e6e6e6"
     id="polygon183"
     transform="matrix(0.4126015,0,0,0.33672296,-16.939169,-32.651102)" />
  <path
     d="m 45.025428,14.120775 c 0.0021,3.35e-4 8.1e-5,3.35e-4 -3.25e-4,3.35e-4 z"
     fill="#e6e6e6"
     id="path185"
     style="stroke-width:0.372737" />
  <path
     d="m 45.024979,14.120653 4.09e-4,1.22e-4 z"
     fill="#e6e6e6"
     id="path187"
     style="stroke-width:0.372737" />
  <polygon
     points="212.179,152.903 212.177,152.902 "
     fill="#e6e6e6"
     id="polygon189"
     transform="matrix(0.4126015,0,0,0.33672296,-16.939169,-32.651102)" />
  <path
     d="M 72.749062,12.047816 A 2.4598022,1.7270057 0 0 0 69.76877,11.27339 2.164854,1.5199249 0 0 0 68.535484,12.079621 c -0.0236,0.03942 -0.03754,0.08085 -0.05685,0.121239 -0.02685,0.03045 -0.059,0.05792 -0.0831,0.08979 a 2.4581519,1.725847 0 0 0 3.833417,2.061949 2.6473008,1.8586466 0 0 0 0.520131,-2.304779 z m -1.550249,0.738 c 0.0051,0.02194 0.003,0.04209 0,0 z m -0.157578,-0.251564 c -0.0061,-0.0048 -0.0051,-0.0043 0,0 z m -0.69455,0.196081 c -0.0091,-0.01006 -0.01034,-0.01172 0,0 z m 0.164626,0.09799 c 0.03917,0.0094 0.02369,0.0074 0,0 z m 0.07355,0.02458 0.01637,-0.0054 a 0.02069198,0.01452765 0 0 1 -0.0116,-0.0016 l 4.17e-4,-5.6e-5 0.01271,0.0011 0.003,-8.66e-4 -0.0072,-0.0011 c 0.0061,-1.56e-4 0.0072,5.76e-4 0.0072,0.0011 0.07364,-0.02367 0.02379,-0.01229 -0.01892,-0.0031 l -0.003,-5.76e-4 a 0.28113016,0.19737902 0 0 0 -0.08483,-0.01903 c -0.003,-0.0011 -0.0061,-0.0016 -0.0081,-0.0031 -0.02369,-0.01184 -0.143469,-0.07752 -0.03234,-0.0087 -0.02421,-0.01502 -0.04802,-0.02973 -0.07079,-0.04589 a 0.32302984,0.22679643 0 0 1 -0.0363,-0.03134 q -0.02198,-0.02633 -0.04241,-0.05314 l -0.0021,-0.0096 c -9.81e-4,-0.0081 -0.003,-0.01132 -0.0051,-0.01614 9.81e-4,-0.0049 0.0021,-0.01032 0.003,-0.01549 a 0.26667259,0.18722851 0 0 0 0.01567,-0.04856 l 0.0051,-0.0042 c 0.0178,-0.01742 0.03337,-0.03774 0.05036,-0.05584 -0.08971,0.09565 0.035,-0.01053 0.04435,-0.02402 0.0021,-0.0023 -9.82e-4,-0.0011 -4.07e-4,-0.0025 0.0041,-0.0013 0.003,-5.77e-4 0.0072,-0.0023 0.02778,-0.01149 0.05412,-0.02429 0.08228,-0.03529 0.03367,-0.0131 0.16606,-0.03949 0.02868,-0.01192 0.03123,-0.0061 0.06114,-0.01416 0.09267,-0.01992 0.0051,-0.0011 0.05199,-0.0056 0.0768,-0.0087 0.02198,-2.9e-4 0.04302,-8.66e-4 0.04537,-8.66e-4 0.01034,9.1e-5 0.02055,8.66e-4 0.03082,0.0011 -0.02278,0.002 0.07823,0.01747 0.108207,0.02072 0.0041,0.0023 0.0061,0.004 0.01251,0.0071 0.02532,0.01299 0.05625,0.02456 0.083,0.03672 -0.119688,-0.05433 9.81e-4,0.0043 0.02441,0.02037 0.01373,0.0096 0.02634,0.01984 0.03916,0.02993 a 0.33375334,0.23432531 0 0 1 0.03194,0.03071 c 0.01963,0.02526 0.04059,0.05081 0.06113,0.07564 l 0.0051,0.0065 a 0.03417579,0.02399451 0 0 0 -1.72e-4,0.0023 0.9787815,0.68719394 0 0 0 0.0474,0.118126 0.13745819,0.09650819 0 0 1 0.003,0.0098 c 0.0021,0.02208 0.0041,0.04408 0.0051,0.06625 l -2.73e-4,0.0045 a 0.67790426,0.47595065 0 0 0 -0.618175,-0.0031 z"
     fill="#e6e6e6"
     id="path191"
     style="stroke-width:0.345723" />
  <polygon
     points="212.171,152.905 212.167,152.907 212.175,152.905 "
     fill="#e6e6e6"
     id="polygon193"
     transform="matrix(0.4126015,0,0,0.33672296,-16.939169,-32.651102)" />
  <path
     d="m 70.606261,18.834776 4.18e-4,1.2e-4 z"
     fill="#e6e6e6"
     id="path195"
     style="stroke-width:0.372737" />
  <path
     d="m 70.606394,18.83539 -0.0021,2.47e-4 c 0.003,2.02e-4 0.0021,-1.35e-4 0.0021,-2.47e-4 z"
     fill="#e6e6e6"
     id="path197"
     style="stroke-width:0.372737" />
  <path
     d="m 70.606719,18.834896 c 9.81e-4,3.35e-4 8.1e-5,3.35e-4 -3.25e-4,3.35e-4 z"
     fill="#e6e6e6"
     id="path199"
     style="stroke-width:0.372737" />
  <path
     d="m 89.801931,29.691641 a 2.2696828,2.007438 0 0 0 -2.749939,-0.900173 1.9975314,1.7667313 0 0 0 -1.137958,0.937146 c -0.02198,0.04581 -0.03468,0.09398 -0.05249,0.140925 -0.02472,0.0354 -0.05452,0.06733 -0.07669,0.104369 a 2.2681601,2.0060911 0 0 0 3.537133,2.396767 2.4426895,2.1604547 0 0 0 0.479922,-2.679029 z m -1.43043,0.857841 c 0.0061,0.02549 0.003,0.04893 0,0 z m -0.14539,-0.292413 c -0.0061,-0.0056 -0.0061,-0.005 0,0 z m -0.640867,0.227921 c -0.0081,-0.01168 -0.0091,-0.01362 0,0 z m 0.151892,0.113899 c 0.03621,0.01091 0.02198,0.0087 0,0 z m 0.06774,0.02859 0.01496,-0.0062 a 0.01909267,0.01688666 0 0 1 -0.01055,-0.0019 l 4.18e-4,-6.5e-5 0.01179,0.0014 0.0021,-0.001 -0.0081,-0.0014 c 0.0072,-1.83e-4 0.0072,6.72e-4 0.0081,0.0014 0.06795,-0.02752 0.02198,-0.01428 -0.01738,-0.0036 l -0.003,-6.71e-4 a 0.25940146,0.22942956 0 0 0 -0.07823,-0.02221 c -0.003,-0.0014 -0.0061,-0.0019 -0.0081,-0.0036 -0.02198,-0.01376 -0.132381,-0.09011 -0.0298,-0.01003 -0.02237,-0.01745 -0.04445,-0.03456 -0.06529,-0.05334 a 0.2980627,0.26362378 0 0 1 -0.03346,-0.0364 q -0.02025,-0.03061 -0.03906,-0.06177 l -0.0021,-0.01121 c -8.54e-4,-0.0094 -0.003,-0.01316 -0.003,-0.01875 8.44e-4,-0.0057 8.44e-4,-0.01199 0.0021,-0.01802 a 0.24606133,0.21763079 0 0 0 0.01445,-0.05645 l 0.003,-0.0049 c 0.01638,-0.02024 0.03071,-0.04386 0.04637,-0.06491 -0.08279,0.111183 0.03234,-0.01225 0.04099,-0.02792 0.0021,-0.0027 -8.45e-4,-0.0014 -4.28e-4,-0.0029 0.003,-0.0016 0.003,-6.72e-4 0.0072,-0.0027 0.02564,-0.01336 0.04984,-0.02824 0.07598,-0.04104 0.03102,-0.01523 0.153224,-0.0459 0.02655,-0.01383 0.02878,-0.0071 0.05646,-0.01647 0.08554,-0.02316 0.0061,-0.0014 0.04791,-0.0065 0.07089,-0.01013 0.02014,-3.37e-4 0.03967,-0.001 0.0419,-0.001 0.0091,1.02e-4 0.01901,0.001 0.02838,0.0014 -0.02096,0.0023 0.07212,0.0203 0.09989,0.02408 0.003,0.0027 0.0072,0.0046 0.0116,0.0082 0.02339,0.01511 0.05178,0.02856 0.07659,0.04268 -0.110433,-0.06314 8.44e-4,0.005 0.02249,0.02368 0.01261,0.01114 0.02421,0.02306 0.03611,0.03479 a 0.3079574,0.2723752 0 0 1 0.0294,0.03569 c 0.0181,0.02936 0.03742,0.05906 0.05634,0.08792 l 0.0061,0.0075 a 0.03153432,0.02789075 0 0 0 -1.73e-4,0.0027 0.90313104,0.79878092 0 0 0 0.04373,0.137305 0.12683396,0.11217925 0 0 1 0.0021,0.01142 c 8.44e-4,0.02565 0.003,0.05121 0.003,0.077 l -2.64e-4,0.0052 a 0.62550867,0.55323582 0 0 0 -0.570378,-0.0036 z"
     fill="#e6e6e6"
     id="path201"
     style="stroke-width:0.358042" />
  <polygon
     points="275.167,121.907 275.175,121.905 275.171,121.905 "
     fill="#e6e6e6"
     id="polygon203"
     transform="matrix(0.4126015,0,0,0.28968391,-16.939169,-19.280199)" />
  <path
     d="m 96.600165,16.033073 4.08e-4,1.05e-4 z"
     fill="#e6e6e6"
     id="path205"
     style="stroke-width:0.345723" />
  <path
     d="m 96.600277,16.033605 -0.0021,2.11e-4 c 0.003,1.74e-4 8.56e-4,-1.15e-4 0.0021,-2.11e-4 z"
     fill="#e6e6e6"
     id="path207"
     style="stroke-width:0.345723" />
  <path
     d="m 96.600623,16.033178 c 8.44e-4,2.89e-4 7.2e-5,2.89e-4 -3.46e-4,2.89e-4 z"
     fill="#e6e6e6"
     id="path209"
     style="stroke-width:0.345723" />
  <polygon
     points="275.177,121.902 275.179,121.903 "
     fill="#e6e6e6"
     id="polygon211"
     transform="matrix(0.4126015,0,0,0.28968391,-16.939169,-19.280199)" />
  <path
     d="m 120.94364,15.130824 4.1e-4,1.19e-4 z"
     fill="#e6e6e6"
     id="path213"
     style="stroke-width:0.372737" />
  <path
     d="m 123.08643,14.202385 a 2.4598022,2.007438 0 0 0 -2.98028,-0.900175 2.164854,1.7667313 0 0 0 -1.23329,0.937147 c -0.0237,0.04583 -0.0375,0.09398 -0.0568,0.140925 -0.0267,0.0354 -0.0589,0.06733 -0.0832,0.104367 a 2.4581519,2.0060911 0 0 0 3.83341,2.396768 2.6473008,2.1604547 0 0 0 0.52013,-2.679028 z m -1.55026,0.857839 c 0.005,0.0255 0.002,0.04894 0,0 z m -0.15757,-0.292412 c -0.006,-0.0056 -0.005,-0.005 0,0 z m -0.69455,0.227919 c -0.008,-0.01168 -0.0109,-0.01362 0,0 z m 0.16463,0.113901 c 0.0393,0.01092 0.0237,0.0087 0,0 z m 0.0735,0.0286 0.0163,-0.0062 a 0.02069198,0.01688666 0 0 1 -0.0115,-0.0019 l 4.1e-4,-6.4e-5 0.0127,0.0014 0.002,-10e-4 -0.007,-0.0014 c 0.006,-1.83e-4 0.007,6.69e-4 0.007,0.0014 0.0737,-0.02752 0.0239,-0.01427 -0.0189,-0.0036 l -0.003,-6.72e-4 a 0.28113016,0.22942956 0 0 0 -0.0849,-0.02221 c -0.003,-0.0014 -0.006,-0.0019 -0.007,-0.0036 -0.0235,-0.01377 -0.14346,-0.09013 -0.0324,-0.01003 -0.0242,-0.01745 -0.048,-0.03456 -0.0707,-0.05334 a 0.32302984,0.26362378 0 0 1 -0.0364,-0.03643 q -0.0219,-0.0306 -0.0424,-0.06177 l -0.002,-0.01121 c -0.002,-0.0094 -0.002,-0.01316 -0.005,-0.01876 8.5e-4,-0.0057 8.5e-4,-0.01198 0.003,-0.01802 a 0.26667259,0.21763079 0 0 0 0.0157,-0.05645 l 0.005,-0.0049 c 0.0177,-0.02024 0.0334,-0.04386 0.0504,-0.06491 -0.0896,0.111186 0.035,-0.01226 0.0445,-0.02792 8.5e-4,-0.0027 -8.4e-4,-0.0014 -4.2e-4,-0.0029 0.003,-0.0016 0.003,-6.72e-4 0.007,-0.0027 0.0277,-0.01336 0.0541,-0.02824 0.0823,-0.04103 0.0336,-0.01523 0.16605,-0.04589 0.0285,-0.01385 0.0311,-0.0071 0.061,-0.01647 0.0926,-0.02316 0.005,-0.0014 0.0519,-0.0065 0.0769,-0.01013 0.0219,-3.37e-4 0.0428,-10e-4 0.0453,-10e-4 0.0109,1.05e-4 0.0206,10e-4 0.0308,0.0014 -0.0228,0.0023 0.0781,0.02031 0.10824,0.02408 0.003,0.0027 0.006,0.0046 0.0122,0.0082 0.0255,0.01511 0.0563,0.02856 0.0829,0.04268 -0.11969,-0.06314 0.002,0.005 0.0244,0.02368 0.0137,0.01114 0.0263,0.02306 0.0393,0.0348 a 0.33375334,0.2723752 0 0 1 0.0318,0.0357 c 0.0195,0.02936 0.0404,0.05906 0.061,0.08792 l 0.005,0.0075 a 0.03417579,0.02789075 0 0 0 -1.8e-4,0.0027 0.9787815,0.79878092 0 0 0 0.0474,0.137306 0.13745819,0.11217925 0 0 1 0.003,0.01141 c 0.002,0.02566 0.003,0.0512 0.005,0.077 l -2.7e-4,0.0052 a 0.67790426,0.55323582 0 0 0 -0.61819,-0.0036 z"
     fill="#e6e6e6"
     id="path215"
     style="stroke-width:0.372737" />
  <polygon
     points="334.171,141.905 334.167,141.907 334.175,141.905 "
     fill="#e6e6e6"
     id="polygon217"
     transform="matrix(0.4126015,0,0,0.33672296,-16.939169,-32.651102)" />
  <polygon
     points="334.179,141.903 334.177,141.902 "
     fill="#e6e6e6"
     id="polygon219"
     transform="matrix(0.4126015,0,0,0.33672296,-16.939169,-32.651102)" />
  <path
     d="m 120.94409,15.130943 c 8.6e-4,3.36e-4 8e-5,3.36e-4 -3.1e-4,3.36e-4 z"
     fill="#e6e6e6"
     id="path221"
     style="stroke-width:0.372737" />
  <path
     d="m 120.94378,15.131438 -0.002,2.46e-4 c 0.002,2.01e-4 8.3e-4,-1.35e-4 0.002,-2.46e-4 z"
     fill="#e6e6e6"
     id="path223"
     style="stroke-width:0.372737" />
  <path
     d="m 104.12838,30.562984 -17.701854,0.870198 a 0.39029382,0.34519827 0 0 1 -0.08442,-0.685377 l 18.093124,-2.603994 z"
     fill="#3f3d56"
     id="path225"
     style="stroke-width:0.358042" />
  <path
     d="m 126.62484,65.419254 6.67069,-9.925993 4.93042,2.059587 c 0,0 -8.4957,9.385009 -8.76637,9.65501 a 2.6105375,2.3089094 0 1 1 -2.83474,-1.788604 z"
     fill="#ffb6b6"
     id="path227"
     style="stroke-width:0.358042" />
  <path
     d="m 129.39967,42.361968 10.80747,4.987073 a 5.9831828,5.291871 0 0 1 1.01279,7.771081 l -7.45057,7.559192 -3.24579,-3.890068 2.50174,-4.626521 -4.84409,-1.12976 z"
     fill="#004578"
     id="path229"
     style="stroke-width:0.358042" />
  <path
     d="m 98.601318,30.725153 -1.217285,11.496772 -5.452646,0.0079 c 0,0 3.128338,-11.69976 3.242055,-12.046303 a 2.6105375,2.3089094 0 1 1 3.427876,0.541492 z"
     fill="#ffb6b6"
     id="path231"
     style="stroke-width:0.358042" />
  <path
     d="M 109.4551,54.235775 96.905159,52.200156 c -5.284827,-0.562088 -7.453627,-3.637552 -6.500068,-6.637343 l 3.068775,-9.653946 4.817557,2.284384 -0.0185,5.128388 6.743557,-0.815427 z"
     fill="#004578"
     id="path233"
     style="stroke-width:0.358042" />
  <polygon
     points="318.503,459.03 318.501,493.992 309.437,493.992 305.125,459.03 "
     fill="#ffb6b6"
     id="polygon235"
     transform="matrix(0.38071133,0,0,0.33672296,-16.939058,-32.651102)" />
  <path
     d="m 104.43951,136.87142 -10.611706,-3.3e-4 v -0.11869 a 4.1306076,3.6533465 0 0 1 4.13038,-3.6531 h 2.43e-4 l 1.938366,-1.30062 3.616567,1.30082 0.92633,4e-5 z"
     fill="#2f2e41"
     id="path237"
     style="stroke-width:0.358042" />
  <polygon
     points="382.634,459.03 382.636,493.992 391.7,493.992 396.012,459.03 "
     fill="#ffb6b6"
     id="polygon239"
     transform="matrix(0.38071133,0,0,0.33672296,-16.939058,-32.651102)" />
  <path
     d="m 128.6132,136.87142 10.61175,-3.3e-4 v -0.11869 a 4.1306036,3.6533431 0 0 0 -4.13038,-3.65311 h -2.5e-4 l -1.93838,-1.30065 -3.61657,1.30085 -0.92633,2e-5 z"
     fill="#2f2e41"
     id="path241"
     style="stroke-width:0.358042" />
  <path
     d="m 99.073673,113.26373 c 0.05085,-0.67176 0.456193,-4.38671 0.456193,-4.38671 l 0.970604,-7.8785 1.71067,-20.88412 1.52482,-5.489381 7.54793,2.600652 6.12449,-2.596824 7.27952,2.058138 5.66832,1.880031 c 0,0 0.0109,0.804816 0.0534,1.777025 0.0582,1.27268 0.16014,2.832908 0.40278,3.238542 0.40525,0.71681 0.30331,4.564848 0.30331,4.564848 0,0 0.40281,7.829144 0.90995,8.687581 0.50715,0.858462 0.60905,2.646192 0.45618,3.004605 -0.15286,0.358393 0.50716,9.760653 0.50716,9.760653 0,0 1.69395,16.6385 0.63115,19.14736 -1.06282,2.50884 -5.07896,0.86543 -5.07896,0.86543 0,0 0.19413,-0.66961 -0.97059,-0.98509 -1.16471,-0.31549 -4.7123,-23.90805 -4.7123,-23.90805 0,0 -0.65999,-4.837404 -1.26663,-6.223804 -0.60661,-1.386392 -1.16472,-5.281671 -1.16472,-5.281671 0,0 -3.7465,-6.447001 -3.79504,-7.88063 0,0 -0.49017,-1.341345 -0.95363,0.1352 -0.46346,1.476553 -1.82957,5.013389 -1.82957,5.013389 l -1.33216,4.343795 -1.56754,6.489911 -1.01427,5.4641 c 0,0 -1.519,7.2518 -1.76165,7.56515 -0.24265,0.31335 0,6.93849 0,6.93849 0,0 -1.17441,5.64221 -2.83414,6.62729 -1.65976,0.9851 -6.057044,0.0156 -6.057044,0.0156 0,0 -0.25917,-13.99134 -0.208202,-14.66307 z"
     fill="#2f2e41"
     id="path243"
     style="stroke-width:0.358042" />
  <path
     d="m 104.71612,56.961761 -0.96444,11.050593 -1.44902,1.326344 a 1.3973894,1.2359315 0 0 0 0.0731,1.779943 v 0 l -0.79832,1.21077 -0.28263,3.815138 a 2.3445118,2.0736207 0 0 0 2.16964,2.555649 l 24.98685,1.038267 a 2.3445078,2.0736174 0 0 0 2.43412,-2.344361 L 128.76076,63.247075 V 62.18926 l -0.95121,-2.042877 0.48888,-6.843601 1.13717,-10.862263 -6.61008,-1.510118 -3.58397,-2.180932 -6.22641,0.08769 -3.77807,2.744348 -5.03742,0.697755 -3.8096,0.669767 -0.485314,0.932817 0.970594,-0.186572 3.51801,12.135918 z"
     fill="#004578"
     id="path245"
     style="stroke-width:0.358042" />
  <ellipse
     cx="115.98919"
     cy="30.781408"
     fill="#ffb6b6"
     id="circle247"
     rx="7.3347654"
     ry="6.4872875"
     style="stroke-width:0.358042" />
  <path
     d="m 114.2208,36.850198 5.29939,-0.239074 c 0.67903,-0.03064 1.42014,-0.08367 1.91402,-0.496955 a 2.8996686,2.5646335 0 0 0 0.60072,-0.882612 c 0.48993,-1.006511 0.97987,-2.013056 1.45729,-3.024275 0.66035,-1.398727 1.3089,-2.875587 1.14035,-4.384015 a 3.1543114,2.7898541 0 0 0 -0.91689,-1.828713 1.751055,1.5487338 0 0 0 -2.12823,-0.190732 3.5986242,3.18283 0 0 0 -1.78628,-2.293929 5.51506,4.877836 0 0 0 -3.14554,-0.589844 7.5916805,6.7145182 0 0 0 -4.32344,1.507122 9.3844806,8.3001738 0 0 1 -1.10296,0.773031 1.7314369,1.5313823 0 0 1 -1.34613,0.220291 0.97421364,0.86165049 0 0 1 -0.71515,-0.939173 1.8744055,1.6578319 0 0 0 -0.47947,2.188623 1.729663,1.5298132 0 0 1 -1.69044,-0.17688 2.0666763,1.827887 0 1 0 2.16731,3.093916 c 0.32163,0.39844 0.20187,0.939902 0.15995,1.428066 -0.0419,0.488163 0.10608,1.094847 0.63821,1.22977 0.71933,0.182405 1.30199,-0.674254 2.05024,-0.665128 a 1.1252113,0.99520154 0 0 1 0.89233,0.508572 3.3214396,2.9376722 0 0 1 0.35716,0.922322 l 0.95765,3.813054"
     fill="#2f2e41"
     id="path249"
     style="stroke-width:0.358042" />
  <path
     d="m 196.27575,89.802707 c 0,-1.132258 -0.13445,-2.051188 -0.29944,-2.053276 h -44.98868 c -0.16579,0.0017 -0.29944,0.921018 -0.30018,2.053276 v 46.609423 a 0.14953755,0.42303901 0 0 1 -0.13506,0.42113 q -0.18113,0.0493 -0.36225,0.0916 c -0.005,0 -0.005,0.002 -0.008,0.002 -0.0657,0.0168 -0.1314,0.0296 -0.19713,0.0443 h -3.9e-4 q -0.0506,-0.2652 -0.10029,-0.53502 a 0.1501882,0.4248797 0 0 1 -0.017,-0.19626 V 87.138356 c 0,-0.312657 0.005,-0.627402 0.0118,-0.937928 a 4.2475288,12.016181 0 0 1 0.056,-1.271693 c 0.12618,-1.96245 0.41143,-3.291176 0.73551,-3.295402 h 45.62413 a 0.34963866,0.98912145 0 0 1 0.13739,0.08237 0.53563595,1.5153043 0 0 1 0.16951,0.335877 1.0506426,2.9722489 0 0 1 0.16652,0.644308 2.9974022,8.4795971 0 0 1 0.31437,3.365081 c 0,0.01273 4e-4,0.02538 4e-4,0.03794 0.009,0.342235 0.0158,0.690792 0.0149,1.039341 l 0.009,4.526939 0.006,2.699683 0.0203,8.470908 0.007,3.00811 0.0328,30.88382 v 0 a 0.14934302,0.42248869 0 0 1 -0.14933,0.42249 h -0.60035 a 0.14934302,0.42248869 0 0 1 -0.14874,-0.42249 z"
     fill="#e6e6e6"
     id="path251"
     style="stroke-width:0.225645" />
  <path
     d="m 184.73155,60.451314 h -4.94414 a 0.26380376,0.73172673 0 0 0 -0.26339,0.732496 v 21.663757 h 5.47162 V 61.18381 a 0.26394058,0.73210622 0 0 0 -0.26409,-0.732496 z m -2.45544,12.3091 a 0.58655966,1.6269725 0 0 1 -0.5838,-1.619376 v -2.498719 a 0.58382092,1.6193755 0 0 1 1.16762,0 v 2.498719 a 0.58655156,1.6269497 0 0 1 -0.58382,1.619376 z"
     fill="#cccccc"
     id="path253"
     style="stroke-width:0.22788" />
  <path
     d="m 179.50706,82.154618 v 2.090132 a 0.14761381,0.40944436 0 0 0 0.14731,0.408597 h 5.21092 a 0.14805439,0.41066645 0 0 0 0.14731,-0.408597 v -2.090132 z"
     fill="#3f3d56"
     id="path255"
     style="stroke-width:0.22788" />
  <path
     d="m 197.21826,49.538377 h -30.05903 a 0.97578258,1.0990522 0 0 0 -0.97423,1.097295 v 22.846411 a 0.97515986,1.0983509 0 0 0 0.97423,1.097283 h 30.05903 a 0.97515782,1.0983485 0 0 0 0.97422,-1.097283 V 50.635672 a 0.97578059,1.09905 0 0 0 -0.97422,-1.097295 z"
     fill="#e6e6e6"
     id="path257"
     style="stroke-width:0.206535" />
  <path
     d="m 196.96736,50.330938 h -29.55697 a 0.52214728,0.58810964 0 0 0 -0.52102,0.588053 v 22.280133 a 0.52191182,0.58784437 0 0 0 0.52102,0.586833 h 29.55697 a 0.52190987,0.58784222 0 0 0 0.52101,-0.586833 V 50.918991 a 0.52214728,0.58810964 0 0 0 -0.52101,-0.588053 z"
     fill="#ffffff"
     id="path259"
     style="stroke-width:0.206535" />
  <path
     d="m 188.69435,85.380663 h -12.36372 a 0.22743905,0.63085999 0 0 1 -0.22256,-0.7608 l 0.19185,-2.52731 a 0.22842012,0.6335812 0 0 1 0.22251,-0.50088 h 11.9801 a 0.22842286,0.63358882 0 0 1 0.22252,0.50088 l 0.19185,2.52731 a 0.22743769,0.63085619 0 0 1 -0.22256,0.7608 z"
     fill="#cccccc"
     id="path261"
     style="stroke-width:0.22788" />
  <rect
     x="176.61024"
     y="82.04673"
     width="0.38079008"
     height="0.63372922"
     rx="0.066797912"
     fill="#e6e6e6"
     id="rect263"
     style="stroke-width:0.22788" />
  <rect
     x="177.37184"
     y="82.04673"
     width="0.38079008"
     height="0.63372922"
     rx="0.066797912"
     fill="#e6e6e6"
     id="rect265"
     style="stroke-width:0.22788" />
  <rect
     x="178.13338"
     y="82.04673"
     width="0.38079008"
     height="0.63372922"
     rx="0.066797912"
     fill="#e6e6e6"
     id="rect267"
     style="stroke-width:0.22788" />
  <rect
     x="178.89497"
     y="82.04673"
     width="0.38079008"
     height="0.63372922"
     rx="0.066797912"
     fill="#e6e6e6"
     id="rect269"
     style="stroke-width:0.22788" />
  <rect
     x="179.65657"
     y="82.04673"
     width="0.38079008"
     height="0.63372922"
     rx="0.066797912"
     fill="#e6e6e6"
     id="rect271"
     style="stroke-width:0.22788" />
  <rect
     x="180.41814"
     y="82.04673"
     width="0.38079008"
     height="0.63372922"
     rx="0.066797912"
     fill="#e6e6e6"
     id="rect273"
     style="stroke-width:0.22788" />
  <rect
     x="181.17972"
     y="82.04673"
     width="0.38079008"
     height="0.63372922"
     rx="0.066797912"
     fill="#e6e6e6"
     id="rect275"
     style="stroke-width:0.22788" />
  <rect
     x="181.94131"
     y="82.04673"
     width="0.38079008"
     height="0.63372922"
     rx="0.066797912"
     fill="#e6e6e6"
     id="rect277"
     style="stroke-width:0.22788" />
  <rect
     x="182.70288"
     y="82.04673"
     width="0.38079008"
     height="0.63372922"
     rx="0.066797912"
     fill="#e6e6e6"
     id="rect279"
     style="stroke-width:0.22788" />
  <rect
     x="183.46448"
     y="82.04673"
     width="0.38079008"
     height="0.63372922"
     rx="0.066797912"
     fill="#e6e6e6"
     id="rect281"
     style="stroke-width:0.22788" />
  <rect
     x="184.22603"
     y="82.04673"
     width="0.38079008"
     height="0.63372922"
     rx="0.066797912"
     fill="#e6e6e6"
     id="rect283"
     style="stroke-width:0.22788" />
  <rect
     x="184.98764"
     y="82.04673"
     width="0.38079008"
     height="0.63372922"
     rx="0.066797912"
     fill="#e6e6e6"
     id="rect285"
     style="stroke-width:0.22788" />
  <rect
     x="185.74921"
     y="82.04673"
     width="0.38079008"
     height="0.63372922"
     rx="0.066797912"
     fill="#e6e6e6"
     id="rect287"
     style="stroke-width:0.22788" />
  <rect
     x="186.51079"
     y="82.04673"
     width="0.38079008"
     height="0.63372922"
     rx="0.066797912"
     fill="#e6e6e6"
     id="rect289"
     style="stroke-width:0.22788" />
  <rect
     x="187.27238"
     y="82.04673"
     width="0.38079008"
     height="0.63372922"
     rx="0.066797912"
     fill="#e6e6e6"
     id="rect291"
     style="stroke-width:0.22788" />
  <rect
     x="188.03397"
     y="82.04673"
     width="0.38079008"
     height="0.63372922"
     rx="0.066797912"
     fill="#e6e6e6"
     id="rect293"
     style="stroke-width:0.22788" />
  <rect
     x="176.60124"
     y="83.102982"
     width="0.38079008"
     height="0.63372922"
     rx="0.066797912"
     fill="#e6e6e6"
     id="rect295"
     style="stroke-width:0.22788" />
  <rect
     x="177.36282"
     y="83.102982"
     width="0.38079008"
     height="0.63372922"
     rx="0.066797912"
     fill="#e6e6e6"
     id="rect297"
     style="stroke-width:0.22788" />
  <rect
     x="178.1244"
     y="83.102982"
     width="0.38079008"
     height="0.63372922"
     rx="0.066797912"
     fill="#e6e6e6"
     id="rect299"
     style="stroke-width:0.22788" />
  <rect
     x="178.886"
     y="83.102982"
     width="0.38079008"
     height="0.63372922"
     rx="0.066797912"
     fill="#e6e6e6"
     id="rect301"
     style="stroke-width:0.22788" />
  <rect
     x="179.64757"
     y="83.102982"
     width="0.38079008"
     height="0.63372922"
     rx="0.066797912"
     fill="#e6e6e6"
     id="rect303"
     style="stroke-width:0.22788" />
  <rect
     x="180.40916"
     y="83.102982"
     width="0.38079008"
     height="0.63372922"
     rx="0.066797912"
     fill="#e6e6e6"
     id="rect305"
     style="stroke-width:0.22788" />
  <rect
     x="181.17073"
     y="83.102982"
     width="0.38079008"
     height="0.63372922"
     rx="0.066797912"
     fill="#e6e6e6"
     id="rect307"
     style="stroke-width:0.22788" />
  <rect
     x="181.93231"
     y="83.102982"
     width="0.38079008"
     height="0.63372922"
     rx="0.066797912"
     fill="#e6e6e6"
     id="rect309"
     style="stroke-width:0.22788" />
  <rect
     x="182.69389"
     y="83.102982"
     width="0.38079008"
     height="0.63372922"
     rx="0.066797912"
     fill="#e6e6e6"
     id="rect311"
     style="stroke-width:0.22788" />
  <rect
     x="183.45544"
     y="83.102982"
     width="0.38079008"
     height="0.63372922"
     rx="0.066797912"
     fill="#e6e6e6"
     id="rect313"
     style="stroke-width:0.22788" />
  <rect
     x="184.21703"
     y="83.102982"
     width="0.38079008"
     height="0.63372922"
     rx="0.066797912"
     fill="#e6e6e6"
     id="rect315"
     style="stroke-width:0.22788" />
  <rect
     x="184.97861"
     y="83.102982"
     width="0.38079008"
     height="0.63372922"
     rx="0.066797912"
     fill="#e6e6e6"
     id="rect317"
     style="stroke-width:0.22788" />
  <rect
     x="185.7402"
     y="83.102982"
     width="0.38079008"
     height="0.63372922"
     rx="0.066797912"
     fill="#e6e6e6"
     id="rect319"
     style="stroke-width:0.22788" />
  <rect
     x="186.5018"
     y="83.102982"
     width="0.38079008"
     height="0.63372922"
     rx="0.066797912"
     fill="#e6e6e6"
     id="rect321"
     style="stroke-width:0.22788" />
  <rect
     x="187.26335"
     y="83.102982"
     width="0.38079008"
     height="0.63372922"
     rx="0.066797912"
     fill="#e6e6e6"
     id="rect323"
     style="stroke-width:0.22788" />
  <rect
     x="188.02493"
     y="83.102982"
     width="0.38079008"
     height="0.63372922"
     rx="0.066797912"
     fill="#e6e6e6"
     id="rect325"
     style="stroke-width:0.22788" />
  <rect
     x="180.25682"
     y="84.37043"
     width="3.0463207"
     height="0.63372922"
     rx="0.066797912"
     fill="#e6e6e6"
     id="rect327"
     style="stroke-width:0.22788" />
  <path
     d="m 195.48158,53.400634 h -27.65636 a 0.11000851,0.12390578 0 0 1 0,-0.247748 h 27.65636 a 0.11000851,0.12390578 0 0 1 0,0.247748 z"
     fill="#cacaca"
     id="path329"
     style="stroke-width:0.206535" />
  <ellipse
     cx="169.70784"
     cy="51.778267"
     rx="0.64454466"
     ry="0.74214786"
     fill="#cccccc"
     id="ellipse331"
     style="stroke-width:0.206535" />
  <ellipse
     cx="171.93446"
     cy="51.778267"
     rx="0.64454466"
     ry="0.74214786"
     fill="#cccccc"
     id="ellipse333"
     style="stroke-width:0.206535" />
  <ellipse
     cx="174.16106"
     cy="51.778267"
     rx="0.64454466"
     ry="0.74214786"
     fill="#cccccc"
     id="ellipse335"
     style="stroke-width:0.206535" />
  <path
     d="m 194.14097,51.220064 h -1.58167 a 0.11978371,0.13491587 0 0 0 0,0.269782 h 1.58166 a 0.11978371,0.13491587 0 0 0 0,-0.269782 z"
     fill="#cccccc"
     id="path337"
     style="stroke-width:0.206535" />
  <path
     d="m 194.14097,51.726398 h -1.58167 a 0.11978566,0.13491806 0 0 0 0,0.269773 h 1.58166 a 0.11978566,0.13491806 0 0 0 0,-0.269773 z"
     fill="#cccccc"
     id="path339"
     style="stroke-width:0.206535" />
  <path
     d="m 194.14097,52.232061 h -1.58167 a 0.11978371,0.13491587 0 0 0 0,0.269783 h 1.58166 a 0.11978371,0.13491587 0 0 0 0,-0.269783 z"
     fill="#cccccc"
     id="path341"
     style="stroke-width:0.206535" />
  <rect
     x="179.96057"
     y="60.149578"
     width="4.3957901"
     height="1.0587357"
     rx="0.46999404"
     fill="#004578"
     id="rect343"
     style="stroke-width:0.206535" />
  <rect
     x="177.72809"
     y="62.26704"
     width="8.860733"
     height="1.0587357"
     rx="0.46999404"
     fill="#e6e6e6"
     id="rect345"
     style="stroke-width:0.206535" />
  <rect
     x="177.72809"
     y="64.384521"
     width="8.860733"
     height="1.0587357"
     rx="0.46999404"
     fill="#e6e6e6"
     id="rect347"
     style="stroke-width:0.206535" />
  <polygon
     points="581.774,418.9 581.774,417.469 582.34,418.9 "
     fill="#2f2e41"
     id="polygon359"
     transform="matrix(0.13682767,0,0,0.37952632,75.798504,-54.27946)" />
  <path
     d="M 21.179161,82.143783 A 2.7422199,2.237918 0 0 0 20.797815,78.72632 l 4.366147,-17.698254 -4.821593,1.263386 -3.494901,17.118627 a 2.7571066,2.2500671 0 0 0 4.331676,2.733713 z"
     fill="#9e616a"
     id="path397"
     style="stroke-width:0.372737" />
  <path
     d="m 27.626025,44.698944 -2.991576,-1.842896 c 0,0 -2.639035,-0.152522 -3.106434,3.731437 -0.467398,3.883953 -1.427119,11.453158 -1.427119,11.453158 l -4.577706,17.302997 6.336784,1.135098 4.903051,-18.673019 2.941348,-5.545172 z"
     fill="#cccccc"
     id="path399"
     style="stroke-width:0.372737" />
  <polygon
     points="140.319,285.023 96.057,285.023 96.057,313.623 136.914,312.942 "
     fill="#9e616a"
     id="polygon401"
     transform="matrix(0.4126015,0,0,0.33672296,-16.939169,-32.651102)" />
  <polygon
     points="146.747,449.046 132.826,449.047 132.828,485.427 142.26,485.427 "
     fill="#9e616a"
     id="polygon403"
     transform="matrix(0.4126015,0,0,0.33672296,-16.939169,-32.651102)" />
  <polygon
     points="87.402,449.823 75.135,452.637 73.738,486.301 83.17,486.234 "
     fill="#9e616a"
     id="polygon405"
     transform="matrix(0.4126015,0,0,0.33672296,-16.939169,-32.651102)" />
  <polygon
     points="103.238,260.98 101.101,266.536 101.528,272.093 143.355,286.58 141.28,262.262 136.578,256.705 "
     fill="#ffb6b6"
     id="polygon407"
     transform="matrix(0.4126015,0,0,0.33672296,-16.939169,-32.651102)" />
  <ellipse
     cx="33.060795"
     cy="33.358879"
     fill="#9e616a"
     id="circle409"
     rx="6.1638241"
     ry="5.0302806"
     style="stroke-width:0.372737" />
  <path
     d="m 36.900631,129.23667 6.151941,-0.29968 v 2.15106 l 5.848831,3.29654 a 1.6463955,1.3436189 0 0 1 -0.935535,2.44929 h -7.324125 l -1.262417,-2.1277 -0.492922,2.1277 h -2.761483 z"
     fill="#2f2e41"
     id="path411"
     style="stroke-width:0.372737" />
  <path
     d="m 12.153973,129.53825 6.149227,-0.3348 0.01844,2.15098 5.876959,3.26305 a 1.6463955,1.3436189 0 0 1 -0.914506,2.45458 l -7.323939,0.0419 -1.280645,-2.12043 -0.474649,2.13047 -2.761423,0.0157 z"
     fill="#2f2e41"
     id="path413"
     style="stroke-width:0.372737" />
  <path
     d="m 12.274271,126.52871 2.833789,-20.15716 3.371535,-21.252426 c -2.469044,-4.080541 3.090572,-16.751899 3.090572,-16.751899 l 0.784767,0.03352 17.762497,2.982053 -0.0041,-0.01524 c 3.633009,8.818043 4.836664,13.174344 4.637576,22.564691 L 44.03518,127.68854 h 0.224525 a 1.4048095,1.250145 0 0 1 0,2.50029 H 37.23567 a 1.4048097,1.250145 0 1 1 0,-2.50029 h 0.18106 l -6.447205,-40.193687 -5.46623,16.876477 -6.181146,22.00249 c 2.247688,-0.50005 1.89869,0.65856 1.89869,1.31475 a 1.4048091,1.2501444 0 0 1 -1.40481,1.25011 h -7.024151 a 1.4033441,1.248841 0 0 1 -0.518058,-2.40999 z"
     fill="#2f2e41"
     id="path415"
     style="stroke-width:0.389228" />
  <path
     d="m 20.187108,68.969172 0.56194,-4.585829 a 1.1201224,0.91412868 0 0 1 1.012896,-0.686687 c 0.234132,-2.18453 1.21919,-11.608754 1.278045,-12.019759 l 0.0024,-0.01741 0.447938,-7.809161 a 1.4150747,1.1548384 0 0 1 1.321225,-1.098387 l 2.365911,-0.126207 a 0.12519569,0.10217184 0 0 0 0.12098,-0.102059 1.9895933,1.6237017 0 0 1 1.989585,-1.623721 h 7.004693 a 1.8627678,1.5201997 0 0 1 1.84749,1.330775 0.1236608,0.10091923 0 0 0 0.125863,0.09081 h 8.15e-4 a 3.3278745,2.7158693 0 0 1 3.347779,2.252641 c 0.957627,4.54708 2.876786,14.867243 1.927917,20.604655 -0.330309,1.997285 0.381747,0.415387 0.506673,2.086512 a 1.5072952,1.2300996 0 0 1 -0.375257,0.891834 1.0866645,0.88682386 0 0 1 0.65411,1.127234 l 0.123116,-0.02494 A 1.1238316,0.91715582 0 0 1 43.086703,69.92463 L 24.760605,71.951137 C 24.158743,71.82731 20.035318,69.460282 20.187034,68.969111 Z"
     fill="#cccccc"
     id="path417"
     style="stroke-width:0.372737" />
  <path
     d="m 69.156557,50.324153 a 2.7422199,2.237918 0 0 1 -3.861918,1.357455 l -7.084709,5.276573 -0.940672,-4.060791 6.876417,-4.375131 a 2.7571066,2.2500671 0 0 1 5.010902,1.801894 z"
     fill="#9e616a"
     id="path419"
     style="stroke-width:0.372737" />
  <path
     d="m 44.49772,46.290899 c 0,0 -2.470395,-4.556079 -5.590515,-3.650448 -3.12013,0.905631 -1.509145,5.326235 -1.509145,5.326235 l 11.722428,14.415613 c 0,0 16.908046,-8.85163 14.852019,-8.914143 -2.056029,-0.06246 -2.67104,-3.114315 -2.67104,-3.114315 l -8.936198,3.643946 -0.302359,-1.297199 -0.48462,0.395495 -1.250556,-0.803279 z"
     fill="#cccccc"
     id="path421"
     style="stroke-width:0.372737" />
  <path
     d="m 18.052693,25.689141 -0.965525,4.932991 c -0.07274,0.377132 -0.148778,0.760998 -0.231444,1.141491 a 4.7243633,4.8110033 0 0 0 -2.427032,0.138057 22.653779,23.069226 0 0 1 1.666518,2.83857 c -0.608414,1.909224 -1.501189,3.673645 -2.995772,4.949838 a 7.5124538,7.6502243 0 0 1 -7.2579624,1.299745 l 0.042974,-0.195297 C 4.2774501,37.619239 5.1503912,33.615601 7.1475721,30.682743 A 19.305394,19.659436 0 0 1 10.735221,26.82053 c 1.349076,-1.144858 2.807298,-2.171863 4.252276,-3.1854 a 1.9806706,2.0169941 0 0 1 3.065192,2.054011 z"
     fill="#e4e4e4"
     id="path427"
     style="stroke-width:0.333676" />
  <path
     id="a7585634-9c2c-4d81-a429-c019b32aabf2-811"
     data-name="a4b268fa-75d0-4ac1-9d87-14bdca948464-2189"
     d="m 194.20983,81.476056 c -0.16814,-3.397881 -0.34109,-6.839059 -0.22316,-10.273394 0.10477,-3.049877 0.44018,-6.028777 1.12322,-8.471399 a 5.0806484,14.09247 0 0 1 1.30358,-3.27646 c 0.13039,-0.227716 0.25024,0.344989 0.12053,0.571944 a 4.8299991,13.39723 0 0 0 -1.91053,6.393878 c -0.41594,2.934503 -0.48273,6.133533 -0.41047,9.250569 0.0435,1.885124 0.13517,3.757316 0.2278,5.628383 a 0.12314491,0.34157367 0 0 1 -0.0835,0.4076 0.12013471,0.33322409 0 0 1 -0.14696,-0.231502 z"
     fill="#f2f2f2"
     style="stroke-width:0.22788" />
  <path
     d="m 197.54559,137.36824 -195.0004821,0.1254 a 0.24866132,0.48573341 0 0 1 0,-0.97145 L 197.54559,136.39677 a 0.24866212,0.485735 0 0 1 0,0.97147 z"
     fill="#cacaca"
     id="path430"
     style="stroke-width:0.291878" />
  <path
     d="M 33.585977,26.578608 C 30.88158,24.836253 28.69498,25.133681 27.008161,26.21616 26.724587,25.958716 25.5178,26.667032 25.109194,26.565222 l -1.477876,2.264199 c -0.7605,1.095199 -1.072504,2.213159 -0.949569,2.842386 -1.398883,3.201493 1.9184,5.363428 5.8414,6.504991 a 7.485697,6.1090569 0 0 0 4.854292,0.05738 l 0.04821,-0.545535 0.297071,0.447105 c 0,0 3.586375,6.026453 4.433834,6.297082 -0.51421,-1.088616 -1.870479,-6.262552 -2.249052,-7.34105 -0.519093,-1.467388 -0.164494,-3.79866 0.14059,-5.227998 a 9.925913,8.1005101 0 0 0 0.02949,-2.66588 l -0.0072,-0.03863 0.839088,1.382361 1.882706,-0.966148 c -0.719583,-1.710349 -0.733947,-3.7564 -5.205851,-2.996871 z"
     fill="#2f2e41"
     id="path434"
     style="stroke-width:0.372737" />
</svg>
