<?xml version="1.0" encoding="UTF-8" standalone="no"?>
<svg
   data-name="Layer 1"
   width="707.47266"
   height="424.047"
   viewBox="0 0 707.47267 424.047"
   version="1.1"
   id="svg436"
   xmlns="http://www.w3.org/2000/svg"
   xmlns:svg="http://www.w3.org/2000/svg">
  <defs
     id="defs440" />
  <path
     d="m 280.53856,57.012537 -2.92,14.65 c -0.22,1.12 -0.45,2.26 -0.7,3.39 a 14.28772,14.28772 0 0 0 -7.34,0.41 68.511,68.511 0 0 1 5.04,8.43 c -1.84,5.67 -4.54,10.91 -9.06,14.7 a 22.71964,22.71964 0 0 1 -21.95,3.860003 l 0.13,-0.58 c -4.86,-9.430003 -2.22,-21.320003 3.82,-30.030003 a 58.3846,58.3846 0 0 1 10.85,-11.47 c 4.07995,-3.4 8.49,-6.45 12.86,-9.46 a 5.99007,5.99007 0 0 1 9.27,6.1 z"
     fill="#e4e4e4"
     id="path132" />
  <path
     id="b311a411-101b-4365-a37b-2cdfec47a637-810"
     data-name="a4b268fa-75d0-4ac1-9d87-14bdca948464-2189"
     d="m 23.401529,421.4484 c -1.229,-8.953 -2.493,-18.02 -1.631,-27.069 0.766,-8.036 3.217,-15.885 8.209,-22.321 a 37.13173,37.13173 0 0 1 9.527,-8.633 c 0.953,-0.6 1.829,0.909 0.881,1.507 a 35.29987,35.29987 0 0 0 -13.963,16.847 c -3.04,7.732 -3.528,16.161 -3,24.374 0.317,4.967 0.988,9.9 1.665,14.83 a 0.9,0.9 0 0 1 -0.61,1.074 0.878,0.878 0 0 1 -1.074,-0.61 z"
     fill="#f2f2f2" />
  <path
     d="M 330.33899,203.00225 H 65.379151 A 12.651237,9.823882 0 0 1 52.7418,193.18942 V 9.8130951 A 12.651547,9.8241227 0 0 1 65.379151,-1.8857494e-6 H 330.33899 A 12.65154,9.824117 0 0 1 342.97634,9.8130951 V 193.18942 a 12.651229,9.8238772 0 0 1 -12.63735,9.81283 z M 65.379151,1.1184681 A 11.209743,8.7045404 0 0 0 54.182169,9.8130951 V 193.18942 a 11.209679,8.7044893 0 0 0 11.196982,8.69436 H 330.33899 a 11.209679,8.7044893 0 0 0 11.19698,-8.69436 V 9.8130951 a 11.209743,8.7045404 0 0 0 -11.19698,-8.694627 z"
     fill="#e6e6e6"
     id="path149"
     style="stroke-width:0.634628" />
  <path
     d="m 60.366593,141.85708 104.523997,-0.39354 103.99071,-0.39154 58.66142,-0.22087 a 1.2125603,1.5009 0 0 0 0,-3 l -104.52399,0.39355 -103.99071,0.39153 -58.661427,0.22087 a 1.2125603,1.5009 0 0 0 0,3 z"
     fill="#e6e6e6"
     id="path151"
     style="stroke-width:0.898827" />
  <path
     d="m 87.162669,139.42494 0.8,-47.237003 c 0.0327,-1.93121 -2.96728,-1.93159 -3,0 l -0.8,47.237003 c -0.0327,1.93121 2.96728,1.93158 3,0 z"
     fill="#e6e6e6"
     id="path153" />
  <path
     d="m 148.99798,139.93608 1.94957,-59.374483 0.557,-16.96414 c 0.0634,-1.931 -2.93667,-1.92873 -3,0 l -1.94957,59.374483 -0.557,16.96414 c -0.0634,1.931 2.93667,1.92873 3,0 z"
     fill="#e6e6e6"
     id="path155" />
  <path
     d="m 210.66641,35.452407 c -1.17594,21.03 -3.35188,83.059953 -4.52782,104.089923 -0.10787,1.929 2.89248,1.92287 3,0 1.17594,-21.03 3.35188,-83.059943 4.52782,-104.089923 0.10787,-1.929 -2.89247,-1.92287 -3,0 z"
     fill="#e6e6e6"
     id="path157" />
  <path
     d="m 251.01205,118.44022 -0.33932,20.21318 c -0.0324,1.93123 2.73571,1.9314 2.76813,0 0.40075,-23.87319 1.42848,-23.095 1.54159,-29.83275 0.0324,-1.93123 -2.73571,-1.9314 -2.76813,0 0,0 -0.80152,-14.253573 -1.20227,9.61957 z"
     fill="#e6e6e6"
     id="path159"
     style="stroke-width:0.960578" />
  <path
     d="m 306.47793,65.339767 0.31305,56.708643 0.0896,16.23815 a 1.3848947,1.5009 0 0 0 2.76813,0 l -0.31305,-56.708643 -0.0897,-16.23815 a 1.3848947,1.5009 0 0 0 -2.76812,0 z"
     fill="#e6e6e6"
     id="path161"
     style="stroke-width:0.960578" />
  <path
     d="m 60.561472,140.16937 c -2.006173,-6.82393 2.516178,-13.38719 7.162985,-16.33636 5.567161,-3.53328 11.97149,-4.33414 17.597668,-7.7403 8.387727,-5.078 14.497078,-14.19152 19.933275,-23.313853 5.59527,-9.38927 10.71485,-19.46629 17.82459,-27.26763 a 35.70403,44.19424 0 0 1 12.98173,-9.29914 c 6.061,-2.34128 12.48899,-2.50189 18.7518,-1.55834 12.94127,1.94973 24.93791,8.56585 37.42464,12.77089 11.7726,3.96456 24.74371,6.194 36.299,0.0289 5.87085,-3.13229 10.67171,-8.38563 15.82821,-12.93164 a 52.751752,65.29581 0 0 1 16.48762,-9.84464 c 11.59961,-3.99257 24.26731,-2.92647 35.06655,3.823 a 47.053704,58.2428 0 0 1 22.19252,28.99246 c 5.11972,15.13848 4.45316,32.055683 2.78075,47.989903 -0.4323,4.11874 -0.94677,8.22371 -1.46685,12.32661 -0.2394,1.88872 2.09567,2.70228 2.3371,0.79752 2.08274,-16.43077 4.15879,-33.38193 1.56753,-49.916103 a 48.841594,60.45584 0 0 0 -18.04098,-36.37656 50.124295,62.04356 0 0 0 -33.05181,-12.91137 54.191991,67.07853 0 0 0 -18.15662,4.99833 c -5.99401,3.06889 -11.06969,7.61753 -16.22533,12.40377 -5.30081,4.921 -10.76511,8.99143 -17.34624,10.59636 -6.38354,1.55675 -13.02428,0.97319 -19.37985,-0.49665 -13.11394,-3.03284 -25.33747,-9.98514 -38.34012,-13.54734 -12.04693,-3.30038 -25.04665,-3.63015 -35.83427,4.79389 -8.29817,6.48 -14.16175,16.53993 -19.78905,26.25395 -5.57797,9.62885 -11.226469,19.925293 -19.382938,26.502863 -4.975569,4.01242 -10.56868,5.49293 -16.13463,7.74936 -5.580322,2.26225 -10.937496,6.07871 -13.212826,13.15546 a 10.335895,12.79371 0 0 0 -0.211538,9.15423 c 0.529167,1.79995 2.872238,1.02278 2.337084,-0.79752 z"
     fill="#e6e6e6"
     id="path163"
     style="stroke-width:0.898827" />
  <polygon
     points="86.167,166.907 86.175,166.905 86.171,166.905 "
     fill="#e6e6e6"
     id="polygon165"
     transform="translate(-0.00344067,-81.248863)" />
  <path
     d="m 91.369079,82.896647 a 5.96169,5.96169 0 0 0 -7.22314,-2.67334 5.24684,5.24684 0 0 0 -2.98908,2.78314 c -0.0574,0.13605 -0.091,0.27912 -0.13787,0.41852 -0.065,0.1051 -0.14313,0.2 -0.20136,0.30994 a 5.95769,5.95769 0 0 0 9.29083,7.11792 6.41612,6.41612 0 0 0 1.26062,-7.95618 z m -3.75726,2.54761 c 0.0123,0.0757 0.008,0.14532 0,0 z m -0.3819,-0.86841 c -0.0147,-0.0169 -0.0129,-0.0151 0,0 z m -1.68335,0.67688 c -0.0225,-0.0347 -0.0247,-0.0405 0,0 z m 0.399,0.33826 c 0.095,0.0324 0.0574,0.0256 0,0 z m 0.17816,0.0849 0.0395,-0.0181 a 0.05015,0.05015 0 0 1 -0.028,-0.006 l 0.001,-1.9e-4 0.0309,0.004 0.006,-0.003 -0.0179,-0.004 c 0.0155,-5.4e-4 0.0173,0.002 0.0183,0.004 0.17846,-0.0817 0.0576,-0.0424 -0.0458,-0.0104 l -0.007,-0.002 a 0.68136,0.68136 0 0 0 -0.20568,-0.066 c -0.007,-0.004 -0.0145,-0.006 -0.02,-0.0104 -0.0574,-0.0409 -0.34772,-0.26764 -0.0784,-0.0299 -0.0586,-0.0518 -0.11652,-0.1026 -0.17164,-0.15845 a 0.78291,0.78291 0 0 1 -0.088,-0.10815 q -0.053,-0.0909 -0.10278,-0.18342 l -0.005,-0.0333 c -0.004,-0.0276 -0.008,-0.0391 -0.0113,-0.0557 0.002,-0.0172 0.004,-0.0356 0.007,-0.0535 a 0.64632,0.64632 0 0 0 0.0381,-0.16767 l 0.0116,-0.0146 c 0.0431,-0.0601 0.0808,-0.13025 0.12194,-0.19275 -0.2174,0.3302 0.085,-0.0364 0.10761,-0.0829 0.004,-0.008 -0.003,-0.004 -0.001,-0.009 0.009,-0.005 0.006,-0.002 0.0167,-0.008 0.0674,-0.0397 0.13123,-0.0839 0.19965,-0.12183 0.0815,-0.0452 0.40246,-0.13629 0.0696,-0.0411 0.0756,-0.0216 0.14819,-0.0489 0.22461,-0.0688 0.0138,-0.004 0.12591,-0.0193 0.18628,-0.0301 0.053,-0.001 0.10443,-0.003 0.10986,-0.003 0.0249,3.1e-4 0.0498,0.003 0.0747,0.004 -0.0552,0.007 0.18957,0.0603 0.26227,0.0715 0.0105,0.008 0.0159,0.0136 0.0302,0.024 0.0615,0.0449 0.13623,0.0848 0.20111,0.12677 -0.2901,-0.1875 0.004,0.0149 0.0592,0.0703 0.0331,0.0331 0.0637,0.0685 0.0948,0.10333 a 0.8089,0.8089 0 0 1 0.0773,0.106 c 0.0476,0.0872 0.0982,0.17536 0.14813,0.26111 l 0.0139,0.022 a 0.08283,0.08283 0 0 0 -4.3e-4,0.008 2.37222,2.37222 0 0 0 0.11487,0.40777 0.33315,0.33315 0 0 1 0.006,0.0339 c 0.005,0.0762 0.011,0.1521 0.0112,0.2287 l -6.7e-4,0.0155 a 1.643,1.643 0 0 0 -1.49828,-0.0107 z"
     fill="#e6e6e6"
     id="path167" />
  <path
     d="m 86.176819,85.654277 c 0.004,0.001 1.9e-4,0.001 -7.9e-4,0.001 z"
     fill="#e6e6e6"
     id="path169" />
  <path
     d="m 86.175719,85.653917 0.001,3.6e-4 z"
     fill="#e6e6e6"
     id="path171" />
  <path
     d="m 86.176029,85.655747 -0.005,7.3e-4 c 0.006,6e-4 0.004,-4e-4 0.005,-7.3e-4 z"
     fill="#e6e6e6"
     id="path173" />
  <polygon
     points="86.179,166.903 86.177,166.902 "
     fill="#e6e6e6"
     id="polygon175"
     transform="translate(-0.00344067,-81.248863)" />
  <polygon
     points="150.167,138.907 150.175,138.905 150.171,138.905 "
     fill="#e6e6e6"
     id="polygon177"
     transform="translate(-0.00344067,-81.248863)" />
  <path
     d="m 155.36908,54.896647 a 5.96169,5.96169 0 0 0 -7.22314,-2.67334 5.24684,5.24684 0 0 0 -2.98908,2.78314 c -0.0574,0.13605 -0.091,0.27912 -0.13787,0.41852 -0.065,0.1051 -0.14313,0.2 -0.20136,0.30994 a 5.95769,5.95769 0 0 0 9.29083,7.11792 6.41612,6.41612 0 0 0 1.26062,-7.95618 z m -3.75726,2.54761 c 0.0123,0.0757 0.008,0.14532 0,0 z m -0.3819,-0.86841 c -0.0147,-0.0169 -0.0129,-0.0151 0,0 z m -1.68335,0.67688 c -0.0225,-0.0347 -0.0247,-0.0405 0,0 z m 0.399,0.33826 c 0.095,0.0324 0.0574,0.0256 0,0 z m 0.17816,0.0849 0.0395,-0.0181 a 0.05015,0.05015 0 0 1 -0.028,-0.006 l 0.001,-1.9e-4 0.0309,0.004 0.006,-0.003 -0.0179,-0.004 c 0.0155,-5.4e-4 0.0173,0.002 0.0183,0.004 0.17846,-0.0817 0.0576,-0.0424 -0.0458,-0.0104 l -0.007,-0.002 a 0.68136,0.68136 0 0 0 -0.20568,-0.066 c -0.007,-0.004 -0.0145,-0.006 -0.02,-0.0104 -0.0574,-0.0409 -0.34772,-0.26764 -0.0784,-0.0299 -0.0586,-0.0518 -0.11652,-0.1026 -0.17164,-0.15845 a 0.78291,0.78291 0 0 1 -0.088,-0.10815 q -0.053,-0.0909 -0.10278,-0.18342 l -0.005,-0.0333 c -0.004,-0.0276 -0.008,-0.0391 -0.0113,-0.0557 0.002,-0.0172 0.004,-0.0356 0.007,-0.0535 a 0.64632,0.64632 0 0 0 0.0381,-0.16767 l 0.0116,-0.0146 c 0.0431,-0.0601 0.0808,-0.13025 0.12194,-0.19275 -0.2174,0.3302 0.085,-0.0364 0.10761,-0.0829 0.004,-0.008 -0.003,-0.004 -10e-4,-0.009 0.009,-0.005 0.006,-0.002 0.0167,-0.008 0.0674,-0.0397 0.13123,-0.0839 0.19965,-0.12183 0.0815,-0.0452 0.40246,-0.13629 0.0696,-0.0411 0.0756,-0.0216 0.14819,-0.0489 0.22461,-0.0688 0.0139,-0.004 0.12591,-0.0193 0.18628,-0.0301 0.053,-0.001 0.10443,-0.003 0.10986,-0.003 0.0249,3.1e-4 0.0498,0.003 0.0747,0.004 -0.0552,0.007 0.18957,0.0603 0.26227,0.0715 0.0105,0.008 0.0159,0.0136 0.0301,0.024 0.0615,0.0449 0.13623,0.0848 0.20111,0.12677 -0.2901,-0.1875 0.004,0.0149 0.0592,0.0703 0.0331,0.0331 0.0637,0.0685 0.0949,0.10333 a 0.8089,0.8089 0 0 1 0.0773,0.106 c 0.0476,0.0872 0.0981,0.17536 0.14813,0.26111 l 0.0139,0.022 a 0.08283,0.08283 0 0 0 -4.3e-4,0.008 2.37222,2.37222 0 0 0 0.11487,0.40777 0.33315,0.33315 0 0 1 0.006,0.0339 c 0.005,0.0762 0.011,0.1521 0.0112,0.2287 l -6.7e-4,0.0155 a 1.643,1.643 0 0 0 -1.49823,-0.0107 z"
     fill="#e6e6e6"
     id="path179" />
  <path
     d="m 150.17603,57.655747 -0.005,7.3e-4 c 0.006,6e-4 0.004,-4e-4 0.005,-7.3e-4 z"
     fill="#e6e6e6"
     id="path181" />
  <polygon
     points="150.179,138.903 150.177,138.902 "
     fill="#e6e6e6"
     id="polygon183"
     transform="translate(-0.00344067,-81.248863)" />
  <path
     d="m 150.17682,57.654277 c 0.004,10e-4 1.9e-4,10e-4 -7.9e-4,10e-4 z"
     fill="#e6e6e6"
     id="path185" />
  <path
     d="m 150.17572,57.653917 10e-4,3.6e-4 z"
     fill="#e6e6e6"
     id="path187" />
  <polygon
     points="212.179,152.903 212.177,152.902 "
     fill="#e6e6e6"
     id="polygon189"
     transform="translate(-0.00344067,-81.248863)" />
  <path
     d="m 217.36908,26.896647 a 5.96169,5.96169 0 0 0 -7.22314,-2.67334 5.24684,5.24684 0 0 0 -2.98908,2.78314 c -0.0574,0.13605 -0.091,0.27912 -0.13787,0.41852 -0.065,0.1051 -0.14313,0.2 -0.20136,0.30994 a 5.95769,5.95769 0 0 0 9.29083,7.11792 6.41612,6.41612 0 0 0 1.26062,-7.95618 z m -3.75726,2.54761 c 0.0123,0.0757 0.008,0.14532 0,0 z m -0.3819,-0.86841 c -0.0147,-0.0169 -0.0129,-0.0151 0,0 z m -1.68335,0.67688 c -0.0225,-0.0347 -0.0247,-0.0405 0,0 z m 0.399,0.33826 c 0.095,0.0324 0.0574,0.0256 0,0 z m 0.17816,0.0849 0.0395,-0.0181 a 0.05015,0.05015 0 0 1 -0.028,-0.006 l 0.001,-1.9e-4 0.0309,0.004 0.006,-0.003 -0.0179,-0.004 c 0.0155,-5.4e-4 0.0173,0.002 0.0183,0.004 0.17846,-0.0817 0.0576,-0.0424 -0.0458,-0.0104 l -0.007,-0.002 a 0.68136,0.68136 0 0 0 -0.20568,-0.066 c -0.007,-0.004 -0.0145,-0.006 -0.02,-0.0104 -0.0574,-0.0409 -0.34772,-0.26764 -0.0784,-0.0299 -0.0586,-0.0518 -0.11652,-0.1026 -0.17164,-0.15845 a 0.78291,0.78291 0 0 1 -0.088,-0.10815 q -0.053,-0.0909 -0.10278,-0.18342 l -0.005,-0.0333 c -0.004,-0.0276 -0.008,-0.0391 -0.0113,-0.0557 0.002,-0.0172 0.004,-0.0356 0.007,-0.0535 a 0.64632,0.64632 0 0 0 0.0381,-0.16767 l 0.0116,-0.0146 c 0.0431,-0.0601 0.0808,-0.13025 0.12194,-0.19275 -0.2174,0.3302 0.085,-0.0364 0.10761,-0.0829 0.004,-0.008 -0.003,-0.004 -10e-4,-0.009 0.009,-0.005 0.006,-0.002 0.0167,-0.008 0.0674,-0.0397 0.13123,-0.0839 0.19965,-0.12183 0.0815,-0.0452 0.40246,-0.13629 0.0696,-0.0411 0.0756,-0.0216 0.14819,-0.0489 0.22461,-0.0688 0.0139,-0.004 0.12591,-0.0193 0.18628,-0.0301 0.053,-10e-4 0.10443,-0.003 0.10986,-0.003 0.0249,3.1e-4 0.0498,0.003 0.0747,0.004 -0.0552,0.007 0.18957,0.0603 0.26227,0.0715 0.0105,0.008 0.0159,0.0136 0.0301,0.024 0.0615,0.0449 0.13623,0.0848 0.20111,0.12677 -0.2901,-0.1875 0.004,0.0149 0.0592,0.0703 0.0331,0.0331 0.0637,0.0685 0.0949,0.10333 a 0.8089,0.8089 0 0 1 0.0773,0.106 c 0.0476,0.0872 0.0981,0.17536 0.14813,0.26111 l 0.0139,0.022 a 0.08283,0.08283 0 0 0 -4.3e-4,0.008 2.37222,2.37222 0 0 0 0.11487,0.40777 0.33315,0.33315 0 0 1 0.006,0.0339 c 0.005,0.0762 0.011,0.1521 0.0112,0.2287 l -6.7e-4,0.0155 a 1.643,1.643 0 0 0 -1.49823,-0.0107 z"
     fill="#e6e6e6"
     id="path191" />
  <polygon
     points="212.167,152.907 212.175,152.905 212.171,152.905 "
     fill="#e6e6e6"
     id="polygon193"
     transform="translate(-0.00344067,-81.248863)" />
  <path
     d="m 212.17572,71.653917 10e-4,3.6e-4 z"
     fill="#e6e6e6"
     id="path195" />
  <path
     d="m 212.17603,71.655747 -0.005,7.3e-4 c 0.006,6e-4 0.004,-4e-4 0.005,-7.3e-4 z"
     fill="#e6e6e6"
     id="path197" />
  <path
     d="m 212.17682,71.654277 c 0.004,0.001 1.9e-4,0.001 -7.9e-4,0.001 z"
     fill="#e6e6e6"
     id="path199" />
  <path
     d="m 258.69922,103.89665 a 5.500908,5.96169 0 0 0 -6.66486,-2.67334 4.8413091,5.24684 0 0 0 -2.75806,2.78314 c -0.053,0.13605 -0.084,0.27912 -0.12721,0.41852 -0.06,0.1051 -0.13207,0.2 -0.1858,0.30994 a 5.4972172,5.95769 0 0 0 8.57274,7.11792 5.9202149,6.41612 0 0 0 1.16319,-7.95618 z m -3.46686,2.54761 c 0.0114,0.0757 0.007,0.14532 0,0 z m -0.35239,-0.86841 c -0.0136,-0.0169 -0.0119,-0.0151 0,0 z m -1.55324,0.67688 c -0.0208,-0.0347 -0.0228,-0.0405 0,0 z m 0.36816,0.33826 c 0.0877,0.0323 0.053,0.0256 0,0 z m 0.16439,0.0849 0.0364,-0.0181 a 0.04627388,0.05015 0 0 1 -0.0258,-0.006 l 0.001,-1.9e-4 0.0285,0.004 0.005,-0.003 -0.0165,-0.004 c 0.0143,-5.4e-4 0.0159,0.002 0.0169,0.004 0.16467,-0.0817 0.0532,-0.0424 -0.0423,-0.0104 l -0.006,-0.002 a 0.62869735,0.68136 0 0 0 -0.18979,-0.066 c -0.006,-0.004 -0.0134,-0.006 -0.0185,-0.0104 -0.053,-0.0409 -0.32085,-0.26764 -0.0724,-0.0299 -0.0541,-0.0518 -0.10751,-0.1026 -0.15837,-0.15845 a 0.7223985,0.78291 0 0 1 -0.0812,-0.10815 q -0.0489,-0.0909 -0.0948,-0.18342 l -0.005,-0.0333 c -0.004,-0.0276 -0.007,-0.0391 -0.0105,-0.0557 0.002,-0.0172 0.004,-0.0356 0.007,-0.0535 a 0.59636561,0.64632 0 0 0 0.0351,-0.16767 l 0.0107,-0.0146 c 0.0398,-0.0601 0.0746,-0.13025 0.11252,-0.19275 -0.2006,0.3302 0.0784,-0.0364 0.0993,-0.0829 0.004,-0.008 -0.003,-0.004 -0.001,-0.009 0.008,-0.005 0.006,-0.002 0.0154,-0.008 0.0622,-0.0397 0.12109,-0.0839 0.18422,-0.12183 0.0752,-0.0452 0.37136,-0.13629 0.0642,-0.0411 0.0698,-0.0216 0.13673,-0.0489 0.20725,-0.0688 0.0128,-0.004 0.11617,-0.0193 0.17188,-0.0301 0.0489,-10e-4 0.0964,-0.003 0.10137,-0.003 0.023,3.1e-4 0.046,0.003 0.0689,0.004 -0.051,0.007 0.17492,0.0603 0.242,0.0715 0.01,0.008 0.0146,0.0135 0.0278,0.024 0.0567,0.0449 0.1257,0.0848 0.18557,0.12677 -0.26768,-0.1875 0.003,0.0149 0.0546,0.0703 0.0306,0.0331 0.0587,0.0685 0.0875,0.10333 a 0.74637972,0.8089 0 0 1 0.0713,0.106 c 0.0439,0.0872 0.0906,0.17536 0.13668,0.26111 l 0.0128,0.022 a 0.07642803,0.08283 0 0 0 -4e-4,0.008 2.1888699,2.37222 0 0 0 0.10599,0.40777 0.30740067,0.33315 0 0 1 0.005,0.0339 c 0.004,0.0762 0.0102,0.1521 0.0103,0.2287 l -6.2e-4,0.0155 a 1.5160117,1.643 0 0 0 -1.38243,-0.0107 z"
     fill="#e6e6e6"
     id="path201"
     style="stroke-width:0.960578" />
  <polygon
     points="275.167,121.907 275.175,121.905 275.171,121.905 "
     fill="#e6e6e6"
     id="polygon203"
     transform="translate(-0.00344067,-81.248863)" />
  <path
     d="m 275.17572,40.653917 10e-4,3.6e-4 z"
     fill="#e6e6e6"
     id="path205" />
  <path
     d="m 275.17603,40.655747 -0.005,7.3e-4 c 0.006,6e-4 0.004,-4e-4 0.005,-7.3e-4 z"
     fill="#e6e6e6"
     id="path207" />
  <path
     d="m 275.17682,40.654277 c 0.004,10e-4 1.9e-4,10e-4 -7.9e-4,10e-4 z"
     fill="#e6e6e6"
     id="path209" />
  <polygon
     points="275.179,121.903 275.177,121.902 "
     fill="#e6e6e6"
     id="polygon211"
     transform="translate(-0.00344067,-81.248863)" />
  <path
     d="m 334.17572,60.653917 10e-4,3.6e-4 z"
     fill="#e6e6e6"
     id="path213" />
  <path
     d="m 339.36908,57.896647 a 5.96169,5.96169 0 0 0 -7.22314,-2.67334 5.24684,5.24684 0 0 0 -2.98908,2.78314 c -0.0574,0.13605 -0.091,0.27912 -0.13787,0.41852 -0.065,0.1051 -0.14313,0.2 -0.20136,0.30994 a 5.95769,5.95769 0 0 0 9.29083,7.11792 6.41612,6.41612 0 0 0 1.26062,-7.95618 z m -3.75726,2.54761 c 0.0123,0.0757 0.008,0.14532 0,0 z m -0.3819,-0.86841 c -0.0147,-0.0169 -0.0129,-0.0151 0,0 z m -1.68335,0.67688 c -0.0225,-0.0347 -0.0247,-0.0405 0,0 z m 0.399,0.33826 c 0.095,0.0324 0.0574,0.0256 0,0 z m 0.17816,0.0849 0.0395,-0.0181 a 0.05015,0.05015 0 0 1 -0.028,-0.006 l 0.001,-1.9e-4 0.0309,0.004 0.006,-0.003 -0.0179,-0.004 c 0.0155,-5.4e-4 0.0173,0.002 0.0183,0.004 0.17846,-0.0817 0.0576,-0.0424 -0.0458,-0.0104 l -0.007,-0.002 a 0.68136,0.68136 0 0 0 -0.20568,-0.066 c -0.007,-0.004 -0.0145,-0.006 -0.02,-0.0104 -0.0574,-0.0409 -0.34772,-0.26764 -0.0784,-0.0299 -0.0586,-0.0518 -0.11652,-0.1026 -0.17164,-0.15845 a 0.78291,0.78291 0 0 1 -0.088,-0.10815 q -0.053,-0.0909 -0.10278,-0.18342 l -0.005,-0.0333 c -0.004,-0.0276 -0.008,-0.0391 -0.0113,-0.0557 0.002,-0.0172 0.004,-0.0356 0.007,-0.0535 a 0.64632,0.64632 0 0 0 0.0381,-0.16767 l 0.0116,-0.0146 c 0.0431,-0.0601 0.0808,-0.13025 0.12194,-0.19275 -0.2174,0.3302 0.085,-0.0364 0.10761,-0.0829 0.004,-0.008 -0.003,-0.004 -10e-4,-0.009 0.009,-0.005 0.006,-0.002 0.0167,-0.008 0.0674,-0.0397 0.13123,-0.0839 0.19965,-0.12183 0.0815,-0.0452 0.40246,-0.13629 0.0696,-0.0411 0.0756,-0.0216 0.14819,-0.0489 0.22461,-0.0688 0.0139,-0.004 0.12591,-0.0193 0.18628,-0.0301 0.053,-0.001 0.10443,-0.003 0.10986,-0.003 0.0249,3.1e-4 0.0498,0.003 0.0747,0.004 -0.0552,0.007 0.18957,0.0603 0.26227,0.0715 0.0105,0.008 0.0159,0.0136 0.0301,0.024 0.0615,0.0449 0.13623,0.0848 0.20111,0.12677 -0.2901,-0.1875 0.004,0.0149 0.0592,0.0703 0.0331,0.0331 0.0637,0.0685 0.0949,0.10333 a 0.8089,0.8089 0 0 1 0.0773,0.106 c 0.0476,0.0872 0.0981,0.17536 0.14813,0.26111 l 0.0139,0.022 a 0.08283,0.08283 0 0 0 -4.3e-4,0.008 2.37222,2.37222 0 0 0 0.11487,0.40777 0.33315,0.33315 0 0 1 0.006,0.0339 c 0.005,0.0762 0.011,0.1521 0.0112,0.2287 l -6.7e-4,0.0155 a 1.643,1.643 0 0 0 -1.49823,-0.0107 z"
     fill="#e6e6e6"
     id="path215" />
  <polygon
     points="334.167,141.907 334.175,141.905 334.171,141.905 "
     fill="#e6e6e6"
     id="polygon217"
     transform="translate(-0.00344067,-81.248863)" />
  <polygon
     points="334.179,141.903 334.177,141.902 "
     fill="#e6e6e6"
     id="polygon219"
     transform="translate(-0.00344067,-81.248863)" />
  <path
     d="m 334.17682,60.654277 c 0.004,10e-4 1.9e-4,10e-4 -7.9e-4,10e-4 z"
     fill="#e6e6e6"
     id="path221" />
  <path
     d="m 334.17603,60.655747 -0.005,7.3e-4 c 0.006,6e-4 0.004,-4e-4 0.005,-7.3e-4 z"
     fill="#e6e6e6"
     id="path223" />
  <path
     d="m 293.42148,106.48436 -42.90306,2.58432 a 0.9459341,1.02517 0 0 1 -0.20457,-2.03544 l 43.85137,-7.733343 z"
     fill="#3f3d56"
     id="path225"
     style="stroke-width:0.960578" />
  <path
     d="m 347.94496,210.00056 16.16736,-29.4782 11.94959,6.11652 c 0,0 -20.59057,27.8716 -21.24657,28.67345 a 6.3270191,6.857 0 1 1 -6.87038,-5.31177 z"
     fill="#ffb6b6"
     id="path227"
     style="stroke-width:0.960578" />
  <path
     d="m 354.67011,141.52498 26.1935,14.81061 a 14.501118,15.7158 0 0 1 2.45465,23.07858 l -18.05752,22.4493 -7.86665,-11.55273 6.06333,-13.73984 -11.74038,-3.35516 z"
     fill="#004578"
     id="path229"
     style="stroke-width:0.960578" />
  <path
     d="m 280.02583,106.96597 -2.95027,34.14311 -13.21532,0.0239 c 0,0 7.58202,-34.74593 7.85763,-35.7751 a 6.3270191,6.857 0 1 1 8.30796,1.60813 z"
     fill="#ffb6b6"
     id="path231"
     style="stroke-width:0.960578" />
  <path
     d="m 306.33158,176.78782 -30.41667,-6.04537 c -12.80852,-1.66929 -18.06494,-10.80283 -15.75384,-19.71158 l 7.4376,-28.6703 11.67607,6.78416 -0.0449,15.2303 16.34402,-2.42166 z"
     fill="#004578"
     id="path233"
     style="stroke-width:0.960578" />
  <polygon
     points="309.437,493.992 305.125,459.03 318.503,459.03 318.501,493.992 "
     fill="#ffb6b6"
     id="polygon235"
     transform="matrix(0.92270951,0,0,1,-0.00317473,-81.248863)" />
  <path
     d="m 294.17556,422.19923 -25.71907,-10e-4 v -0.3525 a 10.011131,10.84971 0 0 1 10.01058,-10.84894 h 6.2e-4 l 4.69792,-3.86263 8.76527,3.86322 2.24511,8e-5 z"
     fill="#2f2e41"
     id="path237"
     style="stroke-width:0.960578" />
  <polygon
     points="391.7,493.992 396.012,459.03 382.634,459.03 382.636,493.992 "
     fill="#ffb6b6"
     id="polygon239"
     transform="matrix(0.92270951,0,0,1,-0.00317473,-81.248863)" />
  <path
     d="m 352.76406,422.19923 25.71907,-10e-4 v -0.3525 a 10.011121,10.8497 0 0 0 -10.01058,-10.84899 h -6.1e-4 l -4.69792,-3.86263 -8.76528,3.86322 -2.24511,8e-5 z"
     fill="#2f2e41"
     id="path241"
     style="stroke-width:0.960578" />
  <path
     d="m 281.17066,352.08908 c 0.12351,-1.99494 1.10563,-13.02767 1.10563,-13.02767 l 2.3524,-23.39757 4.14609,-62.02167 3.69563,-16.30232 18.29344,7.72341 14.84362,-7.71206 17.643,6.11232 13.738,5.58329 c 0,0 0.0235,2.39011 0.12937,5.27738 0.14117,3.77959 0.38813,8.41318 0.97622,9.6178 0.98213,2.12881 0.73514,13.5567 0.73514,13.5567 0,0 0.97622,23.25095 2.20536,25.80039 1.22915,2.54944 1.47611,7.85869 1.10564,8.92307 -0.37047,1.06438 1.22914,28.9872 1.22914,28.9872 0,0 4.10556,49.413 1.52968,56.8638 -2.57588,7.4508 -12.30955,2.57019 -12.30955,2.57019 0,0 0.47047,-1.98857 -2.35241,-2.92551 -2.82287,-0.93694 -11.42093,-71.00212 -11.42093,-71.00212 0,0 -1.5996,-14.36616 -3.06985,-18.48349 -1.47025,-4.11733 -2.82286,-15.68547 -2.82286,-15.68547 0,0 -9.08027,-19.14637 -9.19789,-23.40394 0,0 -1.18798,-3.98351 -2.31124,0.40154 -1.12325,4.38505 -4.43425,14.88876 -4.43425,14.88876 l -3.22866,12.90016 -3.79915,19.27381 -2.45825,16.22725 c 0,0 -3.68151,21.53644 -4.26961,22.467 -0.5881,0.93056 0,20.60592 0,20.60592 0,0 -2.84638,16.75623 -6.86901,19.68174 -4.02263,2.92551 -14.6801,0.0465 -14.6801,0.0465 0,0 -0.62811,-41.55147 -0.5046,-43.54637 z"
     fill="#2f2e41"
     id="path243"
     style="stroke-width:0.960578" />
  <path
     d="m 294.84596,184.88348 -2.33748,32.81806 -3.51192,3.939 a 3.3867776,3.67047 0 0 0 0.1774,5.286 v 0 l -1.93484,3.59581 -0.68504,11.33014 a 5.6822666,6.15824 0 0 0 5.25844,7.58983 l 60.55934,3.08345 a 5.6822574,6.15823 0 0 0 5.89945,-6.96235 l -5.14951,-42.01386 v -3.14148 l -2.30535,-6.06691 1.18487,-20.32414 2.75606,-32.25875 -16.02049,-4.48476 -8.68625,-6.47691 -15.09062,0.26039 -9.15672,8.15016 -12.20891,2.07219 -9.23317,1.98907 -1.1762,2.77028 2.3524,-0.55406 8.5264,36.04127 z"
     fill="#004578"
     id="path245"
     style="stroke-width:0.960578" />
  <ellipse
     cx="322.16794"
     cy="107.13303"
     fill="#ffb6b6"
     id="circle247"
     rx="17.776875"
     ry="19.265949"
     style="stroke-width:0.960578" />
  <path
     d="m 317.88195,125.15614 12.84384,-0.71 c 1.64572,-0.091 3.44191,-0.2485 4.63894,-1.47587 a 7.0277708,7.61645 0 0 0 1.4559,-2.62117 c 1.1874,-2.98916 2.37485,-5.97839 3.53193,-8.9815 1.60048,-4.15394 3.17235,-8.53993 2.76382,-13.019653 a 7.6449343,8.28531 0 0 0 -2.22224,-5.43091 4.2439378,4.59943 0 0 0 -5.15804,-0.56644 8.7217916,9.45237 0 0 0 -4.32935,-6.81251 13.366554,14.4862 0 0 0 -7.62363,-1.75172 18.399547,19.94078 0 0 0 -10.47853,4.47585 22.74466,24.64986 0 0 1 -2.67319,2.29575 4.1963906,4.5479 0 0 1 -3.26255,0.65422 2.361149,2.55893 0 0 1 -1.73328,-2.78916 4.5428957,4.92343 0 0 0 -1.16201,6.49978 4.1920907,4.54324 0 0 1 -4.09706,-0.5253 5.0088916,5.42846 0 1 0 5.25282,9.188313 c 0.77951,1.18329 0.48922,2.79132 0.38766,4.24107 -0.10157,1.44975 0.25719,3.25148 1.54678,3.65218 1.74341,0.5417 3.15557,-2.0024 4.96905,-1.9753 a 2.7271141,2.95555 0 0 1 2.16266,1.51036 8.0499945,8.7243 0 0 1 0.86572,2.73911 l 2.32094,11.324"
     fill="#2f2e41"
     id="path249"
     style="stroke-width:0.960578" />
  <path
     d="m 670.09031,298.38799 c 0,-2.98336 -0.68431,-5.40458 -1.52448,-5.41012 H 439.5216 c -0.84396,0.006 -1.52447,2.42676 -1.52825,5.41012 v 122.80946 a 0.76131851,1.11465 0 0 1 -0.68761,1.10966 q -0.92213,0.12958 -1.84426,0.24121 c -0.0153,0 -0.0304,0.006 -0.0457,0.006 -0.33452,0.0445 -0.66905,0.0779 -1.0036,0.11686 h -0.004 q -0.25814,-0.69876 -0.51029,-1.4097 a 0.76463111,1.1195 0 0 1 -0.0866,-0.51712 V 291.3693 c 0,-0.82379 0.0227,-1.65312 0.0608,-2.4713 a 21.624819,31.661 0 0 1 0.28513,-3.35073 c 0.64247,-5.17078 2.09469,-8.67181 3.74461,-8.68292 h 232.27944 a 1.780064,2.6062 0 0 1 0.69948,0.217 2.7270045,3.99262 0 0 1 0.86297,0.885 5.3489823,7.83147 0 0 1 0.84777,1.69761 15.260234,22.34258 0 0 1 1.60049,8.86661 c 0,0.0334 0.004,0.0668 0.004,0.10018 0.0532,0.90172 0.0798,1.82009 0.0761,2.73849 l 0.0532,11.92789 0.0342,7.11331 0.10265,22.3196 0.038,7.926 0.16727,81.37464 v 0 a 0.76032815,1.1132 0 0 1 -0.76032,1.1132 h -3.05647 a 0.76032815,1.1132 0 0 1 -0.76033,-1.1132 z"
     fill="#e6e6e6"
     id="path251"
     style="stroke-width:0.826445" />
  <path
     d="m 638.01873,221.05108 h -28.95781 a 1.5451,1.928 0 0 0 -1.54269,1.93 v 57.08105 h 32.04721 v -57.08105 a 1.5459014,1.929 0 0 0 -1.54671,-1.93 z m -14.38146,32.43276 a 3.4354834,4.28685 0 0 1 -3.41945,-4.26681 v -6.5838 a 3.41943,4.2668183 0 0 1 6.83886,0 v 6.5838 a 3.4354353,4.28679 0 0 1 -3.41941,4.26681 z"
     fill="#cccccc"
     id="path253"
     style="stroke-width:0.89521" />
  <path
     d="m 607.41883,278.23633 v 5.50719 a 0.86457482,1.07883 0 0 0 0.86281,1.07662 h 30.52039 a 0.86715533,1.08205 0 0 0 0.8628,-1.07662 v -5.50719 z"
     fill="#3f3d56"
     id="path255"
     style="stroke-width:0.89521" />
  <path
     d="M 685.97022,131.96966 H 562.18698 a 4.0182779,5.01407 0 0 0 -4.01188,5.00605 v 104.22937 a 4.0157134,5.01087 0 0 0 4.01188,5.006 h 123.78324 a 4.0157054,5.01086 0 0 0 4.01188,-5.006 V 136.97571 a 4.0182698,5.01406 0 0 0 -4.01188,-5.00605 z"
     fill="#e6e6e6"
     id="path257"
     style="stroke-width:0.89521" />
  <path
     d="M 684.93699,135.58546 H 563.22121 a 2.1502054,2.68306 0 0 0 -2.14555,2.6828 V 239.9142 a 2.1492357,2.68185 0 0 0 2.14555,2.67723 h 121.71578 a 2.1492278,2.68184 0 0 0 2.14553,-2.67723 V 138.26826 a 2.1502054,2.68306 0 0 0 -2.14553,-2.6828 z"
     fill="#ffffff"
     id="path259"
     style="stroke-width:0.89521" />
  <path
     d="m 661.22881,286.73648 h -72.41428 a 1.3321118,1.66223 0 0 1 -1.30355,-2.00462 l 1.12364,-6.65907 a 1.3378579,1.6694 0 0 1 1.30333,-1.31974 h 70.16742 a 1.3378739,1.66942 0 0 1 1.30333,1.31974 l 1.12362,6.65907 a 1.3321038,1.66222 0 0 1 -1.30354,2.00462 z"
     fill="#cccccc"
     id="path261"
     style="stroke-width:0.89521" />
  <rect
     x="590.45221"
     y="277.95212"
     width="2.2302895"
     height="1.66979"
     rx="0.39123568"
     fill="#e6e6e6"
     id="rect263"
     style="stroke-width:0.89521" />
  <rect
     x="594.91284"
     y="277.95212"
     width="2.2302895"
     height="1.66979"
     rx="0.39123568"
     fill="#e6e6e6"
     id="rect265"
     style="stroke-width:0.89521" />
  <rect
     x="599.37335"
     y="277.95212"
     width="2.2302895"
     height="1.66979"
     rx="0.39123568"
     fill="#e6e6e6"
     id="rect267"
     style="stroke-width:0.89521" />
  <rect
     x="603.83392"
     y="277.95212"
     width="2.2302895"
     height="1.66979"
     rx="0.39123568"
     fill="#e6e6e6"
     id="rect269"
     style="stroke-width:0.89521" />
  <rect
     x="608.29456"
     y="277.95212"
     width="2.2302895"
     height="1.66979"
     rx="0.39123568"
     fill="#e6e6e6"
     id="rect271"
     style="stroke-width:0.89521" />
  <rect
     x="612.75507"
     y="277.95212"
     width="2.2302895"
     height="1.66979"
     rx="0.39123568"
     fill="#e6e6e6"
     id="rect273"
     style="stroke-width:0.89521" />
  <rect
     x="617.2157"
     y="277.95212"
     width="2.2302895"
     height="1.66979"
     rx="0.39123568"
     fill="#e6e6e6"
     id="rect275"
     style="stroke-width:0.89521" />
  <rect
     x="621.67627"
     y="277.95212"
     width="2.2302895"
     height="1.66979"
     rx="0.39123568"
     fill="#e6e6e6"
     id="rect277"
     style="stroke-width:0.89521" />
  <rect
     x="626.13684"
     y="277.95212"
     width="2.2302895"
     height="1.66979"
     rx="0.39123568"
     fill="#e6e6e6"
     id="rect279"
     style="stroke-width:0.89521" />
  <rect
     x="630.59741"
     y="277.95212"
     width="2.2302895"
     height="1.66979"
     rx="0.39123568"
     fill="#e6e6e6"
     id="rect281"
     style="stroke-width:0.89521" />
  <rect
     x="635.05798"
     y="277.95212"
     width="2.2302895"
     height="1.66979"
     rx="0.39123568"
     fill="#e6e6e6"
     id="rect283"
     style="stroke-width:0.89521" />
  <rect
     x="639.51862"
     y="277.95212"
     width="2.2302895"
     height="1.66979"
     rx="0.39123568"
     fill="#e6e6e6"
     id="rect285"
     style="stroke-width:0.89521" />
  <rect
     x="643.97913"
     y="277.95212"
     width="2.2302895"
     height="1.66979"
     rx="0.39123568"
     fill="#e6e6e6"
     id="rect287"
     style="stroke-width:0.89521" />
  <rect
     x="648.4397"
     y="277.95212"
     width="2.2302895"
     height="1.66979"
     rx="0.39123568"
     fill="#e6e6e6"
     id="rect289"
     style="stroke-width:0.89521" />
  <rect
     x="652.90033"
     y="277.95212"
     width="2.2302895"
     height="1.66979"
     rx="0.39123568"
     fill="#e6e6e6"
     id="rect291"
     style="stroke-width:0.89521" />
  <rect
     x="657.36084"
     y="277.95212"
     width="2.2302895"
     height="1.66979"
     rx="0.39123568"
     fill="#e6e6e6"
     id="rect293"
     style="stroke-width:0.89521" />
  <rect
     x="590.39948"
     y="280.73511"
     width="2.2302895"
     height="1.66979"
     rx="0.39123568"
     fill="#e6e6e6"
     id="rect295"
     style="stroke-width:0.89521" />
  <rect
     x="594.86005"
     y="280.73511"
     width="2.2302895"
     height="1.66979"
     rx="0.39123568"
     fill="#e6e6e6"
     id="rect297"
     style="stroke-width:0.89521" />
  <rect
     x="599.32062"
     y="280.73511"
     width="2.2302895"
     height="1.66979"
     rx="0.39123568"
     fill="#e6e6e6"
     id="rect299"
     style="stroke-width:0.89521" />
  <rect
     x="603.78125"
     y="280.73511"
     width="2.2302895"
     height="1.66979"
     rx="0.39123568"
     fill="#e6e6e6"
     id="rect301"
     style="stroke-width:0.89521" />
  <rect
     x="608.24182"
     y="280.73511"
     width="2.2302895"
     height="1.66979"
     rx="0.39123568"
     fill="#e6e6e6"
     id="rect303"
     style="stroke-width:0.89521" />
  <rect
     x="612.70233"
     y="280.73511"
     width="2.2302895"
     height="1.66979"
     rx="0.39123568"
     fill="#e6e6e6"
     id="rect305"
     style="stroke-width:0.89521" />
  <rect
     x="617.16296"
     y="280.73511"
     width="2.2302895"
     height="1.66979"
     rx="0.39123568"
     fill="#e6e6e6"
     id="rect307"
     style="stroke-width:0.89521" />
  <rect
     x="621.62354"
     y="280.73511"
     width="2.2302895"
     height="1.66979"
     rx="0.39123568"
     fill="#e6e6e6"
     id="rect309"
     style="stroke-width:0.89521" />
  <rect
     x="626.08411"
     y="280.73511"
     width="2.2302895"
     height="1.66979"
     rx="0.39123568"
     fill="#e6e6e6"
     id="rect311"
     style="stroke-width:0.89521" />
  <rect
     x="630.54468"
     y="280.73511"
     width="2.2302895"
     height="1.66979"
     rx="0.39123568"
     fill="#e6e6e6"
     id="rect313"
     style="stroke-width:0.89521" />
  <rect
     x="635.00525"
     y="280.73511"
     width="2.2302895"
     height="1.66979"
     rx="0.39123568"
     fill="#e6e6e6"
     id="rect315"
     style="stroke-width:0.89521" />
  <rect
     x="639.46582"
     y="280.73511"
     width="2.2302895"
     height="1.66979"
     rx="0.39123568"
     fill="#e6e6e6"
     id="rect317"
     style="stroke-width:0.89521" />
  <rect
     x="643.92645"
     y="280.73511"
     width="2.2302895"
     height="1.66979"
     rx="0.39123568"
     fill="#e6e6e6"
     id="rect319"
     style="stroke-width:0.89521" />
  <rect
     x="648.38708"
     y="280.73511"
     width="2.2302895"
     height="1.66979"
     rx="0.39123568"
     fill="#e6e6e6"
     id="rect321"
     style="stroke-width:0.89521" />
  <rect
     x="652.8476"
     y="280.73511"
     width="2.2302895"
     height="1.66979"
     rx="0.39123568"
     fill="#e6e6e6"
     id="rect323"
     style="stroke-width:0.89521" />
  <rect
     x="657.30817"
     y="280.73511"
     width="2.2302895"
     height="1.66979"
     rx="0.39123568"
     fill="#e6e6e6"
     id="rect325"
     style="stroke-width:0.89521" />
  <rect
     x="611.8103"
     y="284.07468"
     width="17.842316"
     height="1.66979"
     rx="0.39123568"
     fill="#e6e6e6"
     id="rect327"
     style="stroke-width:0.89521" />
  <path
     d="m 678.81854,149.59 h -113.889 a 0.45301564,0.56528 0 0 1 0,-1.13028 h 113.889 a 0.45301564,0.56528 0 0 1 0,1.13028 z"
     fill="#cacaca"
     id="path329"
     style="stroke-width:0.89521" />
  <ellipse
     cx="572.68213"
     cy="142.18842"
     rx="2.6542382"
     ry="3.3858099"
     fill="#cccccc"
     id="ellipse331"
     style="stroke-width:0.89521" />
  <ellipse
     cx="581.85132"
     cy="142.18842"
     rx="2.6542382"
     ry="3.3858099"
     fill="#cccccc"
     id="ellipse333"
     style="stroke-width:0.89521" />
  <ellipse
     cx="591.02051"
     cy="142.18842"
     rx="2.6542382"
     ry="3.3858099"
     fill="#cccccc"
     id="ellipse335"
     style="stroke-width:0.89521" />
  <path
     d="m 673.29792,139.64182 h -6.51334 a 0.49326997,0.61551 0 0 0 0,1.23078 h 6.51331 a 0.49326997,0.61551 0 0 0 0,-1.23078 z"
     fill="#cccccc"
     id="path337"
     style="stroke-width:0.89521" />
  <path
     d="m 673.29792,141.9518 h -6.51334 a 0.49327799,0.61552 0 0 0 0,1.23079 h 6.51331 a 0.49327799,0.61552 0 0 0 0,-1.23079 z"
     fill="#cccccc"
     id="path339"
     style="stroke-width:0.89521" />
  <path
     d="m 673.29792,144.25876 h -6.51334 a 0.49326997,0.61551 0 0 0 0,1.23078 h 6.51331 a 0.49326997,0.61551 0 0 0 0,-1.23078 z"
     fill="#cccccc"
     id="path341"
     style="stroke-width:0.89521" />
  <rect
     x="614.90302"
     y="180.37981"
     width="18.101889"
     height="4.8301401"
     rx="1.9354382"
     fill="#004578"
     id="rect343"
     style="stroke-width:0.89521" />
  <rect
     x="605.70966"
     y="190.04008"
     width="36.488544"
     height="4.8301401"
     rx="1.9354382"
     fill="#e6e6e6"
     id="rect345"
     style="stroke-width:0.89521" />
  <rect
     x="605.70966"
     y="199.70036"
     width="36.488544"
     height="4.8301401"
     rx="1.9354382"
     fill="#e6e6e6"
     id="rect347"
     style="stroke-width:0.89521" />
  <polygon
     points="527.785,393.314 539.867,399.092 524.726,431.447 516.54,427.531 "
     fill="#ffb6b6"
     id="polygon349"
     transform="matrix(0.80140042,0,0,1,-0.00275735,-81.248863)" />
  <path
     d="m 464.49558,344.68137 c -0.47706,0.37288 -0.95413,0.73959 -1.43602,1.10646 -0.95899,0.73357 -1.92755,1.45512 -2.89616,2.16462 -0.48671,0.35482 -0.97824,0.70965 -1.46496,1.05845 v 0.0179 l -0.0289,0.006 -0.01,0.006 -0.7421,0.22858 -1.06496,-3.5117 -0.49152,-1.61748 -0.69393,-2.291 -1.27219,-4.19111 -6.69825,-22.068 10.41362,-3.205 0.39033,1.99036 h 0.005 l 0.19273,0.98608 3.63828,18.41214 0.7421,3.7642 0.0241,0.11421 0.44815,2.24889 0.38554,1.94824 0.42885,2.1768 z"
     fill="#ffb6b6"
     id="path351"
     style="stroke-width:0.89521" />
  <path
     d="m 526.61692,267.18351 c -0.6602,1.32288 -1.33485,2.63975 -2.01431,3.94458 q -1.89385,3.6439 -3.88884,7.17962 c 0,0.006 -0.005,0.006 -0.01,0.012 a 13.60491,16.97642 0 0 1 -2.55401,2.32706 c -0.0386,0.0361 -0.0819,0.0601 -0.12047,0.0902 a 9.4157579,11.74913 0 0 1 -2.14923,1.07636 c -0.26985,0.0842 -0.54453,0.16835 -0.8144,0.25254 -0.97339,0.28862 -1.93716,0.53518 -2.89615,0.75164 -1.70588,0.37883 -3.39248,0.64942 -5.06945,0.81777 -0.13495,0.0181 -0.26986,0.0301 -0.4048,0.0421 -6.89583,0.63137 -13.60858,-0.38484 -20.61522,-2.05044 -3.46,-0.81781 -6.99222,-1.79794 -10.64977,-2.81416 -1.19508,-0.33673 -2.39498,-0.66744 -3.60935,-0.99815 -0.0916,-0.024 -0.18794,-0.0541 -0.28433,-0.0782 -1.73478,-0.475 -3.49849,-0.94406 -5.30556,-1.40707 -2.27454,-0.58326 -4.62133,-1.14849 -7.05969,-1.68366 l 0.17347,4.28733 a 25.859765,32.26822 0 0 0 1.62879,9.639 c 1.0409,3.80027 1.86491,6.80681 0.1253,13.06642 l -0.83849,3.03064 a 8.2946628,10.35021 0 0 1 -0.85294,9.15795 l -0.16866,0.31868 6.99222,22.074 0.45297,1.43112 h -3.58046 l -4.40444,0.006 h -7.46445 l -10.77024,-26.9627 -0.51563,-1.28681 v -0.0661 l 1.11314,-51.81475 c 0.0145,-0.457 0.0434,-0.92 0.0916,-1.377 a 12.624621,15.7532 0 0 1 4.80445,-10.60705 12.157909,15.17083 0 0 1 9.05468,-3.09074 l 3.68645,0.59529 7.53193,1.21466 5.30556,0.85986 0.10604,0.018 15.64692,2.52551 1.12281,-5.71243 0.20721,-0.0962 6.58744,-3.01256 22.78369,-10.42069 0.0578,-0.024 1.49867,-0.6855 0.17829,0.36077 c 0.0531,0.10827 0.10603,0.2165 0.15421,0.32473 a 44.660804,55.72845 0 0 1 3.59972,10.42667 131.17528,163.68257 0 0 1 3.78282,18.02124 q 0.0651,0.39687 0.11565,0.72158 l 0.0145,0.0661 c 0.0144,0.10221 0.0241,0.16835 0.0289,0.18641 a 13.478273,16.8184 0 0 1 -0.8047,9.36239 z"
     fill="#2f2e41"
     id="path353"
     style="stroke-width:0.89521" />
  <path
     d="m 527.57855,248.08825 c -0.0723,-0.38485 -0.16387,-0.77567 -0.26022,-1.1545 a 65.931117,82.26988 0 0 0 -2.66964,-8.43036 c -1.13726,-3.12681 -2.50102,-6.4761 -4.12498,-10.102 q -1.17823,-2.63376 -2.53474,-5.47791 -0.67946,-1.42511 -1.41193,-2.90433 a 1.2264472,1.53038 0 0 0 -0.0626,-0.13227 l -0.13973,-0.28861 -22.54278,3.76419 -8.39451,1.40106 -0.50115,5.21936 -0.12046,1.29282 c -0.005,0 -0.005,0 0,0.006 l -0.33734,3.52366 v 0.006 l -0.44815,4.65412 -0.0386,-0.006 -12.45682,-2.01436 -12.83751,-2.07453 -6.89584,-1.1124 a 12.150545,15.16164 0 0 0 -9.05469,3.09073 12.631008,15.76117 0 0 0 -4.80439,10.60709 c -0.0434,0.42093 -0.0723,0.85385 -0.0867,1.28079 l -6.50551,19.23586 a 99.4599,124.10762 0 0 0 -7.3537,36.10255 l -4.77074,19.03143 0.67945,0.0782 10.11002,1.17256 2.66966,0.3127 5.87907,-10.70931 c 0.66984,-1.22067 1.30594,-2.47739 1.89864,-3.7642 a 45.813891,57.16729 0 0 0 2.5974,-6.5182 l 12.71705,-37.76217 q 1.47457,0.31578 2.92025,0.60131 6.68625,1.353 12.83752,2.20679 c 13.33386,1.85806 24.87993,2.00237 35.15863,0.427 q 4.32977,-0.65842 8.37041,-1.73177 1.48184,-0.3879 2.92507,-0.83583 c 0.22646,-0.0661 0.44815,-0.13227 0.66982,-0.20446 a 12.29749,15.345 0 0 0 8.60171,-10.02983 12.547478,15.65694 0 0 0 0.31804,-8.76115 z"
     fill="#2f2e41"
     id="path355"
     style="stroke-width:0.89521" />
  <path
     d="m 422.6087,344.61031 -7.09822,-4.24524 -1.11314,-0.66744 -1.77817,5.44785 -12.41347,3.40945 a 2.945427,3.67535 0 0 0 -0.48188,6.99322 l 12.12913,6.17545 3.85029,-4.32341 -0.94452,5.80265 4.5683,2.32706 5.00681,-19.88528 z"
     fill="#2f2e41"
     id="path357"
     style="stroke-width:0.89521" />
  <polygon
     points="581.774,417.469 582.34,418.9 581.774,418.9 "
     fill="#2f2e41"
     id="polygon359"
     transform="matrix(0.80140042,0,0,1,-0.00275735,-81.248863)" />
  <path
     d="m 463.75929,337.95666 -7.43764,3.21559 -1.16734,0.50307 1.80841,5.43233 -6.89818,13.32155 a 2.945427,3.67535 0 0 0 3.60093,5.39231 l 12.10089,-6.26111 0.29804,-6.45262 2.60085,4.95249 4.55831,-2.35736 -7.65522,-18.52592 z"
     fill="#2f2e41"
     id="path361"
     style="stroke-width:0.89521" />
  <path
     d="m 418.61672,139.0002 a 5.2825271,6.59162 0 0 0 7.8997,2.23448 l 15.63981,12.9554 0.0299,-12.17246 -14.85641,-10.43654 a 5.3111451,6.62733 0 0 0 -8.71293,7.41908 z"
     fill="#ffb6b6"
     id="path363"
     style="stroke-width:0.89521" />
  <path
     d="m 430.30083,144.62636 7.29697,-10.3586 29.71124,22.00944 39.38545,-4.5007 a 13.318474,16.619 0 0 1 14.47605,18.081 v 0 a 13.332643,16.63668 0 0 1 -14.48913,15.0161 l -44.35757,-5.12316 z"
     fill="#cccccc"
     id="path365"
     style="stroke-width:0.89521" />
  <path
     d="m 521.71372,144.78621 -0.0683,-0.10723 v 0 A 28.775982,35.90712 0 0 0 493.795,162.68562 l -3.34253,7.347 c -10.81165,16.49312 -2.95523,27.86723 -2.48491,29.55866 l -3.75283,21.59147 0.84111,7.226 0.42008,2.1465 42.8381,27.93083 c 2.43892,-14.62225 0.0806,-27.08252 -8.80475,-36.60114 l 8.597,-33.37813 a 37.681728,47.01985 0 0 0 -6.39252,-43.7206 z"
     fill="#cccccc"
     id="path367"
     style="stroke-width:0.89521" />
  <path
     d="m 487.65221,306.943 h -13.74088 a 3.1390855,3.917 0 0 1 -3.10569,-3.3671 69.865913,87.17978 0 0 1 0,-23.47951 3.1392938,3.91726 0 0 1 3.05297,-3.3665 c 4.32336,-2.41816 8.97918,-2.41786 13.8409,-3e-4 a 3.102742,3.87165 0 0 1 2.36097,1.42077 3.174291,3.96093 0 0 1 0.65508,3.30162 42.241913,52.71012 0 0 0 0,20.76834 3.174291,3.96093 0 0 1 -0.65508,3.30162 3.102221,3.871 0 0 1 -2.40827,1.42106 z"
     fill="#004578"
     id="path369"
     style="stroke-width:0.89521" />
  <path
     d="M 486.21313,285.6814 H 474.6478 a 0.72286319,0.902 0 1 1 0,-1.80393 h 11.56533 a 0.72286319,0.902 0 1 1 0,1.80393 z"
     fill="#ffffff"
     id="path371"
     style="stroke-width:0.89521" />
  <path
     d="M 486.21313,292.89708 H 474.6478 a 0.72286319,0.902 0 1 1 0,-1.80393 h 11.56533 a 0.72286319,0.902 0 1 1 0,1.80393 z"
     fill="#ffffff"
     id="path373"
     style="stroke-width:0.89521" />
  <path
     d="M 486.21313,300.1128 H 474.6478 a 0.72286319,0.902 0 1 1 0,-1.80392 h 11.56533 a 0.72286319,0.902 0 1 1 0,1.80392 z"
     fill="#ffffff"
     id="path375"
     style="stroke-width:0.89521" />
  <path
     d="m 419.6969,130.89708 h -11.56533 a 0.72286319,0.902 0 1 1 0,-1.80393 h 11.56533 a 0.72286319,0.902 0 1 1 0,1.80393 z"
     fill="#ffffff"
     id="path381"
     style="stroke-width:0.89521" />
  <path
     d="m 491.67827,285.02502 a 5.282511,6.5916 0 0 0 1.31891,-9.97255 l 9.43631,-20.24983 -9.73962,0.685 -7.46768,19.12456 a 5.3111451,6.62733 0 0 0 6.45208,10.41283 z"
     fill="#ffb6b6"
     id="path393"
     style="stroke-width:0.89521" />
  <path
     d="m 495.48597,270.13731 -8.71966,-8.4747 15.84466,-38.31459 -5.93708,-48.7922 a 13.318474,16.619 0 0 1 13.60575,-19.10428 v 0 a 13.332634,16.63667 0 0 1 12.87229,17.15706 l -1.46692,55.55653 z"
     fill="#cccccc"
     id="path395"
     style="stroke-width:0.89521" />
  <path
     d="m 92.381899,259.66901 a 6.64617,6.64617 0 0 0 -0.92425,-10.14919 l 10.582001,-52.56023 -11.685841,3.752 -8.4704,50.83891 a 6.68225,6.68225 0 0 0 10.49845,8.11854 z"
     fill="#9e616a"
     id="path397" />
  <path
     d="m 108.00682,148.46535 -7.25052,-5.47306 c 0,0 -6.396091,-0.45294 -7.528901,11.08163 -1.13281,11.53457 -3.45883,34.01358 -3.45883,34.01358 l -11.09474,51.38647 15.35812,3.371 11.883261,-55.4551 7.12879,-16.46808 z"
     fill="#cccccc"
     id="path399" />
  <polygon
     points="96.057,313.623 136.914,312.942 140.319,285.023 96.057,285.023 "
     fill="#9e616a"
     id="polygon401"
     transform="translate(-0.00344067,-81.248863)" />
  <polygon
     points="132.828,485.427 142.26,485.427 146.747,449.046 132.826,449.047 "
     fill="#9e616a"
     id="polygon403"
     transform="translate(-0.00344067,-81.248863)" />
  <polygon
     points="73.738,486.301 83.17,486.234 87.402,449.823 75.135,452.637 "
     fill="#9e616a"
     id="polygon405"
     transform="translate(-0.00344067,-81.248863)" />
  <polygon
     points="141.28,262.262 136.578,256.705 103.238,260.98 101.101,266.536 101.528,272.093 143.355,286.58 "
     fill="#ffb6b6"
     id="polygon407"
     transform="translate(-0.00344067,-81.248863)" />
  <circle
     cx="121.17877"
     cy="114.78762"
     r="14.93893"
     fill="#9e616a"
     id="circle409" />
  <path
     d="m 130.48518,399.52551 14.91014,-0.88993 v 6.38815 l 14.17548,9.7901 a 3.99028,3.99028 0 0 1 -2.26741,7.27391 h -17.75108 l -3.05966,-6.31886 -1.19465,6.31886 h -6.69287 z"
     fill="#2f2e41"
     id="path411" />
  <path
     d="m 70.508039,400.42114 14.90355,-0.99428 0.0447,6.388 14.24367,9.69063 a 3.99028,3.99028 0 0 1 -2.21644,7.28961 l -17.75064,0.12425 -3.10383,-6.29729 -1.15038,6.32707 -6.69271,0.0468 z"
     fill="#2f2e41"
     id="path413" />
  <path
     d="m 70.799599,391.48342 6.8681,-59.86274 8.17141,-63.11542 c -5.98409,-12.1184 7.49045,-49.74981 7.49045,-49.74981 l 1.902,0.0995 43.050001,8.85608 -0.009,-0.0452 c 8.80514,26.18779 11.72238,39.12512 11.23985,67.01258 l -1.73467,100.24942 h 0.54417 a 3.4047556,3.712675 0 0 1 0,7.42535 h -17.02374 a 3.40476,3.7126798 0 1 1 0,-7.42535 h 0.43893 l -15.62574,-119.36724 -13.24821,50.1198 -14.980911,65.343 c 5.4476,-1.48507 4.60175,1.95579 4.60175,3.90449 a 3.40476,3.7126798 0 0 1 -3.40476,3.71267 h -17.02399 a 3.40121,3.7088087 0 0 1 -1.25559,-7.15717 z"
     fill="#2f2e41"
     id="path415"
     style="stroke-width:1.04424" />
  <path
     d="m 89.977519,220.54308 1.36194,-13.619 a 2.71478,2.71478 0 0 1 2.4549,-2.03932 c 0.56745,-6.48761 2.95489,-34.47566 3.09753,-35.69629 l 0.006,-0.0516 1.08564,-23.19163 a 3.42964,3.42964 0 0 1 3.202181,-3.262 l 5.73413,-0.37481 a 0.30343,0.30343 0 0 0 0.29322,-0.30323 4.82207,4.82207 0 0 1 4.82205,-4.8221 H 129.012 a 4.51469,4.51469 0 0 1 4.47767,3.95212 0.29971,0.29971 0 0 0 0.30506,0.26974 h 0.002 a 8.06559,8.06559 0 0 1 8.11384,6.68989 c 2.32095,13.50393 6.97231,44.15273 4.6726,61.1917 -0.80056,5.93155 0.92521,1.2336 1.228,6.19651 a 3.65315,3.65315 0 0 1 -0.9095,2.64862 2.63369,2.63369 0 0 1 1.58533,3.34765 l 0.29838,-0.0739 a 2.72377,2.72377 0 0 1 -3.307,1.97535 l -44.41614,6.0183 c -1.458701,-0.3677 -11.452421,-7.39736 -11.084721,-8.856 z"
     fill="#cccccc"
     id="path417" />
  <path
     d="m 208.66213,165.17108 a 6.64617,6.64617 0 0 1 -9.35992,4.03141 l -17.17084,15.67037 -2.27985,-12.05978 16.666,-12.99325 a 6.68225,6.68225 0 0 1 12.14465,5.35125 z"
     fill="#9e616a"
     id="path419" />
  <path
     d="m 148.89783,153.19314 c 0,0 -5.98735,-13.53065 -13.54943,-10.84111 -7.56208,2.68954 -3.65762,15.81786 -3.65762,15.81786 l 28.411,42.81149 c 0,0 40.97912,-26.28757 35.99605,-26.47325 -4.98307,-0.18568 -6.47365,-9.24886 -6.47365,-9.24886 l -21.65819,10.82181 -0.7328,-3.85243 -1.17455,1.17455 -3.03091,-2.38559 z"
     fill="#cccccc"
     id="path421" />
  <ellipse
     cx="511.83795"
     cy="117.47231"
     fill="#ffb6b6"
     id="circle423"
     rx="16.714663"
     ry="20.856819"
     style="stroke-width:0.89521" />
  <path
     d="m 565.481,148.16286 a 14.495586,18.08782 0 0 1 -7.96797,7.00011 16.666725,20.797 0 0 1 -3.96678,0.8407 14.998209,18.715 0 0 0 -1.17904,-5.49886 12.382278,15.4508 0 0 1 -0.61187,5.486 14.735775,18.38753 0 0 1 -5.79894,-1.93873 12.77833,15.945 0 0 1 -6.83704,-11.4438 c -0.70812,-5.70476 1.36467,-11.30656 2.11403,-17.00271 0.75279,-5.69617 -0.65999,-12.91072 -5.12865,-14.4077 -3.40307,-1.14094 -3.02151,-0.64766 -5.85051,1.97308 2.94275,5.42946 -7.92658,25.32605 -12.37475,23.591 -2.5149,-0.98094 -4.12492,-3.86035 -4.64398,-3.86035 -3.49585,7.5148 3.08681,20.17676 -3.54742,22.80609 l 0.54655,-0.682 c 4.0046,-6.14652 -4.36554,-19.15592 -0.36093,-25.30246 1.11715,-1.72 2.3065,-3.75741 1.97652,-5.93205 -0.31281,-2.06744 -2.94244,-3.1612 -3.71244,-1.46266 1.38529,-3.959 -0.65997,-9.2434 -4.04584,-10.26 -3.00775,-0.905 -2.95277,0.21017 -5.97082,0.69486 a 14.978174,18.69 0 0 0 -1.09653,-4.7225 12.280259,15.3235 0 0 1 -0.45031,4.81258 4.8428147,6.04294 0 0 1 -2.92869,-1.3211 c -2.46119,-2.47493 -1.96279,-7.67353 0.23374,-10.50874 2.19996,-2.835213 5.46896,-3.856063 8.5867,-4.516623 0.90633,-7.87547 18.31986,-8.697 20.62804,-0.82783 0.98312,-5.87632 6.8783,-8.926 11.4604,-7.103 4.58211,1.823 7.76172,7.16311 9.43575,12.790643 1.67402,5.62324 2.14151,11.67543 3.17275,17.53458 1.03124,5.85915 2.77401,11.82554 6.36269,15.81886 3.58867,3.989 9.43575,5.31013 13.21692,1.60419 a 10.584648,13.20769 0 0 1 -1.26158,11.83842 z"
     fill="#2f2e41"
     id="path425"
     style="stroke-width:0.89521" />
  <path
     d="m 84.804452,92.010017 -2.34009,14.650003 c -0.1763,1.12 -0.36059,2.26 -0.56094,3.39 a 11.450185,14.28772 0 0 0 -5.88227,0.41 54.904745,68.511 0 0 1 4.03905,8.43 c -1.47458,5.67 -3.63835,10.91 -7.26069,14.7 a 18.207529,22.71964 0 0 1 -17.59073,3.86 l 0.10417,-0.58 c -3.8948,-9.43 -1.7791,-21.32 3.06136,-30.03 a 46.789444,58.3846 0 0 1 8.69519,-11.470003 c 3.26968,-3.4 6.80389,-6.45 10.30601,-9.46 a 4.8004447,5.99007 0 0 1 7.42894,6.1 z"
     fill="#e4e4e4"
     id="path427"
     style="stroke-width:0.89521" />
  <path
     id="a7585634-9c2c-4d81-a429-c019b32aabf2-811"
     data-name="a4b268fa-75d0-4ac1-9d87-14bdca948464-2189"
     d="m 693.53316,276.4484 c -0.98493,-8.953 -1.99789,-18.02 -1.30709,-27.069 0.61388,-8.036 2.57811,-15.885 6.5787,-22.321 a 29.757384,37.13173 0 0 1 7.63494,-8.633 c 0.76373,-0.6 1.46576,0.909 0.70604,1.507 a 28.289331,35.29987 0 0 0 -11.18996,16.847 c -2.43626,7.732 -2.82734,16.161 -2.4042,24.374 0.25404,4.967 0.79178,9.9 1.33433,14.83 a 0.72126039,0.9 0 0 1 -0.48886,1.074 0.70362958,0.878 0 0 1 -0.8607,-0.61 z"
     fill="#f2f2f2"
     style="stroke-width:0.89521" />
  <path
     d="M 691.3485,423.73968 0.87791578,424.04702 a 0.88046739,1.19069 0 0 1 0,-2.38137 L 691.3485,421.35831 a 0.88046739,1.19069 0 0 1 0,2.38137 z"
     fill="#cacaca"
     id="path430"
     style="stroke-width:0.859918" />
  <path
     d="m 123.98277,98.590547 c -6.5545,-5.17444 -11.85405,-4.29114 -15.9423,-1.07639 -0.68728,-0.76456 -3.61211,1.339 -4.60242,1.03664 l -3.581851,6.724223 c -1.84318,3.25252 -2.59937,6.57264 -2.30142,8.44132 -3.3904,9.50778 4.649521,15.92831 14.157491,19.31852 a 18.14268,18.14268 0 0 0 11.76508,0.1704 l 0.11686,-1.62011 0.72,1.32781 c 0,0 8.6921,17.89737 10.74606,18.70108 -1.24628,-3.233 -4.5334,-18.59855 -5.45092,-21.80147 -1.2581,-4.35783 -0.39868,-11.28126 0.34075,-15.52611 a 24.0569,24.0569 0 0 0 0.0714,-7.91713 l -0.0183,-0.11474 2.03365,4.10533 4.563,-2.86926 c -1.74391,-5.0794 -1.77872,-11.155763 -12.61704,-8.900113 z"
     fill="#2f2e41"
     id="path434" />
</svg>
